<svg width="42" height="41" viewBox="0 0 42 41" fill="none" xmlns="http://www.w3.org/2000/svg">
<path d="M6.84067 5.35254H0.164062C0.181519 4.71728 0.293998 3.22775 1.12829 1.82659C1.5406 1.13369 2.00053 0.679025 2.34949 0.394694H6.84067V5.35254Z" fill="url(#paint0_linear_205_18843)"/>
<path d="M34.7852 5.35254H41.4616C41.4442 4.71728 41.3317 3.22775 40.4974 1.82659C40.085 1.13369 39.6252 0.679025 39.2762 0.394694H34.7852V5.35254Z" fill="url(#paint1_linear_205_18843)"/>
<path fill-rule="evenodd" clip-rule="evenodd" d="M37.0771 19.3653V5.35238C37.095 5.35238 37.0963 5.28307 37.0963 5.23504L37.0962 5.21938L37.0962 5.20919L37.0964 5.19612L37.0965 5.19424L37.0967 5.19424C37.1006 5.10842 37.1064 5.01258 37.1149 4.90809C37.1762 4.15853 37.378 2.96294 38.055 1.82643C38.4672 1.13353 38.9272 0.678862 39.2762 0.394531H39.2726L39.2762 0.391602H38.3876H19.7686H3.09388H2.34863L2.34932 0.392161H2.34863L2.35153 0.394531H2.34863C2.69759 0.678862 3.15747 1.13353 3.56987 1.82643C3.87226 2.33453 4.07981 2.85401 4.22238 3.34014C4.44356 4.09569 4.50793 4.7707 4.5276 5.19677L4.52839 5.19675L4.52841 5.1973L4.52832 5.1973L4.52886 5.20727C4.53121 5.26025 4.53277 5.30862 4.53411 5.35238H4.57074V19.3577V19.3606V28.9852V28.9882L5.22458 29.4517L19.8527 39.8229L20.6568 40.3931L36.2924 29.5333L37.0771 28.9882V28.9852V19.3682V19.3653Z" fill="url(#paint2_linear_205_18843)"/>
<path d="M11.9705 22.9046V21.3646L16.5485 14.8126H18.8305V21.1966H20.0625V22.9046H18.8305V24.8926H16.8705V22.9046H11.9705ZM16.9965 16.9126L14.1265 21.1966H16.9965V16.9126ZM21.3104 19.6566C21.3104 18.0419 21.5997 16.7772 22.1784 15.8626C22.7664 14.9479 23.737 14.4906 25.0904 14.4906C26.4437 14.4906 27.4097 14.9479 27.9884 15.8626C28.5764 16.7772 28.8704 18.0419 28.8704 19.6566C28.8704 21.2806 28.5764 22.5546 27.9884 23.4786C27.4097 24.4026 26.4437 24.8646 25.0904 24.8646C23.737 24.8646 22.7664 24.4026 22.1784 23.4786C21.5997 22.5546 21.3104 21.2806 21.3104 19.6566ZM26.9384 19.6566C26.9384 18.9659 26.8917 18.3872 26.7984 17.9206C26.7144 17.4446 26.537 17.0572 26.2664 16.7586C26.005 16.4599 25.613 16.3106 25.0904 16.3106C24.5677 16.3106 24.171 16.4599 23.9004 16.7586C23.639 17.0572 23.4617 17.4446 23.3684 17.9206C23.2844 18.3872 23.2424 18.9659 23.2424 19.6566C23.2424 20.3659 23.2844 20.9632 23.3684 21.4486C23.4524 21.9246 23.6297 22.3119 23.9004 22.6106C24.171 22.8999 24.5677 23.0446 25.0904 23.0446C25.613 23.0446 26.0097 22.8999 26.2804 22.6106C26.551 22.3119 26.7284 21.9246 26.8124 21.4486C26.8964 20.9632 26.9384 20.3659 26.9384 19.6566Z" fill="white"/>
<defs>
<linearGradient id="paint0_linear_205_18843" x1="3.50237" y1="5.35254" x2="3.50237" y2="0.394694" gradientUnits="userSpaceOnUse">
<stop stop-color="#96B230"/>
<stop offset="1" stop-color="#869A35"/>
</linearGradient>
<linearGradient id="paint1_linear_205_18843" x1="38.1234" y1="5.35254" x2="38.1234" y2="0.394694" gradientUnits="userSpaceOnUse">
<stop stop-color="#96B230"/>
<stop offset="1" stop-color="#869A35"/>
</linearGradient>
<linearGradient id="paint2_linear_205_18843" x1="20.8124" y1="0.391602" x2="20.8124" y2="40.3931" gradientUnits="userSpaceOnUse">
<stop stop-color="#96B230"/>
<stop offset="1" stop-color="#869A35"/>
</linearGradient>
</defs>
</svg>
