<svg width="47" height="47" viewBox="0 0 47 47" fill="none" xmlns="http://www.w3.org/2000/svg">
<path d="M14.4494 39.3965H5.75953C5.624 39.3969 5.49413 39.4509 5.3983 39.5467C5.30247 39.6426 5.24846 39.7724 5.24805 39.908V43.4862C5.24846 43.6217 5.30247 43.7516 5.3983 43.8474C5.49413 43.9432 5.624 43.9973 5.75953 43.9977H14.4494C14.5849 43.9973 14.7148 43.9432 14.8106 43.8474C14.9064 43.7516 14.9605 43.6217 14.9609 43.4862V39.908C14.9605 39.7724 14.9064 39.6426 14.8106 39.5467C14.7148 39.4509 14.5849 39.3969 14.4494 39.3965ZM13.9379 42.9747H6.27046V40.421H13.9379V42.9747Z" fill="#772569"/>
<path d="M25.6951 6.17042H40.0102C40.1458 6.17042 40.2759 6.11653 40.3718 6.02061C40.4677 5.92469 40.5216 5.79459 40.5216 5.65894C40.5216 5.52329 40.4677 5.39319 40.3718 5.29727C40.2759 5.20135 40.1458 5.14746 40.0102 5.14746H25.6951C25.5594 5.14746 25.4293 5.20135 25.3334 5.29727C25.2375 5.39319 25.1836 5.52329 25.1836 5.65894C25.1836 5.79459 25.2375 5.92469 25.3334 6.02061C25.4293 6.11653 25.5594 6.17042 25.6951 6.17042Z" fill="#772569"/>
<path d="M25.6948 9.7473H40.0099C40.0784 9.74949 40.1467 9.73789 40.2106 9.71318C40.2745 9.68848 40.3328 9.65118 40.3821 9.60349C40.4313 9.5558 40.4705 9.49871 40.4972 9.4356C40.524 9.37249 40.5377 9.30464 40.5377 9.23609C40.5377 9.16755 40.524 9.0997 40.4972 9.03659C40.4705 8.97347 40.4313 8.91637 40.3821 8.86868C40.3328 8.821 40.2745 8.7837 40.2106 8.75899C40.1467 8.73429 40.0784 8.72268 40.0099 8.72487H25.6948C25.6263 8.72268 25.5581 8.73429 25.4941 8.75899C25.4302 8.7837 25.3719 8.821 25.3226 8.86868C25.2734 8.91637 25.2343 8.97347 25.2075 9.03659C25.1808 9.0997 25.167 9.16755 25.167 9.23609C25.167 9.30464 25.1808 9.37249 25.2075 9.4356C25.2343 9.49871 25.2734 9.5558 25.3226 9.60349C25.3719 9.65118 25.4302 9.68848 25.4941 9.71318C25.5581 9.73789 25.6263 9.74949 25.6948 9.7473Z" fill="#772569"/>
<path d="M25.6948 13.3264H40.0099C40.0784 13.3286 40.1467 13.317 40.2106 13.2923C40.2745 13.2676 40.3328 13.2303 40.3821 13.1826C40.4313 13.1349 40.4705 13.0778 40.4972 13.0147C40.524 12.9516 40.5377 12.8837 40.5377 12.8152C40.5377 12.7466 40.524 12.6788 40.4972 12.6157C40.4705 12.5526 40.4313 12.4955 40.3821 12.4478C40.3328 12.4001 40.2745 12.3628 40.2106 12.3381C40.1467 12.3134 40.0784 12.3018 40.0099 12.304H25.6948C25.6263 12.3018 25.5581 12.3134 25.4941 12.3381C25.4302 12.3628 25.3719 12.4001 25.3226 12.4478C25.2734 12.4955 25.2343 12.5526 25.2075 12.6157C25.1808 12.6788 25.167 12.7466 25.167 12.8152C25.167 12.8837 25.1808 12.9516 25.2075 13.0147C25.2343 13.0778 25.2734 13.1349 25.3226 13.1826C25.3719 13.2303 25.4302 13.2676 25.4941 13.2923C25.5581 13.317 25.6263 13.3286 25.6948 13.3264Z" fill="#772569"/>
<path d="M17.5164 16.9058H40.0083C40.1439 16.9058 40.274 16.8519 40.37 16.7559C40.4659 16.66 40.5198 16.5299 40.5198 16.3943C40.5198 16.2586 40.4659 16.1285 40.37 16.0326C40.274 15.9367 40.1439 15.8828 40.0083 15.8828H17.5164C17.3807 15.8828 17.2506 15.9367 17.1547 16.0326C17.0588 16.1285 17.0049 16.2586 17.0049 16.3943C17.0049 16.5299 17.0588 16.66 17.1547 16.7559C17.2506 16.8519 17.3807 16.9058 17.5164 16.9058Z" fill="#772569"/>
<path d="M17.5164 20.4827H40.0083C40.0768 20.4848 40.145 20.4732 40.209 20.4485C40.2729 20.4238 40.3312 20.3865 40.3805 20.3388C40.4297 20.2912 40.4689 20.2341 40.4956 20.171C40.5223 20.1078 40.5361 20.04 40.5361 19.9714C40.5361 19.9029 40.5223 19.8351 40.4956 19.7719C40.4689 19.7088 40.4297 19.6517 40.3805 19.604C40.3312 19.5563 40.2729 19.519 40.209 19.4943C40.145 19.4696 40.0768 19.458 40.0083 19.4602H17.5164C17.3807 19.4602 17.2506 19.5141 17.1547 19.61C17.0588 19.706 17.0049 19.836 17.0049 19.9717C17.0049 20.1074 17.0588 20.2375 17.1547 20.3334C17.2506 20.4293 17.3807 20.4832 17.5164 20.4832V20.4827Z" fill="#772569"/>
<path d="M17.5164 24.062H40.0083C40.1439 24.062 40.274 24.0081 40.37 23.9122C40.4659 23.8163 40.5198 23.6862 40.5198 23.5505C40.5198 23.4149 40.4659 23.2848 40.37 23.1889C40.274 23.093 40.1439 23.0391 40.0083 23.0391H17.5164C17.3807 23.0391 17.2506 23.093 17.1547 23.1889C17.0588 23.2848 17.0049 23.4149 17.0049 23.5505C17.0049 23.6862 17.0588 23.8163 17.1547 23.9122C17.2506 24.0081 17.3807 24.062 17.5164 24.062Z" fill="#772569"/>
<path d="M17.5164 27.6401H40.0083C40.1439 27.6401 40.274 27.5863 40.37 27.4903C40.4659 27.3944 40.5198 27.2643 40.5198 27.1287C40.5198 26.993 40.4659 26.8629 40.37 26.767C40.274 26.6711 40.1439 26.6172 40.0083 26.6172H17.5164C17.3807 26.6172 17.2506 26.6711 17.1547 26.767C17.0588 26.8629 17.0049 26.993 17.0049 27.1287C17.0049 27.2643 17.0588 27.3944 17.1547 27.4903C17.2506 27.5863 17.3807 27.6401 17.5164 27.6401Z" fill="#772569"/>
<path d="M17.5164 31.2183H32.8518C32.9875 31.2183 33.1175 31.1644 33.2134 31.0685C33.3094 30.9725 33.3632 30.8424 33.3632 30.7068C33.3632 30.5711 33.3094 30.441 33.2134 30.3451C33.1175 30.2492 32.9875 30.1953 32.8518 30.1953H17.5164C17.3807 30.1953 17.2506 30.2492 17.1547 30.3451C17.0588 30.441 17.0049 30.5711 17.0049 30.7068C17.0049 30.8424 17.0588 30.9725 17.1547 31.0685C17.2506 31.1644 17.3807 31.2183 17.5164 31.2183Z" fill="#772569"/>
<path d="M33.3625 34.2852C33.3622 34.1497 33.3083 34.0198 33.2126 33.924C33.1168 33.8282 32.987 33.7741 32.8516 33.7737H17.5161C17.4476 33.7715 17.3794 33.7831 17.3154 33.8078C17.2515 33.8325 17.1932 33.8698 17.1439 33.9175C17.0947 33.9652 17.0555 34.0223 17.0288 34.0854C17.0021 34.1485 16.9883 34.2164 16.9883 34.2849C16.9883 34.3535 17.0021 34.4213 17.0288 34.4844C17.0555 34.5475 17.0947 34.6046 17.1439 34.6523C17.1932 34.7 17.2515 34.7373 17.3154 34.762C17.3794 34.7867 17.4476 34.7983 17.5161 34.7961H32.8516C32.9869 34.7957 33.1167 34.7418 33.2124 34.646C33.3081 34.5503 33.3621 34.4206 33.3625 34.2852Z" fill="#772569"/>
<path d="M17.5159 13.3264H22.1165C22.252 13.3262 22.3819 13.2723 22.4777 13.1765C22.5736 13.0808 22.6276 12.951 22.628 12.8155V5.65796C22.6276 5.52244 22.5736 5.39257 22.4777 5.29674C22.3819 5.20091 22.252 5.1469 22.1165 5.14648H17.5159C17.3804 5.14704 17.2507 5.20111 17.155 5.29693C17.0593 5.39275 17.0053 5.52253 17.0049 5.65796V12.8155C17.0053 12.9509 17.0593 13.0806 17.155 13.1763C17.2507 13.2721 17.3805 13.326 17.5159 13.3264ZM18.0273 6.16892H21.6056V12.303H18.0273V6.16892Z" fill="#772569"/>
<path d="M45.12 42.9752H44.6085V39.9084H45.12C45.4828 39.9107 45.8346 39.7841 46.1128 39.5511C46.3909 39.3181 46.5773 38.994 46.6387 38.6364C46.7001 38.2788 46.6326 37.911 46.4481 37.5986C46.2636 37.2862 45.9742 37.0494 45.6314 36.9305V1.06076C45.6309 0.925323 45.5768 0.795603 45.481 0.699884C45.3852 0.604166 45.2554 0.550217 45.12 0.549805H11.3818C11.2464 0.550217 11.1166 0.604166 11.0208 0.699884C10.925 0.795603 10.8709 0.925323 10.8704 1.06076V11.562C9.18828 8.84398 6.78992 6.64193 3.93852 5.1975C3.87812 5.16789 3.81248 5.15047 3.74534 5.14626C3.67821 5.14205 3.61091 5.15113 3.54729 5.17296C3.48367 5.1948 3.42498 5.22899 3.37459 5.27354C3.32419 5.31809 3.28305 5.37213 3.25357 5.43259C1.51698 9.44498 0.629376 13.7733 0.64656 18.1453C0.64656 21.2226 2.10943 24.3625 4.87841 27.2244C5.9493 28.3272 7.1275 29.3204 8.39553 30.1893H6.01317C5.47116 30.1878 4.94611 30.3783 4.53115 30.727C4.1162 31.0757 3.83815 31.5601 3.7463 32.0942C3.65445 32.6284 3.75474 33.1778 4.0294 33.6451C4.30406 34.1124 4.73532 34.4673 5.24671 34.6469V36.326H4.73523C3.651 36.3274 2.61157 36.7587 1.8449 37.5254C1.07823 38.2921 0.64689 39.3315 0.645508 40.4157V45.5279C0.646335 45.7987 0.754264 46.0581 0.945731 46.2496C1.1372 46.441 1.39667 46.549 1.66745 46.5498H18.5368C18.8076 46.549 19.0671 46.4411 19.2586 46.2496C19.4502 46.0582 19.5582 45.7987 19.5592 45.5279V42.9721H23.9148C24.2328 43.8683 24.8203 44.6441 25.5967 45.1933C26.373 45.7424 27.3002 46.0379 28.2512 46.0394H45.1205C45.5273 46.0394 45.9173 45.8778 46.2049 45.5902C46.4926 45.3026 46.6541 44.9125 46.6541 44.5057C46.6541 44.099 46.4926 43.7089 46.2049 43.4213C45.9173 43.1337 45.5273 42.9721 45.1205 42.9721L45.12 42.9752ZM43.5861 40.9309H29.7903C29.6546 40.9309 29.5246 40.9848 29.4286 41.0807C29.3327 41.1766 29.2788 41.3067 29.2788 41.4423C29.2788 41.578 29.3327 41.7081 29.4286 41.804C29.5246 41.8999 29.6546 41.9538 29.7903 41.9538H43.5866V42.9757H28.7621C28.3603 42.9683 27.9774 42.8035 27.6958 42.5167C27.4143 42.2299 27.2565 41.844 27.2565 41.4421C27.2565 41.0402 27.4143 40.6543 27.6958 40.3675C27.9774 40.0807 28.3603 39.9159 28.7621 39.9084H43.5861V40.9309ZM12.3327 17.2169L10.5642 18.5408C10.4881 18.5995 10.43 18.6784 10.3965 18.7684C10.3629 18.8585 10.3553 18.9561 10.3745 19.0503C10.3936 19.1445 10.4388 19.2314 10.5048 19.3012C10.5708 19.371 10.6551 19.4209 10.7481 19.4452L12.4048 19.8595C12.3332 25.5019 10.7946 28.0588 9.84897 29.1021C9.78732 21.6181 8.18237 14.4919 4.82407 6.87561C9.99213 10.1367 11.9246 15.8163 12.3337 17.2169H12.3327ZM1.66901 18.1516C1.68455 14.3217 2.38395 10.5254 3.73425 6.94143C7.15419 14.5989 8.78475 21.7398 8.8255 29.239C6.83236 27.8383 1.66796 23.677 1.66796 18.1464L1.66901 18.1516ZM4.73629 32.4959C4.73656 32.1571 4.87131 31.8322 5.1109 31.5926C5.3505 31.353 5.67535 31.2183 6.01419 31.218H14.1931C14.5321 31.218 14.8571 31.3527 15.0967 31.5923C15.3364 31.832 15.471 32.157 15.471 32.4959C15.471 32.8349 15.3364 33.1599 15.0967 33.3996C14.8571 33.6392 14.5321 33.7738 14.1931 33.7738H6.01473C5.67571 33.7737 5.35063 33.639 5.1109 33.3992C4.87118 33.1595 4.73642 32.8344 4.73629 32.4954V32.4959ZM6.27021 34.7947H13.9361V36.3281H6.27021V34.7947ZM18.5383 45.5295H1.66952V40.4178C1.67021 39.6045 1.99361 38.8248 2.56869 38.2497C3.14377 37.6746 3.92354 37.3512 4.73683 37.3505H15.4721C16.2854 37.3512 17.0651 37.6746 17.6402 38.2497C18.2153 38.8248 18.5387 39.6045 18.5394 40.4178V45.5295H18.5383ZM19.5608 41.9512V40.4178C19.5594 39.3336 19.1281 38.2942 18.3614 37.5275C17.5947 36.7608 16.5553 36.3295 15.471 36.3281H14.9595V34.6542C15.4713 34.4748 15.903 34.12 16.178 33.6526C16.4529 33.1852 16.5534 32.6355 16.4615 32.1011C16.3696 31.5666 16.0913 31.082 15.6761 30.7333C15.2608 30.3845 14.7354 30.1942 14.1931 30.1961H10.2011C11.2982 29.2202 13.4267 26.4345 13.4267 19.4614C13.427 19.3471 13.3888 19.236 13.3183 19.1461C13.2478 19.0562 13.1491 18.9926 13.038 18.9656L12.0359 18.7153L13.2219 17.8272C13.3014 17.7674 13.3616 17.6857 13.3952 17.5921C13.4288 17.4986 13.4343 17.3972 13.411 17.3005C13.0522 15.9347 12.543 14.6128 11.8928 13.3592V1.56857H44.609V36.8401H28.2512C27.0316 36.8419 25.8624 37.3272 25 38.1896C24.1376 39.052 23.6523 40.2212 23.6505 41.4408C23.6504 41.6117 23.6607 41.7825 23.6813 41.9522L19.5608 41.9512ZM45.12 45.0185H28.2512C27.302 45.0185 26.3918 44.6415 25.7206 43.9703C25.0494 43.2992 24.6724 42.3889 24.6724 41.4397C24.6724 40.4906 25.0494 39.5803 25.7206 38.9092C26.3918 38.238 27.302 37.861 28.2512 37.861H45.1205C45.2562 37.861 45.3863 37.9148 45.4822 38.0108C45.5781 38.1067 45.632 38.2368 45.632 38.3724C45.632 38.5081 45.5781 38.6382 45.4822 38.7341C45.3863 38.83 45.2562 38.8839 45.1205 38.8839H28.7627C28.0848 38.8839 27.4347 39.1532 26.9554 39.6325C26.4761 40.1118 26.2068 40.7619 26.2068 41.4397C26.2068 42.1176 26.4761 42.7677 26.9554 43.247C27.4347 43.7263 28.0848 43.9955 28.7627 43.9955H45.1205C45.2562 43.9955 45.3863 44.0494 45.4822 44.1454C45.5781 44.2413 45.632 44.3714 45.632 44.507C45.632 44.6427 45.5781 44.7728 45.4822 44.8687C45.3863 44.9646 45.2562 45.0185 45.1205 45.0185H45.12Z" fill="#772569"/>
</svg>
