<svg width="101" height="101" viewBox="0 0 101 101" fill="none" xmlns="http://www.w3.org/2000/svg">
<path d="M0.645511 50.1903C0.644241 51.4309 1.07324 52.6336 1.85936 53.5933C2.64548 54.5531 3.7401 55.2105 4.95666 55.4536C6.17322 55.6967 7.43641 55.5104 8.531 54.9265C9.62558 54.3425 10.4839 53.3971 10.9595 52.2513C11.4351 51.1055 11.4985 49.8302 11.1392 48.6428C10.7798 47.4553 10.0199 46.4292 8.98879 45.7394C7.95767 45.0495 6.71923 44.7386 5.48453 44.8595C4.24984 44.9805 3.09532 45.5259 2.21769 46.4027C1.21298 47.4074 0.647548 48.7695 0.645511 50.1903ZM6.00201 48.4041C6.35473 48.4043 6.69942 48.5091 6.99262 48.7052C7.28582 48.9012 7.51428 49.1798 7.64921 49.5057C7.78414 49.8316 7.81954 50.1901 7.75076 50.5361C7.68197 50.882 7.51213 51.1998 7.2628 51.4493C7.01346 51.6988 6.69584 51.8687 6.34994 51.9377C6.00403 52.0067 5.64538 51.9716 5.31941 51.8369C4.99344 51.7022 4.71474 51.4739 4.5185 51.1808C4.32225 50.8877 4.21728 50.543 4.21686 50.1903C4.21643 49.9557 4.26227 49.7233 4.35181 49.5065C4.44136 49.2896 4.57292 49.0926 4.73875 48.9267C4.90458 48.7608 5.10146 48.6292 5.31824 48.5395C5.53502 48.4498 5.76741 48.4038 6.00201 48.4041Z" fill="#772569"/>
<path d="M32.7894 10.9081C32.7898 9.25508 32.217 7.65311 31.1686 6.37508C30.1202 5.09706 28.6611 4.22207 27.0399 3.89927C25.4187 3.57648 23.7357 3.82583 22.2777 4.60482C20.8197 5.38381 19.6771 6.64424 19.0443 8.17135C18.4115 9.69846 18.3277 11.3978 18.8074 12.9797C19.287 14.5616 20.3003 15.9283 21.6747 16.8468C23.049 17.7653 24.6993 18.1788 26.3444 18.0169C27.9895 17.855 29.5276 17.1277 30.6965 15.9589C32.0344 14.6182 32.7869 12.8022 32.7894 10.9081ZM22.0692 10.9081C22.0673 10.0803 22.3527 9.27746 22.8766 8.63643C23.4004 7.9954 24.1303 7.55585 24.9419 7.39274C25.7535 7.22963 26.5967 7.35302 27.3275 7.7419C28.0583 8.13078 28.6317 8.76109 28.9499 9.52537C29.268 10.2896 29.3112 11.1406 29.0722 11.9332C28.8332 12.7258 28.3268 13.411 27.6391 13.872C26.9515 14.333 26.1253 14.5413 25.3013 14.4613C24.4773 14.3814 23.7065 14.0181 23.1204 13.4335C22.7876 13.1024 22.5235 12.7089 22.3431 12.2756C22.1627 11.8422 22.0697 11.3775 22.0692 10.9081Z" fill="#772569"/>
<path d="M48.8573 59.121C50.9242 59.1225 52.9278 58.4073 54.5264 57.0971C56.125 55.7869 57.2197 53.9629 57.6242 51.936C58.0286 49.9091 57.7177 47.8046 56.7444 45.9812C55.771 44.1579 54.1955 42.7284 52.2863 41.9366C50.3771 41.1447 48.2524 41.0393 46.2742 41.6384C44.2961 42.2376 42.587 43.5041 41.4381 45.2222C40.2891 46.9404 39.7715 49.0038 39.9734 51.0608C40.1754 53.1178 41.0844 55.0411 42.5456 56.503C43.3741 57.3326 44.3579 57.9908 45.4409 58.44C46.524 58.8893 47.6848 59.1206 48.8573 59.121ZM48.8573 44.8358C50.0941 44.8375 51.292 45.268 52.2472 46.0537C53.2023 46.8394 53.8556 47.9319 54.0958 49.1452C54.3359 50.3584 54.1482 51.6174 53.5645 52.7077C52.9808 53.7981 52.0371 54.6524 50.8943 55.1253C49.7515 55.5982 48.4802 55.6603 47.2967 55.3011C46.1132 54.942 45.0908 54.1838 44.4035 53.1555C43.7163 52.1273 43.4066 50.8925 43.5273 49.6617C43.6481 48.4308 44.1916 47.2798 45.0656 46.4047C45.5631 45.9062 46.1541 45.511 46.8048 45.2418C47.4556 44.9725 48.1531 44.8345 48.8573 44.8358Z" fill="#772569"/>
<path d="M95.2852 44.834C94.0444 44.8327 92.8416 45.2618 91.8817 46.0482C90.9219 46.8345 90.2646 47.9294 90.0217 49.1462C89.7788 50.363 89.9655 51.6263 90.5498 52.7209C91.1342 53.8155 92.0801 54.6735 93.2263 55.1487C94.3725 55.6239 95.648 55.6869 96.8354 55.3269C98.0229 54.9668 99.0487 54.2061 99.738 53.1744C100.427 52.1427 100.737 50.9038 100.615 49.669C100.494 48.4342 99.9473 47.2799 99.0696 46.4029C98.0655 45.3996 96.7046 44.8354 95.2852 44.834ZM95.2852 51.9766C94.8729 51.976 94.4735 51.8324 94.1551 51.5704C93.8367 51.3084 93.6189 50.9441 93.5388 50.5396C93.4588 50.1351 93.5215 49.7154 93.7162 49.3519C93.9108 48.9884 94.2254 48.7036 94.6064 48.546C94.9874 48.3884 95.4114 48.3677 95.806 48.4875C96.2005 48.6073 96.5413 48.8601 96.7704 49.2029C96.9995 49.5458 97.1027 49.9575 97.0625 50.3678C97.0222 50.7782 96.8408 51.1619 96.5494 51.4536C96.3834 51.6197 96.1863 51.7514 95.9694 51.8411C95.7524 51.9309 95.52 51.9769 95.2852 51.9766Z" fill="#772569"/>
<path d="M5.02313 26.1367C2.52652 30.6932 5.00717 37.2074 12.1956 44.9667C13.7986 46.7018 15.6167 48.4518 17.5829 50.1975C7.5975 58.9847 1.62547 68.0626 5.03809 74.2637C6.15965 76.3077 8.80636 78.6914 14.9606 79.0737H14.9681C15.0655 80.3045 15.5756 81.4664 16.4157 82.3711C17.2559 83.2758 18.3768 83.8704 19.597 84.0585C19.8636 84.0989 20.1327 84.12 20.4022 84.1213C21.5643 84.1196 22.6947 83.7426 23.6253 83.0466C24.3908 82.4834 24.9961 81.7301 25.3813 80.8613C25.7665 79.9925 25.9182 79.0382 25.8215 78.0928C28.2784 77.6078 30.8378 76.9588 33.4999 76.1457C36.3203 89.8633 41.5181 100.188 48.8568 100.188C56.1954 100.188 61.3941 89.8633 64.2219 76.1394C65.7387 76.6027 67.2234 77.0053 68.6699 77.3653C68.3819 79.0325 68.5796 80.7474 69.2392 82.3054C69.8989 83.8634 70.9927 85.1989 72.3903 86.1525C73.3352 86.807 74.4009 87.2671 75.5253 87.5057C76.6498 87.7443 77.8105 87.7568 78.9398 87.5424C80.9993 87.1383 82.8494 86.0183 84.1622 84.3807C85.475 82.7431 86.1657 80.6936 86.1121 78.5955C87.4582 78.3907 88.7435 77.8951 89.8786 77.1431C91.0137 76.3912 91.9713 75.401 92.6849 74.2414C95.189 69.6848 92.7084 63.1706 85.52 55.4112C83.9159 53.6762 82.0989 51.9273 80.1327 50.1816C90.1181 41.3944 96.0816 32.326 92.6775 26.1154C89.1467 19.6874 77.5966 20.0975 64.2061 24.2227C64.0005 23.2215 63.7715 22.2405 63.5425 21.2787C65.6019 20.6941 67.3828 19.3891 68.5605 17.6013C69.7383 15.8136 70.2345 13.6622 69.9587 11.5392C69.683 9.41623 68.6536 7.46297 67.0583 6.0354C65.463 4.60784 63.4079 3.80101 61.2674 3.7619C59.6904 3.77043 58.146 4.21261 56.8035 5.04005C53.8212 1.09914 50.8869 0.188477 48.8568 0.188477C41.5181 0.188477 36.3119 10.52 33.484 24.2397C30.6169 23.3485 27.7007 22.6234 24.75 22.068C14.346 20.1657 7.52084 21.5791 5.01676 26.1314L5.02313 26.1367ZM21.494 80.1772C21.3011 80.3271 21.0797 80.4361 20.8433 80.4975C20.6068 80.5588 20.3603 80.5712 20.1189 80.534C19.74 80.468 19.389 80.2922 19.1091 80.0285C18.8292 79.7647 18.6329 79.4246 18.5445 79.0503C18.4562 78.676 18.4796 78.284 18.612 77.923C18.7444 77.5619 18.9799 77.2476 19.2893 77.0191C19.6058 76.7805 19.991 76.6509 20.3874 76.6496C20.4773 76.6496 20.567 76.6568 20.6558 76.6709C21.0352 76.7358 21.3873 76.9107 21.6681 77.174C21.9489 77.4373 22.1462 77.7772 22.2354 78.1517C22.3246 78.5262 22.3018 78.9187 22.1698 79.2803C22.0378 79.6419 21.8024 79.9568 21.493 80.1857L21.494 80.1772ZM24.2825 74.7569C23.3782 73.7958 22.1512 73.202 20.8364 73.0894C19.5216 72.9768 18.2114 73.3532 17.1568 74.1466C16.651 74.5305 16.2154 74.9989 15.8691 75.5312C11.9506 75.3778 9.15899 74.3596 8.16737 72.5489C6.10532 68.7997 10.6406 61.0574 20.3491 52.5504C23.8731 55.4246 27.5575 58.0963 31.3846 60.5526C31.685 64.6884 32.1664 68.7539 32.8151 72.6138C30.0152 73.4929 27.1655 74.2084 24.2825 74.7569ZM41.9783 37.6708C44.3215 36.3926 46.5997 35.2349 48.8588 34.1559C51.1424 35.2551 53.4324 36.415 55.732 37.6708C58.2041 39.0277 60.59 40.44 62.8971 41.8897C63.0547 44.6185 63.142 47.3963 63.142 50.1975C63.142 53.0552 63.0546 55.8224 62.9055 58.4873C60.6304 59.9167 58.2606 61.3322 55.7406 62.7179C53.4495 63.9683 51.151 65.1346 48.8514 66.2327C46.5604 65.1346 44.2714 63.9694 41.9867 62.7179C39.5135 61.3577 37.1277 59.9422 34.8132 58.4948C34.663 55.8267 34.5768 53.0531 34.5768 50.1965C34.5768 47.3398 34.663 44.5716 34.8132 41.9067C37.0883 40.4773 39.4582 39.0607 41.9783 37.6761V37.6708ZM35.1445 37.4919C35.4207 34.457 35.7892 31.5897 36.25 28.89C38.9916 29.8486 41.8036 30.9638 44.6644 32.2164C43.1871 32.9619 41.7098 33.7384 40.2645 34.5383C38.5422 35.4894 36.8284 36.48 35.1455 37.5004L35.1445 37.4919ZM53.0532 32.2142C55.9599 30.9361 58.7644 29.8326 61.4432 28.8964C61.9012 31.6476 62.2803 34.518 62.5487 37.4833C60.8818 36.4789 59.1829 35.4884 57.4361 34.5298C55.9748 33.7317 54.5135 32.9623 53.0522 32.2217L53.0532 32.2142ZM66.5802 44.2819C69.4326 46.2066 72.1262 48.1802 74.5983 50.1741C72.189 52.1297 69.4954 54.1033 66.5802 56.0663C66.6676 54.1129 66.7097 52.1548 66.7069 50.1922C66.7069 48.1972 66.6516 46.2353 66.5802 44.2893V44.2819ZM62.5668 62.8841C62.2909 65.9207 61.9118 68.7858 61.4613 71.4827C58.7122 70.5241 55.8992 69.4164 53.0469 68.167C54.5082 67.4236 55.9748 66.6496 57.4468 65.8451C59.1737 64.8943 60.8825 63.9073 62.5732 62.8841H62.5668ZM44.6505 68.1521C41.7992 69.4025 38.9864 70.5145 36.2363 71.4752C35.7861 68.7769 35.42 65.9129 35.1381 62.883C36.8125 63.8927 38.5112 64.8864 40.257 65.8472C41.7183 66.6471 43.1881 67.4118 44.6505 68.1521ZM31.1237 56.094C28.2713 54.1693 25.5777 52.1978 23.113 50.2018C25.5223 48.2463 28.2159 46.2737 31.1237 44.3096C31.0441 46.2701 31.0048 48.2313 31.0055 50.1933C31.0062 52.1552 31.0485 54.1221 31.1323 56.094H31.1237ZM48.8588 96.6204C44.4269 96.6204 39.6637 88.4126 36.9061 75.0444C40.9775 73.637 44.9726 72.0176 48.8748 70.1928C52.7657 72.0082 56.7473 73.6222 60.804 75.0284C58.055 88.4041 53.2908 96.6204 48.8588 96.6204ZM78.2858 84.0361C77.6178 84.1612 76.9316 84.1523 76.2671 84.0098C75.6026 83.8674 74.9731 83.5943 74.4151 83.2064C73.5498 82.6043 72.8797 81.762 72.4876 80.7836C72.0955 79.8051 71.9985 78.7332 72.2085 77.7002C72.4184 76.6672 72.9263 75.7182 73.6693 74.9705C74.4124 74.2228 75.3582 73.709 76.3898 73.4926C76.706 73.4337 77.0269 73.4037 77.3485 73.4031C78.3909 73.4041 79.408 73.7237 80.2636 74.3191C81.1287 74.9215 81.7985 75.7639 82.1905 76.7425C82.5825 77.7211 82.6795 78.793 82.4695 79.826C82.2595 80.8591 81.7517 81.8081 81.0089 82.556C80.266 83.304 79.3205 83.8181 78.2889 84.0351L78.2858 84.0361ZM82.8987 57.8429C88.6897 64.093 91.1779 69.5783 89.5578 72.5265C89.0699 73.2223 88.4446 73.8108 87.7204 74.2556C86.9963 74.7004 86.1887 74.992 85.3475 75.1126C84.6932 73.6087 83.6351 72.3154 82.2906 71.3762C81.3175 70.7046 80.2176 70.2384 79.0582 70.0063C77.8988 69.7741 76.7043 69.7808 75.5476 70.0259C74.3909 70.271 73.2963 70.7495 72.3308 71.432C71.3653 72.1145 70.5491 72.9867 69.9321 73.9953C68.2971 73.6012 66.6217 73.1432 64.9005 72.6107C65.5566 68.7443 66.038 64.6702 66.3384 60.527C70.1628 58.0581 73.8496 55.3825 77.3825 52.512C79.3142 54.1902 81.1558 55.9693 82.8997 57.8418L82.8987 57.8429ZM89.5503 27.8451C91.6124 31.5943 87.0782 39.3366 77.3686 47.8437C73.8444 44.9706 70.16 42.3 66.333 39.8447C66.0532 35.799 65.5704 31.77 64.8866 27.7727C77.9214 23.7658 87.4169 23.9553 89.5503 27.8387V27.8451ZM66.4992 12.6939C66.4749 13.7234 66.1473 14.7228 65.5576 15.5671C64.9679 16.4113 64.1423 17.0627 63.184 17.4398C62.2257 17.8169 61.1775 17.9028 60.1706 17.6869C59.1637 17.471 58.2429 16.9628 57.5235 16.226C56.8041 15.4892 56.3181 14.5565 56.1263 13.5447C55.9346 12.5329 56.0457 11.4871 56.4457 10.5381C56.8456 9.58918 57.5165 8.7793 58.3746 8.20996C59.2327 7.64062 60.2397 7.33713 61.2695 7.33747C62.6727 7.35601 64.0114 7.93034 64.9918 8.93449C65.9722 9.93864 66.5143 11.2906 66.4992 12.6939ZM48.8588 3.76619C50.9603 3.76619 52.8083 5.59924 54.1514 7.4749C53.2607 8.70358 52.6989 10.1395 52.5194 11.6464C52.3398 13.1533 52.5485 14.681 53.1255 16.0846C53.7025 17.4881 54.6287 18.7209 55.8162 19.6658C57.0038 20.6107 58.4131 21.2363 59.9104 21.4832C60.2264 22.728 60.5186 24.0147 60.787 25.3432C56.7396 26.7633 52.766 28.3801 48.8662 30.1937C44.9669 28.371 40.9748 26.7541 36.9061 25.3496C39.6637 11.9803 44.4269 3.76619 48.8588 3.76619ZM32.8225 27.7695C32.1589 31.6337 31.685 35.7067 31.3846 39.85C27.5577 42.3186 23.8683 44.9941 20.3331 47.8649C18.4017 46.1865 16.5587 44.4089 14.8116 42.5394C9.02908 36.2893 6.53993 30.8051 8.15996 27.8558C9.77999 24.9065 15.736 24.0619 24.1174 25.585C27.0593 26.1418 29.966 26.8719 32.8225 27.7695Z" fill="#772569"/>
</svg>
