<svg width="21" height="21" viewBox="0 0 21 21" fill="none" xmlns="http://www.w3.org/2000/svg">
<path d="M20.5853 18.2319C19.929 17.6468 19.3545 16.9761 18.8771 16.2378C18.356 15.2187 18.0436 14.1058 17.9584 12.9644V9.60243C17.9629 7.80958 17.3125 6.0768 16.1295 4.72963C14.9465 3.38247 13.3123 2.51367 11.5339 2.28646V1.40854C11.5339 1.16758 11.4382 0.93649 11.2678 0.766106C11.0974 0.595721 10.8663 0.5 10.6254 0.5C10.3844 0.5 10.1533 0.595721 9.98293 0.766106C9.81255 0.93649 9.71683 1.16758 9.71683 1.40854V2.30007C7.95436 2.54366 6.33989 3.41772 5.17244 4.76035C4.00498 6.10299 3.36366 7.82322 3.36724 9.60243V12.9644C3.28201 14.1058 2.96965 15.2187 2.44849 16.2378C1.97951 16.9744 1.41418 17.6451 0.767522 18.2319C0.694928 18.2957 0.636747 18.3742 0.59685 18.4622C0.556953 18.5502 0.536255 18.6457 0.536133 18.7423V19.6678C0.536133 19.8483 0.607834 20.0214 0.735463 20.1491C0.863092 20.2767 1.03619 20.3484 1.21669 20.3484H20.1361C20.3166 20.3484 20.4897 20.2767 20.6174 20.1491C20.745 20.0214 20.8167 19.8483 20.8167 19.6678V18.7423C20.8166 18.6457 20.7959 18.5502 20.756 18.4622C20.7161 18.3742 20.6579 18.2957 20.5853 18.2319ZM1.95169 18.9873C2.58488 18.3756 3.14239 17.6902 3.61224 16.9456C4.26872 15.7148 4.65175 14.3568 4.73516 12.9644V9.60243C4.70817 8.80484 4.84196 8.00998 5.12855 7.26518C5.41515 6.52037 5.84869 5.84085 6.40337 5.26709C6.95805 4.69332 7.62251 4.23704 8.3572 3.92542C9.09189 3.6138 9.88177 3.45321 10.6798 3.45321C11.4779 3.45321 12.2677 3.6138 13.0024 3.92542C13.7371 4.23704 14.4016 4.69332 14.9563 5.26709C15.5109 5.84085 15.9445 6.52037 16.2311 7.26518C16.5177 8.00998 16.6515 8.80484 16.6245 9.60243V12.9644C16.7079 14.3568 17.0909 15.7148 17.7474 16.9456C18.2172 17.6902 18.7747 18.3756 19.4079 18.9873H1.95169Z" fill="#779500"/>
</svg>
