<svg version="1.2" xmlns="http://www.w3.org/2000/svg" viewBox="0 0 1118 61" width="1118" height="61">
	<title>bread_bg2-svg</title>
	<defs>
		<clipPath clipPathUnits="userSpaceOnUse" id="cp1">
			<path d="m7.25 15.1c0-8.84 7.16-16 16-16h1070.96c8.84 0 16 7.16 16 16v28c0 8.83-7.16 16-16 16h-1070.96c-8.84 0-16-7.17-16-16z"/>
		</clipPath>
		<linearGradient id="g1" x1="747.8" y1="-275.3" x2="747.8" y2="44.3" gradientUnits="userSpaceOnUse">
			<stop offset="0" stop-color="#edf3d6"/>
			<stop offset="1" stop-color="#eed3e9"/>
		</linearGradient>
		<linearGradient id="g2" x1="1002.5" y1="9.2" x2="1002.5" y2="328.8" gradientUnits="userSpaceOnUse">
			<stop offset="0" stop-color="#edf3d6"/>
			<stop offset="1" stop-color="#eed3e9"/>
		</linearGradient>
		<linearGradient id="g3" x1="488.9" y1="9.2" x2="488.9" y2="328.8" gradientUnits="userSpaceOnUse">
			<stop offset="0" stop-color="#edf3d6"/>
			<stop offset="1" stop-color="#eed3e9"/>
		</linearGradient>
	</defs>
	<style>
		.s0 { fill: #ffffff } 
		.s1 { opacity: .3;fill: url(#g1) } 
		.s2 { opacity: .3;fill: url(#g2) } 
		.s3 { opacity: .3;fill: url(#g3) } 
	</style>
	<g id="Layer">
		<path id="Layer" class="s0" d="m7.3 15.1c0-8.8 7.1-16 16-16h1070.9c8.8 0 16 7.2 16 16v28c0 8.8-7.2 16-16 16h-1070.9c-8.9 0-16-7.2-16-16z"/>
	</g>
	<g id="Clip-Path" clip-path="url(#cp1)">
		<g id="Layer">
			<path id="Layer" class="s1" d="m747.8 44.3c-88.4 0-159.8-71.4-159.8-159.8 0-88.4 71.4-159.8 159.8-159.8 88.4 0 159.8 71.4 159.8 159.8 0 88.4-71.4 159.8-159.8 159.8z"/>
			<path id="Layer" class="s2" d="m1002.5 328.8c-88.4 0-159.9-71.4-159.9-159.8 0-88.4 71.5-159.8 159.9-159.8 88.4 0 159.8 71.4 159.8 159.8 0 88.4-71.4 159.8-159.8 159.8z"/>
			<path id="Layer" class="s3" d="m488.9 328.8c-88.4 0-159.8-71.4-159.8-159.8 0-88.4 71.4-159.8 159.8-159.8 88.4 0 159.8 71.4 159.8 159.8 0 88.4-71.4 159.8-159.8 159.8z"/>
		</g>
	</g>
</svg>