<svg version="1.2" xmlns="http://www.w3.org/2000/svg" viewBox="0 0 1111 59" width="1111" height="59">
	<title>bread_bg-svg</title>
	<defs>
		<clipPath clipPathUnits="userSpaceOnUse" id="cp1">
			<path d="m0.66 15.33c0-8.83 7.17-16 16-16h1070.96c8.84 0 16 7.17 16 16v28c0 8.84-7.16 16-16 16h-1070.96c-8.83 0-16-7.16-16-16z"/>
		</clipPath>
		<linearGradient id="g1" x1="741.2" y1="-275.1" x2="741.2" y2="44.6" gradientUnits="userSpaceOnUse">
			<stop offset="0" stop-color="#edf3d6"/>
			<stop offset="1" stop-color="#eed3e9"/>
		</linearGradient>
		<linearGradient id="g2" x1="995.9" y1="9.4" x2="995.9" y2="329.1" gradientUnits="userSpaceOnUse">
			<stop offset="0" stop-color="#edf3d6"/>
			<stop offset="1" stop-color="#eed3e9"/>
		</linearGradient>
		<linearGradient id="g3" x1="482.3" y1="9.4" x2="482.3" y2="329.1" gradientUnits="userSpaceOnUse">
			<stop offset="0" stop-color="#edf3d6"/>
			<stop offset="1" stop-color="#eed3e9"/>
		</linearGradient>
	</defs>
	<style>
		.s0 { opacity: .3;fill: url(#g1) } 
		.s1 { opacity: .3;fill: url(#g2) } 
		.s2 { opacity: .3;fill: url(#g3) } 
	</style>
	<g id="Clip-Path: Clip-Path" clip-path="url(#cp1)">
		<g id="Clip-Path">
			<g id="Layer">
				<path id="Layer" class="s0" d="m741.2 44.6c-88.4 0-159.8-71.5-159.8-159.9 0-88.3 71.4-159.8 159.8-159.8 88.4 0 159.9 71.5 159.9 159.8 0 88.4-71.5 159.9-159.9 159.9z"/>
				<path id="Layer" class="s1" d="m995.9 329.1c-88.4 0-159.8-71.5-159.8-159.9 0-88.3 71.4-159.8 159.8-159.8 88.4 0 159.8 71.5 159.8 159.8 0 88.4-71.4 159.9-159.8 159.9z"/>
				<path id="Layer" class="s2" d="m482.3 329.1c-88.4 0-159.8-71.5-159.8-159.9 0-88.3 71.4-159.8 159.8-159.8 88.4 0 159.8 71.5 159.8 159.8 0 88.4-71.4 159.9-159.8 159.9z"/>
			</g>
		</g>
	</g>
</svg>