<svg width="17" height="16" viewBox="0 0 17 16" fill="none" xmlns="http://www.w3.org/2000/svg">
<path d="M14.479 14.1489H2.81152V14.9827C2.81152 15.2038 2.72368 15.4158 2.56732 15.5722C2.41097 15.7286 2.1989 15.8164 1.97777 15.8164H1.14527C0.924149 15.8164 0.712082 15.7286 0.555723 15.5722C0.399365 15.4158 0.311523 15.2038 0.311523 14.9827V6.64891L2.37902 1.82641C2.50761 1.52631 2.72152 1.2706 2.9942 1.09104C3.26687 0.91148 3.58629 0.815982 3.91277 0.816408H13.379C13.7051 0.816471 14.024 0.912199 14.2961 1.09173C14.5683 1.27126 14.7819 1.5267 14.9103 1.82641L16.979 6.65016V14.9827C16.979 15.2038 16.8912 15.4158 16.7348 15.5722C16.5785 15.7286 16.3664 15.8164 16.1453 15.8164H15.3115C15.0906 15.8161 14.8789 15.7281 14.7228 15.5718C14.5667 15.4154 14.479 15.2036 14.479 14.9827V14.1489ZM15.3128 8.31516H1.97902V12.4827H15.3115L15.3128 8.31516ZM2.12527 6.64891H15.1653L13.379 2.48266H3.91152L2.12652 6.64891H2.12527Z" fill="#FFAA00"/>
</svg>
