<svg width="20" height="21" viewBox="0 0 20 21" fill="none" xmlns="http://www.w3.org/2000/svg">
<path d="M6.77587 11.918C6.54647 11.918 6.35404 11.838 6.19858 11.678C6.04366 11.5185 5.96621 11.3207 5.96621 11.0846C5.96621 10.8485 6.04366 10.6505 6.19858 10.4905C6.35404 10.331 6.54647 10.2513 6.77587 10.2513C7.00528 10.2513 7.19771 10.331 7.35316 10.4905C7.50808 10.6505 7.58554 10.8485 7.58554 11.0846C7.58554 11.3207 7.50808 11.5185 7.35316 11.678C7.19771 11.838 7.00528 11.918 6.77587 11.918ZM10.0145 11.918C9.78513 11.918 9.59297 11.838 9.43806 11.678C9.2826 11.5185 9.20487 11.3207 9.20487 11.0846C9.20487 10.8485 9.2826 10.6505 9.43806 10.4905C9.59297 10.331 9.78513 10.2513 10.0145 10.2513C10.2439 10.2513 10.4364 10.331 10.5918 10.4905C10.7467 10.6505 10.8242 10.8485 10.8242 11.0846C10.8242 11.3207 10.7467 11.5185 10.5918 11.678C10.4364 11.838 10.2439 11.918 10.0145 11.918ZM13.2532 11.918C13.0238 11.918 12.8316 11.838 12.6767 11.678C12.5213 11.5185 12.4435 11.3207 12.4435 11.0846C12.4435 10.8485 12.5213 10.6505 12.6767 10.4905C12.8316 10.331 13.0238 10.2513 13.2532 10.2513C13.4826 10.2513 13.6748 10.331 13.8297 10.4905C13.9851 10.6505 14.0629 10.8485 14.0629 11.0846C14.0629 11.3207 13.9851 11.5185 13.8297 11.678C13.6748 11.838 13.4826 11.918 13.2532 11.918ZM4.34687 18.5846C3.90156 18.5846 3.5202 18.4216 3.20281 18.0955C2.88596 17.7688 2.72754 17.3763 2.72754 16.918V5.2513C2.72754 4.79297 2.88596 4.40075 3.20281 4.07464C3.5202 3.74797 3.90156 3.58464 4.34687 3.58464H5.15654V1.91797H6.77587V3.58464H13.2532V1.91797H14.8725V3.58464H15.6822C16.1275 3.58464 16.5089 3.74797 16.8263 4.07464C17.1431 4.40075 17.3015 4.79297 17.3015 5.2513V16.918C17.3015 17.3763 17.1431 17.7688 16.8263 18.0955C16.5089 18.4216 16.1275 18.5846 15.6822 18.5846H4.34687ZM4.34687 16.918H15.6822V8.58464H4.34687V16.918ZM4.34687 6.91797H15.6822V5.2513H4.34687V6.91797Z" fill="#1E0A1B" fill-opacity="0.3"/>
</svg>
