<svg width="31" height="31" viewBox="0 0 31 31" fill="none" xmlns="http://www.w3.org/2000/svg">
<g clip-path="url(#clip0_109_15465)">
<g filter="url(#filter0_d_109_15465)">
<path d="M15.6055 30.7773C23.8897 30.7773 30.6055 24.0616 30.6055 15.7773C30.6055 7.49307 23.8897 0.777344 15.6055 0.777344C7.3212 0.777344 0.605469 7.49307 0.605469 15.7773C0.605469 24.0616 7.3212 30.7773 15.6055 30.7773Z" fill="#FFFDF3"/>
</g>
<path fill-rule="evenodd" clip-rule="evenodd" d="M15.6054 18.3279C15.2274 18.3279 14.8579 18.2158 14.5437 18.0058C14.2294 17.7958 13.9845 17.4974 13.8398 17.1482C13.6952 16.799 13.6573 16.4148 13.7311 16.0441C13.8048 15.6734 13.9868 15.3329 14.2541 15.0656C14.5213 14.7983 14.8618 14.6163 15.2325 14.5426C15.6032 14.4689 15.9875 14.5067 16.3367 14.6513C16.6858 14.796 16.9843 15.0409 17.1943 15.3552C17.4043 15.6694 17.5164 16.0389 17.5164 16.4169C17.5164 16.9237 17.315 17.4098 16.9566 17.7682C16.5983 18.1265 16.1122 18.3279 15.6054 18.3279ZM20.7054 11.3209C21.0422 11.323 21.3646 11.458 21.6025 11.6966C21.8403 11.9352 21.9743 12.258 21.9754 12.5949V20.2389C21.9743 20.5764 21.8397 20.8999 21.601 21.1386C21.3623 21.3773 21.0389 21.5118 20.7014 21.5129H10.5094C10.1718 21.5118 9.84836 21.3773 9.60966 21.1386C9.37097 20.8999 9.23641 20.5764 9.23535 20.2389V12.5949C9.23641 12.2573 9.37097 11.9339 9.60966 11.6952C9.84836 11.4565 10.1718 11.3219 10.5094 11.3209H12.5284L13.3114 10.4609C13.4317 10.3309 13.5776 10.2271 13.7398 10.1559C13.902 10.0846 14.0772 10.0475 14.2544 10.0469H16.9544C17.1306 10.0471 17.3048 10.084 17.466 10.1552C17.6271 10.2265 17.7717 10.3306 17.8904 10.4609L18.6804 11.3209H20.7054ZM15.6054 19.6019C16.2353 19.6019 16.8511 19.4151 17.3748 19.0651C17.8986 18.7151 18.3068 18.2177 18.5479 17.6357C18.789 17.0537 18.852 16.4133 18.7292 15.7955C18.6063 15.1777 18.3029 14.6102 17.8575 14.1647C17.4121 13.7193 16.8445 13.416 16.2267 13.2931C15.6089 13.1702 14.9685 13.2333 14.3865 13.4743C13.8045 13.7154 13.3071 14.1236 12.9571 14.6474C12.6071 15.1712 12.4204 15.7869 12.4204 16.4169C12.4206 17.2615 12.7563 18.0715 13.3535 18.6687C13.9508 19.266 14.7607 19.6016 15.6054 19.6019Z" fill="#869B34"/>
</g>
<defs>
<filter id="filter0_d_109_15465" x="-15.3945" y="-12.2227" width="62" height="62" filterUnits="userSpaceOnUse" color-interpolation-filters="sRGB">
<feFlood flood-opacity="0" result="BackgroundImageFix"/>
<feColorMatrix in="SourceAlpha" type="matrix" values="0 0 0 0 0 0 0 0 0 0 0 0 0 0 0 0 0 0 127 0" result="hardAlpha"/>
<feOffset dy="3"/>
<feGaussianBlur stdDeviation="8"/>
<feColorMatrix type="matrix" values="0 0 0 0 0.47451 0 0 0 0 0.14902 0 0 0 0 0.415686 0 0 0 0.102 0"/>
<feBlend mode="normal" in2="BackgroundImageFix" result="effect1_dropShadow_109_15465"/>
<feBlend mode="normal" in="SourceGraphic" in2="effect1_dropShadow_109_15465" result="shape"/>
</filter>
<clipPath id="clip0_109_15465">
<rect width="30" height="30" fill="white" transform="translate(0.605469 0.777344)"/>
</clipPath>
</defs>
</svg>
