<svg width="17" height="17" viewBox="0 0 17 17" fill="none" xmlns="http://www.w3.org/2000/svg">
<path fill-rule="evenodd" clip-rule="evenodd" d="M14.627 1.09595H2.62695C2.07467 1.09595 1.62695 1.54366 1.62695 2.09595V14.0959C1.62695 14.6482 2.07467 15.0959 2.62695 15.0959H14.627C15.1792 15.0959 15.627 14.6482 15.627 14.0959V2.09595C15.627 1.54366 15.1792 1.09595 14.627 1.09595ZM2.62695 0.0959473C1.52238 0.0959473 0.626953 0.991378 0.626953 2.09595V14.0959C0.626953 15.2005 1.52238 16.0959 2.62695 16.0959H14.627C15.7315 16.0959 16.627 15.2005 16.627 14.0959V2.09595C16.627 0.991378 15.7315 0.0959473 14.627 0.0959473H2.62695Z" fill="#954386"/>
<path fill-rule="evenodd" clip-rule="evenodd" d="M12.627 8.09595C12.627 8.37209 12.4031 8.59595 12.127 8.59595H6.33406L8.48051 10.7424C8.67577 10.9377 8.67577 11.2542 8.48051 11.4495C8.28524 11.6448 7.96866 11.6448 7.7734 11.4495L4.7734 8.4495C4.57814 8.25424 4.57814 7.93766 4.7734 7.74239L7.7734 4.74239C7.96866 4.54713 8.28524 4.54713 8.48051 4.74239C8.67577 4.93766 8.67577 5.25424 8.48051 5.4495L6.33406 7.59595H12.127C12.4031 7.59595 12.627 7.81981 12.627 8.09595Z" fill="#954386"/>
</svg>
