<svg width="21" height="21" viewBox="0 0 21 21" fill="none" xmlns="http://www.w3.org/2000/svg">
<mask id="mask0_208_52089" style="mask-type:luminance" maskUnits="userSpaceOnUse" x="0" y="0" width="21" height="21">
<path d="M20.6934 0.207031H0.693359V20.207H20.6934V0.207031Z" fill="white"/>
</mask>
<g mask="url(#mask0_208_52089)">
<path d="M14.4617 15.3871C14.4558 15.1616 14.5172 14.9394 14.6381 14.749C14.759 14.5586 14.934 14.4085 15.1407 14.3181C15.3473 14.2276 15.5762 14.2008 15.7982 14.2412C16.0201 14.2815 16.225 14.3871 16.3866 14.5444C16.5483 14.7018 16.6593 14.9037 16.7056 15.1245C16.7518 15.3453 16.7312 15.5749 16.6463 15.7839C16.5614 15.9929 16.4161 16.1718 16.229 16.2978C16.0419 16.4238 15.8215 16.4912 15.5959 16.4912C15.4489 16.4933 15.3029 16.4664 15.1663 16.412C15.0297 16.3577 14.9052 16.2769 14.7999 16.1743C14.6945 16.0718 14.6104 15.9494 14.5524 15.8144C14.4944 15.6793 14.4636 15.5341 14.4617 15.3871ZM7.66005 15.3871C7.65409 15.1616 7.7155 14.9394 7.83644 14.749C7.95738 14.5586 8.13236 14.4085 8.339 14.3181C8.54565 14.2276 8.77457 14.2008 8.99652 14.2412C9.21847 14.2815 9.42335 14.3871 9.58498 14.5444C9.74661 14.7018 9.85765 14.9037 9.9039 15.1245C9.95014 15.3453 9.9295 15.5749 9.84461 15.7839C9.75973 15.9929 9.61444 16.1718 9.42733 16.2978C9.24023 16.4238 9.0198 16.4912 8.79422 16.4912C8.64701 16.4937 8.50076 16.467 8.36388 16.4128C8.227 16.3585 8.10218 16.2778 7.99657 16.1752C7.89096 16.0726 7.80665 15.9502 7.74847 15.8149C7.6903 15.6797 7.6594 15.5343 7.65755 15.3871H7.66005ZM8.30172 12.2004C8.14671 12.2021 7.99497 12.1558 7.86737 12.0677C7.73978 11.9797 7.64261 11.8543 7.58922 11.7087L5.30672 5.39457H3.33005C3.1327 5.39614 2.94269 5.31986 2.8012 5.18228C2.65971 5.04469 2.57816 4.85688 2.57422 4.65957C2.57773 4.46196 2.65909 4.27372 2.80062 4.13578C2.94216 3.99783 3.13242 3.92133 3.33005 3.9229H5.84172C5.99673 3.92117 6.14847 3.96751 6.27607 4.05556C6.40366 4.1436 6.50083 4.26903 6.55422 4.41457L8.83672 10.7296H15.6576L17.0259 6.48707H10.0834C9.88532 6.48952 9.69433 6.41352 9.5521 6.27566C9.40986 6.1378 9.32795 5.94928 9.32422 5.75123C9.32794 5.55363 9.40952 5.36548 9.55121 5.22769C9.6929 5.0899 9.88325 5.01361 10.0809 5.0154H18.0576C18.1755 5.01491 18.2919 5.04184 18.3976 5.09404C18.5033 5.14625 18.5954 5.22232 18.6667 5.31623C18.7368 5.40848 18.7835 5.51628 18.8029 5.63046C18.8224 5.74464 18.814 5.86184 18.7784 5.97207L16.9351 11.6854C16.8852 11.8367 16.7884 11.9681 16.6588 12.0607C16.5292 12.1533 16.3735 12.2022 16.2142 12.2004H8.30172Z" fill="#ABC73E" stroke="#ABC73E" stroke-width="0.5" stroke-linecap="round"/>
</g>
</svg>
