<svg width="17" height="17" viewBox="0 0 17 17" fill="none" xmlns="http://www.w3.org/2000/svg">
<path fill-rule="evenodd" clip-rule="evenodd" d="M11.0225 1.63349C9.88873 0.472429 8.02143 0.472429 6.8877 1.63349L6.26585 2.27033L5.37583 2.25973C3.75317 2.2404 2.43278 3.56078 2.45211 5.18345L2.46271 6.07347L1.82588 6.69531C0.664812 7.82904 0.664812 9.69635 1.82588 10.8301L2.46271 11.4519L2.45211 12.3419C2.43278 13.9646 3.75317 15.285 5.37583 15.2657L6.26585 15.2551L6.8877 15.8919C8.02143 17.053 9.88873 17.053 11.0225 15.8919L11.6443 15.2551L12.5343 15.2657C14.157 15.285 15.4774 13.9646 15.458 12.3419L15.4474 11.4519L16.0843 10.8301C17.2453 9.69635 17.2453 7.82904 16.0843 6.69531L15.4474 6.07347L15.458 5.18345C15.4774 3.56078 14.157 2.2404 12.5343 2.25973L11.6443 2.27033L11.0225 1.63349ZM11.3086 7.61625C11.5039 7.42099 11.5039 7.1044 11.3086 6.90914C11.1134 6.71388 10.7968 6.71388 10.6015 6.90914L7.95508 9.55559L6.80863 8.40914C6.61337 8.21388 6.29679 8.21388 6.10152 8.40914C5.90626 8.6044 5.90626 8.92099 6.10152 9.11625L7.60152 10.6162C7.69529 10.71 7.82247 10.7627 7.95508 10.7627C8.08769 10.7627 8.21486 10.71 8.30863 10.6162L11.3086 7.61625Z" fill="#ABC73E"/>
</svg>
