<svg width="15" height="17" viewBox="0 0 15 17" fill="none" xmlns="http://www.w3.org/2000/svg">
<path d="M5.02351 6.6069C5.3209 6.6069 5.56197 6.84568 5.56197 7.14023V13.5402C5.56197 13.8348 5.3209 14.0736 5.02351 14.0736C4.72613 14.0736 4.48505 13.8348 4.48505 13.5402V7.14023C4.48505 6.84568 4.72613 6.6069 5.02351 6.6069Z" fill="#954386"/>
<path d="M7.71582 6.6069C8.0132 6.6069 8.25428 6.84568 8.25428 7.14023V13.5402C8.25428 13.8348 8.0132 14.0736 7.71582 14.0736C7.41844 14.0736 7.17736 13.8348 7.17736 13.5402V7.14023C7.17736 6.84568 7.41844 6.6069 7.71582 6.6069Z" fill="#954386"/>
<path d="M10.9466 7.14023C10.9466 6.84568 10.7055 6.6069 10.4081 6.6069C10.1107 6.6069 9.86967 6.84568 9.86967 7.14023V13.5402C9.86967 13.8348 10.1107 14.0736 10.4081 14.0736C10.7055 14.0736 10.9466 13.8348 10.9466 13.5402V7.14023Z" fill="#954386"/>
<path fill-rule="evenodd" clip-rule="evenodd" d="M14.7158 3.94023C14.7158 4.52934 14.2337 5.0069 13.6389 5.0069H13.1004V14.6069C13.1004 15.7851 12.1361 16.7402 10.9466 16.7402H4.48505C3.29551 16.7402 2.33121 15.7851 2.33121 14.6069V5.0069H1.79274C1.19798 5.0069 0.71582 4.52934 0.71582 3.94023V2.87357C0.71582 2.28446 1.19798 1.8069 1.79274 1.8069H5.56197C5.56197 1.2178 6.04413 0.740234 6.6389 0.740234H8.79274C9.38751 0.740234 9.86967 1.2178 9.86967 1.8069H13.6389C14.2337 1.8069 14.7158 2.28446 14.7158 2.87357V3.94023ZM3.53524 5.0069L3.40813 5.06985V14.6069C3.40813 15.196 3.89028 15.6736 4.48505 15.6736H10.9466C11.5414 15.6736 12.0235 15.196 12.0235 14.6069V5.06985L11.8964 5.0069H3.53524ZM1.79274 3.94023V2.87357H13.6389V3.94023H1.79274Z" fill="#954386"/>
</svg>
