<svg width="25" height="25" viewBox="0 0 25 25" fill="none" xmlns="http://www.w3.org/2000/svg">
<path d="M12.6045 21.9629V19.8379L17.9045 14.5379L20.0295 16.6629L14.7295 21.9629H12.6045ZM3.60449 16.9629V14.9629H10.6045V16.9629H3.60449ZM20.7295 15.9629L18.6045 13.8379L19.3295 13.1129C19.5128 12.9296 19.7462 12.8379 20.0295 12.8379C20.3128 12.8379 20.5462 12.9296 20.7295 13.1129L21.4545 13.8379C21.6378 14.0212 21.7295 14.2546 21.7295 14.5379C21.7295 14.8212 21.6378 15.0546 21.4545 15.2379L20.7295 15.9629ZM3.60449 12.9629V10.9629H14.6045V12.9629H3.60449ZM3.60449 8.96289V6.96289H14.6045V8.96289H3.60449Z" fill="#954386"/>
</svg>
