<svg width="17" height="16" viewBox="0 0 17 16" fill="none" xmlns="http://www.w3.org/2000/svg">
<path d="M7.90547 15.0156C7.72214 14.8323 7.62614 14.599 7.61747 14.3156C7.60881 14.0323 7.69647 13.799 7.88047 13.6156L12.7805 8.71562H1.60547C1.32214 8.71562 1.08447 8.61963 0.892472 8.42762C0.700472 8.23562 0.604806 7.99829 0.605472 7.71562C0.605472 7.43229 0.701472 7.19462 0.893472 7.00262C1.08547 6.81062 1.32281 6.71496 1.60547 6.71562H12.7805L7.88047 1.81562C7.69714 1.63229 7.60947 1.39896 7.61747 1.11562C7.62547 0.832292 7.72147 0.598958 7.90547 0.415625C8.08881 0.232291 8.32214 0.140625 8.60547 0.140625C8.88881 0.140625 9.12214 0.232291 9.30547 0.415625L15.9055 7.01562C16.0055 7.09896 16.0765 7.20329 16.1185 7.32862C16.1605 7.45396 16.1811 7.58296 16.1805 7.71562C16.1805 7.84896 16.1598 7.97396 16.1185 8.09062C16.0771 8.20729 16.0061 8.31562 15.9055 8.41562L9.30547 15.0156C9.12214 15.199 8.88881 15.2906 8.60547 15.2906C8.32214 15.2906 8.08881 15.199 7.90547 15.0156Z" fill="#954386"/>
</svg>
