<svg width="82" height="9" viewBox="0 0 82 9" fill="none" xmlns="http://www.w3.org/2000/svg">
<path d="M1.05664 3.85889C0.780498 3.85889 0.556641 4.08274 0.556641 4.35889C0.556641 4.63503 0.780498 4.85889 1.05664 4.85889V3.85889ZM81.4102 4.71244C81.6055 4.51718 81.6055 4.2006 81.4102 4.00533L78.2282 0.823353C78.033 0.628091 77.7164 0.628091 77.5211 0.823353C77.3258 1.01862 77.3258 1.3352 77.5211 1.53046L80.3495 4.35889L77.5211 7.18731C77.3258 7.38258 77.3258 7.69916 77.5211 7.89442C77.7164 8.08968 78.033 8.08968 78.2282 7.89442L81.4102 4.71244ZM1.05664 4.85889H81.0566V3.85889H1.05664V4.85889Z" fill="#1E0A1B" fill-opacity="0.6"/>
</svg>
