<svg width="15" height="18" viewBox="0 0 15 18" fill="none" xmlns="http://www.w3.org/2000/svg">
<path d="M12.533 1.28125H2.8186C1.80181 1.28125 0.977539 2.10552 0.977539 3.12231V15.5163C0.977539 16.5331 1.80181 17.3574 2.8186 17.3574H12.533C13.5498 17.3574 14.374 16.5331 14.374 15.5163V3.12231C14.374 2.10552 13.5498 1.28125 12.533 1.28125Z" fill="#C7E64B"/>
<path d="M3.23893 1.26562H12.0954C11.6199 5.9433 9.94269 14.7137 3.87409 17.3528C1.78357 17.6423 0.875465 16.5543 0.978564 15.1919L1.02459 3.47996C1.02459 2.89268 1.25789 2.32946 1.67315 1.91419C2.08842 1.49892 2.65165 1.26563 3.23893 1.26562Z" fill="#ABC73E"/>
<path d="M3.23875 1.26562H9.17111C8.61189 6.78881 2.52672 12.5951 1.02441 12.7423V3.47996C1.02441 2.89268 1.25771 2.32946 1.67298 1.91419C2.08825 1.49892 2.65147 1.26563 3.23875 1.26562Z" fill="#869B34"/>
<path d="M9.08252 4.78716C9.08252 4.78716 9.14695 1.60075 9.12853 1.13174C9.13131 1.02366 9.17689 0.921106 9.25526 0.84662C9.33363 0.772135 9.43838 0.731812 9.54646 0.734532C9.54646 0.734532 11.2237 0.734532 11.6301 0.734532C11.7389 0.731537 11.8446 0.771535 11.9242 0.845876C12.0038 0.920217 12.0509 1.02292 12.0554 1.13174V4.78716L10.617 3.34839L9.08252 4.78716Z" fill="url(#paint0_linear_109_15707)"/>
<defs>
<linearGradient id="paint0_linear_109_15707" x1="10.5689" y1="0.734375" x2="10.5689" y2="4.78716" gradientUnits="userSpaceOnUse">
<stop stop-color="#B23A9C"/>
<stop offset="1" stop-color="#79266A"/>
</linearGradient>
</defs>
</svg>
