<svg width="17" height="18" viewBox="0 0 17 18" fill="none" xmlns="http://www.w3.org/2000/svg">
<path d="M14.861 9.85283C14.8972 9.58403 14.9167 9.31324 14.9192 9.04203C14.9167 8.77082 14.8972 8.50003 14.861 8.23124L16.6257 6.85193C16.7035 6.78981 16.7565 6.7018 16.7749 6.60393C16.7932 6.50605 16.7759 6.40483 16.7259 6.31871L15.0571 3.42559C15.008 3.33961 14.9296 3.27417 14.8362 3.24125C14.7429 3.20832 14.6408 3.2101 14.5486 3.24626L12.4735 4.08377C12.0414 3.75054 11.568 3.47464 11.0651 3.26295L10.7527 1.05472C10.7339 0.957693 10.6822 0.870114 10.6064 0.80677C10.5305 0.743426 10.4351 0.708197 10.3363 0.707031H7.00297C6.90401 0.707536 6.8084 0.742912 6.73295 0.80694C6.65749 0.870968 6.60702 0.959548 6.59042 1.05711L6.27802 3.26534C5.7743 3.47541 5.3007 3.75143 4.86962 4.08615L2.79445 3.24864C2.70253 3.21341 2.6011 3.21184 2.50813 3.24423C2.41516 3.27662 2.33665 3.34086 2.28651 3.42559L0.619609 6.31537C0.570013 6.4016 0.55285 6.50271 0.571214 6.60047C0.589578 6.69824 0.64226 6.78623 0.719766 6.84859L2.47824 8.2279C2.44206 8.4967 2.42263 8.76748 2.42006 9.0387C2.42263 9.30991 2.44206 9.5807 2.47824 9.84949L0.719766 11.2321C0.641932 11.2943 0.589001 11.3823 0.570617 11.4801C0.552234 11.578 0.56962 11.6792 0.619609 11.7654L2.28651 14.6528C2.33559 14.7387 2.41397 14.8042 2.50733 14.8371C2.60069 14.87 2.70278 14.8682 2.79493 14.8321L4.8701 13.9946C5.30218 14.3278 5.77558 14.6037 6.2785 14.8154L6.5909 17.0236C6.6075 17.1212 6.65797 17.2098 6.73342 17.2738C6.80888 17.3378 6.90449 17.3732 7.00345 17.3737H10.3368C10.4357 17.3732 10.5314 17.3378 10.6068 17.2738C10.6823 17.2098 10.7327 17.1212 10.7493 17.0236L11.0617 14.8154C11.5655 14.6053 12.0391 14.3293 12.4701 13.9946L14.5453 14.8321C14.6376 14.8672 14.7393 14.8685 14.8324 14.8357C14.9255 14.8028 15.0039 14.738 15.0537 14.6528L16.7201 11.7654C16.7697 11.6791 16.7869 11.578 16.7685 11.4803C16.7502 11.3825 16.6975 11.2945 16.62 11.2321L14.861 9.85283Z" fill="#C7E64B"/>
<path d="M15.0571 3.42559C15.008 3.33961 14.9296 3.27417 14.8362 3.24125C14.7429 3.20832 14.6408 3.2101 14.5486 3.24626L12.4735 4.08377C12.0414 3.75054 11.568 3.47464 11.0651 3.26295L10.7527 1.05472C10.7339 0.957693 10.6822 0.870114 10.6064 0.80677C10.5305 0.743426 10.4351 0.708197 10.3363 0.707031H7.00297C6.90401 0.707536 6.8084 0.742912 6.73295 0.80694C6.65749 0.870968 6.60702 0.959548 6.59042 1.05711L6.27802 3.26534C5.7743 3.47541 5.3007 3.75143 4.86962 4.08615L2.79445 3.24864C2.70253 3.21341 2.6011 3.21184 2.50813 3.24423C2.41516 3.27662 2.33665 3.34086 2.28651 3.42559L0.619609 6.31537C0.570013 6.4016 0.55285 6.50271 0.571214 6.60047C0.589578 6.69824 0.64226 6.78623 0.719766 6.84859L2.47824 8.2279C2.44206 8.4967 2.42263 8.76748 2.42006 9.0387C2.42263 9.30991 2.44206 9.5807 2.47824 9.84949L0.719766 11.2321C0.641932 11.2943 0.589001 11.3823 0.570617 11.4801C0.552234 11.578 0.56962 11.6792 0.619609 11.7654L2.28651 14.6528C2.33559 14.7387 2.41397 14.8042 2.50733 14.8371C2.60069 14.87 2.70278 14.8682 2.79493 14.8321L4.8701 13.9946C5.31435 14.3093 5.78567 14.584 6.2785 14.8154C14.6521 11.7134 15.0571 3.42559 15.0571 3.42559Z" fill="#ABC73E"/>
<path d="M11.0655 3.26534L10.7532 1.05711C10.7349 0.95956 10.6833 0.871369 10.6073 0.807542C10.5313 0.743716 10.4355 0.708197 10.3363 0.707031H7.00297C6.90401 0.707536 6.8084 0.742912 6.73295 0.80694C6.65749 0.870968 6.60702 0.959548 6.59042 1.05711L6.27802 3.26534C5.7743 3.47541 5.3007 3.75143 4.86962 4.08615L2.79445 3.24864C2.70253 3.21341 2.6011 3.21184 2.50813 3.24423C2.41516 3.27662 2.33665 3.34086 2.28651 3.42559L0.619609 6.31537C0.570013 6.4016 0.55285 6.50271 0.571214 6.60047C0.589578 6.69824 0.64226 6.78623 0.719766 6.84859L2.47824 8.2279C2.44206 8.4967 2.42263 8.76748 2.42006 9.0387C2.42263 9.30991 2.44206 9.5807 2.47824 9.84949L0.719766 11.2321C0.641932 11.2943 0.589001 11.3823 0.570617 11.4801C0.552234 11.578 0.56962 11.6792 0.619609 11.7654C7.62156 10.9188 11.574 3.47805 11.0655 3.26534Z" fill="#869B34"/>
</svg>
