<svg width="16" height="16" viewBox="0 0 16 16" fill="none" xmlns="http://www.w3.org/2000/svg">
<path fill-rule="evenodd" clip-rule="evenodd" d="M8.29459 15.8342C6.20692 15.8342 4.34618 14.9945 2.98441 13.633C1.62287 12.2714 0.783203 10.4107 0.783203 8.34555C0.783203 6.25788 1.62287 4.39714 2.98441 3.03538C4.34596 1.67362 6.20668 0.834167 8.29459 0.834167C10.3596 0.834167 12.2205 1.67383 13.582 3.03538C14.9435 4.39693 15.7832 6.25764 15.7832 8.34555C15.7832 10.4105 14.9435 12.2715 13.582 13.633C12.2204 14.9945 10.3597 15.8342 8.29459 15.8342ZM5.27643 8.34555L8.9752 12.0218L9.95099 11.0688L7.20523 8.34577L9.95099 5.60001L8.9752 4.64694L5.27643 8.34555Z" fill="#779500"/>
</svg>
