<svg width="18" height="18" viewBox="0 0 18 18" fill="none" xmlns="http://www.w3.org/2000/svg">
<g clip-path="url(#clip0_109_15658)">
<path d="M13.7615 5.75H1.77805C0.931974 5.75 0.246094 6.43588 0.246094 7.28196V15.793C0.246094 16.6391 0.931974 17.325 1.77805 17.325H13.7615C14.6076 17.325 15.2935 16.6391 15.2935 15.793V7.28196C15.2935 6.43588 14.6076 5.75 13.7615 5.75Z" fill="#C7E64B"/>
<path d="M1.98231 5.75H13.5573C14.0177 5.75 14.4594 5.93292 14.785 6.25853C15.1106 6.58413 15.2935 7.02574 15.2935 7.48622C14.3192 15.9344 6.2529 17.0967 1.98231 17.325C1.52184 17.325 1.08022 17.142 0.75462 16.8164C0.429016 16.4908 0.246094 16.0492 0.246094 15.5887L0.246094 7.48622C0.246094 7.02574 0.429016 6.58413 0.75462 6.25853C1.08022 5.93292 1.52184 5.75 1.98231 5.75Z" fill="#ABC73E"/>
<path d="M1.98231 5.75H10.8329C10.2181 7.04808 8.71373 14.4311 0.246094 15.0439V7.48622C0.246094 7.02574 0.429016 6.58413 0.75462 6.25853C1.08022 5.93292 1.52184 5.75 1.98231 5.75Z" fill="#869B34"/>
<path d="M5.04687 4.64838H3.63086L7.08643 1.1642C7.39244 0.861507 7.80099 0.684812 8.23112 0.669112C8.66126 0.653412 9.08162 0.799861 9.40889 1.07944C9.60702 1.27757 9.87613 1.61766 9.87613 1.61766L5.04687 4.64838Z" fill="url(#paint0_linear_109_15658)"/>
<path d="M6.42432 4.64747L10.0923 2.3863C10.2523 2.27546 10.4336 2.19914 10.6246 2.16221C10.8157 2.12527 11.0124 2.12851 11.2021 2.17174C11.3919 2.21498 11.5705 2.29724 11.7267 2.41331C11.8829 2.52937 12.0133 2.67669 12.1094 2.84589C12.9346 4.11435 13.2252 4.64849 13.2252 4.64849L6.42432 4.64747Z" fill="url(#paint1_linear_109_15658)"/>
<path d="M13.2679 9.80078H15.8825C16.2048 9.80078 16.5139 9.92883 16.7419 10.1567C16.9698 10.3847 17.0978 10.6938 17.0978 11.0161V12.6364C17.0978 12.9588 16.9698 13.2679 16.7419 13.4958C16.5139 13.7237 16.2048 13.8518 15.8825 13.8518H13.2679C12.7308 13.8518 12.2156 13.6384 11.8357 13.2586C11.4558 12.8788 11.2423 12.3637 11.2422 11.8265C11.2422 11.2893 11.4556 10.774 11.8355 10.3941C12.2154 10.0142 12.7307 9.80078 13.2679 9.80078Z" fill="url(#paint2_linear_109_15658)"/>
<path d="M13.268 10.0547H15.859C16.1199 10.0547 16.37 10.1583 16.5545 10.3428C16.7389 10.5272 16.8426 10.7774 16.8426 11.0382V12.6115C16.8426 12.8724 16.7389 13.1225 16.5545 13.307C16.37 13.4914 16.1199 13.595 15.859 13.595H13.268C12.7985 13.595 12.3483 13.4086 12.0163 13.0767C11.6843 12.7448 11.4977 12.2946 11.4976 11.8251C11.4976 11.3556 11.6841 10.9053 12.0161 10.5732C12.3481 10.2412 12.7984 10.0547 13.268 10.0547Z" stroke="#F3F1F2"/>
</g>
<defs>
<linearGradient id="paint0_linear_109_15658" x1="6.75349" y1="0.667969" x2="6.75349" y2="4.64838" gradientUnits="userSpaceOnUse">
<stop stop-color="#B23A9C"/>
<stop offset="1" stop-color="#79266A"/>
</linearGradient>
<linearGradient id="paint1_linear_109_15658" x1="9.82475" y1="2.13672" x2="9.82475" y2="4.64849" gradientUnits="userSpaceOnUse">
<stop stop-color="#B23A9C"/>
<stop offset="1" stop-color="#79266A"/>
</linearGradient>
<linearGradient id="paint2_linear_109_15658" x1="14.17" y1="9.80078" x2="14.17" y2="13.8518" gradientUnits="userSpaceOnUse">
<stop stop-color="#B23A9C"/>
<stop offset="1" stop-color="#79266A"/>
</linearGradient>
<clipPath id="clip0_109_15658">
<rect width="16.8515" height="16.6667" fill="white" transform="translate(0.246094 0.65625)"/>
</clipPath>
</defs>
</svg>
