<svg width="15" height="15" viewBox="0 0 15 15" fill="none" xmlns="http://www.w3.org/2000/svg">
<path d="M7.78515 14.9473C5.91258 14.9473 4.11674 14.2035 2.79257 12.8794C1.46846 11.5553 0.724609 9.75927 0.724609 7.88678C0.724609 6.0143 1.46846 4.21837 2.79257 2.8942C4.11668 1.57009 5.91267 0.826238 7.78515 0.826238C9.65764 0.826238 11.4536 1.57009 12.7777 2.8942C14.1018 4.21831 14.8457 6.0143 14.8457 7.88678C14.8457 9.12614 14.5195 10.3437 13.8998 11.4172C13.2801 12.4905 12.3887 13.3819 11.3155 14.0016C10.242 14.6212 9.02445 14.9474 7.78503 14.9474L7.78515 14.9473ZM7.78515 2.23816C6.28705 2.23816 4.85031 2.83332 3.79115 3.89266C2.73181 4.95187 2.13666 6.38861 2.13666 7.88666C2.13666 9.38471 2.73181 10.8215 3.79115 11.8807C4.85037 12.94 6.28711 13.5352 7.78515 13.5352C9.2832 13.5352 10.72 12.94 11.7792 11.8807C12.8385 10.8214 13.4337 9.38471 13.4337 7.88666C13.4337 6.89517 13.1727 5.92107 12.6768 5.06244C12.181 4.2037 11.4681 3.49071 10.6093 2.99497C9.75069 2.4991 8.77659 2.2381 7.78509 2.2381L7.78515 2.23816Z" fill="#779500"/>
<path d="M9.78365 9.88456C9.96533 9.72889 10.2136 9.67581 10.4431 9.74366C10.6725 9.81163 10.8521 9.99106 10.9199 10.2206C10.9878 10.45 10.9348 10.6983 10.7792 10.8801C9.98448 11.6739 8.90695 12.1197 7.78367 12.1192C6.66039 12.1188 5.5832 11.6722 4.78912 10.8778C3.99492 10.0834 3.54883 9.00611 3.54883 7.8828C3.54883 6.75952 3.99492 5.68221 4.78912 4.88776C5.5832 4.09332 6.66039 3.64686 7.78367 3.64641C8.90695 3.64606 9.98448 4.09169 10.7792 4.88552C10.9286 5.01354 11.0178 5.19805 11.0254 5.39462C11.0331 5.59119 10.9582 5.78197 10.8191 5.92108C10.68 6.0602 10.4892 6.13491 10.2927 6.12734C10.0961 6.11978 9.91156 6.03053 9.78368 5.88113C9.24514 5.3674 8.52968 5.0809 7.78547 5.0809C7.04125 5.0809 6.32579 5.36743 5.78725 5.88113C5.25701 6.4108 4.95901 7.12971 4.95901 7.87922C4.95901 8.62885 5.257 9.34764 5.78725 9.87743C6.32485 10.392 7.03995 10.6798 7.78404 10.6811C8.52826 10.6825 9.24433 10.3972 9.78368 9.88454L9.78365 9.88456Z" fill="#779500"/>
</svg>
