<svg width="10" height="17" viewBox="0 0 10 17" fill="none" xmlns="http://www.w3.org/2000/svg">
<path d="M7.81896 1.28025C7.61211 1.28025 7.44436 1.11252 7.44436 0.905648C7.44436 0.698789 7.6121 0.531044 7.81896 0.531044H8.89758C9.10443 0.531044 9.27218 0.698779 9.27218 0.905648C9.27218 1.11251 9.10444 1.28025 8.89758 1.28025H7.81896ZM5.0273 14.4567C5.26773 14.4567 5.48708 14.5549 5.64611 14.7134C5.80627 14.874 5.90446 15.0928 5.90446 15.3338C5.90446 15.5759 5.80627 15.7958 5.64775 15.9543L5.61897 15.9798C5.4626 16.1237 5.25474 16.211 5.02731 16.211C4.78687 16.211 4.56802 16.1128 4.40734 15.9526C4.24781 15.792 4.15 15.5737 4.15 15.3338C4.15 15.0939 4.24819 14.8745 4.40835 14.7145C4.56851 14.555 4.78725 14.4572 5.02716 14.4572L5.0273 14.4567ZM0.152344 13.4042H9.90194V2.38061H0.152344V13.4042ZM9.90194 14.1533H0.152344V15.8425C0.152344 16.0308 0.229962 16.2029 0.354282 16.3273C0.477465 16.4521 0.649617 16.5292 0.839064 16.5292H9.21515C9.39639 16.5292 9.56197 16.4586 9.68365 16.344L9.69942 16.3273C9.82374 16.2029 9.90136 16.0309 9.90136 15.8425V14.1533L9.90194 14.1533ZM0.152344 1.63114H9.90194V0.930398C9.90194 0.742091 9.82432 0.570559 9.7 0.446262C9.57682 0.321438 9.40466 0.244324 9.21522 0.244324H0.839128C0.650822 0.244324 0.478676 0.321942 0.354347 0.446262C0.229523 0.570075 0.152408 0.742101 0.152408 0.931044V1.63179L0.152344 1.63114Z" fill="#779500"/>
</svg>
