<svg width="17" height="14" viewBox="0 0 17 14" fill="none" xmlns="http://www.w3.org/2000/svg">
<path d="M7.21609 12.6756C7.2157 12.9742 7.2907 13.268 7.43416 13.5298H1.9937C1.66495 13.5288 1.3499 13.3978 1.11747 13.1653C0.884985 12.9329 0.753949 12.6178 0.75293 12.2891V10.4277C0.755342 9.60569 1.08296 8.81802 1.66422 8.2368C2.24553 7.6556 3.03316 7.32804 3.85508 7.32569H9.22143C9.33503 7.70565 9.52016 8.06037 9.76694 8.37078C9.05369 8.49325 8.40657 8.86379 7.93986 9.41688C7.47311 9.97003 7.21678 10.6702 7.21606 11.3939L7.21609 12.6756ZM6.6469 6.39514C6.01987 6.39514 5.40698 6.20923 4.88574 5.86091C4.3644 5.51258 3.95806 5.01749 3.71812 4.43822C3.47819 3.85899 3.41541 3.22158 3.53776 2.60654C3.66005 1.99163 3.96198 1.42676 4.40534 0.983393C4.84864 0.540036 5.41351 0.238098 6.02849 0.115809C6.64339 -0.00654427 7.2808 0.0562317 7.86002 0.296177C8.43931 0.536116 8.9344 0.942448 9.28271 1.46379C9.63104 1.98507 9.81695 2.59797 9.81695 3.22495C9.81695 4.06566 9.48292 4.87194 8.88844 5.46651C8.29394 6.06101 7.48763 6.39501 6.64688 6.39501L6.6469 6.39514ZM16.2634 12.6756C16.2627 12.902 16.1725 13.1189 16.0125 13.2789C15.8524 13.439 15.6355 13.5292 15.4092 13.5299H9.00089C8.77453 13.5292 8.55765 13.439 8.39753 13.2789C8.23747 13.1189 8.14727 12.902 8.14659 12.6756V11.394C8.14828 10.828 8.37385 10.2856 8.77407 9.88541C9.17422 9.4852 9.71655 9.25962 10.2826 9.25798H14.1276C14.6936 9.25961 15.2359 9.48518 15.6362 9.88541C16.0364 10.2856 16.2619 10.8279 16.2636 11.394L16.2634 12.6756ZM14.3877 6.43421C14.3876 7.01311 14.1576 7.56827 13.7483 7.9775C13.3389 8.38674 12.7837 8.61671 12.2048 8.61671C11.6259 8.61665 11.0708 8.38664 10.6615 7.97729C10.2523 7.56794 10.0223 7.01276 10.0223 6.43385C10.0224 5.85495 10.2524 5.29978 10.6618 4.89055C11.0711 4.48132 11.6263 4.25129 12.2052 4.25134C12.7841 4.25134 13.3393 4.48136 13.7486 4.89072C14.1579 5.30009 14.3878 5.8553 14.3878 6.43416L14.3877 6.43421Z" fill="#779500"/>
</svg>
