<svg version="1.2" xmlns="http://www.w3.org/2000/svg" viewBox="0 0 93 94" width="93" height="94">
	<title>img_placeholder-svg</title>
	<style>
		.s0 { fill: #ffffff } 
		.s1 { fill: #772569 } 
	</style>
	<g id="Layer">
		<path id="Layer" class="s0" d="m2.1 6.9c0-2.8 2.2-5 5-5h80c2.7 0 5 2.2 5 5v80c0 2.7-2.3 5-5 5h-80c-2.8 0-5-2.3-5-5z"/>
	</g>
	<path id="Layer" class="s1" d="m56.4 76.5h-19.4c-2.5 0-5-1-6.8-2.8-1.8-1.8-2.9-4.3-2.9-6.9v-1.9c0-4.6 1.9-9 5.1-12.3 3.3-3.3 7.7-5.1 12.4-5.1h3.8c2.3 0 4.6 0.4 6.7 1.3 2.1 0.9 4 2.2 5.6 3.8 1.7 1.6 3 3.5 3.8 5.6 0.9 2.2 1.4 4.4 1.4 6.7v1.9c0 2.6-1.1 5.1-2.9 6.9-1.8 1.8-4.3 2.8-6.8 2.8z"/>
	<path id="Layer" class="s1" d="m46.7 39.8c-2.3 0-4.5-0.7-6.5-2-1.9-1.3-3.4-3.1-4.2-5.2-0.9-2.1-1.1-4.5-0.7-6.7 0.5-2.3 1.6-4.3 3.2-6 1.6-1.6 3.7-2.7 5.9-3.1 2.3-0.5 4.6-0.3 6.7 0.6 2.2 0.9 4 2.4 5.3 4.3 1.2 1.9 1.9 4.1 1.9 6.4 0 3.1-1.2 6.1-3.4 8.3-2.2 2.1-5.1 3.4-8.2 3.4z"/>
</svg>