<svg width="41" height="41" viewBox="0 0 41 41" fill="none" xmlns="http://www.w3.org/2000/svg">
<rect x="0.626953" y="0.595947" width="40" height="40" rx="10" fill="#ABC73E"/>
<path d="M10.7817 15.6651C10.8273 15.684 10.8774 15.6889 10.9257 15.6792C10.9741 15.6695 11.0185 15.6457 11.0533 15.6108L12.2434 14.4206L13.7703 15.9463C13.7934 15.9695 13.8208 15.9879 13.851 16.0005C13.8812 16.0131 13.9136 16.0196 13.9464 16.0196C13.9791 16.0196 14.0115 16.0131 14.0417 16.0005C14.0719 15.9879 14.0994 15.9695 14.1224 15.9463L15.9814 14.0879C16.0281 14.0409 16.0542 13.9773 16.0542 13.9111C16.0542 13.8449 16.0281 13.7813 15.9814 13.7343L14.4561 12.2086L15.6386 11.0262C15.6735 10.9912 15.6973 10.9467 15.7069 10.8982C15.7165 10.8497 15.7116 10.7995 15.6926 10.7538C15.6737 10.7081 15.6417 10.6691 15.6005 10.6417C15.5594 10.6142 15.5111 10.5996 15.4617 10.5996H10.8783C10.8118 10.5996 10.7481 10.6259 10.701 10.6728C10.6539 10.7197 10.6273 10.7833 10.627 10.8498V15.4341C10.6272 15.4836 10.6421 15.5319 10.6697 15.573C10.6973 15.6141 10.7364 15.6462 10.7821 15.6651H10.7817ZM11.1277 11.0997H14.8577L13.9243 12.0331C13.9011 12.0563 13.8826 12.0839 13.87 12.1142C13.8575 12.1446 13.851 12.1771 13.851 12.2099C13.851 12.2427 13.8575 12.2753 13.87 12.3056C13.8826 12.3359 13.9011 12.3635 13.9243 12.3867L15.4495 13.9124L13.946 15.4171L12.4192 13.8914C12.396 13.8681 12.3684 13.8496 12.338 13.837C12.3077 13.8245 12.2751 13.818 12.2423 13.8181C12.176 13.8185 12.1126 13.8448 12.0654 13.8914L11.1266 14.8316L11.1277 11.0997Z" fill="#772569"/>
<path d="M16.0731 27.2762C16.0731 27.21 16.0469 27.1465 16.0003 27.0995L14.1413 25.241C14.0937 25.1962 14.0307 25.1711 13.9653 25.1711C13.8998 25.1711 13.8368 25.1962 13.7892 25.241L12.2626 26.7668L11.0801 25.5843C11.0454 25.5493 11.001 25.5254 10.9526 25.5157C10.9042 25.506 10.854 25.511 10.8085 25.5299C10.7628 25.5489 10.7237 25.5809 10.6961 25.622C10.6685 25.663 10.6536 25.7113 10.6533 25.7607V30.3458C10.6536 30.4122 10.6802 30.4758 10.7273 30.5227C10.7744 30.5696 10.8382 30.5959 10.9046 30.5959H15.488C15.5374 30.5959 15.5858 30.5813 15.6269 30.5539C15.668 30.5264 15.7001 30.4874 15.719 30.4417C15.7379 30.3961 15.7429 30.3458 15.7333 30.2973C15.7236 30.2489 15.6999 30.2043 15.6649 30.1694L14.4748 28.9792L16 27.4538C16.0467 27.4067 16.073 27.3431 16.0731 27.2769V27.2762ZM13.9441 28.8016C13.8975 28.8486 13.8713 28.9122 13.8713 28.9784C13.8713 29.0446 13.8975 29.1082 13.9441 29.1552L14.8843 30.0954H11.1543V26.3647L12.0878 27.2981C12.1108 27.3213 12.1383 27.3397 12.1685 27.3523C12.1987 27.3649 12.2311 27.3713 12.2638 27.3713C12.2966 27.3713 12.329 27.3649 12.3592 27.3523C12.3894 27.3397 12.4168 27.3213 12.4399 27.2981L13.967 25.7719L15.4722 27.2769L13.9441 28.8016Z" fill="#772569"/>
<path d="M30.6269 25.7609C30.6267 25.7114 30.6118 25.6631 30.5842 25.6221C30.5566 25.581 30.5175 25.549 30.4717 25.5301C30.4262 25.5112 30.376 25.5063 30.3277 25.516C30.2793 25.5256 30.2349 25.5495 30.2001 25.5845L29.01 26.7746L27.4832 25.2492C27.4601 25.226 27.4326 25.2076 27.4024 25.195C27.3722 25.1825 27.3398 25.176 27.3071 25.176C27.2744 25.176 27.242 25.1825 27.2117 25.195C27.1815 25.2076 27.1541 25.226 27.131 25.2492L25.2721 27.1076C25.2254 27.1546 25.1992 27.2182 25.1992 27.2844C25.1992 27.3506 25.2254 27.4142 25.2721 27.4612L26.7973 28.9869L25.6149 30.1691C25.5798 30.204 25.5559 30.2485 25.5462 30.2971C25.5365 30.3456 25.5415 30.3959 25.5605 30.4416C25.5794 30.4873 25.6115 30.5263 25.6527 30.5538C25.6939 30.5812 25.7423 30.5958 25.7918 30.5956H30.3752C30.4416 30.5957 30.5053 30.5694 30.5525 30.5226C30.5996 30.4757 30.6262 30.4121 30.6265 30.3457L30.6269 25.7609ZM30.1257 30.0953H26.3957L27.3291 29.1619C27.3524 29.1387 27.3708 29.1111 27.3834 29.0808C27.396 29.0505 27.4025 29.0179 27.4025 28.9851C27.4025 28.9523 27.396 28.9198 27.3834 28.8894C27.3708 28.8591 27.3524 28.8315 27.3291 28.8083L25.8039 27.2826L27.309 25.7777L28.8343 27.3032C28.8574 27.3264 28.8848 27.3447 28.915 27.3573C28.9453 27.3698 28.9776 27.3763 29.0104 27.3763C29.0431 27.3763 29.0755 27.3698 29.1057 27.3573C29.1359 27.3447 29.1633 27.3264 29.1864 27.3032L30.1266 26.3632L30.1257 30.0953Z" fill="#772569"/>
<path d="M25.1807 13.915C25.1808 13.9813 25.207 14.0448 25.2537 14.0919L27.1126 15.9504C27.1357 15.9736 27.1631 15.992 27.1934 16.0046C27.2236 16.0171 27.256 16.0236 27.2887 16.0236C27.3214 16.0236 27.3538 16.0171 27.384 16.0046C27.4143 15.992 27.4417 15.9736 27.4648 15.9504L28.9916 14.4247L30.1741 15.6071C30.2091 15.6419 30.2536 15.6656 30.302 15.6751C30.3504 15.6847 30.4006 15.6797 30.4462 15.6609C30.4918 15.642 30.5308 15.61 30.5583 15.569C30.5858 15.528 30.6005 15.4798 30.6006 15.4304V10.8459C30.6003 10.7794 30.5737 10.7158 30.5266 10.669C30.4795 10.6222 30.4157 10.5959 30.3493 10.5959H25.7659C25.7165 10.5959 25.6682 10.6106 25.627 10.638C25.5859 10.6655 25.5539 10.7045 25.535 10.7501C25.516 10.7958 25.5111 10.8461 25.5207 10.8945C25.5303 10.943 25.5541 10.9876 25.589 11.0225L26.7792 12.2127L25.2539 13.7381C25.2071 13.7851 25.1808 13.8487 25.1807 13.915ZM27.3096 12.3895C27.3562 12.3426 27.3824 12.279 27.3824 12.2128C27.3824 12.1465 27.3562 12.083 27.3096 12.036L26.3694 11.0958H30.0994V14.8265L29.166 13.8931C29.1429 13.8699 29.1154 13.8515 29.0852 13.839C29.055 13.8264 29.0226 13.82 28.9899 13.82C28.9572 13.82 28.9248 13.8264 28.8945 13.839C28.8643 13.8515 28.8369 13.8699 28.8138 13.8931L27.287 15.4188L25.782 13.9138L27.3096 12.3895Z" fill="#772569"/>
<path d="M26.9963 23.0076C27.0263 22.9679 27.0436 22.92 27.046 22.8704C27.6374 21.1811 27.5361 19.3264 26.7641 17.7116C25.9922 16.0968 24.6124 14.8533 22.9263 14.2528C21.2403 13.6523 19.3851 13.7436 17.7662 14.5069C16.1473 15.2701 14.8963 16.6432 14.2867 18.326C13.6771 20.0088 13.7585 21.8645 14.513 23.4874C15.2675 25.1104 16.6338 26.3688 18.3133 26.9874C19.9928 27.6061 21.8489 27.5347 23.4759 26.7889C25.103 26.0432 26.3686 24.6837 26.9963 23.0076ZM14.3149 20.5958C14.3144 19.8771 14.4378 19.1637 14.6797 18.4869H17.2198C17.0512 19.1729 16.9663 19.8767 16.9668 20.583C16.9668 21.269 17.0591 21.9519 17.2415 22.6132H14.6472C14.4271 21.9634 14.3149 21.2819 14.3149 20.5958ZM17.4653 20.583C17.4651 19.8753 17.5575 19.1707 17.7399 18.4869H20.3769V22.612H17.7656C17.567 21.954 17.4661 21.2703 17.4662 20.583H17.4653ZM20.2889 14.3024C20.2919 14.2998 20.2936 14.2958 20.2966 14.293C20.323 14.2919 20.3493 14.293 20.3757 14.2909V17.9873H17.89C18.3634 16.5747 19.1896 15.3062 20.2903 14.3021L20.2889 14.3024ZM20.9701 14.3024C22.0697 15.306 22.894 16.5745 23.3643 17.9871H20.8767V14.2907C20.9061 14.2919 20.9358 14.2921 20.9635 14.2937C20.9668 14.2963 20.9682 14.2998 20.9715 14.3021L20.9701 14.3024ZM23.7862 20.583C23.7851 21.2709 23.6829 21.955 23.4829 22.6132H20.8767V18.4869H23.5137C23.6952 19.1708 23.7873 19.8754 23.7876 20.583H23.7862ZM20.8767 26.6006V23.1119H23.3177C22.7878 24.4495 21.9518 25.6444 20.8767 26.6006ZM20.3771 23.1119V26.6013C19.3004 25.646 18.4637 24.4506 17.9348 23.1119H20.3771ZM21.336 26.8666C22.4705 25.8396 23.3366 24.5506 23.8588 23.1121H26.4127C25.9696 24.1279 25.2674 25.0094 24.3764 25.6683C23.4854 26.3272 22.4369 26.7405 21.336 26.8666ZM26.6052 22.6123H24.0126C24.1949 21.9509 24.2873 21.268 24.2873 20.582C24.2878 19.8757 24.2028 19.1719 24.0343 18.486H26.5744C27.0477 19.8185 27.0586 21.2716 26.6054 22.6111L26.6052 22.6123ZM26.3719 17.9876H23.8971C23.4765 16.6453 22.7559 15.4163 21.7899 14.3938C22.7855 14.5824 23.7213 15.0072 24.5186 15.6326C25.3159 16.2579 25.9515 17.0655 26.3719 17.9876ZM19.4719 14.3927C18.5039 15.4149 17.7817 16.6443 17.3602 17.9876H14.8822C15.3032 17.0644 15.9399 16.256 16.7387 15.6304C17.5374 15.0048 18.4748 14.5803 19.4719 14.3927ZM14.8418 23.1126H17.3957C17.9178 24.5508 18.7837 25.8396 19.9179 26.8666C18.8167 26.7404 17.768 26.3272 16.8768 25.6682C15.9855 25.0093 15.283 24.1279 14.8395 23.1121L14.8418 23.1126Z" fill="#772569"/>
</svg>
