<svg width="41" height="41" viewBox="0 0 41 41" fill="none" xmlns="http://www.w3.org/2000/svg">
<rect x="0.626953" y="0.595947" width="40" height="40" rx="10" fill="#ABC73E"/>
<path d="M19.0655 18.4084H14.0653C14.0243 18.4084 13.9837 18.4003 13.9458 18.3846C13.9079 18.3689 13.8734 18.3459 13.8444 18.3169C13.8154 18.2879 13.7924 18.2535 13.7767 18.2156C13.761 18.1777 13.7529 18.137 13.7529 18.096V16.5342C13.7529 16.4513 13.7858 16.3718 13.8444 16.3132C13.903 16.2546 13.9824 16.2216 14.0653 16.2216H19.0655C19.1066 16.2216 19.1472 16.2296 19.1851 16.2454C19.223 16.2611 19.2575 16.2841 19.2865 16.3131C19.3155 16.3422 19.3385 16.3766 19.3542 16.4146C19.3699 16.4525 19.3779 16.4931 19.3779 16.5342V18.096C19.3779 18.137 19.3698 18.1777 19.3541 18.2156C19.3384 18.2535 19.3154 18.2879 19.2864 18.3169C19.2574 18.3459 19.223 18.3689 19.1851 18.3846C19.1472 18.4003 19.1066 18.4084 19.0655 18.4084ZM14.3779 17.7834H18.7532V16.8458H14.3779V17.7834Z" fill="#772569"/>
<path d="M16.5756 30.5957C16.3587 30.5956 16.142 30.5836 15.9265 30.5599C14.6796 30.4178 13.5161 29.8629 12.621 28.9833C11.7258 28.1038 11.1506 26.9501 10.9867 25.7059C10.8228 24.4618 11.0796 23.1985 11.7164 22.1172C12.3532 21.0358 13.3333 20.1984 14.5008 19.7383C14.5577 19.7154 14.6064 19.6758 14.6404 19.6248C14.6744 19.5738 14.6922 19.5137 14.6915 19.4523V18.0958C14.6915 18.013 14.7244 17.9335 14.783 17.8749C14.8415 17.8164 14.921 17.7834 15.0038 17.7834H18.1289C18.2118 17.7834 18.2912 17.8164 18.3498 17.8749C18.4084 17.9335 18.4413 18.013 18.4413 18.0958V19.4523C18.4407 19.5131 18.4581 19.5726 18.4915 19.6233C18.5249 19.6741 18.5727 19.7137 18.6287 19.7371C19.8469 20.2168 20.8596 21.1064 21.4923 22.2526C22.125 23.3987 22.3381 24.7297 22.0948 26.0161C21.8516 27.3025 21.1672 28.4638 20.1597 29.2998C19.1521 30.1358 17.8846 30.5942 16.5753 30.5959L16.5756 30.5957ZM15.3167 18.4082V19.4523C15.3179 19.6392 15.2625 19.822 15.1578 19.9768C15.0532 20.1316 14.9041 20.2511 14.7303 20.3196C13.6454 20.7469 12.7437 21.5393 12.1805 22.5603C11.6174 23.5812 11.4283 24.7667 11.6457 25.9122C11.8632 27.0577 12.4735 28.0915 13.3716 28.8351C14.2696 29.5787 15.399 29.9856 16.565 29.9856C17.731 29.9856 18.8604 29.5787 19.7584 28.8351C20.6565 28.0915 21.2669 27.0577 21.4843 25.9122C21.7017 24.7667 21.5126 23.5812 20.9495 22.5603C20.3863 21.5393 19.4846 20.7469 18.3997 20.3196C18.2264 20.251 18.0779 20.1315 17.9738 19.9769C17.8697 19.8222 17.8149 19.6397 17.8166 19.4533V18.408L15.3167 18.4082Z" fill="#772569"/>
<path d="M16.5655 29.3459C15.9047 29.3478 15.252 29.1996 14.6568 28.9124C14.0617 28.6252 13.5395 28.2065 13.1298 27.6879C12.7202 27.1694 12.4336 26.5645 12.2919 25.9191C12.1502 25.2736 12.157 24.6044 12.3117 23.9619C12.3278 23.8934 12.3666 23.8323 12.4218 23.7886C12.4769 23.7448 12.5452 23.721 12.6156 23.7209H17.1902V24.3459H12.8706C12.8344 24.5523 12.8158 24.7614 12.8152 24.9709C12.8152 25.9655 13.2103 26.9193 13.9136 27.6226C14.6169 28.3259 15.5707 28.721 16.5653 28.721C17.5598 28.721 18.5137 28.3259 19.217 27.6226C19.9202 26.9193 20.3153 25.9655 20.3153 24.9709C20.3146 24.7614 20.2961 24.5523 20.26 24.3459H19.0656V23.7209H20.5149C20.5854 23.721 20.6537 23.7448 20.7089 23.7885C20.7641 23.8323 20.8029 23.8933 20.819 23.9619C20.9738 24.6044 20.9806 25.2736 20.8389 25.9191C20.6971 26.5645 20.4106 27.1694 20.0009 27.6879C19.5913 28.2065 19.0691 28.6252 18.4739 28.9124C17.8788 29.1996 17.2261 29.3478 16.5653 29.3459H16.5655Z" fill="#772569"/>
<path d="M17.8154 23.7207H18.4404V24.3457H17.8154V23.7207Z" fill="#772569"/>
<path d="M14.6907 27.1585C14.4017 27.1585 14.1216 27.0582 13.8981 26.8748C13.6747 26.6914 13.5218 26.4362 13.4654 26.1527C13.409 25.8692 13.4527 25.5749 13.589 25.32C13.7252 25.0651 13.9457 24.8653 14.2127 24.7547C14.4798 24.6441 14.7769 24.6294 15.0535 24.7133C15.3301 24.7972 15.5691 24.9744 15.7297 25.2147C15.8903 25.4551 15.9627 25.7437 15.9344 26.0313C15.9061 26.319 15.7789 26.588 15.5746 26.7924C15.3401 27.0268 15.0222 27.1585 14.6907 27.1585ZM14.6907 25.2836C14.5462 25.2834 14.4061 25.3333 14.2942 25.4249C14.1824 25.5164 14.1057 25.6439 14.0773 25.7856C14.0489 25.9273 14.0705 26.0745 14.1385 26.202C14.2064 26.3296 14.3165 26.4296 14.4499 26.4852C14.5834 26.5407 14.7319 26.5482 14.8703 26.5065C15.0087 26.4647 15.1283 26.3763 15.2088 26.2563C15.2893 26.1362 15.3257 25.992 15.3117 25.8481C15.2978 25.7043 15.2344 25.5697 15.1324 25.4674C15.0153 25.35 14.8565 25.2839 14.6907 25.2836Z" fill="#772569"/>
<path d="M25.0029 30.5959C24.423 30.5953 23.867 30.3646 23.4569 29.9545C23.0468 29.5444 22.8161 28.9884 22.8154 28.4084V16.2207C22.8154 16.1796 22.8235 16.139 22.8391 16.1011C22.8548 16.0632 22.8778 16.0287 22.9068 15.9997C22.9358 15.9706 22.9703 15.9476 23.0082 15.9319C23.0461 15.9162 23.0868 15.9081 23.1278 15.9081H26.8779C26.9607 15.9081 27.0402 15.9411 27.0988 15.9997C27.1573 16.0583 27.1902 16.1378 27.1902 16.2207V18.4091H26.5653V16.5342H23.4404V28.4089C23.4404 28.8233 23.605 29.2207 23.8981 29.5138C24.1911 29.8068 24.5885 29.9714 25.0029 29.9714C25.4174 29.9714 25.8148 29.8068 26.1078 29.5138C26.4009 29.2207 26.5655 28.8233 26.5655 28.4089V20.2856H27.1905V28.408C27.1898 28.9879 26.9591 29.544 26.549 29.954C26.1389 30.3641 25.5829 30.5948 25.0029 30.5955V30.5959Z" fill="#772569"/>
<path d="M28.128 16.5334H21.8778C21.795 16.5333 21.7156 16.5004 21.657 16.4418C21.5984 16.3832 21.5655 16.3038 21.5654 16.221V14.9708C21.5654 14.888 21.5983 14.8085 21.6569 14.7499C21.7155 14.6914 21.795 14.6584 21.8778 14.6584H28.128C28.2108 14.6584 28.2903 14.6913 28.3489 14.7499C28.4075 14.8085 28.4405 14.8879 28.4406 14.9708V16.221C28.4404 16.3038 28.4075 16.3832 28.3489 16.4418C28.2903 16.5004 28.2108 16.5333 28.128 16.5334ZM22.1906 15.9082H27.8154V15.2832H22.1906V15.9082Z" fill="#772569"/>
<path d="M23.1279 17.4712H24.6898V18.0962H23.1279V17.4712Z" fill="#772569"/>
<path d="M23.1279 19.3457H24.6898V19.9707H23.1279V19.3457Z" fill="#772569"/>
<path d="M23.1279 21.2206H24.6898V21.8456H23.1279V21.2206Z" fill="#772569"/>
<path d="M23.1279 23.0958H24.6898V23.721H23.1279V23.0958Z" fill="#772569"/>
<path d="M23.1279 24.9707H24.6898V25.5957H23.1279V24.9707Z" fill="#772569"/>
<path d="M23.1279 26.8462H24.6898V27.4712H23.1279V26.8462Z" fill="#772569"/>
<path d="M17.1902 16.8461H15.9403C15.8575 16.8461 15.778 16.8132 15.7194 16.7546C15.6608 16.696 15.6279 16.6166 15.6279 16.5337V13.4087C15.6287 12.663 15.9253 11.948 16.4525 11.4207C16.9798 10.8934 17.6947 10.5968 18.4404 10.5959H23.128C23.8737 10.5969 24.5886 10.8935 25.1158 11.4208C25.6431 11.9481 25.9397 12.663 25.9405 13.4087V14.9705C25.9405 15.0534 25.9076 15.1328 25.849 15.1914C25.7904 15.25 25.711 15.2829 25.6281 15.2829H24.378C24.2951 15.2829 24.2157 15.25 24.1571 15.1914C24.0985 15.1328 24.0656 15.0534 24.0656 14.9705V13.4087C24.0655 13.16 23.9668 12.9216 23.7909 12.7458C23.6151 12.5699 23.3767 12.4712 23.128 12.4711H18.4404C18.3173 12.4711 18.1953 12.4953 18.0816 12.5424C17.9678 12.5895 17.8644 12.6586 17.7774 12.7456C17.6903 12.8327 17.6213 12.9361 17.5741 13.0498C17.527 13.1636 17.5028 13.2855 17.5028 13.4087V16.5335C17.5028 16.6164 17.4698 16.6958 17.4112 16.7544C17.3526 16.813 17.2731 16.8461 17.1902 16.8461ZM16.2527 16.2211H16.8776V13.4087C16.8783 12.9946 17.0431 12.5978 17.3358 12.305C17.6286 12.0122 18.0255 11.8475 18.4395 11.8468H23.1271C23.5411 11.8475 23.938 12.0122 24.2308 12.305C24.5235 12.5978 24.6883 12.9946 24.689 13.4087V14.6586H25.3139V13.4087C25.3133 12.8287 25.0826 12.2727 24.6725 11.8626C24.2624 11.4525 23.7064 11.2218 23.1264 11.2211H18.4404C17.8604 11.2218 17.3044 11.4524 16.8943 11.8625C16.4842 12.2726 16.2535 12.8287 16.2529 13.4087L16.2527 16.2211Z" fill="#772569"/>
<path d="M29.0661 13.0957C28.777 13.0957 28.4968 12.9955 28.2733 12.812C28.0498 12.6286 27.8968 12.3734 27.8404 12.0898C27.784 11.8063 27.8277 11.5119 27.964 11.2569C28.1003 11.0019 28.3207 10.8021 28.5878 10.6915C28.855 10.5808 29.1522 10.5662 29.4288 10.6501C29.7055 10.734 29.9445 10.9113 30.1052 11.1517C30.2658 11.392 30.3382 11.6807 30.3098 11.9684C30.2815 12.2562 30.1543 12.5252 29.9499 12.7296C29.8338 12.8457 29.6961 12.9378 29.5444 13.0006C29.3928 13.0635 29.2302 13.0958 29.0661 13.0957ZM29.0661 11.2208C28.9215 11.2207 28.7813 11.2706 28.6695 11.3622C28.5576 11.4538 28.4809 11.5813 28.4526 11.7231C28.4242 11.8649 28.4458 12.0121 28.5138 12.1397C28.5818 12.2673 28.6919 12.3674 28.8254 12.4229C28.9589 12.4784 29.1075 12.4859 29.2459 12.4441C29.3843 12.4023 29.504 12.3139 29.5845 12.1938C29.665 12.0737 29.7014 11.9294 29.6874 11.7855C29.6735 11.6416 29.61 11.507 29.508 11.4046C29.3909 11.2872 29.2319 11.2211 29.0661 11.2208Z" fill="#772569"/>
<path d="M27.191 14.3459C26.974 14.3462 26.7636 14.2713 26.5958 14.1338C26.4279 13.9964 26.3128 13.805 26.2702 13.5923C26.2276 13.3796 26.2601 13.1586 26.3621 12.9672C26.4641 12.7757 26.6294 12.6255 26.8297 12.5422C27.03 12.4589 27.253 12.4477 27.4607 12.5103C27.6685 12.573 27.848 12.7058 27.9688 12.886C28.0896 13.0663 28.1441 13.2828 28.1232 13.4987C28.1022 13.7147 28.007 13.9167 27.8538 14.0703C27.7668 14.1575 27.6635 14.2268 27.5498 14.2741C27.4361 14.3214 27.3141 14.3458 27.191 14.3459ZM27.191 13.0958C27.1186 13.0957 27.0485 13.1207 26.9926 13.1665C26.9366 13.2123 26.8982 13.2761 26.884 13.347C26.8698 13.4179 26.8807 13.4915 26.9147 13.5554C26.9487 13.6192 27.0038 13.6692 27.0705 13.697C27.1373 13.7248 27.2117 13.7285 27.2809 13.7076C27.3501 13.6867 27.41 13.6425 27.4502 13.5824C27.4905 13.5223 27.5087 13.4501 27.5017 13.3782C27.4947 13.3062 27.463 13.2388 27.4119 13.1876C27.3533 13.129 27.2738 13.0961 27.191 13.096V13.0958Z" fill="#772569"/>
<path d="M12.1911 14.346C11.9019 14.346 11.6218 14.2457 11.3983 14.0623C11.1748 13.8789 11.0218 13.6236 10.9654 13.3401C10.909 13.0565 10.9527 12.7621 11.089 12.5072C11.2253 12.2522 11.4457 12.0523 11.7129 11.9417C11.98 11.831 12.2772 11.8164 12.5538 11.9004C12.8305 11.9843 13.0695 12.1615 13.2302 12.4019C13.3908 12.6423 13.4631 12.9309 13.4348 13.2187C13.4065 13.5064 13.2793 13.7754 13.0749 13.9799C12.9588 14.096 12.8211 14.188 12.6694 14.2509C12.5178 14.3137 12.3552 14.346 12.1911 14.346ZM12.1911 12.4711C12.0464 12.4708 11.9062 12.5208 11.7942 12.6123C11.6822 12.7039 11.6055 12.8315 11.577 12.9733C11.5486 13.1152 11.5702 13.2624 11.6382 13.3901C11.7062 13.5178 11.8163 13.618 11.9499 13.6735C12.0834 13.7291 12.2321 13.7366 12.3706 13.6948C12.5091 13.653 12.6288 13.5645 12.7094 13.4444C12.7899 13.3242 12.8263 13.1799 12.8123 13.0359C12.7983 12.8919 12.7349 12.7572 12.6327 12.6548C12.5748 12.5966 12.506 12.5504 12.4302 12.5189C12.3544 12.4873 12.2732 12.471 12.1911 12.4708V12.4711Z" fill="#772569"/>
<path d="M14.3781 15.5954C14.1613 15.5953 13.9512 15.52 13.7837 15.3824C13.6162 15.2448 13.5016 15.0534 13.4593 14.8408C13.4171 14.6281 13.4499 14.4075 13.5522 14.2163C13.6544 14.0251 13.8198 13.8753 14.0201 13.7924C14.2204 13.7095 14.4433 13.6986 14.6507 13.7616C14.8581 13.8246 15.0373 13.9575 15.1578 14.1378C15.2782 14.318 15.3324 14.5345 15.3111 14.7502C15.2898 14.966 15.1944 15.1676 15.0411 15.3209C14.8652 15.4967 14.6267 15.5955 14.3781 15.5954ZM14.3781 14.3455C14.3057 14.3454 14.2357 14.3705 14.1797 14.4163C14.1238 14.4621 14.0855 14.5259 14.0713 14.5969C14.0572 14.6678 14.068 14.7414 14.1021 14.8052C14.1361 14.869 14.1912 14.919 14.258 14.9468C14.3248 14.9745 14.3991 14.9782 14.4683 14.9573C14.5375 14.9364 14.5973 14.8921 14.6376 14.8321C14.6778 14.772 14.696 14.6998 14.689 14.6278C14.682 14.5559 14.6503 14.4885 14.5992 14.4373C14.5702 14.4082 14.5357 14.3851 14.4978 14.3694C14.4598 14.3536 14.4192 14.3455 14.3781 14.3455Z" fill="#772569"/>
<path d="M26.5654 19.0332H27.1904V19.6591H26.5654V19.0332Z" fill="#772569"/>
</svg>
