<svg width="25" height="25" viewBox="0 0 25 25" fill="none" xmlns="http://www.w3.org/2000/svg">
<mask id="mask0_848_3116" style="mask-type:alpha" maskUnits="userSpaceOnUse" x="0" y="0" width="25" height="25">
<rect x="0.605469" y="0.144531" width="24" height="24" fill="#D9D9D9"/>
</mask>
<g mask="url(#mask0_848_3116)">
<path d="M22.6055 10.6445V12.6445C22.6057 12.7644 22.5843 12.8833 22.5425 12.9955L19.7855 20.3445C19.6417 20.7254 19.3856 21.0536 19.0511 21.2858C18.7167 21.5179 18.3196 21.643 17.9125 21.6445H4.60547C4.07504 21.6445 3.56633 21.4338 3.19126 21.0587C2.81618 20.6837 2.60547 20.175 2.60547 19.6445V10.6445C2.60547 10.1141 2.81618 9.60539 3.19126 9.23032C3.56633 8.85525 4.07504 8.64453 4.60547 8.64453H7.13647L11.8365 3.00453C11.9304 2.89178 12.048 2.80108 12.1809 2.73886C12.3138 2.67665 12.4587 2.64444 12.6055 2.64453H14.2175C14.5347 2.64409 14.8474 2.71909 15.1299 2.86335C15.4124 3.00761 15.6565 3.21699 15.8421 3.4742C16.0277 3.73142 16.1495 4.02909 16.1974 4.34265C16.2452 4.6562 16.2179 4.97665 16.1175 5.27753L14.9935 8.64453H20.6055C21.1359 8.64453 21.6446 8.85525 22.0197 9.23032C22.3948 9.60539 22.6055 10.1141 22.6055 10.6445ZM4.60547 19.6445H6.60547V10.6445H4.60547V19.6445ZM20.6055 10.6445H13.6055C13.447 10.6445 13.2908 10.6067 13.1497 10.5344C13.0087 10.4621 12.8869 10.3574 12.7943 10.2287C12.7017 10.1001 12.641 9.95132 12.6172 9.79463C12.5934 9.63794 12.6072 9.47784 12.6575 9.32753L14.2195 4.64453H13.0735L8.60547 10.0065V19.6445H17.9125L20.6055 12.4635V10.6445Z" fill="#1E0A1B" fill-opacity="0.3"/>
</g>
</svg>
