<svg width="326" height="133" viewBox="0 0 326 133" fill="none" xmlns="http://www.w3.org/2000/svg">
<path d="M263.981 33.5091C263.895 34.26 263.61 34.974 263.153 35.5764C259.745 42.1194 256.34 48.6659 252.868 55.1929C246.389 67.3446 240.409 79.7715 233.04 91.4348C230.687 95.1468 227.95 98.6136 225.114 102.404H199.066C199.595 102.41 200.119 102.297 200.599 102.075C206.11 99.4458 210.84 95.426 214.324 90.4118C214.774 89.7616 215.075 89.0205 215.207 88.2411C215.339 87.4616 215.299 86.6627 215.088 85.9007C212.677 75.4492 210.258 64.9996 207.829 54.5517C206.213 47.5701 204.617 40.5867 202.99 33.4985H222.336L228.078 72.2376C233.444 59.1534 239.333 46.4032 244.88 33.5358L263.981 33.5091Z" fill="white"/>
<path d="M266.207 29.7989V102.389H225.12C227.961 98.5993 230.691 95.1413 233.046 91.4205C240.415 79.7573 246.397 67.3303 252.874 55.1786C256.347 48.6664 259.775 42.1276 263.159 35.5622C263.618 34.961 263.904 34.2463 263.987 33.4948H244.894C239.349 46.3676 233.458 59.1178 228.093 72.1966C226.177 59.2907 224.263 46.3777 222.351 33.4575H202.992C204.619 40.5457 206.215 47.5274 207.832 54.5108C210.246 64.9622 212.665 75.4119 215.09 85.8597C215.301 86.6218 215.342 87.4207 215.21 88.2002C215.078 88.9796 214.776 89.7206 214.327 90.3709C210.846 95.3878 206.114 99.4083 200.601 102.034C200.121 102.256 199.598 102.369 199.069 102.363H196.23V29.7989H266.207Z" fill="#FEFEFE"/>
<path d="M325.3 63.963C325.105 73.2575 321.615 82.1805 315.453 89.1414C309.291 96.1023 300.857 100.649 291.655 101.97C289.69 102.252 287.708 102.389 285.723 102.379H225.119C227.961 98.5888 230.69 95.1308 233.045 91.41C240.414 79.7467 246.396 67.3197 252.873 55.168C256.346 48.6559 259.774 42.1171 263.158 35.5516C263.617 34.9504 263.903 34.2358 263.986 33.4843H244.9C239.356 46.3571 233.465 59.1073 228.099 72.1861C226.183 59.2778 222.357 33.447 222.357 33.447H202.998C204.625 40.5352 206.222 47.5168 207.838 54.5002C210.247 64.9528 212.662 75.4007 215.081 85.8439C215.291 86.6059 215.332 87.4048 215.2 88.1843C215.068 88.9637 214.767 89.7048 214.317 90.355C210.836 95.3719 206.105 99.3924 200.592 102.018C200.112 102.241 199.588 102.353 199.059 102.347H196.217C144.293 102.279 92.3658 102.226 40.4365 102.187C31.3607 102.206 22.554 99.1058 15.4917 93.4054C8.42939 87.705 3.54052 79.7508 1.6441 70.8754C-2.59711 51.3495 10.3467 30.497 29.8655 25.5134C33.2569 24.6425 36.745 24.2044 40.2465 24.2098H126.625C126.761 24.3071 126.87 24.4376 126.941 24.5891C127.013 24.7405 127.045 24.9077 127.033 25.0747C126.759 27.8766 126.163 30.6376 125.257 33.3031C124.989 33.4679 124.69 33.5738 124.378 33.6139C124.066 33.654 123.75 33.6274 123.449 33.5358C118.261 32.3698 112.88 32.3632 107.69 33.5163C102.499 34.6694 97.6273 36.9538 93.4214 40.2066C85.5929 45.9659 80.3323 54.5629 78.7672 64.1548C77.7324 69.158 77.8906 74.3347 79.229 79.2654C82.1612 89.2112 90.2085 94.1096 100.574 92.6106C106.267 91.7548 111.436 88.8008 115.063 84.3289C115.634 83.6664 116.149 82.2456 117.442 83.5599C117.58 84.5092 117.58 85.4735 117.442 86.4229L117.41 86.7195C117.341 87.2523 117.267 87.7318 117.199 88.2362C117.205 88.3404 117.191 88.4449 117.156 88.5434C117.093 89.0763 117.039 89.6091 117.029 90.1419C117.036 90.2424 117.036 90.3433 117.029 90.4438C116.969 90.6412 116.949 90.8485 116.971 91.0536C116.993 91.2586 117.056 91.4571 117.156 91.6373C117.531 91.9175 118.002 92.0393 118.465 91.9765H130.734C130.995 92.0187 131.262 92.005 131.517 91.9364C131.772 91.8678 132.009 91.7459 132.214 91.5787C132.229 91.5495 132.241 91.5192 132.251 91.4881C132.324 91.329 132.387 91.166 132.441 90.9997C132.846 89.696 133.036 88.3348 133.002 86.9699C132.982 86.0334 133.023 85.0966 133.125 84.1655C133.597 79.951 134.281 75.779 135.045 71.616C135.151 71.0334 135.262 70.4438 135.368 69.8612C135.427 69.5433 135.485 69.2254 135.546 68.9022C136.128 65.8705 136.745 62.8476 137.348 59.8159L138.796 52.5679C140.521 43.9245 142.258 35.2846 144.007 26.6483C144.027 25.973 144.21 25.3126 144.54 24.7231C144.616 24.6251 144.705 24.5379 144.804 24.4638C144.958 24.3537 145.128 24.2697 145.309 24.2151C191.9 24.2151 238.492 24.2062 285.084 24.1885C294.138 23.9321 303 26.8273 310.156 32.3796C315.044 36.0293 318.974 40.8088 321.612 46.3091C324.249 51.8094 325.515 57.8668 325.3 63.963Z" fill="#78266A"/>
<path d="M117.167 83.5048C116.251 82.8423 116.102 83.86 115.794 84.2259C113.507 87.1984 110.541 89.5805 107.146 91.1732C103.75 92.7659 100.022 93.523 96.2739 93.3814C92.3386 93.3807 88.5127 92.0859 85.3857 89.6965C82.2588 87.3071 80.0044 83.9557 78.9699 80.1587C75.4924 67.1013 78.652 55.39 87.2516 45.2683C95.6701 35.3598 106.777 31.4312 119.645 32.2784C121.403 32.4967 123.147 32.8187 124.867 33.2428C125.682 30.2878 126.269 27.2744 126.621 24.2293C127.764 20.1233 128.686 15.9591 129.383 11.7544C129.738 10.227 130.024 8.68538 130.358 7.06207H148.172C147.307 12.788 146.051 18.3275 144.89 23.8901C142.355 35.6919 140.117 47.563 137.695 59.411C136.539 64.9984 135.331 70.5823 134.445 76.2124C133.67 81.1267 133.12 86.0943 132.765 91.0566C132.764 91.3807 132.683 91.6995 132.527 91.9837C127.274 92.254 122.01 92.2326 116.759 91.9197C116.562 88.8383 117.592 86.2097 117.167 83.5048Z" fill="#ACC827"/>
<path d="M117.167 83.5048C118.11 86.1138 116.684 88.6553 117.092 91.497H132.366C132.689 88.9946 133.141 86.4229 133.341 83.8369C133.864 78.2895 134.694 72.7752 135.828 67.3197C137.426 58.9528 139.202 50.6249 140.897 42.2775C142.091 36.4355 143.291 30.6036 144.497 24.7817C144.595 24.4799 144.727 24.1898 144.889 23.9167L145.276 24.24C144.111 28.2092 143.216 32.2531 142.6 36.3437C140.204 47.9537 137.993 59.6099 135.659 71.2235C134.376 78.1551 133.471 85.1511 132.945 92.1808C127.419 92.5138 121.876 92.4996 116.352 92.1382C116.626 89.2491 116.898 86.3714 117.167 83.5048Z" fill="#B8B05A"/>
<path d="M31.5648 69.6552C31.5398 71.7983 32.2371 73.8875 33.5442 75.5861C34.8513 77.2846 36.6922 78.4937 38.7702 79.0185C45.4339 80.8478 51.9769 79.9065 58.4559 77.9103C59.7384 77.2586 61.1319 76.8537 62.5639 76.7168C62.9724 80.672 63.3756 84.5793 63.7894 88.6038C61.5096 89.9532 59.0211 90.9135 56.4259 91.4455C48.4973 93.6129 40.1856 93.9879 32.094 92.5431C27.1874 91.6029 22.7436 89.0292 19.4864 85.2411C16.2291 81.453 14.3503 76.6738 14.156 71.6817C13.6864 65.9332 14.5572 60.1541 16.6997 54.7991C18.8422 49.4442 22.1979 44.6594 26.503 40.8211C35.8397 32.1185 52.0888 29.4651 62.5568 34.9602C65.2616 36.2494 67.5377 38.2908 69.1126 40.8399C70.6874 43.389 71.4945 46.3379 71.437 49.3337C71.61 52.3916 70.8888 55.4337 69.3617 58.0886C67.8346 60.7435 65.5676 62.8964 62.8374 64.2845C58.1467 66.746 53.0168 68.259 47.741 68.737C42.7534 69.3677 37.7258 69.6277 32.6997 69.5149C32.3185 69.535 31.9393 69.5818 31.5648 69.6552Z" fill="#ACC827"/>
<path d="M310.174 35.2017C308.753 39.2529 307.354 43.2224 305.933 47.3002C302.317 45.744 298.442 44.8755 294.508 44.7391C292.522 44.6037 290.53 44.9069 288.675 45.6271C284.906 47.254 284.391 50.822 287.545 53.4204C288.9 54.4794 290.377 55.3698 291.946 56.072C294.59 57.2875 297.123 58.7297 299.518 60.3825C308.318 66.6111 309.368 77.6457 301.866 85.4603C297.943 89.362 292.861 91.8865 287.382 92.655C278.948 94.2532 270.234 93.4166 262.258 90.2431C261.711 90.0163 261.177 89.7577 260.66 89.4688C260.315 89.2912 260.002 89.0443 259.557 88.7584L263.942 76.7239C267.928 78.5254 272.141 79.7742 276.465 80.4358C278.88 80.8659 281.359 80.7958 283.746 80.2298C284.704 80.059 285.594 79.6193 286.311 78.9621C287.028 78.3048 287.544 77.4571 287.798 76.5179C288.032 75.5088 287.959 74.4528 287.589 73.4854C287.219 72.518 286.568 71.6833 285.72 71.0885C284.318 69.9849 282.794 69.0474 281.177 68.2948C278.794 67.1522 276.491 65.8504 274.284 64.3981C263.261 56.8428 266.576 44.5278 273.277 38.8018C276.938 35.7216 281.36 33.682 286.08 32.8964C292.99 31.5516 300.118 31.8404 306.895 33.74C308.062 34.042 309.168 34.5405 310.167 35.2142L310.174 35.2017Z" fill="#FEFEFE"/>
<path d="M195.17 35.2533L190.928 47.2931C187.332 45.7636 183.488 44.8995 179.583 44.7427C177.793 44.6335 175.997 44.8452 174.281 45.3678C173.372 45.5738 172.54 46.0309 171.878 46.6872C171.216 47.3435 170.753 48.1726 170.539 49.0798C170.419 49.9695 170.566 50.875 170.963 51.6804C171.36 52.4859 171.988 53.1548 172.766 53.6016C174.755 55.0082 176.885 56.2045 179.121 57.1714C181.377 58.2669 183.51 59.6 185.483 61.148C187.303 62.5532 188.799 64.3326 189.872 66.3659C190.945 68.3992 191.57 70.6391 191.703 72.9343C191.836 75.2295 191.475 77.5265 190.644 79.6703C189.814 81.814 188.533 83.7545 186.888 85.3608C182.992 89.2877 177.922 91.8363 172.447 92.6195C163.975 94.2563 155.212 93.4304 147.195 90.2396C146.77 90.062 146.346 89.8737 145.939 89.6571C145.532 89.4404 145.16 89.174 144.556 88.7921L148.935 76.715C152.914 78.5274 157.125 79.7767 161.448 80.427C163.732 80.8224 166.069 80.7881 168.34 80.3257C169.428 80.2257 170.455 79.7777 171.268 79.048C172.081 78.3184 172.637 77.3461 172.854 76.2753C173.071 75.2046 172.937 74.0924 172.471 73.104C172.006 72.1156 171.234 71.3036 170.271 70.7884C168.966 69.893 167.606 69.0804 166.199 68.3552C164.051 67.199 161.851 66.144 159.805 64.8031C147.818 56.9192 151.656 44.1797 158.686 38.491C162.856 35.1954 167.874 33.1479 173.159 32.5856C179.457 31.6534 185.882 32.0712 192.006 33.8111C193.156 34.0479 194.237 34.5408 195.17 35.2533Z" fill="#FEFEFE"/>
<path d="M116.351 92.1044L132.944 92.147C132.637 92.6141 132.154 92.5501 131.701 92.5501H117.557C117.109 92.5501 116.621 92.6017 116.351 92.1044Z" fill="#663C2C"/>
<path d="M122.245 47.7033C120.691 54.2196 120.049 60.9579 117.86 67.3197C116.243 72.0387 113.746 76.2 109.033 78.5088C107.922 79.1511 106.674 79.5177 105.393 79.5778C104.111 79.6379 102.834 79.3898 101.668 78.8543C100.503 78.3188 99.4826 77.5115 98.6934 76.5002C97.9043 75.4889 97.3692 74.303 97.1331 73.0422C94.8118 64.1726 99.2537 52.6176 106.962 47.6571C108.861 46.38 111.035 45.5695 113.307 45.2917C115.579 45.014 117.884 45.2768 120.035 46.0587C120.498 46.1629 120.934 46.3631 121.315 46.6464C121.695 46.9297 122.012 47.2898 122.245 47.7033Z" fill="#79266A"/>
<path d="M33.4678 56.7524C34.1222 52.9774 36.2476 49.6162 39.3776 47.4065C42.5075 45.1969 46.3863 44.3194 50.1626 44.9666C51.1408 45.1465 52.0493 45.5962 52.7855 46.265C53.5217 46.9337 54.0564 47.7949 54.3292 48.7513C54.5337 49.8326 54.3812 50.9511 53.8946 51.9381C53.4079 52.9251 52.6136 53.7271 51.6314 54.2233C49.3868 55.3419 46.9513 56.027 44.4526 56.2427C40.8164 56.7708 37.1373 56.9416 33.4678 56.7524Z" fill="#782669"/>
<path d="M91.7077 127.791V123.782H96.606V122.578H91.7077V118.919H97.3218V117.701H90.1963V129.009H97.3804V127.789L91.7077 127.791Z" fill="black"/>
<path d="M104.187 117.081V121.343C103.448 121.052 102.653 120.931 101.861 120.988C101.372 120.983 100.889 121.09 100.448 121.302C100.008 121.513 99.6222 121.824 99.3211 122.208C99.024 122.555 98.8015 122.958 98.6673 123.394C98.5332 123.83 98.4903 124.289 98.5414 124.743V124.855C98.4896 125.969 98.8143 127.069 99.4632 127.977C99.7341 128.353 100.092 128.658 100.507 128.866C100.921 129.074 101.38 129.178 101.843 129.17C102.299 129.192 102.753 129.107 103.17 128.922C103.587 128.737 103.954 128.457 104.244 128.105L104.314 129.005H105.633V117.081H104.187ZM104.187 126.72C104.012 127.098 103.728 127.415 103.373 127.633C103.018 127.851 102.606 127.96 102.189 127.945C101.872 127.957 101.558 127.89 101.273 127.749C100.989 127.608 100.745 127.398 100.563 127.139C100.131 126.475 99.9234 125.691 99.9693 124.901C99.9251 124.333 100.083 123.767 100.414 123.303C100.746 122.84 101.231 122.508 101.783 122.366C102.581 122.262 103.388 122.25 104.189 122.329L104.187 126.72Z" fill="black"/>
<path d="M112.993 120.606V126.72C112.805 127.129 112.491 127.469 112.098 127.689C111.704 127.909 111.251 127.999 110.803 127.945C109.771 127.945 109.253 127.309 109.249 126.036V120.606H107.812V126.073C107.756 126.904 108.009 127.726 108.523 128.382C108.789 128.65 109.109 128.858 109.462 128.993C109.814 129.127 110.192 129.185 110.569 129.162C111.027 129.193 111.487 129.121 111.914 128.95C112.341 128.78 112.724 128.515 113.034 128.176L113.066 129.009H114.428V120.606H112.993Z" fill="black"/>
<path d="M121.334 127.524C120.957 127.835 120.481 128.001 119.993 127.991C119.666 128.009 119.34 127.947 119.042 127.81C118.745 127.674 118.485 127.466 118.286 127.206C117.845 126.547 117.634 125.76 117.688 124.968V124.698C117.634 123.893 117.844 123.093 118.286 122.418C118.484 122.159 118.742 121.952 119.037 121.814C119.332 121.677 119.657 121.613 119.982 121.628C120.492 121.616 120.986 121.808 121.355 122.16C121.726 122.511 121.947 122.992 121.97 123.501H123.332C123.325 123.086 123.232 122.677 123.06 122.299C122.888 121.922 122.639 121.584 122.33 121.306C121.686 120.731 120.845 120.427 119.982 120.457C119.283 120.444 118.594 120.629 117.995 120.99C117.428 121.348 116.979 121.864 116.702 122.475C116.39 123.16 116.236 123.907 116.251 124.659V124.897C116.185 126.031 116.546 127.149 117.263 128.03C117.605 128.411 118.027 128.712 118.499 128.91C118.971 129.108 119.481 129.199 119.993 129.176C120.555 129.178 121.109 129.045 121.609 128.789C122.1 128.541 122.521 128.174 122.835 127.723C123.129 127.322 123.302 126.846 123.334 126.35H121.971C121.956 126.58 121.891 126.804 121.781 127.007C121.671 127.21 121.518 127.386 121.334 127.524Z" fill="black"/>
<path d="M130.488 121.18C129.847 120.662 129.036 120.403 128.213 120.454C127.635 120.446 127.062 120.562 126.533 120.793C126.058 120.996 125.642 121.314 125.323 121.72C125.039 122.064 124.88 122.494 124.872 122.94H126.32C126.323 122.751 126.374 122.566 126.467 122.401C126.56 122.237 126.692 122.098 126.853 121.997C127.228 121.732 127.68 121.596 128.14 121.61C128.38 121.592 128.62 121.623 128.848 121.699C129.075 121.776 129.285 121.897 129.465 122.056C129.767 122.383 129.929 122.815 129.916 123.26C129.916 123.949 128.522 123.917 128.522 123.917C127.532 123.858 126.549 124.113 125.712 124.643C125.488 124.805 125.292 125.004 125.135 125.231C125.121 125.248 125.108 125.266 125.098 125.285C125.045 125.361 124.998 125.443 124.959 125.528V125.555C124.921 125.633 124.889 125.714 124.863 125.798C124.831 125.89 124.804 125.983 124.783 126.078C124.762 126.175 124.746 126.272 124.735 126.37C124.73 126.472 124.73 126.575 124.735 126.677C124.729 127.013 124.797 127.347 124.935 127.654C125.072 127.961 125.276 128.234 125.531 128.453C126.098 128.933 126.824 129.182 127.566 129.153H127.884C127.979 129.146 128.072 129.133 128.165 129.115H128.197C128.263 129.105 128.329 129.088 128.392 129.068C128.477 129.051 128.561 129.026 128.641 128.993C128.722 128.967 128.801 128.937 128.879 128.902C129.22 128.751 129.532 128.541 129.801 128.283L129.934 128.155V129.178H131.355V123.171C131.363 122.796 131.289 122.424 131.14 122.081C130.99 121.737 130.768 121.43 130.488 121.18ZM129.906 126.657C129.713 127.043 129.408 127.361 129.03 127.569C128.973 127.602 128.914 127.63 128.852 127.654C128.773 127.698 128.689 127.735 128.604 127.766H128.565L128.343 127.835H128.3L128.083 127.872H128.019C127.929 127.878 127.839 127.878 127.749 127.872C127.33 127.89 126.919 127.755 126.593 127.49C126.441 127.36 126.321 127.196 126.242 127.011C126.164 126.826 126.13 126.625 126.142 126.425C126.137 126.358 126.137 126.291 126.142 126.224C126.291 125.37 127.32 124.883 128.575 124.883C129.037 124.881 129.49 124.759 129.89 124.528L129.906 126.657Z" fill="black"/>
<path d="M136.469 127.945C136.34 127.958 136.209 127.943 136.086 127.9C135.963 127.857 135.851 127.787 135.758 127.696C135.606 127.474 135.533 127.207 135.552 126.938V121.722H137.151V120.608H135.552V118.571H134.105V120.606H132.572V121.72H134.105V126.931C134.07 127.522 134.242 128.107 134.593 128.584C134.776 128.784 135.002 128.939 135.254 129.039C135.505 129.139 135.776 129.181 136.046 129.162C136.419 129.162 136.79 129.111 137.149 129.009V127.879C136.925 127.924 136.697 127.946 136.469 127.945Z" fill="black"/>
<path d="M140.281 117.807C140.106 117.653 139.881 117.569 139.648 117.569C139.415 117.569 139.189 117.653 139.014 117.807C138.872 117.972 138.797 118.183 138.803 118.401C138.817 118.565 138.877 118.722 138.976 118.855C139.075 118.987 139.209 119.089 139.362 119.15C139.516 119.21 139.684 119.227 139.846 119.197C140.009 119.168 140.16 119.094 140.283 118.983C140.355 118.905 140.412 118.813 140.449 118.713C140.486 118.613 140.503 118.507 140.499 118.401C140.505 118.182 140.427 117.97 140.281 117.807ZM138.919 120.628V129.025H140.355V120.606L138.919 120.628Z" fill="black"/>
<path d="M148.862 121.64C148.516 121.25 148.088 120.941 147.608 120.736C147.129 120.531 146.61 120.434 146.089 120.452C145.393 120.441 144.708 120.625 144.113 120.985C143.525 121.352 143.056 121.88 142.761 122.507C142.429 123.2 142.261 123.96 142.273 124.728V124.83C142.219 125.974 142.6 127.097 143.338 127.973C143.684 128.364 144.112 128.672 144.591 128.878C145.071 129.083 145.589 129.18 146.111 129.161C146.815 129.178 147.51 128.993 148.114 128.629C148.7 128.262 149.168 127.733 149.46 127.107C149.781 126.418 149.941 125.666 149.927 124.906V124.805C149.986 123.653 149.605 122.522 148.862 121.64ZM147.844 127.133C147.638 127.398 147.375 127.613 147.073 127.761C146.772 127.908 146.441 127.985 146.105 127.985C145.77 127.985 145.439 127.908 145.137 127.761C144.836 127.613 144.572 127.398 144.367 127.133C143.909 126.476 143.681 125.685 143.72 124.885C143.665 124.028 143.894 123.176 144.372 122.462C144.569 122.193 144.828 121.975 145.127 121.827C145.426 121.68 145.756 121.606 146.089 121.613C146.427 121.607 146.762 121.682 147.066 121.831C147.369 121.981 147.632 122.201 147.833 122.473C148.293 123.128 148.522 123.917 148.485 124.716C148.539 125.57 148.313 126.418 147.842 127.131L147.844 127.133Z" fill="black"/>
<path d="M155.646 120.459C155.16 120.447 154.679 120.55 154.241 120.76C153.803 120.971 153.422 121.282 153.128 121.668L153.085 120.603H151.723V129.005H153.16V123.02C153.346 122.629 153.629 122.291 153.982 122.039C154.343 121.789 154.773 121.659 155.213 121.668C155.442 121.648 155.674 121.677 155.892 121.752C156.11 121.827 156.31 121.947 156.479 122.103C156.784 122.481 156.933 122.96 156.898 123.444V129.005H158.335V123.455C158.321 121.457 157.424 120.459 155.646 120.459Z" fill="black"/>
<path d="M171.806 124.643C171.507 124.182 171.102 123.799 170.623 123.53C169.928 123.145 169.187 122.851 168.417 122.654C167.702 122.491 167.024 122.194 166.419 121.779C166.238 121.642 166.091 121.464 165.99 121.261C165.889 121.058 165.836 120.834 165.836 120.606C165.825 120.349 165.875 120.093 165.982 119.859C166.088 119.625 166.249 119.42 166.451 119.26C166.954 118.908 167.561 118.736 168.174 118.772C168.839 118.729 169.496 118.939 170.014 119.36C170.093 119.431 170.165 119.508 170.23 119.592H171.841C171.789 119.468 171.725 119.349 171.651 119.237C171.305 118.7 170.817 118.27 170.241 117.994C169.593 117.684 168.881 117.529 168.163 117.543C167.163 117.498 166.179 117.808 165.385 118.418C165.048 118.679 164.776 119.014 164.591 119.398C164.406 119.782 164.313 120.203 164.32 120.629C164.314 121.003 164.389 121.373 164.539 121.715C164.689 122.057 164.911 122.363 165.19 122.612C166.009 123.265 166.963 123.727 167.984 123.963C168.738 124.137 169.455 124.442 170.104 124.864C170.297 125.015 170.451 125.21 170.553 125.433C170.654 125.657 170.7 125.901 170.687 126.146C170.694 126.399 170.641 126.65 170.532 126.878C170.424 127.107 170.262 127.306 170.062 127.46C169.525 127.812 168.888 127.98 168.248 127.938C167.527 127.975 166.815 127.766 166.229 127.345C166.069 127.224 165.931 127.077 165.82 126.91H164.204C164.286 127.114 164.393 127.308 164.522 127.487C164.916 128.032 165.454 128.457 166.076 128.712C166.761 129.012 167.502 129.164 168.25 129.158C169.272 129.211 170.282 128.919 171.118 128.33C171.459 128.076 171.734 127.743 171.92 127.36C172.105 126.977 172.196 126.555 172.184 126.13C172.195 125.609 172.064 125.095 171.806 124.643Z" fill="black"/>
<path d="M250.494 124.643C250.196 124.182 249.79 123.799 249.312 123.53C248.617 123.145 247.875 122.851 247.106 122.654C246.39 122.491 245.713 122.193 245.108 121.779C244.926 121.641 244.78 121.464 244.678 121.261C244.577 121.058 244.525 120.833 244.525 120.606C244.514 120.349 244.564 120.093 244.67 119.859C244.777 119.625 244.938 119.42 245.14 119.26C245.643 118.908 246.25 118.736 246.862 118.772C247.528 118.729 248.185 118.939 248.702 119.36C248.781 119.431 248.854 119.508 248.919 119.592H250.541C250.488 119.468 250.424 119.349 250.35 119.237C250.004 118.7 249.516 118.27 248.94 117.994C248.292 117.684 247.581 117.529 246.862 117.543C245.862 117.497 244.878 117.808 244.085 118.418C243.747 118.679 243.475 119.014 243.29 119.398C243.105 119.782 243.012 120.203 243.019 120.629C243.013 121.003 243.088 121.373 243.238 121.715C243.388 122.057 243.61 122.363 243.889 122.611C244.708 123.265 245.663 123.727 246.683 123.963C247.437 124.137 248.155 124.442 248.804 124.863C248.997 125.014 249.151 125.21 249.252 125.433C249.353 125.656 249.399 125.901 249.386 126.146C249.393 126.399 249.34 126.65 249.232 126.878C249.123 127.107 248.962 127.306 248.761 127.46C248.224 127.812 247.588 127.98 246.948 127.938C246.227 127.975 245.514 127.766 244.928 127.345C244.768 127.224 244.63 127.077 244.52 126.91H242.886C242.968 127.114 243.074 127.308 243.204 127.487C243.597 128.032 244.135 128.457 244.758 128.712C245.443 129.012 246.184 129.164 246.932 129.158C247.953 129.211 248.963 128.919 249.8 128.33C250.141 128.076 250.416 127.743 250.601 127.36C250.787 126.977 250.878 126.555 250.866 126.13C250.879 125.61 250.751 125.096 250.494 124.643Z" fill="black"/>
<path d="M178.581 120.606L176.613 126.904L174.519 120.606H172.921L175.94 128.941L175.617 129.796C175.507 130.21 175.274 130.582 174.949 130.861C174.609 131.076 174.211 131.18 173.809 131.158L173.422 131.126V132.293L173.955 132.394H174.224C175.366 132.394 176.195 131.696 176.711 130.3L180.085 120.597L178.581 120.606Z" fill="black"/>
<path d="M187.405 125.537C187.152 125.186 186.812 124.908 186.419 124.73C185.862 124.475 185.277 124.286 184.675 124.169C184.153 124.071 183.65 123.892 183.185 123.636C183.053 123.554 182.946 123.437 182.874 123.299C182.802 123.161 182.769 123.007 182.776 122.851C182.772 122.679 182.81 122.508 182.887 122.353C182.964 122.198 183.077 122.065 183.217 121.963C183.577 121.715 184.01 121.594 184.448 121.619C184.906 121.603 185.355 121.756 185.709 122.048L185.799 122.134H187.479C187.328 121.761 187.083 121.432 186.769 121.18C186.111 120.668 185.293 120.407 184.46 120.443C183.654 120.408 182.861 120.66 182.222 121.153C181.951 121.356 181.732 121.62 181.581 121.922C181.43 122.225 181.351 122.559 181.352 122.897C181.343 123.275 181.448 123.646 181.654 123.963C181.9 124.298 182.226 124.566 182.602 124.743C183.156 124.992 183.738 125.171 184.336 125.276C184.875 125.363 185.394 125.551 185.863 125.831C186.006 125.934 186.12 126.071 186.197 126.229C186.274 126.387 186.311 126.562 186.304 126.737C186.306 126.916 186.262 127.091 186.175 127.247C186.089 127.403 185.963 127.533 185.81 127.625C185.415 127.861 184.96 127.975 184.501 127.954C183.992 127.981 183.49 127.831 183.08 127.529C182.964 127.441 182.862 127.336 182.778 127.217H181.18C181.252 127.413 181.348 127.6 181.466 127.773C181.773 128.209 182.193 128.553 182.68 128.769C183.243 129.015 183.853 129.137 184.467 129.124C185.3 129.164 186.122 128.925 186.804 128.446C187.092 128.244 187.325 127.973 187.482 127.658C187.64 127.344 187.716 126.995 187.705 126.643C187.718 126.253 187.613 125.867 187.405 125.537Z" fill="black"/>
<path d="M223.094 125.537C222.842 125.186 222.502 124.908 222.108 124.73C221.552 124.471 220.966 124.279 220.364 124.159C219.842 124.061 219.34 123.881 218.874 123.626C218.742 123.543 218.635 123.427 218.563 123.289C218.492 123.151 218.458 122.996 218.466 122.841C218.462 122.668 218.5 122.497 218.576 122.342C218.653 122.188 218.766 122.054 218.906 121.953C219.267 121.704 219.7 121.583 220.137 121.608C220.596 121.592 221.044 121.745 221.398 122.038L221.488 122.123H223.169C223.017 121.75 222.772 121.422 222.458 121.169C221.801 120.657 220.982 120.396 220.149 120.432C219.343 120.398 218.55 120.649 217.912 121.143C217.641 121.346 217.421 121.609 217.27 121.912C217.119 122.215 217.041 122.548 217.041 122.887C217.032 123.264 217.137 123.636 217.343 123.952C217.589 124.287 217.915 124.555 218.292 124.732C218.845 124.982 219.427 125.161 220.025 125.265C220.565 125.352 221.083 125.541 221.552 125.821C221.695 125.924 221.81 126.06 221.886 126.218C221.963 126.376 222 126.551 221.993 126.727C221.996 126.905 221.951 127.081 221.865 127.237C221.778 127.393 221.652 127.523 221.499 127.615C221.105 127.851 220.649 127.965 220.19 127.943C219.682 127.97 219.18 127.82 218.769 127.519C218.653 127.431 218.551 127.325 218.467 127.206H216.906C216.978 127.403 217.074 127.589 217.192 127.762C217.499 128.198 217.919 128.543 218.407 128.758C218.97 129.005 219.579 129.126 220.194 129.114C221.027 129.153 221.849 128.915 222.531 128.435C222.819 128.233 223.052 127.962 223.209 127.648C223.366 127.333 223.443 126.984 223.431 126.633C223.431 126.242 223.314 125.86 223.094 125.537Z" fill="black"/>
<path d="M307.101 125.537C306.849 125.186 306.509 124.908 306.115 124.73C305.565 124.476 304.987 124.288 304.393 124.169C303.871 124.071 303.368 123.892 302.903 123.636C302.771 123.554 302.663 123.437 302.592 123.299C302.52 123.161 302.486 123.007 302.494 122.851C302.49 122.679 302.528 122.508 302.605 122.353C302.682 122.198 302.795 122.065 302.935 121.963C303.295 121.715 303.728 121.594 304.165 121.619C304.624 121.603 305.073 121.756 305.426 122.048L305.517 122.134H307.197C307.045 121.76 306.801 121.432 306.487 121.18C305.829 120.668 305.011 120.407 304.178 120.443C303.372 120.408 302.579 120.66 301.94 121.153C301.669 121.356 301.45 121.62 301.298 121.922C301.147 122.225 301.069 122.559 301.07 122.897C301.061 123.275 301.166 123.647 301.372 123.963C301.618 124.298 301.944 124.566 302.32 124.743C302.873 124.992 303.456 125.171 304.054 125.276C304.593 125.363 305.112 125.551 305.581 125.831C305.723 125.934 305.838 126.071 305.915 126.229C305.992 126.387 306.028 126.562 306.021 126.737C306.024 126.916 305.98 127.091 305.893 127.247C305.807 127.403 305.68 127.533 305.528 127.625C305.133 127.861 304.678 127.975 304.219 127.954C303.71 127.981 303.208 127.831 302.798 127.529C302.682 127.441 302.58 127.336 302.496 127.217H300.897C300.969 127.413 301.065 127.6 301.183 127.773C301.491 128.209 301.911 128.553 302.398 128.769C302.961 129.016 303.571 129.137 304.185 129.124C305.018 129.164 305.84 128.925 306.522 128.446C306.81 128.244 307.043 127.973 307.2 127.658C307.357 127.344 307.434 126.995 307.423 126.643C307.428 126.254 307.318 125.872 307.105 125.546L307.101 125.537Z" fill="black"/>
<path d="M192.472 127.945C192.343 127.958 192.212 127.943 192.089 127.9C191.966 127.857 191.854 127.787 191.762 127.696C191.609 127.474 191.536 127.207 191.555 126.938V121.722H193.154V120.608H191.555V118.571H190.119V120.606H188.586V121.72H190.119V126.931C190.083 127.522 190.256 128.107 190.607 128.584C190.79 128.784 191.016 128.939 191.267 129.039C191.519 129.139 191.79 129.181 192.06 129.162C192.433 129.162 192.804 129.111 193.163 129.009V127.879C192.935 127.925 192.704 127.947 192.472 127.945Z" fill="black"/>
<path d="M201.558 124.62C201.63 123.515 201.309 122.421 200.652 121.53C200.335 121.172 199.941 120.89 199.499 120.705C199.057 120.521 198.58 120.438 198.102 120.464C197.443 120.455 196.795 120.64 196.241 120.997C195.66 121.372 195.198 121.906 194.91 122.535C194.578 123.232 194.413 123.996 194.427 124.767V125.032C194.399 125.578 194.479 126.124 194.662 126.639C194.845 127.154 195.127 127.628 195.493 128.034C195.851 128.405 196.283 128.697 196.762 128.89C197.241 129.083 197.755 129.172 198.271 129.153C198.897 129.189 199.522 129.058 200.081 128.773C200.64 128.488 201.113 128.06 201.452 127.531L200.564 126.847C200.312 127.18 200 127.461 199.642 127.675C199.248 127.89 198.803 127.996 198.354 127.982C198.02 127.992 197.689 127.928 197.382 127.796C197.075 127.664 196.801 127.467 196.578 127.218C196.098 126.661 195.839 125.946 195.852 125.21H201.546L201.558 124.62ZM200.121 124.043H195.912C195.961 123.388 196.218 122.766 196.644 122.267C196.827 122.062 197.052 121.9 197.304 121.79C197.555 121.68 197.828 121.626 198.102 121.631C198.371 121.619 198.638 121.666 198.886 121.771C199.134 121.875 199.355 122.034 199.534 122.235C199.914 122.719 200.121 123.316 200.121 123.931V124.043Z" fill="black"/>
<path d="M212.184 120.457C211.628 120.441 211.077 120.569 210.585 120.828C210.159 121.069 209.795 121.404 209.52 121.809C209.306 121.364 208.962 120.996 208.532 120.755C208.102 120.513 207.609 120.409 207.118 120.457C206.65 120.435 206.183 120.519 205.753 120.704C205.322 120.889 204.939 121.169 204.632 121.523L204.589 120.59H203.232V128.991H204.669V122.878C204.822 122.498 205.092 122.176 205.44 121.96C205.788 121.743 206.196 121.643 206.605 121.674C206.852 121.641 207.103 121.665 207.339 121.747C207.575 121.828 207.788 121.963 207.962 122.141C208.136 122.319 208.266 122.536 208.342 122.773C208.417 123.011 208.436 123.262 208.397 123.508V129.014H209.845V123.437C209.869 122.947 210.088 122.486 210.452 122.156C210.815 121.826 211.295 121.654 211.786 121.677C212.035 121.653 212.286 121.68 212.524 121.756C212.762 121.833 212.982 121.958 213.169 122.123C213.468 122.506 213.614 122.985 213.578 123.469V129.014H215.015V123.384C214.961 121.427 214.029 120.457 212.184 120.457Z" fill="black"/>
<path d="M236.438 127.075C237.102 126.113 237.437 124.961 237.391 123.793H236.093C236.102 124.573 235.919 125.343 235.56 126.036L233.042 123.029L232.278 122.102C232.227 122.045 232.179 121.986 232.134 121.924C231.703 121.461 231.432 120.873 231.36 120.244C231.343 119.847 231.476 119.457 231.731 119.152C231.856 119.009 232.012 118.897 232.186 118.822C232.36 118.748 232.549 118.714 232.738 118.722C233.097 118.707 233.448 118.831 233.719 119.067L233.814 119.162L234.923 118.479C234.845 118.387 234.762 118.301 234.674 118.219C234.141 117.759 233.453 117.517 232.749 117.541C232.276 117.501 231.802 117.589 231.374 117.794C230.947 117.999 230.582 118.315 230.317 118.708C230.052 119.101 229.897 119.558 229.868 120.032C229.838 120.505 229.936 120.977 230.15 121.4C230.427 121.93 230.765 122.424 231.157 122.874C230.493 123.305 229.907 123.846 229.424 124.473C229.125 124.914 228.966 125.435 228.968 125.968C228.952 126.403 229.034 126.836 229.208 127.236C229.381 127.635 229.641 127.991 229.969 128.277C230.715 128.887 231.659 129.198 232.621 129.153C233.165 129.157 233.706 129.068 234.219 128.888C234.715 128.719 235.172 128.454 235.566 128.108L236.319 128.996H238.041L236.438 127.075ZM232.653 127.991C232.062 128.031 231.479 127.84 231.026 127.458C230.828 127.27 230.673 127.042 230.57 126.788C230.468 126.535 230.421 126.263 230.433 125.99C230.479 125.584 230.621 125.196 230.846 124.856C231.072 124.516 231.375 124.235 231.731 124.036L231.985 123.858L234.742 127.156C234.182 127.7 233.433 128.005 232.653 128.005V127.991Z" fill="black"/>
<path d="M258.791 121.64C258.444 121.25 258.015 120.941 257.535 120.736C257.055 120.53 256.535 120.433 256.014 120.452C255.318 120.441 254.633 120.625 254.037 120.985C253.449 121.352 252.98 121.88 252.685 122.507C252.355 123.2 252.19 123.961 252.202 124.728V124.83C252.149 125.974 252.529 127.097 253.268 127.973C253.612 128.364 254.039 128.673 254.518 128.878C254.996 129.084 255.515 129.18 256.035 129.162C256.741 129.178 257.438 128.993 258.044 128.629C258.628 128.262 259.094 127.733 259.385 127.107C259.707 126.418 259.869 125.666 259.857 124.906V124.805C259.913 123.653 259.533 122.523 258.791 121.64ZM257.726 127.133C257.521 127.398 257.257 127.613 256.957 127.761C256.656 127.908 256.325 127.985 255.99 127.985C255.654 127.985 255.324 127.908 255.023 127.761C254.722 127.613 254.459 127.398 254.254 127.133C253.791 126.477 253.562 125.686 253.602 124.885C253.547 124.028 253.776 123.176 254.254 122.462C254.458 122.197 254.72 121.983 255.02 121.835C255.32 121.687 255.65 121.611 255.984 121.611C256.319 121.611 256.649 121.687 256.949 121.835C257.249 121.983 257.511 122.197 257.715 122.462C258.179 123.115 258.41 123.905 258.372 124.705C258.429 125.562 258.204 126.415 257.731 127.131L257.726 127.133Z" fill="black"/>
<path d="M261.754 117.081V129.011H263.191V117.081H261.754Z" fill="black"/>
<path d="M270.641 120.606V126.72C270.453 127.129 270.139 127.469 269.746 127.689C269.352 127.909 268.899 127.999 268.451 127.945C267.386 127.945 266.897 127.309 266.897 126.036V120.606H265.46V126.073C265.402 126.904 265.655 127.727 266.171 128.382C266.435 128.652 266.755 128.862 267.108 128.996C267.461 129.131 267.84 129.187 268.217 129.162C268.675 129.193 269.134 129.121 269.56 128.951C269.986 128.78 270.367 128.515 270.677 128.176L270.709 129.009H272.076V120.606H270.641Z" fill="black"/>
<path d="M277.128 127.945C276.999 127.959 276.868 127.944 276.745 127.901C276.622 127.858 276.51 127.788 276.418 127.696C276.261 127.476 276.186 127.208 276.206 126.938V121.722H277.805V120.608H276.206V118.571H274.77V120.606H273.242V121.72H274.77V126.931C274.734 127.522 274.907 128.107 275.258 128.584C275.441 128.784 275.667 128.939 275.918 129.039C276.17 129.139 276.441 129.181 276.711 129.162C277.084 129.162 277.455 129.111 277.814 129.009V127.879C277.588 127.925 277.358 127.947 277.128 127.945Z" fill="black"/>
<path d="M280.948 117.806C280.864 117.723 280.765 117.659 280.655 117.618C280.546 117.577 280.429 117.56 280.312 117.568C280.195 117.559 280.078 117.576 279.968 117.617C279.858 117.658 279.758 117.722 279.676 117.806C279.534 117.97 279.459 118.182 279.465 118.399C279.457 118.511 279.474 118.623 279.514 118.728C279.555 118.833 279.618 118.927 279.699 119.005C279.78 119.083 279.877 119.142 279.983 119.179C280.089 119.215 280.202 119.228 280.314 119.216C280.425 119.227 280.538 119.213 280.644 119.177C280.75 119.14 280.847 119.081 280.928 119.003C281.009 118.926 281.073 118.832 281.114 118.727C281.155 118.623 281.174 118.511 281.168 118.399C281.171 118.181 281.092 117.969 280.948 117.806ZM279.58 120.626V129.028H281.017V120.605L279.58 120.626Z" fill="black"/>
<path d="M289.54 121.64C289.193 121.25 288.764 120.941 288.284 120.736C287.804 120.531 287.284 120.434 286.762 120.452C286.066 120.441 285.381 120.625 284.785 120.985C284.198 121.352 283.729 121.88 283.434 122.507C283.103 123.2 282.938 123.961 282.951 124.729V124.83C282.895 125.975 283.276 127.098 284.016 127.973C284.361 128.364 284.788 128.673 285.266 128.878C285.745 129.084 286.263 129.181 286.783 129.162C287.49 129.177 288.186 128.992 288.792 128.629C289.375 128.26 289.841 127.732 290.133 127.107C290.455 126.419 290.617 125.666 290.605 124.906V124.805C290.662 123.653 290.281 122.523 289.54 121.64ZM288.474 127.133C288.269 127.398 288.006 127.613 287.705 127.761C287.404 127.908 287.073 127.985 286.738 127.985C286.403 127.985 286.072 127.908 285.771 127.761C285.47 127.613 285.207 127.398 285.002 127.133C284.54 126.478 284.311 125.686 284.35 124.885C284.295 124.028 284.524 123.176 285.002 122.462C285.206 122.197 285.468 121.983 285.768 121.835C286.068 121.688 286.398 121.611 286.733 121.611C287.067 121.611 287.397 121.688 287.697 121.835C287.997 121.983 288.26 122.197 288.464 122.462C288.925 123.117 289.156 123.906 289.121 124.706C289.178 125.563 288.953 126.415 288.48 127.132L288.474 127.133Z" fill="black"/>
<path d="M296.304 120.459C295.819 120.447 295.339 120.55 294.902 120.761C294.465 120.971 294.084 121.282 293.791 121.668L293.743 120.603H292.381V129.005H293.818V123.02C294.006 122.629 294.291 122.291 294.645 122.04C295.004 121.789 295.433 121.659 295.871 121.668C296.101 121.649 296.334 121.677 296.553 121.752C296.772 121.827 296.972 121.947 297.142 122.104C297.443 122.483 297.591 122.962 297.556 123.444V129.005H298.993V123.455C298.975 121.458 298.079 120.459 296.304 120.459Z" fill="black"/>
<path d="M285.448 1.89945V1.39605H288.963V1.89945H287.489V6.08221H286.921V1.89945H285.448ZM289.838 1.39605H290.516L292.108 5.28593H292.163L293.756 1.39605H294.433V6.08221H293.902V2.52183H293.856L292.392 6.08221H291.879L290.415 2.52183H290.369V6.08221H289.838V1.39605Z" fill="black"/>
<path d="M125.13 67.1332L125.098 67.1865C125.108 67.1675 125.121 67.1497 125.135 67.1332H125.13Z" fill="black"/>
</svg>
