<svg width="41" height="41" viewBox="0 0 41 41" fill="none" xmlns="http://www.w3.org/2000/svg">
<rect x="0.378906" y="0.595947" width="40" height="40" rx="10" fill="#ABC73E"/>
<path d="M18.8397 19.7153H11.5075C11.3762 19.7154 11.2461 19.6895 11.1248 19.6393C11.0035 19.589 10.8933 19.5154 10.8005 19.4225C10.7076 19.3297 10.634 19.2194 10.5838 19.0981C10.5336 18.9768 10.5078 18.8468 10.5078 18.7155V11.3819C10.5078 11.2506 10.5336 11.1206 10.5838 10.9993C10.634 10.878 10.7076 10.7677 10.8005 10.6749C10.8933 10.582 11.0035 10.5084 11.1248 10.4581C11.2461 10.4079 11.3762 10.3821 11.5075 10.3821H18.8397C19.105 10.3824 19.3593 10.488 19.5469 10.6756C19.7345 10.8632 19.8401 11.1175 19.8404 11.3828V18.7163C19.8398 18.9816 19.7341 19.2357 19.5465 19.4232C19.3588 19.6106 19.1045 19.716 18.8392 19.7162L18.8397 19.7153ZM11.5075 11.0495C11.419 11.0495 11.3342 11.0846 11.2716 11.1471C11.2091 11.2096 11.1738 11.2944 11.1737 11.3828V18.7163C11.1738 18.8048 11.2091 18.8895 11.2716 18.952C11.3342 19.0145 11.419 19.0496 11.5075 19.0497H18.8397C18.9281 19.0496 19.0129 19.0145 19.0755 18.952C19.1381 18.8895 19.1733 18.8048 19.1735 18.7163V11.3828C19.1733 11.2944 19.1381 11.2096 19.0755 11.1471C19.0129 11.0846 18.9281 11.0495 18.8397 11.0495H11.5075Z" fill="#772569"/>
<path d="M18.8397 30.3812H11.5075C11.3762 30.3813 11.2461 30.3554 11.1248 30.3052C11.0035 30.2549 10.8933 30.1813 10.8005 30.0884C10.7076 29.9956 10.634 29.8853 10.5838 29.764C10.5336 29.6427 10.5078 29.5127 10.5078 29.3814V22.0478C10.5078 21.9165 10.5336 21.7865 10.5838 21.6652C10.634 21.5439 10.7076 21.4336 10.8005 21.3408C10.8933 21.2479 11.0035 21.1743 11.1248 21.124C11.2461 21.0738 11.3762 21.0479 11.5075 21.048H18.8397C19.105 21.0483 19.3593 21.1539 19.5469 21.3415C19.7345 21.5291 19.8401 21.7834 19.8404 22.0487V29.3822C19.8398 29.6474 19.7341 29.9016 19.5464 30.089C19.3587 30.2764 19.1045 30.3818 18.8392 30.3821L18.8397 30.3812ZM11.5075 21.7151C11.419 21.7152 11.3342 21.7503 11.2716 21.8128C11.2091 21.8753 11.1738 21.9601 11.1737 22.0485V29.382C11.1738 29.4704 11.2091 29.5552 11.2716 29.6177C11.3342 29.6802 11.419 29.7153 11.5075 29.7154H18.8397C18.9281 29.7153 19.0129 29.6802 19.0755 29.6177C19.1381 29.5552 19.1733 29.4704 19.1735 29.382V22.0485C19.1733 21.9601 19.1381 21.8753 19.0755 21.8128C19.0129 21.7503 18.9281 21.7152 18.8397 21.7151H11.5075Z" fill="#772569"/>
<path d="M29.5055 30.3812H22.1733C22.042 30.3812 21.912 30.3554 21.7907 30.3051C21.6694 30.2549 21.5592 30.1812 21.4664 30.0883C21.3736 29.9955 21.3 29.8853 21.2498 29.764C21.1996 29.6427 21.1738 29.5126 21.1738 29.3814V22.0478C21.1738 21.9166 21.1996 21.7865 21.2498 21.6652C21.3 21.5439 21.3736 21.4337 21.4664 21.3409C21.5592 21.248 21.6694 21.1743 21.7907 21.1241C21.912 21.0738 22.042 21.048 22.1733 21.048H29.5055C29.6368 21.0479 29.7668 21.0738 29.8881 21.124C30.0094 21.1743 30.1196 21.2479 30.2125 21.3408C30.3053 21.4336 30.379 21.5439 30.4292 21.6652C30.4794 21.7865 30.5052 21.9165 30.5051 22.0478V29.3814C30.5052 29.5127 30.4794 29.6427 30.4292 29.764C30.379 29.8853 30.3053 29.9956 30.2125 30.0884C30.1196 30.1813 30.0094 30.2549 29.8881 30.3052C29.7668 30.3554 29.6368 30.3813 29.5055 30.3812ZM22.1733 21.7151C22.1294 21.715 22.086 21.7236 22.0455 21.7403C22.005 21.757 21.9682 21.7816 21.9372 21.8126C21.9062 21.8435 21.8816 21.8803 21.8648 21.9208C21.8481 21.9613 21.8394 22.0047 21.8394 22.0485V29.382C21.8396 29.4704 21.8749 29.5552 21.9374 29.6177C22 29.6802 22.0848 29.7153 22.1733 29.7154H29.5055C29.5939 29.7153 29.6787 29.6802 29.7413 29.6177C29.8039 29.5552 29.8391 29.4704 29.8393 29.382V22.0485C29.8391 21.9601 29.8039 21.8753 29.7413 21.8128C29.6787 21.7503 29.5939 21.7152 29.5055 21.7151H22.1733Z" fill="#772569"/>
<path d="M29.5055 19.7153H22.1733C22.042 19.7153 21.912 19.6895 21.7907 19.6392C21.6694 19.589 21.5592 19.5153 21.4664 19.4225C21.3736 19.3296 21.3 19.2194 21.2498 19.0981C21.1996 18.9768 21.1738 18.8468 21.1738 18.7155V11.3819C21.1738 11.2507 21.1996 11.1207 21.2498 10.9993C21.3 10.878 21.3736 10.7678 21.4664 10.675C21.5592 10.5821 21.6694 10.5085 21.7907 10.4582C21.912 10.4079 22.042 10.3821 22.1733 10.3821H29.5055C29.6368 10.3821 29.7668 10.4079 29.8881 10.4581C30.0094 10.5084 30.1196 10.582 30.2125 10.6749C30.3053 10.7677 30.379 10.878 30.4292 10.9993C30.4794 11.1206 30.5052 11.2506 30.5051 11.3819V18.7155C30.5052 18.8468 30.4794 18.9768 30.4292 19.0981C30.379 19.2194 30.3053 19.3297 30.2125 19.4225C30.1196 19.5154 30.0094 19.589 29.8881 19.6393C29.7668 19.6895 29.6368 19.7154 29.5055 19.7153ZM22.1733 11.0495C22.1294 11.0494 22.086 11.0579 22.0455 11.0746C22.005 11.0914 21.9682 11.1159 21.9372 11.1469C21.9062 11.1778 21.8816 11.2146 21.8648 11.2551C21.8481 11.2956 21.8394 11.339 21.8394 11.3828V18.7163C21.8396 18.8048 21.8749 18.8895 21.9374 18.952C22 19.0145 22.0848 19.0496 22.1733 19.0497H29.5055C29.5939 19.0496 29.6787 19.0145 29.7413 18.952C29.8039 18.8895 29.8391 18.8048 29.8393 18.7163V11.3828C29.8391 11.2944 29.8039 11.2096 29.7413 11.1471C29.6787 11.0846 29.5939 11.0495 29.5055 11.0495H22.1733Z" fill="#772569"/>
<path d="M28.1725 15.3826H23.5069C23.4624 15.3837 23.4182 15.3759 23.3767 15.3597C23.3353 15.3434 23.2976 15.3191 23.2657 15.288C23.2338 15.257 23.2085 15.2198 23.1912 15.1788C23.1739 15.1378 23.165 15.0938 23.165 15.0493C23.165 15.0048 23.1739 14.9608 23.1912 14.9198C23.2085 14.8788 23.2338 14.8417 23.2657 14.8106C23.2976 14.7795 23.3353 14.7552 23.3767 14.7389C23.4182 14.7227 23.4624 14.7149 23.5069 14.7161H28.1725C28.2169 14.7149 28.2612 14.7227 28.3026 14.7389C28.344 14.7552 28.3818 14.7795 28.4136 14.8106C28.4455 14.8417 28.4708 14.8788 28.4881 14.9198C28.5054 14.9608 28.5143 15.0048 28.5143 15.0493C28.5143 15.0938 28.5054 15.1378 28.4881 15.1788C28.4708 15.2198 28.4455 15.257 28.4136 15.288C28.3818 15.3191 28.344 15.3434 28.3026 15.3597C28.2612 15.3759 28.2169 15.3837 28.1725 15.3826Z" fill="#772569"/>
<path d="M28.1727 25.0484H23.5072C23.4188 25.0484 23.334 25.0133 23.2715 24.9508C23.2089 24.8883 23.1738 24.8035 23.1738 24.7151C23.1738 24.6267 23.2089 24.5419 23.2715 24.4794C23.334 24.4168 23.4188 24.3817 23.5072 24.3817H28.1727C28.2612 24.3817 28.3459 24.4168 28.4085 24.4794C28.471 24.5419 28.5061 24.6267 28.5061 24.7151C28.5061 24.8035 28.471 24.8883 28.4085 24.9508C28.3459 25.0133 28.2612 25.0484 28.1727 25.0484Z" fill="#772569"/>
<path d="M28.1727 27.0483H23.5072C23.4188 27.0483 23.334 27.0132 23.2715 26.9507C23.2089 26.8882 23.1738 26.8034 23.1738 26.715C23.1738 26.6265 23.2089 26.5417 23.2715 26.4792C23.334 26.4167 23.4188 26.3816 23.5072 26.3816H28.1727C28.2612 26.3816 28.3459 26.4167 28.4085 26.4792C28.471 26.5417 28.5061 26.6265 28.5061 26.715C28.5061 26.8034 28.471 26.8882 28.4085 26.9507C28.3459 27.0132 28.2612 27.0483 28.1727 27.0483Z" fill="#772569"/>
<path d="M17.84 15.0493C17.8398 15.1377 17.8046 15.2224 17.7421 15.2849C17.6796 15.3474 17.5948 15.3825 17.5064 15.3826H15.5073V17.3824C15.5051 17.4694 15.469 17.5521 15.4066 17.6129C15.3443 17.6736 15.2607 17.7077 15.1737 17.7077C15.0866 17.7077 15.003 17.6736 14.9406 17.6129C14.8783 17.5521 14.8422 17.4694 14.84 17.3824V15.3826H12.8409C12.7964 15.3838 12.7521 15.376 12.7107 15.3597C12.6693 15.3435 12.6315 15.3191 12.5997 15.2881C12.5678 15.257 12.5425 15.2199 12.5252 15.1789C12.5079 15.1379 12.499 15.0939 12.499 15.0494C12.499 15.0049 12.5079 14.9608 12.5252 14.9198C12.5425 14.8788 12.5678 14.8417 12.5997 14.8107C12.6315 14.7796 12.6693 14.7552 12.7107 14.739C12.7521 14.7228 12.7964 14.715 12.8409 14.7161H14.84V12.7162C14.8422 12.6291 14.8783 12.5464 14.9406 12.4856C15.003 12.4249 15.0866 12.3909 15.1737 12.3909C15.2607 12.3909 15.3443 12.4249 15.4066 12.4856C15.469 12.5464 15.5051 12.6291 15.5073 12.7162V14.7168H17.5064C17.5948 14.7169 17.6796 14.752 17.7421 14.8145C17.8046 14.877 17.8398 14.9617 17.84 15.0501V15.0493Z" fill="#772569"/>
<path d="M17.0605 27.128C17.0915 27.1591 17.1162 27.196 17.133 27.2366C17.1498 27.2771 17.1585 27.3206 17.1585 27.3646C17.1585 27.4085 17.1498 27.452 17.133 27.4926C17.1162 27.5332 17.0915 27.5701 17.0605 27.6011C17.0292 27.6324 16.9921 27.6572 16.9513 27.6741C16.9105 27.6911 16.8667 27.6998 16.8225 27.6998C16.7787 27.6998 16.7352 27.6911 16.6948 27.6742C16.6543 27.6572 16.6176 27.6324 16.5869 27.6011L15.173 26.1881L13.7591 27.6014C13.7283 27.6326 13.6917 27.6574 13.6512 27.6744C13.6108 27.6913 13.5674 27.7 13.5235 27.7C13.4793 27.7 13.4355 27.6913 13.3947 27.6744C13.3539 27.6574 13.3168 27.6326 13.2855 27.6014C13.2544 27.5703 13.2298 27.5334 13.213 27.4928C13.1962 27.4522 13.1875 27.4087 13.1875 27.3648C13.1875 27.3209 13.1962 27.2774 13.213 27.2368C13.2298 27.1962 13.2544 27.1593 13.2855 27.1282L14.6994 25.715L13.2855 24.3017C13.2545 24.2707 13.2298 24.2338 13.213 24.1932C13.1962 24.1526 13.1875 24.1091 13.1875 24.0652C13.1875 24.0213 13.1962 23.9778 13.213 23.9372C13.2298 23.8966 13.2544 23.8598 13.2854 23.8287C13.3165 23.7976 13.3534 23.773 13.3939 23.7562C13.4345 23.7394 13.478 23.7307 13.5219 23.7307C13.5658 23.7307 13.6093 23.7393 13.6499 23.7561C13.6905 23.7729 13.7274 23.7975 13.7584 23.8286L15.1723 25.2416L16.5863 23.8284C16.649 23.7657 16.7341 23.7304 16.8228 23.7305C16.9115 23.7305 16.9966 23.7657 17.0593 23.8285C17.122 23.8912 17.1572 23.9763 17.1572 24.065C17.1571 24.1537 17.1219 24.2388 17.0592 24.3015L15.6452 25.7148L17.0605 27.128Z" fill="#772569"/>
</svg>
