<svg width="51" height="51" viewBox="0 0 51 51" fill="none" xmlns="http://www.w3.org/2000/svg">
<path fill-rule="evenodd" clip-rule="evenodd" d="M8.41797 47.0645C7.55502 47.0645 6.85547 46.365 6.85547 45.502C6.85547 44.6391 7.55502 43.9395 8.41797 43.9395H11.543V40.8145C11.543 35.2204 14.8095 30.3924 19.5322 28.1279C20.4381 27.6935 20.918 26.9494 20.918 26.2858V24.0932C20.918 23.4296 20.4381 22.6855 19.5322 22.2511C14.8095 19.9866 11.543 15.1585 11.543 9.56445V6.43945H8.41797C7.55502 6.43945 6.85547 5.7399 6.85547 4.87695C6.85547 4.01401 7.55502 3.31445 8.41797 3.31445L42.793 3.31452C43.6559 3.31453 44.3555 4.0141 44.3555 4.87705C44.3555 5.73999 43.6559 6.43953 42.7929 6.43952L39.668 6.43948V9.56445C39.668 15.1585 36.4015 19.9866 31.6787 22.2511C30.7728 22.6855 30.293 23.4296 30.293 24.0932V26.2858C30.293 26.9494 30.7728 27.6935 31.6787 28.1279C36.4015 30.3924 39.668 35.2204 39.668 40.8145V43.9395H42.793C43.6559 43.9395 44.3555 44.6391 44.3555 45.502C44.3555 46.365 43.6559 47.0645 42.793 47.0645H8.41797ZM14.668 6.43952V9.56452C14.668 11.2416 15.0454 12.831 15.7204 14.2521H35.4905C36.1655 12.831 36.543 11.2416 36.543 9.56452V6.43952H14.668ZM24.043 26.2859C24.043 28.4741 22.5488 30.1472 20.8833 30.9458C17.2036 32.7102 14.668 36.4678 14.668 40.8146C14.668 40.8146 17.3734 36.7564 24.043 36.192V26.2859ZM27.168 26.2859C27.168 28.4741 28.6621 30.1472 30.3276 30.9458C34.0074 32.7102 36.543 36.4678 36.543 40.8146C36.543 40.8146 33.8375 36.7564 27.168 36.192V26.2859Z" fill="#E7BB22"/>
</svg>
