<svg width="149" height="37" viewBox="0 0 149 37" fill="none" xmlns="http://www.w3.org/2000/svg">
<path d="M4.31055 21.3242L4.31055 0.324219L128.311 0.324219C133.615 0.324219 138.702 2.43135 142.453 6.18208C146.203 9.93281 148.311 15.0199 148.311 20.3242V32.3242L15.3105 32.3242C12.3932 32.3242 9.59527 31.1653 7.53237 29.1024C5.46947 27.0395 4.31055 24.2416 4.31055 21.3242Z" fill="#E7BB22"/>
<path d="M4.31152 0.324219L0.351562 5.30821H4.31152V0.324219Z" fill="#E99B00"/>
<path d="M148.311 32.293L143.327 36.252V32.293H148.311Z" fill="#E99B00"/>
<path d="M56.889 16.3731C56.889 17.0691 56.649 17.6491 56.169 18.1131C55.697 18.5691 54.973 18.7971 53.997 18.7971H52.389V22.2891H51.297V13.9251H53.997C54.941 13.9251 55.657 14.1531 56.145 14.6091C56.641 15.0651 56.889 15.6531 56.889 16.3731ZM53.997 17.8971C54.605 17.8971 55.053 17.7651 55.341 17.5011C55.629 17.2371 55.773 16.8611 55.773 16.3731C55.773 15.3411 55.181 14.8251 53.997 14.8251H52.389V17.8971H53.997ZM64.2463 18.7491C64.2463 18.9571 64.2343 19.1771 64.2103 19.4091H58.9543C58.9943 20.0571 59.2143 20.5651 59.6143 20.9331C60.0223 21.2931 60.5143 21.4731 61.0903 21.4731C61.5623 21.4731 61.9543 21.3651 62.2663 21.1491C62.5863 20.9251 62.8103 20.6291 62.9383 20.2611H64.1143C63.9383 20.8931 63.5863 21.4091 63.0583 21.8091C62.5303 22.2011 61.8743 22.3971 61.0903 22.3971C60.4663 22.3971 59.9063 22.2571 59.4103 21.9771C58.9223 21.6971 58.5383 21.3011 58.2583 20.7891C57.9783 20.2691 57.8383 19.6691 57.8383 18.9891C57.8383 18.3091 57.9743 17.7131 58.2463 17.2011C58.5183 16.6891 58.8983 16.2971 59.3863 16.0251C59.8823 15.7451 60.4503 15.6051 61.0903 15.6051C61.7143 15.6051 62.2663 15.7411 62.7463 16.0131C63.2263 16.2851 63.5943 16.6611 63.8503 17.1411C64.1143 17.6131 64.2463 18.1491 64.2463 18.7491ZM63.1183 18.5211C63.1183 18.1051 63.0263 17.7491 62.8423 17.4531C62.6583 17.1491 62.4063 16.9211 62.0863 16.7691C61.7743 16.6091 61.4263 16.5291 61.0423 16.5291C60.4903 16.5291 60.0183 16.7051 59.6263 17.0571C59.2423 17.4091 59.0223 17.8971 58.9663 18.5211H63.1183ZM68.8917 15.5931C69.6917 15.5931 70.3397 15.8371 70.8357 16.3251C71.3317 16.8051 71.5797 17.5011 71.5797 18.4131V22.2891H70.4997V18.5691C70.4997 17.9131 70.3357 17.4131 70.0077 17.0691C69.6797 16.7171 69.2317 16.5411 68.6637 16.5411C68.0877 16.5411 67.6277 16.7211 67.2837 17.0811C66.9477 17.4411 66.7797 17.9651 66.7797 18.6531V22.2891H65.6877V15.7131H66.7797V16.6491C66.9957 16.3131 67.2877 16.0531 67.6557 15.8691C68.0317 15.6851 68.4437 15.5931 68.8917 15.5931ZM72.9555 18.9771C72.9555 18.3051 73.0915 17.7171 73.3635 17.2131C73.6355 16.7011 74.0075 16.3051 74.4795 16.0251C74.9595 15.7451 75.4955 15.6051 76.0875 15.6051C76.5995 15.6051 77.0755 15.7251 77.5155 15.9651C77.9555 16.1971 78.2915 16.5051 78.5235 16.8891V13.4091H79.6275V22.2891H78.5235V21.0531C78.3075 21.4451 77.9875 21.7691 77.5635 22.0251C77.1395 22.2731 76.6435 22.3971 76.0755 22.3971C75.4915 22.3971 74.9595 22.2531 74.4795 21.9651C74.0075 21.6771 73.6355 21.2731 73.3635 20.7531C73.0915 20.2331 72.9555 19.6411 72.9555 18.9771ZM78.5235 18.9891C78.5235 18.4931 78.4235 18.0611 78.2235 17.6931C78.0235 17.3251 77.7515 17.0451 77.4075 16.8531C77.0715 16.6531 76.6995 16.5531 76.2915 16.5531C75.8835 16.5531 75.5115 16.6491 75.1755 16.8411C74.8395 17.0331 74.5715 17.3131 74.3715 17.6811C74.1715 18.0491 74.0715 18.4811 74.0715 18.9771C74.0715 19.4811 74.1715 19.9211 74.3715 20.2971C74.5715 20.6651 74.8395 20.9491 75.1755 21.1491C75.5115 21.3411 75.8835 21.4371 76.2915 21.4371C76.6995 21.4371 77.0715 21.3411 77.4075 21.1491C77.7515 20.9491 78.0235 20.6651 78.2235 20.2971C78.4235 19.9211 78.5235 19.4851 78.5235 18.9891ZM82.0368 14.6451C81.8288 14.6451 81.6528 14.5731 81.5088 14.4291C81.3648 14.2851 81.2928 14.1091 81.2928 13.9011C81.2928 13.6931 81.3648 13.5171 81.5088 13.3731C81.6528 13.2291 81.8288 13.1571 82.0368 13.1571C82.2368 13.1571 82.4048 13.2291 82.5408 13.3731C82.6848 13.5171 82.7568 13.6931 82.7568 13.9011C82.7568 14.1091 82.6848 14.2851 82.5408 14.4291C82.4048 14.5731 82.2368 14.6451 82.0368 14.6451ZM82.5648 15.7131V22.2891H81.4728V15.7131H82.5648ZM87.63 15.5931C88.43 15.5931 89.078 15.8371 89.574 16.3251C90.07 16.8051 90.318 17.5011 90.318 18.4131V22.2891H89.238V18.5691C89.238 17.9131 89.074 17.4131 88.746 17.0691C88.418 16.7171 87.97 16.5411 87.402 16.5411C86.826 16.5411 86.366 16.7211 86.022 17.0811C85.686 17.4411 85.518 17.9651 85.518 18.6531V22.2891H84.426V15.7131H85.518V16.6491C85.734 16.3131 86.026 16.0531 86.394 15.8691C86.77 15.6851 87.182 15.5931 87.63 15.5931ZM94.8137 15.6051C95.3817 15.6051 95.8777 15.7291 96.3017 15.9771C96.7337 16.2251 97.0537 16.5371 97.2617 16.9131V15.7131H98.3657V22.4331C98.3657 23.0331 98.2377 23.5651 97.9817 24.0291C97.7257 24.5011 97.3577 24.8691 96.8777 25.1331C96.4057 25.3971 95.8537 25.5291 95.2217 25.5291C94.3577 25.5291 93.6377 25.3251 93.0617 24.9171C92.4857 24.5091 92.1457 23.9531 92.0417 23.2491H93.1217C93.2417 23.6491 93.4897 23.9691 93.8657 24.2091C94.2417 24.4571 94.6937 24.5811 95.2217 24.5811C95.8217 24.5811 96.3097 24.3931 96.6857 24.0171C97.0697 23.6411 97.2617 23.1131 97.2617 22.4331V21.0531C97.0457 21.4371 96.7257 21.7571 96.3017 22.0131C95.8777 22.2691 95.3817 22.3971 94.8137 22.3971C94.2297 22.3971 93.6977 22.2531 93.2177 21.9651C92.7457 21.6771 92.3737 21.2731 92.1017 20.7531C91.8297 20.2331 91.6937 19.6411 91.6937 18.9771C91.6937 18.3051 91.8297 17.7171 92.1017 17.2131C92.3737 16.7011 92.7457 16.3051 93.2177 16.0251C93.6977 15.7451 94.2297 15.6051 94.8137 15.6051ZM97.2617 18.9891C97.2617 18.4931 97.1617 18.0611 96.9617 17.6931C96.7617 17.3251 96.4897 17.0451 96.1457 16.8531C95.8097 16.6531 95.4377 16.5531 95.0297 16.5531C94.6217 16.5531 94.2497 16.6491 93.9137 16.8411C93.5777 17.0331 93.3097 17.3131 93.1097 17.6811C92.9097 18.0491 92.8097 18.4811 92.8097 18.9771C92.8097 19.4811 92.9097 19.9211 93.1097 20.2971C93.3097 20.6651 93.5777 20.9491 93.9137 21.1491C94.2497 21.3411 94.6217 21.4371 95.0297 21.4371C95.4377 21.4371 95.8097 21.3411 96.1457 21.1491C96.4897 20.9491 96.7617 20.6651 96.9617 20.2971C97.1617 19.9211 97.2617 19.4851 97.2617 18.9891Z" fill="white"/>
</svg>
