<svg width="21" height="21" viewBox="0 0 21 21" fill="none" xmlns="http://www.w3.org/2000/svg">
<path fill-rule="evenodd" clip-rule="evenodd" d="M5.00195 0.595947C5.34713 0.595947 5.62695 0.875769 5.62695 1.22095V1.84595H15.627V1.22095C15.627 0.875769 15.9068 0.595947 16.252 0.595947C16.5971 0.595947 16.877 0.875769 16.877 1.22095V1.84595H18.127C19.5077 1.84595 20.627 2.96524 20.627 4.34595V18.0959C20.627 19.4767 19.5077 20.5959 18.127 20.5959H3.12695C1.74624 20.5959 0.626953 19.4767 0.626953 18.0959V4.34595C0.626953 2.96524 1.74624 1.84595 3.12695 1.84595H4.37695V1.22095C4.37695 0.875769 4.65677 0.595947 5.00195 0.595947ZM1.87695 5.59595V18.0959C1.87695 18.7863 2.4366 19.3459 3.12695 19.3459H18.127C18.8173 19.3459 19.377 18.7863 19.377 18.0959V5.59595H1.87695Z" fill="#954386"/>
<path d="M14.377 8.72095C14.377 8.37577 14.6568 8.09595 15.002 8.09595H16.252C16.5971 8.09595 16.877 8.37577 16.877 8.72095V9.97095C16.877 10.3161 16.5971 10.5959 16.252 10.5959H15.002C14.6568 10.5959 14.377 10.3161 14.377 9.97095V8.72095Z" fill="#954386"/>
</svg>
