<svg width="149" height="37" viewBox="0 0 149 37" fill="none" xmlns="http://www.w3.org/2000/svg">
<path d="M4.39453 21.3242L4.39453 0.324219L128.395 0.324219C133.699 0.324219 138.786 2.43135 142.537 6.18208C146.287 9.93281 148.395 15.0199 148.395 20.3242V32.3242L15.3945 32.3242C12.4771 32.3242 9.67926 31.1653 7.61636 29.1024C5.55346 27.0395 4.39453 24.2416 4.39453 21.3242Z" fill="#FC8B8B"/>
<path d="M4.39551 0.324219L0.435547 5.30821H4.39551V0.324219Z" fill="#CC6969"/>
<path d="M148.395 32.293L143.411 36.252V32.293H148.395Z" fill="#CC6969"/>
<path d="M51.2128 22.2891L49.2208 18.8691H47.9008V22.2891H46.8088V13.9251H49.5088C50.1408 13.9251 50.6728 14.0331 51.1048 14.2491C51.5448 14.4651 51.8728 14.7571 52.0888 15.1251C52.3048 15.4931 52.4128 15.9131 52.4128 16.3851C52.4128 16.9611 52.2448 17.4691 51.9088 17.9091C51.5808 18.3491 51.0848 18.6411 50.4208 18.7851L52.5208 22.2891H51.2128ZM47.9008 17.9931H49.5088C50.1008 17.9931 50.5448 17.8491 50.8408 17.5611C51.1368 17.2651 51.2848 16.8731 51.2848 16.3851C51.2848 15.8891 51.1368 15.5051 50.8408 15.2331C50.5528 14.9611 50.1088 14.8251 49.5088 14.8251H47.9008V17.9931ZM60.1095 18.7491C60.1095 18.9571 60.0975 19.1771 60.0735 19.4091H54.8175C54.8575 20.0571 55.0775 20.5651 55.4775 20.9331C55.8855 21.2931 56.3775 21.4731 56.9535 21.4731C57.4255 21.4731 57.8175 21.3651 58.1295 21.1491C58.4495 20.9251 58.6735 20.6291 58.8015 20.2611H59.9775C59.8015 20.8931 59.4495 21.4091 58.9215 21.8091C58.3935 22.2011 57.7375 22.3971 56.9535 22.3971C56.3295 22.3971 55.7695 22.2571 55.2735 21.9771C54.7855 21.6971 54.4015 21.3011 54.1215 20.7891C53.8415 20.2691 53.7015 19.6691 53.7015 18.9891C53.7015 18.3091 53.8375 17.7131 54.1095 17.2011C54.3815 16.6891 54.7615 16.2971 55.2495 16.0251C55.7455 15.7451 56.3135 15.6051 56.9535 15.6051C57.5775 15.6051 58.1295 15.7411 58.6095 16.0131C59.0895 16.2851 59.4575 16.6611 59.7135 17.1411C59.9775 17.6131 60.1095 18.1491 60.1095 18.7491ZM58.9815 18.5211C58.9815 18.1051 58.8895 17.7491 58.7055 17.4531C58.5215 17.1491 58.2695 16.9211 57.9495 16.7691C57.6375 16.6091 57.2895 16.5291 56.9055 16.5291C56.3535 16.5291 55.8815 16.7051 55.4895 17.0571C55.1055 17.4091 54.8855 17.8971 54.8295 18.5211H58.9815ZM69.459 15.5931C69.971 15.5931 70.427 15.7011 70.827 15.9171C71.227 16.1251 71.543 16.4411 71.775 16.8651C72.007 17.2891 72.123 17.8051 72.123 18.4131V22.2891H71.043V18.5691C71.043 17.9131 70.879 17.4131 70.551 17.0691C70.231 16.7171 69.795 16.5411 69.243 16.5411C68.675 16.5411 68.223 16.7251 67.887 17.0931C67.551 17.4531 67.383 17.9771 67.383 18.6651V22.2891H66.303V18.5691C66.303 17.9131 66.139 17.4131 65.811 17.0691C65.491 16.7171 65.055 16.5411 64.503 16.5411C63.935 16.5411 63.483 16.7251 63.147 17.0931C62.811 17.4531 62.643 17.9771 62.643 18.6651V22.2891H61.551V15.7131H62.643V16.6611C62.859 16.3171 63.147 16.0531 63.507 15.8691C63.875 15.6851 64.279 15.5931 64.719 15.5931C65.271 15.5931 65.759 15.7171 66.183 15.9651C66.607 16.2131 66.923 16.5771 67.131 17.0571C67.315 16.5931 67.619 16.2331 68.043 15.9771C68.467 15.7211 68.939 15.5931 69.459 15.5931ZM76.7822 22.3971C76.1662 22.3971 75.6062 22.2571 75.1022 21.9771C74.6062 21.6971 74.2142 21.3011 73.9262 20.7891C73.6462 20.2691 73.5062 19.6691 73.5062 18.9891C73.5062 18.3171 73.6502 17.7251 73.9382 17.2131C74.2342 16.6931 74.6342 16.2971 75.1382 16.0251C75.6422 15.7451 76.2062 15.6051 76.8302 15.6051C77.4542 15.6051 78.0182 15.7451 78.5222 16.0251C79.0262 16.2971 79.4222 16.6891 79.7102 17.2011C80.0062 17.7131 80.1542 18.3091 80.1542 18.9891C80.1542 19.6691 80.0022 20.2691 79.6982 20.7891C79.4022 21.3011 78.9982 21.6971 78.4862 21.9771C77.9742 22.2571 77.4062 22.3971 76.7822 22.3971ZM76.7822 21.4371C77.1742 21.4371 77.5422 21.3451 77.8862 21.1611C78.2302 20.9771 78.5062 20.7011 78.7142 20.3331C78.9302 19.9651 79.0382 19.5171 79.0382 18.9891C79.0382 18.4611 78.9342 18.0131 78.7262 17.6451C78.5182 17.2771 78.2462 17.0051 77.9102 16.8291C77.5742 16.6451 77.2102 16.5531 76.8182 16.5531C76.4182 16.5531 76.0502 16.6451 75.7142 16.8291C75.3862 17.0051 75.1222 17.2771 74.9222 17.6451C74.7222 18.0131 74.6222 18.4611 74.6222 18.9891C74.6222 19.5251 74.7182 19.9771 74.9102 20.3451C75.1102 20.7131 75.3742 20.9891 75.7022 21.1731C76.0302 21.3491 76.3902 21.4371 76.7822 21.4371ZM84.038 21.2811L86.078 15.7131H87.242L84.662 22.2891H83.39L80.81 15.7131H81.986L84.038 21.2811ZM94.3166 18.7491C94.3166 18.9571 94.3046 19.1771 94.2806 19.4091H89.0246C89.0646 20.0571 89.2846 20.5651 89.6846 20.9331C90.0926 21.2931 90.5846 21.4731 91.1606 21.4731C91.6326 21.4731 92.0246 21.3651 92.3366 21.1491C92.6566 20.9251 92.8806 20.6291 93.0086 20.2611H94.1846C94.0086 20.8931 93.6566 21.4091 93.1286 21.8091C92.6006 22.2011 91.9446 22.3971 91.1606 22.3971C90.5366 22.3971 89.9766 22.2571 89.4806 21.9771C88.9926 21.6971 88.6086 21.3011 88.3286 20.7891C88.0486 20.2691 87.9086 19.6691 87.9086 18.9891C87.9086 18.3091 88.0446 17.7131 88.3166 17.2011C88.5886 16.6891 88.9686 16.2971 89.4566 16.0251C89.9526 15.7451 90.5206 15.6051 91.1606 15.6051C91.7846 15.6051 92.3366 15.7411 92.8166 16.0131C93.2966 16.2851 93.6646 16.6611 93.9206 17.1411C94.1846 17.6131 94.3166 18.1491 94.3166 18.7491ZM93.1886 18.5211C93.1886 18.1051 93.0966 17.7491 92.9126 17.4531C92.7286 17.1491 92.4766 16.9211 92.1566 16.7691C91.8446 16.6091 91.4966 16.5291 91.1126 16.5291C90.5606 16.5291 90.0886 16.7051 89.6966 17.0571C89.3126 17.4091 89.0926 17.8971 89.0366 18.5211H93.1886ZM95.35 18.9771C95.35 18.3051 95.486 17.7171 95.758 17.2131C96.03 16.7011 96.402 16.3051 96.874 16.0251C97.354 15.7451 97.89 15.6051 98.482 15.6051C98.994 15.6051 99.47 15.7251 99.91 15.9651C100.35 16.1971 100.686 16.5051 100.918 16.8891V13.4091H102.022V22.2891H100.918V21.0531C100.702 21.4451 100.382 21.7691 99.958 22.0251C99.534 22.2731 99.038 22.3971 98.47 22.3971C97.886 22.3971 97.354 22.2531 96.874 21.9651C96.402 21.6771 96.03 21.2731 95.758 20.7531C95.486 20.2331 95.35 19.6411 95.35 18.9771ZM100.918 18.9891C100.918 18.4931 100.818 18.0611 100.618 17.6931C100.418 17.3251 100.146 17.0451 99.802 16.8531C99.466 16.6531 99.094 16.5531 98.686 16.5531C98.278 16.5531 97.906 16.6491 97.57 16.8411C97.234 17.0331 96.966 17.3131 96.766 17.6811C96.566 18.0491 96.466 18.4811 96.466 18.9771C96.466 19.4811 96.566 19.9211 96.766 20.2971C96.966 20.6651 97.234 20.9491 97.57 21.1491C97.906 21.3411 98.278 21.4371 98.686 21.4371C99.094 21.4371 99.466 21.3411 99.802 21.1491C100.146 20.9491 100.418 20.6651 100.618 20.2971C100.818 19.9211 100.918 19.4851 100.918 18.9891Z" fill="white"/>
</svg>
