<svg width="14" height="13" viewBox="0 0 14 13" fill="none" xmlns="http://www.w3.org/2000/svg">
<path fill-rule="evenodd" clip-rule="evenodd" d="M6.73101 1.04783C3.72117 1.04783 1.28122 3.48774 1.28122 6.49761C1.28122 9.50745 3.72114 11.9474 6.73101 11.9474C9.74085 11.9474 12.1808 9.50738 12.1808 6.49761C12.1808 3.48777 9.74078 1.04783 6.73101 1.04783ZM0.397461 6.49761C0.397461 2.99968 3.23308 0.164062 6.73101 0.164062C10.2289 0.164062 13.0646 2.99968 13.0646 6.49761C13.0646 9.99554 10.2289 12.8312 6.73101 12.8312C3.23308 12.8312 0.397461 9.99554 0.397461 6.49761Z" fill="#ABC73E"/>
<path fill-rule="evenodd" clip-rule="evenodd" d="M6.73061 3.10938C4.85961 3.10938 3.34277 4.62616 3.34277 6.49722C3.34277 8.36827 4.85956 9.88506 6.73061 9.88506C8.60167 9.88506 10.1185 8.36827 10.1185 6.49722C10.1185 4.62616 8.60167 3.10938 6.73061 3.10938Z" fill="#ABC73E"/>
</svg>
