<svg width="49" height="49" viewBox="0 0 49 49" fill="none" xmlns="http://www.w3.org/2000/svg">
<mask id="mask0_208_48334" style="mask-type:alpha" maskUnits="userSpaceOnUse" x="0" y="0" width="49" height="49">
<rect x="0.142578" y="0.603516" width="48" height="48" fill="#D9D9D9"/>
</mask>
<g mask="url(#mask0_208_48334)">
<path d="M39.9854 22.5819C42.1895 23.08 44.1315 24.3652 45.4411 26.1924C46.7507 28.0196 47.3363 30.2609 47.086 32.4888C46.8357 34.7168 45.7672 36.7754 44.0842 38.272C42.4013 39.7687 40.2216 40.5986 37.961 40.6035H12.6563C9.80389 40.6063 7.05216 39.5581 4.9353 37.6622C2.81845 35.7663 1.4875 33.158 1.20084 30.3437C0.914173 27.5294 1.69224 24.7099 3.384 22.4325C5.07576 20.1551 7.5605 18.5823 10.3559 18.0194V17.7913C10.3544 16.5848 10.6746 15.3994 11.284 14.3552C11.8935 13.311 12.7704 12.4451 13.826 11.8452C14.8817 11.2454 16.0784 10.933 17.295 10.9396C18.5117 10.9462 19.7049 11.2717 20.7538 11.8829C22.368 10.3013 24.4196 9.23064 26.6482 8.80682C28.8769 8.383 31.1823 8.62509 33.272 9.50239C35.3618 10.3797 37.1417 11.8527 38.386 13.7345C39.6304 15.6164 40.2831 17.8223 40.2615 20.0725C40.2615 20.9394 40.1694 21.7606 39.9854 22.5819ZM26.4589 26.9162H33.3602L24.1585 17.7913L14.9567 26.9162H21.858V33.7598H26.4589V26.9162Z" fill="#954386" fill-opacity="0.5"/>
</g>
</svg>
