<svg version="1.2" xmlns="http://www.w3.org/2000/svg" viewBox="0 0 13 20" width="13" height="20">
	<title>start_point_icon-svg</title>
	<defs>
		<linearGradient id="g1" x1="6.6" y1=".5" x2="6.6" y2="20.5" gradientUnits="userSpaceOnUse">
			<stop offset="0" stop-color="#b23a9c"/>
			<stop offset="1" stop-color="#79266a"/>
		</linearGradient>
	</defs>
	<style>
		.s0 { fill: url(#g1) } 
	</style>
	<g id="Layer">
		<path id="Layer" fill-rule="evenodd" class="s0" d="m1.6 5.5c0-2.8 2.3-5 5-5 2.8 0 5 2.2 5 5 0 2.5-1.9 4.6-4.3 4.9v7c0 0.3-0.3 0.6-0.7 0.6-0.3 0-0.6-0.3-0.6-0.6v-7c-2.4-0.3-4.4-2.4-4.4-4.9zm5-3.8c-2 0-3.7 1.7-3.7 3.8 0 2.1 1.7 3.7 3.7 3.7 2.1 0 3.8-1.6 3.8-3.7 0-2.1-1.7-3.8-3.8-3.8zm-1.8 14.5c0 0.3-0.2 0.7-0.6 0.7-0.8 0.2-1.6 0.4-2 0.6q-0.4 0.2-0.5 0.4 0 0 0 0.1-0.1 0-0.1 0 0 0 0 0 0 0 0 0 0 0 0.1 0 0 0.1 0.1 0.2 0.4 0.3 1.1 0.5c0.9 0.3 2.2 0.5 3.7 0.5 1.6 0 2.9-0.2 3.8-0.5q0.7-0.2 1-0.5 0.2-0.1 0.2-0.2 0 0 0 0 0 0 0 0 0 0 0 0 0 0 0 0 0-0.1 0-0.1-0.1-0.2-0.5-0.4c-0.5-0.2-1.2-0.4-2.1-0.6-0.3 0-0.5-0.4-0.5-0.7 0.1-0.3 0.4-0.6 0.7-0.5 1 0.1 1.9 0.4 2.5 0.7 0.6 0.3 1.2 0.8 1.2 1.6 0 0.5-0.3 0.9-0.7 1.2-0.3 0.3-0.8 0.5-1.4 0.7-1.1 0.4-2.6 0.6-4.2 0.6-1.6 0-3-0.2-4.1-0.6-0.6-0.2-1.1-0.4-1.4-0.7-0.4-0.3-0.7-0.7-0.7-1.2 0-0.8 0.6-1.3 1.2-1.6 0.6-0.3 1.5-0.6 2.4-0.7 0.4-0.1 0.7 0.2 0.8 0.5z"/>
	</g>
</svg>