<svg width="10" height="11" viewBox="0 0 10 11" fill="none" xmlns="http://www.w3.org/2000/svg">
<mask id="mask0_208_51863" style="mask-type:luminance" maskUnits="userSpaceOnUse" x="0" y="0" width="10" height="11">
<path d="M9.30329 0.642578H0.0175781V10.6426H9.30329V0.642578Z" fill="white"/>
</mask>
<g mask="url(#mask0_208_51863)">
<path d="M5.21482 1.28989L6.31054 3.50917C6.34808 3.58512 6.40352 3.65081 6.47208 3.70058C6.54064 3.75035 6.62027 3.78271 6.70411 3.79489L9.15339 4.15203C9.25002 4.16598 9.34082 4.20671 9.41549 4.2696C9.49017 4.33249 9.54574 4.41504 9.57593 4.50789C9.60611 4.60074 9.60969 4.70018 9.58627 4.79496C9.56284 4.88974 9.51335 4.97607 9.44339 5.04417L7.67125 6.7706C7.6106 6.82982 7.56526 6.90289 7.53913 6.98352C7.513 7.06415 7.50686 7.14993 7.52125 7.23346L7.93982 9.67275C7.95636 9.76891 7.94566 9.86779 7.90892 9.95819C7.87219 10.0486 7.81089 10.1269 7.73196 10.1843C7.65304 10.2417 7.55963 10.2758 7.4623 10.2829C7.36498 10.2899 7.26762 10.2696 7.18125 10.2242L4.98982 9.07275C4.91479 9.03339 4.83133 9.01283 4.74661 9.01283C4.66188 9.01283 4.57842 9.03339 4.50339 9.07275L2.31196 10.2242C2.22559 10.2696 2.12824 10.2899 2.03091 10.2829C1.93359 10.2758 1.84018 10.2417 1.76125 10.1843C1.68232 10.1269 1.62102 10.0486 1.58429 9.95819C1.54756 9.86779 1.53686 9.76891 1.55339 9.67275L1.97196 7.23346C1.98635 7.14993 1.98022 7.06415 1.95408 6.98352C1.92795 6.90289 1.88261 6.82982 1.82196 6.7706L0.0491075 5.04275C-0.0206407 4.97462 -0.0699494 4.88834 -0.0932494 4.79366C-0.116549 4.69899 -0.112913 4.59968 -0.0827494 4.50696C-0.0525862 4.41425 0.00290143 4.33181 0.0774465 4.26896C0.151992 4.20612 0.242624 4.16537 0.339108 4.15132L2.78839 3.79417C2.87223 3.782 2.95186 3.74963 3.02042 3.69986C3.08898 3.65009 3.14442 3.58441 3.18196 3.50846L4.27768 1.28989C4.32092 1.20256 4.3877 1.12905 4.4705 1.07765C4.55329 1.02626 4.6488 0.999023 4.74625 0.999023C4.8437 0.999023 4.93921 1.02626 5.022 1.07765C5.1048 1.12905 5.17158 1.20256 5.21482 1.28989Z" fill="#E99B00"/>
</g>
</svg>
