<svg width="10" height="11" viewBox="0 0 10 11" fill="none" xmlns="http://www.w3.org/2000/svg">
<mask id="mask0_208_51868" style="mask-type:luminance" maskUnits="userSpaceOnUse" x="0" y="0" width="10" height="11">
<path d="M9.30329 0.642578H0.0175781V10.6426H9.30329V0.642578Z" fill="white"/>
</mask>
<g mask="url(#mask0_208_51868)">
<path d="M5.04295 1.28989L6.13866 3.50917C6.17621 3.58512 6.23165 3.65081 6.3002 3.70058C6.36876 3.75035 6.44839 3.78271 6.53223 3.79489L8.98152 4.15203C9.07815 4.16598 9.16894 4.20671 9.24362 4.2696C9.31829 4.33249 9.37387 4.41504 9.40405 4.50789C9.43423 4.60074 9.43781 4.70018 9.41439 4.79496C9.39097 4.88974 9.34148 4.97607 9.27152 5.04417L7.49938 6.7706C7.43873 6.82982 7.39339 6.90289 7.36726 6.98352C7.34112 7.06415 7.33499 7.14993 7.34938 7.23346L7.76795 9.67275C7.78448 9.76891 7.77378 9.86779 7.73705 9.95819C7.70032 10.0486 7.63902 10.1269 7.56009 10.1843C7.48116 10.2417 7.38775 10.2758 7.29043 10.2829C7.1931 10.2899 7.09575 10.2696 7.00938 10.2242L4.81795 9.07275C4.74292 9.03339 4.65946 9.01283 4.57473 9.01283C4.49001 9.01283 4.40655 9.03339 4.33152 9.07275L2.14009 10.2242C2.05372 10.2696 1.95636 10.2899 1.85904 10.2829C1.76171 10.2758 1.6683 10.2417 1.58938 10.1843C1.51045 10.1269 1.44915 10.0486 1.41242 9.95819C1.37568 9.86779 1.36498 9.76891 1.38152 9.67275L1.80009 7.23346C1.81448 7.14993 1.80834 7.06415 1.78221 6.98352C1.75608 6.90289 1.71074 6.82982 1.65009 6.7706L-0.122767 5.04275C-0.192516 4.97462 -0.241824 4.88834 -0.265124 4.79366C-0.288424 4.69899 -0.284788 4.59968 -0.254624 4.50696C-0.224461 4.41425 -0.168974 4.33181 -0.0944285 4.26896C-0.0198834 4.20612 0.070749 4.16537 0.167233 4.15132L2.61652 3.79417C2.70036 3.782 2.77999 3.74963 2.84855 3.69986C2.91711 3.65009 2.97254 3.58441 3.01009 3.50846L4.1058 1.28989C4.14904 1.20256 4.21583 1.12905 4.29862 1.07765C4.38142 1.02626 4.47693 0.999023 4.57438 0.999023C4.67182 0.999023 4.76733 1.02626 4.85013 1.07765C4.93292 1.12905 4.99971 1.20256 5.04295 1.28989Z" fill="#DEBABA"/>
</g>
</svg>
