<svg width="21" height="21" viewBox="0 0 21 21" fill="none" xmlns="http://www.w3.org/2000/svg">
<path fill-rule="evenodd" clip-rule="evenodd" d="M5.17281 2.64303C4.85976 2.24054 4.26478 2.2035 3.90422 2.56406L2.61182 3.85646C2.00747 4.4608 1.78531 5.31699 2.04935 6.06801C3.10969 9.08397 4.84566 11.9158 7.25887 14.329C9.67208 16.7422 12.5039 18.4782 15.5199 19.5385C16.2709 19.8026 17.1271 19.5804 17.7314 18.9761L19.0238 17.6837C19.3844 17.3231 19.3474 16.7281 18.9449 16.4151L16.0621 14.173C15.8565 14.013 15.5888 13.9565 15.3361 14.0197L12.5997 14.7038C11.8565 14.8896 11.0703 14.6718 10.5285 14.1301L7.45781 11.0594C6.91608 10.5176 6.69831 9.7314 6.88412 8.98816L7.5682 6.25183C7.63138 5.99912 7.57487 5.73139 7.41494 5.52577L5.17281 2.64303ZM2.96143 1.62127C3.88908 0.693624 5.41984 0.788925 6.22526 1.82446L8.46739 4.70721C8.87884 5.23622 9.02424 5.92503 8.8617 6.5752L8.17761 9.31154C8.10539 9.60042 8.19004 9.90602 8.4006 10.1166L11.4713 13.1873C11.6819 13.3979 11.9875 13.4825 12.2764 13.4103L15.0127 12.7262C15.6629 12.5637 16.3517 12.709 16.8807 13.1205L19.7634 15.3626C20.799 16.1681 20.8943 17.6988 19.9666 18.6265L18.6742 19.9189C17.7496 20.8435 16.3666 21.2495 15.0777 20.7964C11.8774 19.6712 8.87345 17.8292 6.31608 15.2718C3.75871 12.7144 1.91665 9.71049 0.791516 6.51023C0.338366 5.22133 0.744381 3.83832 1.66903 2.91367L2.96143 1.62127Z" fill="#954386"/>
</svg>
