<svg width="101" height="111" viewBox="0 0 101 111" fill="none" xmlns="http://www.w3.org/2000/svg">
<rect x="0.881836" y="0.188965" width="100" height="110" rx="20" fill="#C7E64B"/>
<path d="M55.8603 49.9355V45.6855C57.2353 45.1022 58.642 44.6647 60.0803 44.373C61.5187 44.0814 63.0287 43.9355 64.6103 43.9355C65.6937 43.9355 66.7562 44.0189 67.7978 44.1855C68.8395 44.3522 69.8603 44.5605 70.8603 44.8105V48.8105C69.8603 48.4355 68.8495 48.1539 67.8279 47.9655C66.8062 47.7772 65.7337 47.6839 64.6103 47.6855C63.027 47.6855 61.5062 47.8839 60.0478 48.2805C58.5895 48.6772 57.1937 49.2289 55.8603 49.9355ZM55.8603 63.6855V59.4355C57.2353 58.8522 58.642 58.4147 60.0803 58.123C61.5187 57.8314 63.0287 57.6855 64.6103 57.6855C65.6937 57.6855 66.7562 57.7689 67.7978 57.9355C68.8395 58.1022 69.8603 58.3105 70.8603 58.5605V62.5605C69.8603 62.1855 68.8495 61.9039 67.8279 61.7155C66.8062 61.5272 65.7337 61.4339 64.6103 61.4355C63.027 61.4355 61.5062 61.623 60.0478 61.998C58.5895 62.373 57.1937 62.9355 55.8603 63.6855ZM55.8603 56.8105V52.5605C57.2353 51.9772 58.642 51.5397 60.0803 51.248C61.5187 50.9564 63.0287 50.8105 64.6103 50.8105C65.6937 50.8105 66.7562 50.8939 67.7978 51.0605C68.8395 51.2272 69.8603 51.4355 70.8603 51.6855V55.6855C69.8603 55.3105 68.8495 55.0289 67.8279 54.8405C66.8062 54.6522 65.7337 54.5589 64.6103 54.5605C63.027 54.5605 61.5062 54.7589 60.0478 55.1555C58.5895 55.5522 57.1937 56.1039 55.8603 56.8105ZM37.1104 65.1855C39.0687 65.1855 40.9753 65.4047 42.8304 65.843C44.6854 66.2814 46.5287 66.9372 48.3603 67.8106V43.1855C46.652 42.1855 44.8395 41.4355 42.9228 40.9355C41.0062 40.4355 39.0687 40.1855 37.1104 40.1855C35.6104 40.1855 34.1203 40.3314 32.6404 40.623C31.1604 40.9147 29.7337 41.3522 28.3604 41.9355V66.6855C29.8187 66.1855 31.267 65.8105 32.7054 65.5605C34.1437 65.3105 35.612 65.1855 37.1104 65.1855ZM53.3603 67.8106C55.1937 66.9356 57.037 66.2797 58.8903 65.843C60.7437 65.4064 62.6503 65.1872 64.6103 65.1855C66.1103 65.1855 67.5795 65.3105 69.0178 65.5605C70.4562 65.8105 71.9037 66.1855 73.3603 66.6855V41.9355C71.9853 41.3522 70.5578 40.9147 69.0779 40.623C67.5979 40.3314 66.1087 40.1855 64.6103 40.1855C62.652 40.1855 60.7145 40.4355 58.7978 40.9355C56.8812 41.4355 55.0687 42.1855 53.3603 43.1855V67.8106ZM50.8603 75.1855C48.8603 73.6022 46.6937 72.373 44.3603 71.498C42.027 70.623 39.6103 70.1855 37.1104 70.1855C35.3604 70.1855 33.6412 70.4147 31.9529 70.873C30.2645 71.3314 28.6504 71.9772 27.1104 72.8106C26.2354 73.2689 25.392 73.248 24.5804 72.748C23.7687 72.248 23.362 71.5189 23.3604 70.5605V40.4355C23.3604 39.9772 23.4754 39.5397 23.7054 39.123C23.9354 38.7064 24.2787 38.3939 24.7354 38.1855C26.652 37.1855 28.652 36.4355 30.7354 35.9355C32.8187 35.4355 34.9437 35.1855 37.1104 35.1855C39.527 35.1855 41.892 35.498 44.2054 36.123C46.5187 36.748 48.737 37.6855 50.8603 38.9355C52.9853 37.6855 55.2045 36.748 57.5178 36.123C59.8312 35.498 62.1953 35.1855 64.6103 35.1855C66.777 35.1855 68.902 35.4355 70.9853 35.9355C73.0687 36.4355 75.0687 37.1855 76.9853 38.1855C77.4437 38.3939 77.7878 38.7064 78.0178 39.123C78.2478 39.5397 78.362 39.9772 78.3603 40.4355V70.5605C78.3603 71.5189 77.9545 72.248 77.1428 72.748C76.3312 73.248 75.487 73.2689 74.6103 72.8106C73.0687 71.9772 71.4545 71.3314 69.7678 70.873C68.0812 70.4147 66.362 70.1855 64.6103 70.1855C62.1103 70.1855 59.6937 70.623 57.3603 71.498C55.027 72.373 52.8603 73.6022 50.8603 75.1855Z" fill="#954386"/>
</svg>
