<svg width="51" height="51" viewBox="0 0 51 51" fill="none" xmlns="http://www.w3.org/2000/svg">
<rect x="0.178711" y="0.482422" width="50" height="50" rx="20" fill="#C7E64B"/>
<path d="M17.6787 14.2324H15.1787C14.4884 14.2324 13.9287 14.7921 13.9287 15.4824V20.4824C13.9287 21.1728 14.4884 21.7324 15.1787 21.7324H17.6787C18.3691 21.7324 18.9287 21.1728 18.9287 20.4824V15.4824C18.9287 14.7921 18.3691 14.2324 17.6787 14.2324Z" stroke="#954386" stroke-width="1.66667" stroke-linecap="round" stroke-linejoin="round"/>
<path d="M32.6787 34.2324C34.0594 34.2324 35.1787 33.1131 35.1787 31.7324C35.1787 30.3517 34.0594 29.2324 32.6787 29.2324C31.298 29.2324 30.1787 30.3517 30.1787 31.7324C30.1787 33.1131 31.298 34.2324 32.6787 34.2324Z" stroke="#954386" stroke-width="1.66667" stroke-linecap="round" stroke-linejoin="round"/>
<path d="M22.6787 16.7324H31.4287C34.88 16.7324 37.6787 20.6499 37.6787 25.4824V31.7324H35.1787M30.1787 31.7324H20.1787" stroke="#954386" stroke-width="1.66667" stroke-linecap="round" stroke-linejoin="round"/>
<path d="M30.1787 16.7324L32.0537 25.4824H37.6787M22.0537 22.9824H31.4287M25.1787 16.7324V22.9824M16.4287 21.7324V35.4824" stroke="#954386" stroke-width="1.66667" stroke-linecap="round" stroke-linejoin="round"/>
</svg>
