<svg width="17" height="17" viewBox="0 0 17 17" fill="none" xmlns="http://www.w3.org/2000/svg">
<path fill-rule="evenodd" clip-rule="evenodd" d="M11.0068 0.890329C9.87311 -0.270735 8.0058 -0.270735 6.87207 0.890329L6.25023 1.52717L5.36021 1.51656C3.73754 1.49724 2.41716 2.81762 2.43649 4.44028L2.44709 5.33031L1.81025 5.95215C0.649187 7.08588 0.649187 8.95318 1.81025 10.0869L2.44709 10.7088L2.43649 11.5988C2.41716 13.2214 3.73754 14.5418 5.36021 14.5225L6.25023 14.5119L6.87207 15.1487C8.0058 16.3098 9.87311 16.3098 11.0068 15.1487L11.6287 14.5119L12.5187 14.5225C14.1414 14.5418 15.4617 13.2214 15.4424 11.5988L15.4318 10.7088L16.0687 10.0869C17.2297 8.95318 17.2297 7.08588 16.0687 5.95215L15.4318 5.33031L15.4424 4.44028C15.4617 2.81762 14.1414 1.49724 12.5187 1.51656L11.6287 1.52717L11.0068 0.890329ZM11.293 6.87309C11.4883 6.67782 11.4883 6.36124 11.293 6.16598C11.0977 5.97072 10.7812 5.97072 10.5859 6.16598L7.93945 8.81242L6.79301 7.66598C6.59774 7.47072 6.28116 7.47072 6.0859 7.66598C5.89064 7.86124 5.89064 8.17782 6.0859 8.37309L7.5859 9.87309C7.67967 9.96685 7.80684 10.0195 7.93945 10.0195C8.07206 10.0195 8.19924 9.96685 8.29301 9.87309L11.293 6.87309Z" fill="#ABC73E"/>
</svg>
