<svg width="26" height="25" viewBox="0 0 26 25" fill="none" xmlns="http://www.w3.org/2000/svg">
<path fill-rule="evenodd" clip-rule="evenodd" d="M3.79688 12.75C3.79688 11.646 4.73021 10.75 5.88021 10.75C7.03021 10.75 7.96354 11.646 7.96354 12.75C7.96354 13.854 7.03021 14.75 5.88021 14.75C4.73021 14.75 3.79688 13.854 3.79688 12.75ZM13.1719 10.75C12.0219 10.75 11.0885 11.646 11.0885 12.75C11.0885 13.854 12.0219 14.75 13.1719 14.75C14.3219 14.75 15.2552 13.854 15.2552 12.75C15.2552 11.646 14.3219 10.75 13.1719 10.75ZM20.4635 10.75C19.3135 10.75 18.3802 11.646 18.3802 12.75C18.3802 13.854 19.3135 14.75 20.4635 14.75C21.6135 14.75 22.5469 13.854 22.5469 12.75C22.5469 11.646 21.6135 10.75 20.4635 10.75Z" fill="#9C4900"/>
<mask id="mask0_428_141569" style="mask-type:luminance" maskUnits="userSpaceOnUse" x="3" y="10" width="20" height="5">
<path fill-rule="evenodd" clip-rule="evenodd" d="M3.79688 12.75C3.79688 11.646 4.73021 10.75 5.88021 10.75C7.03021 10.75 7.96354 11.646 7.96354 12.75C7.96354 13.854 7.03021 14.75 5.88021 14.75C4.73021 14.75 3.79688 13.854 3.79688 12.75ZM13.1719 10.75C12.0219 10.75 11.0885 11.646 11.0885 12.75C11.0885 13.854 12.0219 14.75 13.1719 14.75C14.3219 14.75 15.2552 13.854 15.2552 12.75C15.2552 11.646 14.3219 10.75 13.1719 10.75ZM20.4635 10.75C19.3135 10.75 18.3802 11.646 18.3802 12.75C18.3802 13.854 19.3135 14.75 20.4635 14.75C21.6135 14.75 22.5469 13.854 22.5469 12.75C22.5469 11.646 21.6135 10.75 20.4635 10.75Z" fill="white"/>
</mask>
<g mask="url(#mask0_428_141569)">
<rect x="0.671875" y="0.75" width="25" height="24" fill="#9C4900"/>
</g>
</svg>
