<svg width="41" height="41" viewBox="0 0 41 41" fill="none" xmlns="http://www.w3.org/2000/svg">
<circle cx="20.6719" cy="20.75" r="20" fill="#b23a9c"/>
<path fill-rule="evenodd" clip-rule="evenodd" d="M22.0583 29.0826C22.0408 29.0826 22.0241 29.0817 22.0074 29.0809C21.6308 29.0584 21.3166 28.7851 21.2416 28.4151L19.9599 22.1092C19.8933 21.7809 19.6374 21.5251 19.3091 21.4584L13.0033 20.1759C12.6333 20.1017 12.3599 19.7876 12.3374 19.4109C12.3149 19.0334 12.5474 18.6884 12.9058 18.5701L26.2391 14.1259C26.5383 14.0242 26.8683 14.1026 27.0916 14.3267C27.3149 14.5501 27.3924 14.8801 27.2933 15.1792L22.8483 28.5126C22.7349 28.8551 22.4149 29.0826 22.0583 29.0826Z" fill="#B23A9C"/>
<mask id="mask0_428_141598" style="mask-type:luminance" maskUnits="userSpaceOnUse" x="12" y="14" width="16" height="16">
<path fill-rule="evenodd" clip-rule="evenodd" d="M22.0583 29.0826C22.0408 29.0826 22.0241 29.0817 22.0074 29.0809C21.6308 29.0584 21.3166 28.7851 21.2416 28.4151L19.9599 22.1092C19.8933 21.7809 19.6374 21.5251 19.3091 21.4584L13.0033 20.1759C12.6333 20.1017 12.3599 19.7876 12.3374 19.4109C12.3149 19.0334 12.5474 18.6884 12.9058 18.5701L26.2391 14.1259C26.5383 14.0242 26.8683 14.1026 27.0916 14.3267C27.3149 14.5501 27.3924 14.8801 27.2933 15.1792L22.8483 28.5126C22.7349 28.8551 22.4149 29.0826 22.0583 29.0826Z" fill="white"/>
</mask>
<g mask="url(#mask0_428_141598)">
<rect x="10.6719" y="10.75" width="20" height="20" fill="white"/>
</g>
</svg>
