<svg width="31" height="31" viewBox="0 0 31 31" fill="none" xmlns="http://www.w3.org/2000/svg">
<path fill-rule="evenodd" clip-rule="evenodd" d="M30.916 15.7588C30.916 24.0431 24.2003 30.7588 15.916 30.7588C7.63174 30.7588 0.916016 24.0431 0.916016 15.7588C0.916016 7.47452 7.63174 0.758789 15.916 0.758789C24.2003 0.758789 30.916 7.47452 30.916 15.7588ZM9.35352 16.6963C8.83575 16.6963 8.41602 16.2766 8.41602 15.7588C8.41602 15.241 8.83575 14.8213 9.35352 14.8213H20.2152L16.1906 10.7967C15.8245 10.4306 15.8245 9.83699 16.1906 9.47088C16.5567 9.10476 17.1503 9.10476 17.5164 9.47088L23.1414 15.0959C23.5075 15.462 23.5075 16.0556 23.1414 16.4217L17.5164 22.0467C17.1503 22.4128 16.5567 22.4128 16.1906 22.0467C15.8245 21.6806 15.8245 21.087 16.1906 20.7209L20.2152 16.6963H9.35352Z" fill="url(#paint0_linear_206_27434)"/>
<defs>
<linearGradient id="paint0_linear_206_27434" x1="15.916" y1="0.758789" x2="15.916" y2="30.7588" gradientUnits="userSpaceOnUse">
<stop stop-color="#B23A9C"/>
<stop offset="1" stop-color="#79266A"/>
</linearGradient>
</defs>
</svg>
