<svg width="31" height="31" viewBox="0 0 31 31" fill="none" xmlns="http://www.w3.org/2000/svg">
<path fill-rule="evenodd" clip-rule="evenodd" d="M30.6455 15.5498C30.6455 23.8341 23.9298 30.5498 15.6455 30.5498C7.36124 30.5498 0.645508 23.8341 0.645508 15.5498C0.645508 7.26553 7.36124 0.549805 15.6455 0.549805C23.9298 0.549805 30.6455 7.26553 30.6455 15.5498ZM9.08301 16.4873C8.56524 16.4873 8.14551 16.0676 8.14551 15.5498C8.14551 15.032 8.56524 14.6123 9.08301 14.6123H19.9447L15.9201 10.5877C15.554 10.2216 15.554 9.62801 15.9201 9.26189C16.2862 8.89578 16.8798 8.89578 17.2459 9.26189L22.8709 14.8869C23.237 15.253 23.237 15.8466 22.8709 16.2127L17.2459 21.8377C16.8798 22.2038 16.2862 22.2038 15.9201 21.8377C15.554 21.4716 15.554 20.878 15.9201 20.5119L19.9447 16.4873H9.08301Z" fill="url(#paint0_linear_311_1979)"/>
<defs>
<linearGradient id="paint0_linear_311_1979" x1="15.6455" y1="0.549805" x2="15.6455" y2="30.5498" gradientUnits="userSpaceOnUse">
<stop stop-color="#B23A9C"/>
<stop offset="1" stop-color="#79266A"/>
</linearGradient>
</defs>
</svg>
