<svg width="105" height="101" viewBox="0 0 105 101" fill="none" xmlns="http://www.w3.org/2000/svg">
<path d="M17.66 12.8262H0.96875C1.01239 11.2381 1.29358 7.5144 3.37929 4.01164C4.41004 2.27947 5.55984 1.14283 6.43223 0.432036H17.66V12.8262Z" fill="url(#paint0_linear_210_4207)"/>
<path d="M87.5205 12.8252H104.211C104.168 11.2371 103.887 7.51342 101.801 4.01066C100.77 2.27849 99.6204 1.14186 98.7479 0.43106H87.5205V12.8252Z" fill="url(#paint1_linear_210_4207)"/>
<path fill-rule="evenodd" clip-rule="evenodd" d="M98.7471 0.423828L98.7387 0.430664H98.747C97.8745 1.14146 96.7247 2.27809 95.694 4.01026C94.0207 6.81938 93.5088 9.77288 93.3492 11.6503C93.3251 11.9365 93.3091 12.1977 93.2984 12.4297L93.2979 12.4297L93.2977 12.4342C93.2975 12.4393 93.2974 12.4455 93.2973 12.4528L93.2973 12.4928C93.2974 12.5141 93.2975 12.5382 93.2973 12.5636C93.2965 12.6801 93.2903 12.8248 93.2494 12.8248L93.2494 47.8562V71.9052L93.2494 71.9052V71.912L92.5638 72.3882L91.7265 72.9698L91.2876 73.2747L52.1993 100.423C51.5294 99.9482 50.8593 99.473 50.1891 98.9979L49.5012 98.5101C37.5406 90.0304 25.58 81.5507 13.6194 73.0707L13.2715 72.824C12.8427 72.52 12.4138 72.2159 11.9849 71.912V47.8441V12.8248H11.8933C11.89 12.7157 11.886 12.595 11.8802 12.4629L11.8788 12.4373L11.8791 12.4373L11.879 12.4359L11.877 12.436C11.827 11.353 11.6615 9.62655 11.0858 7.69929C10.7304 6.51151 10.219 5.2474 9.48272 4.01026C8.45174 2.27809 7.30207 1.14146 6.42969 0.430664H6.43673L6.42969 0.424914H6.43107L6.42974 0.423828H8.29282H49.9788H96.5256H98.7471Z" fill="url(#paint2_linear_210_4207)"/>
<path d="M30.4848 57.2059V53.356L41.9295 36.9765H47.6343V52.936H50.7142V57.2059H47.6343V62.1758H42.7345V57.2059H30.4848ZM43.0495 42.2263L35.8747 52.936H43.0495V42.2263ZM53.8338 49.0861C53.8338 45.0496 54.5571 41.888 56.0037 39.6014C57.4737 37.3148 59.9003 36.1715 63.2836 36.1715C66.6668 36.1715 69.0817 37.3148 70.5284 39.6014C71.9983 41.888 72.7333 45.0496 72.7333 49.0861C72.7333 53.146 71.9983 56.3309 70.5284 58.6409C69.0817 60.9508 66.6668 62.1058 63.2836 62.1058C59.9003 62.1058 57.4737 60.9508 56.0037 58.6409C54.5571 56.3309 53.8338 53.146 53.8338 49.0861ZM67.9034 49.0861C67.9034 47.3595 67.7868 45.9129 67.5534 44.7463C67.3434 43.5563 66.9001 42.588 66.2235 41.8413C65.5702 41.0947 64.5902 40.7214 63.2836 40.7214C61.9769 40.7214 60.9853 41.0947 60.3086 41.8413C59.6553 42.588 59.212 43.5563 58.9787 44.7463C58.7687 45.9129 58.6637 47.3595 58.6637 49.0861C58.6637 50.8594 58.7687 52.3527 58.9787 53.566C59.1887 54.756 59.632 55.7243 60.3086 56.4709C60.9853 57.1943 61.9769 57.5559 63.2836 57.5559C64.5902 57.5559 65.5818 57.1943 66.2585 56.4709C66.9351 55.7243 67.3784 54.756 67.5884 53.566C67.7984 52.3527 67.9034 50.8594 67.9034 49.0861Z" fill="white"/>
<defs>
<linearGradient id="paint0_linear_210_4207" x1="9.31437" y1="12.8262" x2="9.31437" y2="0.432036" gradientUnits="userSpaceOnUse">
<stop stop-color="#96B230"/>
<stop offset="1" stop-color="#869A35"/>
</linearGradient>
<linearGradient id="paint1_linear_210_4207" x1="95.8659" y1="12.8252" x2="95.8659" y2="0.43106" gradientUnits="userSpaceOnUse">
<stop stop-color="#96B230"/>
<stop offset="1" stop-color="#869A35"/>
</linearGradient>
<linearGradient id="paint2_linear_210_4207" x1="52.5884" y1="0.423828" x2="52.5884" y2="100.423" gradientUnits="userSpaceOnUse">
<stop stop-color="#96B230"/>
<stop offset="1" stop-color="#869A35"/>
</linearGradient>
</defs>
</svg>
