<svg width="21" height="21" viewBox="0 0 21 21" fill="none" xmlns="http://www.w3.org/2000/svg">
<path fill-rule="evenodd" clip-rule="evenodd" d="M20.75 10.0945C20.75 15.6173 16.2728 20.0945 10.75 20.0945C5.22715 20.0945 0.75 15.6173 0.75 10.0945C0.75 4.57164 5.22715 0.0944824 10.75 0.0944824C16.2728 0.0944824 20.75 4.57164 20.75 10.0945ZM6.375 10.7195C6.02982 10.7195 5.75 10.4397 5.75 10.0945C5.75 9.7493 6.02982 9.46948 6.375 9.46948H13.6161L10.9331 6.78643C10.689 6.54235 10.689 6.14662 10.9331 5.90254C11.1771 5.65846 11.5729 5.65846 11.8169 5.90254L15.5669 9.65254C15.811 9.89662 15.811 10.2923 15.5669 10.5364L11.8169 14.2864C11.5729 14.5305 11.1771 14.5305 10.9331 14.2864C10.689 14.0423 10.689 13.6466 10.9331 13.4025L13.6161 10.7195H6.375Z" fill="url(#paint0_linear_136_18515)"/>
<defs>
<linearGradient id="paint0_linear_136_18515" x1="10.75" y1="0.0944824" x2="10.75" y2="20.0945" gradientUnits="userSpaceOnUse">
<stop stop-color="#B23A9C"/>
<stop offset="1" stop-color="#79266A"/>
</linearGradient>
</defs>
</svg>
