<svg width="37" height="37" viewBox="0 0 37 37" fill="none" xmlns="http://www.w3.org/2000/svg">
<path d="M4.05664 21.3867L4.05664 0.386719H16.0566C21.361 0.386719 26.448 2.49385 30.1988 6.24458C33.9495 9.99531 36.0566 15.0824 36.0566 20.3867V32.3867H15.0566C12.1393 32.3867 9.34137 31.2278 7.27847 29.1649C5.21557 27.102 4.05664 24.3041 4.05664 21.3867Z" fill="#73D48D"/>
<path d="M17.9081 21.3201C17.6992 21.3201 17.4923 21.2785 17.2997 21.1976C17.107 21.1167 16.9324 20.9982 16.7861 20.8491L14.4861 18.5231C14.1883 18.2199 14.0215 17.812 14.0215 17.3871C14.0215 16.9621 14.1883 16.5542 14.4861 16.2511C14.6325 16.1019 14.8071 15.9835 14.9997 15.9026C15.1924 15.8217 15.3992 15.7801 15.6081 15.7801C15.8171 15.7801 16.0239 15.8217 16.2166 15.9026C16.4092 15.9835 16.5838 16.1019 16.7301 16.2511L17.9051 17.4411L21.3771 13.9251C21.5235 13.7759 21.6981 13.6575 21.8907 13.5766C22.0834 13.4957 22.2902 13.4541 22.4991 13.4541C22.7081 13.4541 22.9149 13.4957 23.1076 13.5766C23.3002 13.6575 23.4748 13.7759 23.6211 13.9251C23.9189 14.2282 24.0858 14.6361 24.0858 15.0611C24.0858 15.486 23.9189 15.8939 23.6211 16.1971L19.0281 20.8491C18.8821 20.998 18.7078 21.1163 18.5155 21.1972C18.3232 21.2781 18.1167 21.3198 17.9081 21.3201Z" fill="white"/>
<path d="M4.05664 0.386719L0.0966797 5.37071H4.05664V0.386719Z" fill="#61AA74"/>
<path d="M36.04 32.3555L31.056 36.3145V32.3555H36.04Z" fill="#61AA74"/>
</svg>
