<svg width="16" height="16" viewBox="0 0 16 16" fill="none" xmlns="http://www.w3.org/2000/svg">
<path d="M8.30547 15.0156C8.4888 14.8323 8.5848 14.599 8.59347 14.3156C8.60213 14.0323 8.51447 13.799 8.33047 13.6156L3.43047 8.71562H14.6055C14.8888 8.71562 15.1265 8.61963 15.3185 8.42762C15.5105 8.23562 15.6061 7.99829 15.6055 7.71562C15.6055 7.43229 15.5095 7.19462 15.3175 7.00262C15.1255 6.81062 14.8881 6.71496 14.6055 6.71562H3.43047L8.33047 1.81562C8.5138 1.63229 8.60147 1.39896 8.59347 1.11562C8.58547 0.832292 8.48947 0.598958 8.30547 0.415625C8.12213 0.232291 7.8888 0.140625 7.60546 0.140625C7.32213 0.140625 7.0888 0.232291 6.90547 0.415625L0.305466 7.01562C0.205465 7.09896 0.134464 7.20329 0.0924644 7.32862C0.0504646 7.45396 0.0297976 7.58296 0.0304642 7.71562C0.0304642 7.84896 0.0511312 7.97396 0.0924644 8.09062C0.133798 8.20729 0.204799 8.31562 0.305466 8.41562L6.90547 15.0156C7.0888 15.199 7.32213 15.2906 7.60546 15.2906C7.8888 15.2906 8.12213 15.199 8.30547 15.0156Z" fill="#954386"/>
</svg>
