<svg width="18" height="16" viewBox="0 0 18 16" fill="none" xmlns="http://www.w3.org/2000/svg">
<path d="M3.64551 0.982422H1.97884C1.5186 0.982422 1.14551 1.35552 1.14551 1.81576V5.14909C1.14551 5.60933 1.5186 5.98242 1.97884 5.98242H3.64551C4.10575 5.98242 4.47884 5.60933 4.47884 5.14909V1.81576C4.47884 1.35552 4.10575 0.982422 3.64551 0.982422Z" stroke="#FF0000" stroke-width="1.11111" stroke-linecap="round" stroke-linejoin="round"/>
<path d="M13.6452 14.3158C14.5657 14.3158 15.3118 13.5696 15.3118 12.6491C15.3118 11.7286 14.5657 10.9824 13.6452 10.9824C12.7247 10.9824 11.9785 11.7286 11.9785 12.6491C11.9785 13.5696 12.7247 14.3158 13.6452 14.3158Z" stroke="#FF0000" stroke-width="1.11111" stroke-linecap="round" stroke-linejoin="round"/>
<path d="M6.97917 2.64844H12.8125C15.1133 2.64844 16.9792 5.2601 16.9792 8.48177V12.6484H15.3125M11.9792 12.6484H5.3125" stroke="#FF0000" stroke-width="1.11111" stroke-linecap="round" stroke-linejoin="round"/>
<path d="M11.9792 2.64844L13.2292 8.48177H16.9792M6.5625 6.8151H12.8125M8.64583 2.64844V6.8151M2.8125 5.98177V15.1484" stroke="#FF0000" stroke-width="1.11111" stroke-linecap="round" stroke-linejoin="round"/>
</svg>
