<svg width="21" height="21" viewBox="0 0 21 21" fill="none" xmlns="http://www.w3.org/2000/svg">
<path d="M9.79297 4.23242C9.62721 4.23242 9.46824 4.29827 9.35103 4.41548C9.23382 4.53269 9.16797 4.69166 9.16797 4.85742C9.16797 5.02318 9.23382 5.18215 9.35103 5.29936C9.46824 5.41657 9.62721 5.48242 9.79297 5.48242H11.043C11.2087 5.48242 11.3677 5.41657 11.4849 5.29936C11.6021 5.18215 11.668 5.02318 11.668 4.85742C11.668 4.69166 11.6021 4.53269 11.4849 4.41548C11.3677 4.29827 11.2087 4.23242 11.043 4.23242H9.79297ZM8.54297 13.2949C8.54297 13.5436 8.4442 13.782 8.26838 13.9578C8.09257 14.1336 7.85411 14.2324 7.60547 14.2324C7.35683 14.2324 7.11837 14.1336 6.94256 13.9578C6.76674 13.782 6.66797 13.5436 6.66797 13.2949C6.66797 13.0463 6.76674 12.8078 6.94256 12.632C7.11837 12.4562 7.35683 12.3574 7.60547 12.3574C7.85411 12.3574 8.09257 12.4562 8.26838 12.632C8.4442 12.8078 8.54297 13.0463 8.54297 13.2949ZM13.2305 14.2324C13.4791 14.2324 13.7176 14.1336 13.8934 13.9578C14.0692 13.782 14.168 13.5436 14.168 13.2949C14.168 13.0463 14.0692 12.8078 13.8934 12.632C13.7176 12.4562 13.4791 12.3574 13.2305 12.3574C12.9818 12.3574 12.7434 12.4562 12.5676 12.632C12.3917 12.8078 12.293 13.0463 12.293 13.2949C12.293 13.5436 12.3917 13.782 12.5676 13.9578C12.7434 14.1336 12.9818 14.2324 13.2305 14.2324ZM2.91797 5.35742C2.91797 4.39601 3.29989 3.47398 3.97971 2.79416C4.65953 2.11434 5.58156 1.73242 6.54297 1.73242H14.293C15.2544 1.73242 16.1764 2.11434 16.8562 2.79416C17.5361 3.47398 17.918 4.39601 17.918 5.35742V7.98242H18.543C18.7087 7.98242 18.8677 8.04827 18.9849 8.16548C19.1021 8.28269 19.168 8.44166 19.168 8.60742C19.168 8.77318 19.1021 8.93215 18.9849 9.04936C18.8677 9.16657 18.7087 9.23242 18.543 9.23242H17.918V17.6074C17.918 18.0384 17.7468 18.4517 17.442 18.7565C17.1373 19.0612 16.7239 19.2324 16.293 19.2324H14.543C14.112 19.2324 13.6987 19.0612 13.3939 18.7565C13.0892 18.4517 12.918 18.0384 12.918 17.6074V16.7324H7.91797V17.6074C7.91797 18.0384 7.74676 18.4517 7.44202 18.7565C7.13727 19.0612 6.72395 19.2324 6.29297 19.2324H4.54297C4.11199 19.2324 3.69867 19.0612 3.39392 18.7565C3.08917 18.4517 2.91797 18.0384 2.91797 17.6074V9.23242H2.29297C2.12721 9.23242 1.96824 9.16657 1.85103 9.04936C1.73382 8.93215 1.66797 8.77318 1.66797 8.60742C1.66797 8.44166 1.73382 8.28269 1.85103 8.16548C1.96824 8.04827 2.12721 7.98242 2.29297 7.98242H2.91797V5.35742ZM16.668 5.35742C16.668 4.72753 16.4177 4.12344 15.9723 3.67804C15.5269 3.23264 14.9229 2.98242 14.293 2.98242H6.54297C5.91308 2.98242 5.30899 3.23264 4.86359 3.67804C4.41819 4.12344 4.16797 4.72753 4.16797 5.35742V10.4824H16.668V5.35742ZM14.168 16.7324V17.6074C14.168 17.6567 14.1777 17.7054 14.1965 17.7509C14.2154 17.7964 14.243 17.8378 14.2778 17.8726C14.3126 17.9074 14.354 17.935 14.3995 17.9539C14.445 17.9727 14.4937 17.9824 14.543 17.9824H16.293C16.3422 17.9824 16.391 17.9727 16.4365 17.9539C16.482 17.935 16.5233 17.9074 16.5581 17.8726C16.593 17.8378 16.6206 17.7964 16.6394 17.7509C16.6583 17.7054 16.668 17.6567 16.668 17.6074V16.7324H14.168ZM4.16797 16.7324V17.6074C4.16797 17.6567 4.17767 17.7054 4.19651 17.7509C4.21536 17.7964 4.24298 17.8378 4.2778 17.8726C4.31263 17.9074 4.35397 17.935 4.39946 17.9539C4.44496 17.9727 4.49372 17.9824 4.54297 17.9824H6.29297C6.34221 17.9824 6.39098 17.9727 6.43647 17.9539C6.48197 17.935 6.52331 17.9074 6.55813 17.8726C6.59296 17.8378 6.62058 17.7964 6.63942 17.7509C6.65827 17.7054 6.66797 17.6567 6.66797 17.6074V16.7324H4.16797ZM4.16797 15.4824H16.668V11.7324H4.16797V15.4824Z" fill="#954386"/>
</svg>
