<svg width="48" height="49" viewBox="0 0 48 49" fill="none" xmlns="http://www.w3.org/2000/svg">
<g opacity="0.5">
<mask id="mask0_208_48294" style="mask-type:alpha" maskUnits="userSpaceOnUse" x="0" y="0" width="48" height="49">
<rect y="0.724609" width="48" height="48" fill="#D9D9D9"/>
</mask>
<g mask="url(#mask0_208_48294)">
<path d="M20.2132 21.3893V19.5705C20.2132 18.5549 19.3899 17.7324 18.3751 17.7324H9.35374C8.33812 17.7324 7.51562 18.5557 7.51562 19.5705V43.2275C7.51562 44.2431 8.33886 45.0656 9.35374 45.0656H40.469C41.4847 45.0656 42.3072 44.2423 42.3072 43.2275V25.0663C42.3072 24.0506 41.4839 23.2281 40.469 23.2281H22.0528C21.0372 23.2281 20.2147 22.4049 20.2147 21.39L20.2132 21.3893Z" fill="url(#paint0_linear_208_48294)"/>
<path d="M42.2097 4.55882L21.1985 4.59916C21.0684 4.59941 20.9631 4.70511 20.9633 4.83525L21.0146 31.5092C21.0148 31.6393 21.1205 31.7446 21.2506 31.7444L42.2618 31.704C42.392 31.7038 42.4973 31.5981 42.497 31.4679L42.4458 4.794C42.4456 4.66386 42.3399 4.55857 42.2097 4.55882Z" fill="#C39BBC"/>
<path d="M41.4011 4.55882L20.3899 4.59916C20.2598 4.59941 20.1545 4.70511 20.1547 4.83525L20.206 31.5092C20.2062 31.6393 20.3119 31.7446 20.4421 31.7444L41.4532 31.704C41.5834 31.7038 41.6887 31.5981 41.6884 31.4679L41.6372 4.794C41.637 4.66386 41.5313 4.55857 41.4011 4.55882Z" fill="#F2F2F2"/>
<path opacity="0.23" d="M38.8877 13.6898L24.833 13.7168L24.8338 14.1381L38.8885 14.1111L38.8877 13.6898Z" fill="black"/>
<path opacity="0.23" d="M38.8919 15.5933L22.3779 15.625L22.3786 15.9717L38.8925 15.94L38.8919 15.5933Z" fill="black"/>
<path opacity="0.23" d="M38.8958 17.6753L22.3818 17.707L22.3825 18.0538L38.8965 18.0221L38.8958 17.6753Z" fill="black"/>
<path opacity="0.23" d="M38.8997 19.9488L22.3857 19.9805L22.3864 20.3272L38.9004 20.2955L38.8997 19.9488Z" fill="black"/>
<path d="M32.7896 24.3277L22.3955 24.3477L22.3962 24.6944L32.7903 24.6744L32.7896 24.3277Z" fill="#C39BBC"/>
<path opacity="0.23" d="M32.7847 22.2535L22.3906 22.2734L22.3913 22.6202L32.7854 22.6002L32.7847 22.2535Z" fill="black"/>
<path d="M38.9124 26.146L22.3984 26.1777L22.3991 26.5245L38.9131 26.4928L38.9124 26.146Z" fill="#C39BBC"/>
<path d="M38.9153 28.2281L22.4014 28.2598L22.402 28.6065L38.916 28.5748L38.9153 28.2281Z" fill="#C39BBC"/>
<path d="M38.9202 30.5035L22.4062 30.5352L22.4069 30.8819L38.9209 30.8502L38.9202 30.5035Z" fill="#C39BBC"/>
<path d="M39.3657 6.70154L22.2627 6.73438L22.273 12.107L39.3761 12.0742L39.3657 6.70154Z" fill="#C39BBC"/>
<path d="M38.7454 20.6327L33.6113 20.6426L33.6209 25.6521L38.755 25.6422L38.7454 20.6327Z" fill="#C39BBC"/>
<path d="M18.4593 21.3893V19.5705C18.4593 18.5549 17.636 17.7324 16.6212 17.7324H7.59984C6.58421 17.7324 5.76172 18.5557 5.76172 19.5705V43.2275C5.76172 44.2431 6.58496 45.0656 7.59984 45.0656H38.7151C39.7308 45.0656 40.5532 44.2423 40.5532 43.2275V25.0663C40.5532 24.0506 39.73 23.2281 38.7151 23.2281H20.2989C19.2833 23.2281 18.4608 22.4049 18.4608 21.39L18.4593 21.3893Z" fill="#954386"/>
</g>
</g>
<defs>
<linearGradient id="paint0_linear_208_48294" x1="24.9114" y1="17.7324" x2="24.9114" y2="45.0656" gradientUnits="userSpaceOnUse">
<stop stop-color="#B23A9C"/>
<stop offset="1" stop-color="#79266A"/>
</linearGradient>
</defs>
</svg>
