<svg width="17" height="17" viewBox="0 0 17 17" fill="none" xmlns="http://www.w3.org/2000/svg">
<path fill-rule="evenodd" clip-rule="evenodd" d="M14.627 1.09595H2.62695C2.07467 1.09595 1.62695 1.54366 1.62695 2.09595V14.0959C1.62695 14.6482 2.07467 15.0959 2.62695 15.0959H14.627C15.1792 15.0959 15.627 14.6482 15.627 14.0959V2.09595C15.627 1.54366 15.1792 1.09595 14.627 1.09595ZM2.62695 0.0959473C1.52238 0.0959473 0.626953 0.991378 0.626953 2.09595V14.0959C0.626953 15.2005 1.52238 16.0959 2.62695 16.0959H14.627C15.7315 16.0959 16.627 15.2005 16.627 14.0959V2.09595C16.627 0.991378 15.7315 0.0959473 14.627 0.0959473H2.62695Z" fill="#954386"/>
<path fill-rule="evenodd" clip-rule="evenodd" d="M4.62695 8.09595C4.62695 8.37209 4.85081 8.59595 5.12695 8.59595H10.9198L8.7734 10.7424C8.57814 10.9377 8.57814 11.2542 8.7734 11.4495C8.96866 11.6448 9.28524 11.6448 9.48051 11.4495L12.4805 8.4495C12.6758 8.25424 12.6758 7.93766 12.4805 7.74239L9.48051 4.74239C9.28524 4.54713 8.96866 4.54713 8.7734 4.74239C8.57814 4.93766 8.57814 5.25424 8.7734 5.4495L10.9198 7.59595H5.12695C4.85081 7.59595 4.62695 7.81981 4.62695 8.09595Z" fill="#954386"/>
</svg>
