<svg width="24" height="25" viewBox="0 0 24 25" fill="none" xmlns="http://www.w3.org/2000/svg">
<mask id="mask0_210_4722" style="mask-type:luminance" maskUnits="userSpaceOnUse" x="0" y="0" width="24" height="25">
<path d="M24 0.368164H0V24.3682H24V0.368164Z" fill="white"/>
</mask>
<g mask="url(#mask0_210_4722)">
<path d="M16.5218 18.5842C16.5147 18.3136 16.5884 18.047 16.7335 17.8185C16.8786 17.59 17.0886 17.41 17.3366 17.3014C17.5845 17.1929 17.8593 17.1607 18.1256 17.2091C18.3919 17.2575 18.6378 17.3842 18.8317 17.573C19.0257 17.7618 19.1589 18.0042 19.2144 18.2692C19.2699 18.5341 19.2452 18.8096 19.1433 19.0604C19.0414 19.3112 18.8671 19.5259 18.6426 19.6771C18.418 19.8283 18.1535 19.9091 17.8828 19.9092C17.7064 19.9117 17.5313 19.8794 17.3674 19.8142C17.2034 19.7489 17.054 19.652 16.9276 19.5289C16.8012 19.4058 16.7003 19.2591 16.6307 19.097C16.561 18.9349 16.5241 18.7606 16.5218 18.5842ZM8.35984 18.5842C8.35268 18.3136 8.42637 18.047 8.5715 17.8185C8.71663 17.59 8.9266 17.41 9.17457 17.3014C9.42255 17.1929 9.69726 17.1607 9.9636 17.2091C10.2299 17.2575 10.4758 17.3842 10.6697 17.573C10.8637 17.7618 10.9969 18.0042 11.0524 18.2692C11.1079 18.5341 11.0832 18.8096 10.9813 19.0604C10.8794 19.3112 10.7051 19.5259 10.4806 19.6771C10.256 19.8283 9.99153 19.9091 9.72084 19.9092C9.54418 19.9121 9.36869 19.8801 9.20443 19.815C9.04017 19.75 8.89038 19.6531 8.76365 19.53C8.63693 19.4069 8.53575 19.26 8.46594 19.0977C8.39613 18.9354 8.35905 18.7609 8.35684 18.5842H8.35984ZM9.12984 14.7602C8.94382 14.7623 8.76173 14.7067 8.60862 14.601C8.45551 14.4954 8.3389 14.3449 8.27484 14.1702L5.53584 6.5932H3.16384C2.92702 6.59509 2.699 6.50356 2.52921 6.33846C2.35943 6.17335 2.26156 5.94798 2.25684 5.7112C2.26104 5.47408 2.35868 5.24819 2.52852 5.08266C2.69836 4.91713 2.92668 4.82532 3.16384 4.8272H6.17784C6.36385 4.82513 6.54594 4.88074 6.69905 4.9864C6.85216 5.09205 6.96877 5.24256 7.03284 5.4172L9.77184 12.9952H17.9568L19.5988 7.9042H11.2678C11.0302 7.90715 10.801 7.81596 10.6303 7.65052C10.4596 7.48509 10.3613 7.25886 10.3568 7.0212C10.3613 6.78408 10.4592 6.5583 10.6292 6.39295C10.7993 6.2276 11.0277 6.13605 11.2648 6.1382H20.8368C20.9783 6.13762 21.118 6.16993 21.2449 6.23258C21.3717 6.29523 21.4823 6.3865 21.5678 6.4992C21.6519 6.6099 21.708 6.73926 21.7313 6.87628C21.7546 7.0133 21.7445 7.15393 21.7018 7.2862L19.4898 14.1422C19.43 14.3237 19.3139 14.4815 19.1583 14.5926C19.0028 14.7037 18.816 14.7624 18.6248 14.7602H9.12984Z" fill="#779500" stroke="#779500" stroke-width="0.5" stroke-linecap="round"/>
</g>
</svg>
