<svg width="41" height="41" viewBox="0 0 41 41" fill="none" xmlns="http://www.w3.org/2000/svg">
<path d="M28.6055 0.144531H12.6055C5.97805 0.144531 0.605469 5.51711 0.605469 12.1445V28.1445C0.605469 34.7719 5.97805 40.1445 12.6055 40.1445H28.6055C35.2329 40.1445 40.6055 34.7719 40.6055 28.1445V12.1445C40.6055 5.51711 35.2329 0.144531 28.6055 0.144531Z" fill="#954386"/>
<path fill-rule="evenodd" clip-rule="evenodd" d="M29.7283 11.4158C29.8355 11.5231 29.9077 11.6603 29.9354 11.8094C29.963 11.9584 29.9448 12.1124 29.8832 12.2509L21.3979 31.3428C21.3387 31.4763 21.2418 31.5897 21.1192 31.6689C20.9965 31.7482 20.8533 31.7899 20.7072 31.7889C20.5612 31.7879 20.4186 31.7443 20.297 31.6634C20.1754 31.5826 20.08 31.4679 20.0226 31.3336L16.9594 24.1848L9.81127 21.1209C9.67696 21.0635 9.56234 20.9681 9.48147 20.8465C9.40059 20.7249 9.35699 20.5823 9.35602 20.4362C9.35504 20.2902 9.39673 20.147 9.47597 20.0243C9.55521 19.9016 9.66855 19.8047 9.80208 19.7456L28.8933 11.261C29.0318 11.1994 29.1857 11.1812 29.3348 11.2088C29.4839 11.2365 29.6211 11.3086 29.7283 11.4158ZM11.9814 20.4187L17.8235 22.9205C18.0005 22.9963 18.1415 23.1374 18.2174 23.3143L20.7191 29.1564L27.7209 13.4233L11.9814 20.4187Z" fill="white"/>
</svg>
