<svg width="397" height="151" viewBox="0 0 397 151" fill="none" xmlns="http://www.w3.org/2000/svg">
<path d="M72.757 88.6752C72.757 88.6752 60.557 93.9752 58.357 93.8752C56.157 93.7752 42.457 89.6752 42.457 89.6752L42.757 92.0752C42.757 92.0752 53.257 98.1752 56.957 98.4752C60.557 98.7752 72.957 95.1752 74.157 94.4752C75.457 93.6752 76.257 89.4752 72.757 88.6752Z" fill="#ED985F"/>
<path d="M74.6568 69.0752C74.6568 69.0752 79.1568 68.1752 81.3568 69.8752C85.4568 72.8752 85.6568 83.0752 87.1568 84.5752C88.6568 86.0752 92.3568 85.4752 92.6568 93.3752C92.9568 101.275 91.1568 101.875 93.3568 105.475C95.4568 108.975 92.4568 112.475 92.4568 112.475C92.4568 112.475 93.6568 110.575 93.1568 109.175C93.1568 109.175 92.6568 112.275 90.6568 112.975C88.6568 113.675 88.3568 114.275 88.0568 115.275C88.0568 115.275 71.2568 106.675 71.2568 100.575C71.2568 94.4752 67.9568 88.4752 69.5568 85.7752C69.5568 85.7752 68.8568 86.8752 68.7568 88.1752C68.7568 88.1752 67.7568 86.2752 69.4568 84.5752C71.1568 82.8752 67.4568 79.2752 68.0568 75.1752C68.4568 72.2752 70.4568 69.1752 74.6568 69.0752Z" fill="#233862"/>
<path d="M71.2568 94.4752C72.3568 95.1752 73.6568 95.8752 75.3568 96.1752C81.6568 97.6752 84.1568 92.2752 85.0568 88.5752C84.1568 88.0752 83.3568 87.9752 82.9568 87.8752C82.4568 87.7752 82.0568 87.7752 81.6568 87.7752C80.9568 87.2752 79.8568 84.9752 79.6568 81.5752L79.3568 81.6752L74.3568 83.0752C74.3568 83.0752 74.5568 84.6752 74.6568 86.1752C74.7568 87.3752 74.7568 88.4752 74.5568 88.7752C74.1568 88.8752 73.9568 88.8752 73.9568 88.8752C73.8568 88.9752 72.3568 91.3752 71.2568 94.4752Z" fill="#FFB27D"/>
<path d="M74.2568 83.0751C74.2568 83.0751 74.4568 84.6751 74.5568 86.1751C77.3568 85.8751 78.6568 83.1751 79.1568 81.7751L74.2568 83.0751Z" fill="#ED985F"/>
<path d="M73.4571 84.5752C73.4571 84.5752 80.1571 84.1752 79.8571 80.0752C79.5571 75.8752 80.2571 73.0752 75.9571 73.0752C71.6571 73.1752 70.9571 74.7752 70.6571 76.1752C70.4571 77.5752 71.7571 84.5752 73.4571 84.5752Z" fill="#FFB27D"/>
<path d="M70.7573 73.8752C71.6573 72.5752 72.4573 72.7752 72.9573 73.0752C76.4573 70.7752 79.0573 73.5752 79.0573 73.5752C79.7573 76.5752 81.9573 78.0752 81.9573 78.0752C81.9573 78.0752 80.7573 78.8752 77.9573 78.3752C77.0573 78.1752 76.2573 77.6752 75.5573 76.9752C76.8573 78.7752 78.4573 80.0752 78.4573 80.0752C74.9573 78.7752 73.2573 74.1752 73.1573 73.6752C72.7573 74.0752 72.0573 74.9752 71.8573 75.7752C71.5573 76.8752 70.4573 78.5752 69.8573 78.5752C69.8573 78.5752 69.3573 75.8752 70.7573 73.8752Z" fill="#233862"/>
<path d="M86.9572 108.075C87.5572 104.975 89.5572 92.5752 87.5572 88.6752C86.8572 87.2752 84.0572 87.0752 81.0572 87.2752C80.0572 87.8752 76.4572 90.1752 74.9572 89.8752C74.9572 89.8752 74.9572 89.8752 74.8572 89.8752C74.1572 89.6752 73.8572 89.1752 74.4572 88.7752C74.4572 88.7752 72.9572 88.6752 71.0572 88.9752C69.9572 89.1752 67.1572 90.6752 67.1572 90.6752C67.1572 90.6752 68.5572 93.2752 70.7572 94.1752C70.3572 97.3752 70.9572 98.8752 74.2572 106.275C77.0572 112.575 73.8572 118.275 73.8572 118.275C73.8572 118.275 90.5572 131.675 90.6572 124.875C90.7572 119.675 86.2572 112.075 86.9572 108.075Z" fill="#B5453C"/>
<path d="M73.0565 132.875C72.1565 132.775 71.3565 132.275 70.8565 131.475C70.7565 131.375 70.6565 131.275 70.5565 131.075C68.6565 128.175 67.9565 119.375 63.6565 109.975C62.6565 107.675 58.8565 107.275 57.8565 104.675C57.8565 104.675 55.3565 96.2752 62.6565 96.0752C69.9565 95.8752 82.2565 119.375 82.3565 121.775C82.6565 124.275 87.2565 134.475 73.0565 132.875Z" fill="#DD6D22"/>
<path d="M44.0566 132.675H54.4566C54.4566 132.675 54.8566 130.975 54.1566 129.875C53.5566 128.875 53.7566 128.275 54.2566 127.475C53.7566 127.675 53.1566 127.875 52.4566 127.775C51.9566 127.775 51.3566 127.475 50.9566 127.275C50.5566 127.775 48.5566 129.975 47.9566 130.375C47.3566 130.875 44.2566 130.675 44.0566 132.675Z" fill="#9E332E"/>
<path d="M85.8572 91.8752C85.8572 91.8752 87.2572 104.175 78.4572 106.775C69.6572 109.375 67.1572 95.4752 74.2572 94.4752C81.3572 93.4752 85.8572 91.8752 85.8572 91.8752Z" fill="#9E332E"/>
<path d="M57.6564 98.5752C57.0564 103.275 54.5564 118.075 50.2564 125.275C48.8564 127.575 53.7564 128.875 53.7564 128.875C54.4564 128.675 55.4564 127.675 56.0564 127.175C59.5564 123.975 66.6564 115.075 66.6564 107.975C66.6564 104.475 66.7564 97.7752 64.1564 96.0752C62.6564 95.0752 57.9564 96.6752 57.6564 98.5752Z" fill="#ED7D2B"/>
<path d="M79.2567 132.675C79.2567 132.675 78.8567 132.175 78.1567 131.075C77.3567 129.875 76.4567 127.475 75.3567 124.475C74.2567 121.275 72.8567 117.375 71.2567 113.175C70.7567 111.875 70.1567 110.675 69.6567 109.375C68.6567 107.075 65.7567 107.375 64.7567 104.875C64.7567 104.875 60.7567 95.9752 68.0567 95.6752C75.3567 95.4752 89.2567 119.575 90.0567 121.975C90.9567 124.475 95.2567 135.075 79.2567 132.675Z" fill="#F99746"/>
<path d="M51.6572 132.675H62.0572C62.0572 132.675 62.4572 130.975 61.7572 129.875C61.1572 128.875 61.3572 128.275 61.8572 127.475C61.3572 127.675 60.7572 127.875 60.0572 127.775C59.5572 127.775 58.9572 127.475 58.5572 127.275C58.1572 127.775 56.1572 129.975 55.5572 130.375C54.9572 130.875 51.9572 130.675 51.6572 132.675Z" fill="#B5453C"/>
<path d="M75.4564 124.475C74.3564 121.275 72.9564 117.375 71.3564 113.175C71.7564 110.075 72.7565 107.375 74.3565 106.275C74.2565 106.275 78.1564 118.175 75.4564 124.475Z" fill="#ED7D2B"/>
<path d="M63.7566 98.2752C63.1566 102.975 62.2566 118.075 57.9566 125.375C56.5566 127.675 61.4566 128.975 61.4566 128.975C62.1566 128.775 63.1566 127.775 63.7566 127.275C67.2566 124.075 74.3566 115.175 74.3566 108.075C74.3566 104.575 70.2566 98.1752 67.7566 96.4752C66.0566 95.3752 63.9566 96.3752 63.7566 98.2752Z" fill="#F99746"/>
<path d="M41.2572 83.6752L51.8572 82.5752C52.1572 82.5752 52.4572 82.6752 52.5572 82.9752L56.3572 92.9752C56.5572 93.3752 56.2572 93.8752 55.7572 93.8752L45.1572 94.2752C44.8572 94.2752 44.5572 94.0752 44.4572 93.8752L40.5572 84.5752C40.4572 84.1752 40.7572 83.6752 41.2572 83.6752Z" fill="#9E332E"/>
<path d="M40.3569 83.7752L50.9569 82.6752C51.2569 82.6752 51.5569 82.7752 51.6569 83.0752L55.4569 93.0752C55.6569 93.4752 55.3569 93.9752 54.8569 93.9752L44.2569 94.3752C43.9569 94.3752 43.6569 94.1752 43.5569 93.9752L39.6569 84.6752C39.5569 84.2752 39.8569 83.7752 40.3569 83.7752Z" fill="#B5453C"/>
<path d="M46.2565 88.4752C46.1565 88.0752 46.3565 87.8752 46.6565 87.8752C47.0565 87.8752 47.4565 88.1752 47.5565 88.4752C47.6565 88.8752 47.4565 89.0752 47.1565 89.0752C46.7565 89.0752 46.3565 88.7752 46.2565 88.4752Z" fill="#9E332E"/>
<path d="M40.6564 84.6752C40.5564 84.4752 40.6564 84.3752 40.8564 84.3752C41.0564 84.3752 41.2564 84.4752 41.2564 84.6752C41.3564 84.8752 41.2564 84.9752 41.0564 84.9752C40.8564 85.0752 40.6564 84.8752 40.6564 84.6752Z" fill="#9E332E"/>
<path d="M85.0566 88.6752C85.0566 88.6752 70.2566 94.0752 68.0566 93.9752C66.6566 93.8752 54.7566 89.6752 54.7566 89.6752C54.7566 89.6752 53.8566 88.2752 52.9566 88.0752C52.9566 88.0752 51.2566 87.2752 50.7566 87.1752C50.2566 87.0752 50.3566 87.1752 50.5566 87.6752C50.6566 87.8752 50.8566 88.1752 51.1566 88.3752C50.3566 88.5752 49.5566 88.8752 49.1566 88.9752C48.5566 89.0752 46.7566 89.6752 47.2566 90.5752C47.7566 91.4752 50.2566 91.6752 51.3566 91.4752C52.4566 91.2752 53.7566 91.8752 53.7566 91.8752C53.7566 91.8752 65.3566 99.2752 68.5566 99.2752C74.8566 99.1752 85.4566 95.3752 86.6566 94.5752C87.7566 93.6752 88.5566 89.4752 85.0566 88.6752Z" fill="#FFB27D"/>
<path d="M41.4571 88.8752C41.4571 88.8752 42.5571 87.1752 42.8571 87.0752C43.9571 86.8752 43.9571 88.2752 43.6571 89.1752C43.4571 90.1752 42.5571 91.0752 42.3571 90.9752C42.1571 90.8752 41.1571 89.7752 41.4571 88.8752Z" fill="#FFB27D"/>
<path d="M41.3566 89.1752C41.3566 89.1752 41.0566 91.0752 42.8566 92.0752L41.3566 89.1752Z" fill="#FFB27D"/>
<path d="M72.1572 82.1752C72.1572 82.1752 72.7572 81.8752 74.5572 82.0752C74.5572 82.0752 74.4572 82.7752 73.1572 82.8752C72.4572 82.8752 72.1572 82.1752 72.1572 82.1752Z" fill="white"/>
<path d="M77.457 91.3752C77.457 91.3752 78.757 95.5752 83.357 96.4752C83.357 96.4752 90.857 94.1752 87.157 89.0752C87.057 89.0752 83.357 86.3752 77.457 91.3752Z" fill="#B5453C"/>
<path d="M73.8572 37.1752C73.8572 36.7752 73.8572 36.2752 73.8572 35.8752C73.9572 32.6752 74.5572 29.6752 75.4572 26.6752C74.6572 26.6752 73.9572 26.7752 73.1572 26.7752C72.3572 29.2752 71.9572 31.8752 71.7572 34.5752C71.6572 35.3752 71.6572 36.1752 71.6572 36.9752V37.1752C71.6572 37.9752 71.6572 38.7752 71.7572 39.5752C72.4572 39.8752 73.2572 40.2752 73.9572 40.5752C73.8572 39.7752 73.8572 39.0752 73.7572 38.2752C73.9572 37.9752 73.8572 37.5752 73.8572 37.1752ZM142.757 22.8752C140.857 18.4752 138.257 14.4752 134.857 11.1752C131.457 7.77524 127.557 5.07525 123.157 3.27525C118.557 1.37525 113.757 0.375244 108.757 0.375244C103.757 0.375244 98.9572 1.37525 94.3572 3.27525C93.8572 3.47525 93.2572 3.77524 92.7572 3.97524C91.8572 4.37524 91.0572 4.87524 90.1572 5.37524C87.3572 6.97524 84.8572 8.87524 82.5572 11.1752C82.0572 11.6752 81.6572 12.1752 81.1572 12.6752C80.5572 13.2752 80.0572 13.9752 79.5572 14.5752C78.7572 15.6752 77.9572 16.6752 77.2572 17.8752C76.8572 18.4752 76.4572 19.1752 76.1572 19.7752C75.5572 20.7752 75.0572 21.8752 74.6572 22.9752C74.3572 23.7752 73.9572 24.5752 73.7572 25.4752C73.5572 25.9752 73.4572 26.4752 73.2572 26.9752C72.4572 29.4752 72.0572 32.0752 71.8572 34.7752C71.7572 35.5752 71.7572 36.3752 71.7572 37.1752V37.3752C71.7572 38.1752 71.7572 38.9752 71.8572 39.7752C71.8572 40.3752 71.9572 41.0752 72.0572 41.6752C72.4572 45.1752 73.3572 48.4752 74.7572 51.7752C76.6572 56.1752 79.2572 60.1752 82.6572 63.5752C86.0572 66.9752 89.9572 69.5752 94.3572 71.4753C98.9572 73.3753 103.757 74.3752 108.757 74.3752C113.757 74.3752 118.557 73.3753 123.157 71.4753C127.557 69.5752 131.457 66.9752 134.857 63.5752C138.157 60.2752 140.757 56.4752 142.657 52.1752C142.657 52.0752 142.757 51.9752 142.857 51.8752C143.057 51.3752 143.257 50.8752 143.457 50.3752C144.957 46.2752 145.757 41.8752 145.757 37.4752C145.657 32.2752 144.657 27.3752 142.757 22.8752ZM140.757 50.6752C140.757 50.7752 140.757 50.7752 140.757 50.6752C140.457 51.2752 140.257 51.7752 139.957 52.3752C138.257 55.8752 136.057 59.0752 133.257 61.7752C130.057 64.9752 126.357 67.4752 122.157 69.2752C117.857 71.0752 113.357 71.9753 108.657 71.9753C103.957 71.9753 99.3572 71.0752 95.0572 69.2752C90.9572 67.4752 87.1572 64.9752 83.9572 61.7752C80.7572 58.5752 78.2572 54.8752 76.4572 50.6752C75.3572 47.9752 74.5572 45.2752 74.1572 42.3752C74.0572 41.7752 73.9572 41.0752 73.9572 40.4752C73.8572 39.6752 73.8572 38.9752 73.7572 38.1752C73.7572 37.7752 73.7572 37.4752 73.7572 37.0752C73.7572 36.6752 73.7572 36.1752 73.7572 35.7752C73.8572 32.5752 74.4572 29.5752 75.3572 26.5752C75.5572 26.0752 75.6572 25.5752 75.8572 25.0752C76.0572 24.5752 76.2572 24.0752 76.4572 23.5752C76.7572 22.8752 77.0572 22.1752 77.4572 21.4752C77.7572 20.7752 78.1572 20.1752 78.4572 19.5752C79.4572 17.8752 80.6572 16.1752 81.9572 14.6752C82.4572 14.0752 83.0572 13.3752 83.6572 12.7752C83.7572 12.6752 83.8572 12.5752 83.8572 12.5752C86.4572 9.97524 89.5572 7.77524 92.8572 6.07524C93.5572 5.77524 94.2572 5.37525 94.9572 5.07524C95.1572 4.97524 95.3572 4.87524 95.5572 4.87524C99.6572 3.17524 104.057 2.37524 108.557 2.37524C113.257 2.37524 117.757 3.27524 122.057 5.07524C126.157 6.87525 129.957 9.37525 133.157 12.5752C136.357 15.7752 138.857 19.4752 140.657 23.6752C142.457 27.9752 143.357 32.4752 143.357 37.1752C143.457 41.8752 142.557 46.4752 140.757 50.6752Z" fill="url(#paint0_linear_136_18179)"/>
<path d="M149.657 44.6753L146.757 44.5753C147.657 45.7753 147.857 46.8753 147.357 47.7753C146.757 48.6753 145.457 49.4753 143.357 50.0753C142.557 50.2753 141.757 50.4753 140.857 50.6753C138.357 51.1753 135.257 51.3753 131.557 51.4753C122.357 51.5753 110.857 50.3753 99.2569 47.9753C91.4569 46.3753 84.2569 44.3753 78.2569 42.1753C77.3569 41.8753 76.4569 41.4753 75.5569 41.1753C75.0569 40.9753 74.5569 40.7753 74.0569 40.5753C73.2569 40.2753 72.5569 39.9753 71.8569 39.5753C71.3569 39.3753 70.8569 39.0753 70.3569 38.8753C63.7569 35.6753 60.6569 32.4753 62.0569 30.2753C63.1569 28.4753 67.1569 27.2753 73.2569 26.7753C73.9569 26.7753 74.7569 26.6753 75.5569 26.6753C75.7569 26.1753 75.8569 25.6753 76.0569 25.1753C75.2569 25.1753 74.4569 25.2753 73.7569 25.2753C66.0569 25.7753 61.9569 27.0753 60.4569 29.5753C58.7569 32.4753 61.0569 36.2753 68.7569 39.9753C69.8569 40.4753 70.9569 40.9753 72.1569 41.4753C72.8569 41.7753 73.6569 42.0753 74.4569 42.3753C74.8569 42.4753 75.1569 42.6753 75.5569 42.7753C76.4569 43.0753 77.3569 43.4753 78.3569 43.7753C84.2569 45.8753 91.1569 47.6753 98.5569 49.1753C108.957 51.2753 119.257 52.5753 128.057 52.7753C129.357 52.7753 130.657 52.7753 131.857 52.7753C135.057 52.7753 137.857 52.5753 140.257 52.1753C141.157 52.0753 142.057 51.8753 142.857 51.7753C146.657 50.9753 149.057 49.7753 150.057 48.1753C150.457 47.1753 150.457 45.9753 149.657 44.6753Z" fill="url(#paint1_linear_136_18179)"/>
<path d="M133.857 43.7752C133.857 43.8752 133.757 43.8752 133.757 43.9752C132.657 45.7752 130.057 46.6752 126.557 46.6752C124.857 46.6752 122.957 46.4752 120.757 46.0752C113.757 44.6752 105.557 41.0752 97.5568 36.0752C89.6568 31.0752 83.0568 25.2752 78.7568 19.6752C78.6568 19.5752 78.6568 19.4752 78.5568 19.3752C78.1568 18.8752 77.7568 18.2752 77.4568 17.7752C74.3568 13.0752 73.3568 9.17522 74.8568 6.77522C75.9568 4.97522 78.5568 4.07522 82.0568 4.07522C83.7568 4.07522 85.6568 4.27522 87.8568 4.67522C88.6568 4.87522 89.4568 5.07522 90.3568 5.27522C91.3568 5.47522 92.2568 5.77522 93.2568 6.17522C93.9568 5.87522 94.6568 5.47522 95.3568 5.17522C95.5568 5.07522 95.7568 4.97522 95.9568 4.97522C94.9568 4.57522 93.9568 4.27522 92.9568 3.97522C91.3568 3.47522 89.8568 3.07522 88.3568 2.77522C80.8568 1.27522 75.4568 2.27522 73.2568 5.77522C71.1568 9.07522 72.3568 13.9752 76.4568 19.7752C76.6568 20.0752 76.8568 20.3752 77.1568 20.6752C77.4568 20.9752 77.6568 21.3752 77.9568 21.6752C82.3568 27.2752 89.0568 32.9752 96.7568 37.7752C104.957 42.9752 113.457 46.5752 120.657 48.0752C122.957 48.5752 124.957 48.7752 126.757 48.7752C131.057 48.7752 134.157 47.5752 135.657 45.0752C135.957 44.6752 136.157 44.2752 136.257 43.7752H133.857Z" fill="url(#paint2_linear_136_18179)"/>
<path d="M95.6565 71.0753C95.2565 71.0753 94.7565 70.9753 94.3565 70.8753C88.0565 68.5753 90.9565 49.8753 96.9565 33.3753C102.456 18.1753 111.456 2.67529 117.756 2.67529C118.156 2.67529 118.656 2.77529 119.056 2.87529C122.656 4.17529 122.856 10.6753 122.456 15.8753C121.856 22.7753 119.756 31.5753 116.556 40.4753C110.956 55.6753 102.056 71.0753 95.6565 71.0753ZM117.756 4.67529C113.756 4.67529 105.356 15.8753 98.7565 34.0753C95.5565 42.8753 93.5565 51.3753 92.9565 58.1753C92.3565 65.4753 93.6565 68.5753 95.0565 69.0753C95.2565 69.1753 95.4565 69.1753 95.6565 69.1753C99.6565 69.1753 108.056 57.9753 114.656 39.7753C117.856 30.9753 119.856 22.4753 120.456 15.6753C121.056 8.37529 119.756 5.27529 118.356 4.77529C118.156 4.67529 118.056 4.67529 117.756 4.67529Z" fill="url(#paint3_linear_136_18179)"/>
<path d="M133.457 30.4753C126.357 30.4753 119.957 29.7753 114.157 28.4753C107.257 26.8753 101.357 24.2753 96.5572 20.8753C88.3572 14.9753 86.2572 8.57529 86.1572 8.27529L88.0572 7.67529C88.0572 7.77529 90.0572 13.8753 97.8572 19.3753C105.057 24.4753 118.957 30.1753 143.957 28.0753L144.157 29.9753C140.457 30.3753 136.857 30.4753 133.457 30.4753Z" fill="url(#paint4_linear_136_18179)"/>
<path d="M126.557 68.9753C112.857 58.7753 99.3572 54.1753 90.4572 52.1753C80.7572 49.9753 74.3572 50.1753 74.2572 50.1753L74.1572 48.1753C74.4572 48.1753 80.9572 47.9753 90.8572 50.1753C99.9572 52.2753 113.757 56.8753 127.757 67.2753L126.557 68.9753Z" fill="url(#paint5_linear_136_18179)"/>
<path d="M386.458 141.575C386.458 143.675 385.558 145.675 384.158 147.075C382.758 148.475 380.858 149.375 378.658 149.375H315.758V134.375H379.258C379.658 134.375 380.058 134.375 380.458 134.475C383.858 134.975 386.458 137.975 386.458 141.575Z" fill="#F99746"/>
<path d="M327.557 141.775C327.557 143.875 326.757 145.775 325.357 147.075C323.957 148.475 322.057 149.275 319.957 149.275H248.457V134.275H320.157C322.257 134.275 324.157 135.175 325.457 136.475C326.757 137.975 327.557 139.775 327.557 141.775Z" fill="#FCECDB"/>
<path d="M333.457 148.175C333.457 148.475 333.357 148.775 333.157 148.975C332.957 149.175 332.657 149.275 332.357 149.275H245.957C245.357 149.275 244.857 148.775 244.857 148.175C244.857 147.875 244.957 147.575 245.157 147.375C245.357 147.175 245.657 147.075 245.957 147.075H332.357C332.957 147.075 333.457 147.575 333.457 148.175Z" fill="#ED7D2B"/>
<path d="M333.457 135.475C333.457 135.775 333.357 136.075 333.157 136.275C332.957 136.475 332.657 136.575 332.357 136.575H245.957C245.357 136.575 244.857 136.075 244.857 135.475C244.857 135.175 244.957 134.875 245.157 134.675C245.357 134.475 245.657 134.375 245.957 134.375H332.357C332.957 134.375 333.457 134.875 333.457 135.475Z" fill="#ED7D2B"/>
<path d="M248.457 141.875L258.057 142.075L248.457 142.275V141.875Z" fill="#F4D2B8"/>
<path d="M248.457 144.175L271.257 144.475L248.457 144.575V144.175Z" fill="#F4D2B8"/>
<path d="M380.457 134.475L359.757 149.375H315.857V134.375H379.257C379.657 134.375 380.057 134.375 380.457 134.475Z" fill="#ED7D2B"/>
<path d="M132.957 149.375H89.6572V131.775H133.357C137.357 131.775 140.557 134.975 140.557 138.975V141.575C140.657 145.875 137.257 149.375 132.957 149.375Z" fill="#86D1CD"/>
<path d="M90.8576 149.375H41.0576V131.775H91.0576C94.9576 131.775 98.0576 134.975 98.0576 138.775V142.175C98.0576 146.075 94.8576 149.375 90.8576 149.375Z" fill="#FCECDB"/>
<path d="M101.257 149.375H39.4574C38.8574 149.375 38.3574 148.875 38.3574 148.275V147.875C38.3574 147.275 38.8574 146.775 39.4574 146.775H101.257C101.857 146.775 102.357 147.275 102.357 147.875V148.275C102.357 148.875 101.857 149.375 101.257 149.375Z" fill="#86D1CD"/>
<path d="M101.257 134.375H39.4574C38.8574 134.375 38.3574 133.875 38.3574 133.275V132.875C38.3574 132.275 38.8574 131.775 39.4574 131.775H101.257C101.857 131.775 102.357 132.275 102.357 132.875V133.275C102.357 133.875 101.857 134.375 101.257 134.375Z" fill="#86D1CD"/>
<path d="M41.0576 140.575L47.9576 140.875L41.0576 140.975V140.575Z" fill="#F4D2B8"/>
<path d="M41.0576 143.275L57.4576 143.575L41.0576 143.775V143.275Z" fill="#F4D2B8"/>
<path d="M157.357 68.2752L150.957 144.675C150.957 144.675 150.257 149.275 153.757 149.275C159.457 149.275 181.957 149.275 181.957 149.275C181.957 149.275 177.657 148.275 177.757 146.175C177.857 143.575 185.257 67.5752 185.257 67.5752L157.357 68.2752Z" fill="#D86713"/>
<path d="M183.657 147.975C182.557 147.975 161.057 148.075 155.557 147.975C153.157 147.975 152.757 145.875 152.757 144.475C152.757 143.775 152.857 143.375 152.857 143.375L153.057 141.375L153.457 136.275L153.857 131.775L154.357 126.075L154.757 121.275L159.357 66.9752L187.157 66.2751C187.157 66.2751 184.057 98.0751 181.757 121.275C181.557 123.875 181.257 126.375 181.057 128.675C180.957 129.375 180.957 130.175 180.857 130.875C180.657 133.075 180.457 135.075 180.257 136.875C180.157 137.775 180.057 138.675 180.057 139.475C179.757 142.575 179.657 144.575 179.557 144.975C179.557 145.175 179.557 145.375 179.657 145.575C180.057 147.875 183.257 147.975 183.657 147.975Z" fill="#EE9849"/>
<path d="M89.7568 26.7751L105.357 89.5751L107.557 98.1751L114.857 127.475H250.257L223.357 26.7751H89.7568Z" fill="#F1A34F"/>
<path d="M89.7566 26.7751L87.5566 27.4751L111.957 129.675L114.857 127.475L89.7566 26.7751Z" fill="#EE9849"/>
<path d="M111.957 129.675H246.557L250.257 127.475H114.857L111.957 129.675Z" fill="#D86713"/>
<path d="M159.284 149.363H188.384V147.963H159.284V149.363Z" fill="#F1A34F"/>
<path d="M243.657 108.875L221.657 28.0751H89.5566V26.7751H223.357L245.257 108.775L243.657 108.875Z" fill="#F1A34F"/>
<path d="M180.956 129.675L180.756 130.775L153.356 136.275L153.756 131.775L153.956 129.675H180.956Z" fill="#D86713"/>
<path d="M183.657 147.975C182.557 147.975 161.057 148.075 155.557 147.975C153.157 147.975 152.757 145.875 152.757 144.475L180.057 139.375C179.757 142.475 179.657 144.475 179.557 144.875C179.557 145.075 179.557 145.275 179.657 145.475C180.057 147.875 183.257 147.975 183.657 147.975Z" fill="#E78B37"/>
<path d="M174.357 107.075L114.857 127.475L107.557 98.1752L174.357 107.075Z" fill="#E78B37"/>
<path d="M89.7568 26.7751H223.357L245.057 107.675H109.257L89.7568 26.7751Z" fill="#954386"/>
<path d="M186.157 117.975C185.757 115.975 183.857 114.375 181.857 114.375C179.857 114.375 178.557 115.975 178.957 117.975C179.357 119.975 181.257 121.575 183.257 121.575C185.257 121.575 186.457 119.875 186.157 117.975Z" fill="#D86713"/>
<path d="M238.757 104.175H113.657L99.4568 47.7752L98.3568 43.3752L97.4568 39.7752L95.2568 31.0752H218.557L220.957 39.7752L221.957 43.3752L223.157 47.7752L238.757 104.175Z" fill="white"/>
<path d="M220.957 39.7752H97.4568L95.2568 31.0752H218.557L220.957 39.7752Z" fill="url(#paint6_linear_136_18179)"/>
<path d="M100.357 34.9751C100.257 34.3751 100.557 33.8751 101.157 33.8751C101.757 33.8751 102.357 34.3751 102.557 34.9751C102.657 35.5751 102.357 36.0751 101.757 36.0751C101.157 36.0751 100.557 35.5751 100.357 34.9751Z" fill="white"/>
<path d="M103.956 34.9751C103.856 34.3751 104.156 33.8751 104.756 33.8751C105.356 33.8751 105.956 34.3751 106.156 34.9751C106.256 35.5751 105.956 36.0751 105.356 36.0751C104.756 36.0751 104.156 35.5751 103.956 34.9751Z" fill="white"/>
<path d="M107.857 34.9751C107.757 34.3751 108.057 33.8751 108.657 33.8751C109.257 33.8751 109.857 34.3751 110.057 34.9751C110.157 35.5751 109.857 36.0751 109.257 36.0751C108.557 36.0751 107.957 35.5751 107.857 34.9751Z" fill="white"/>
<path d="M116.357 95.5752C116.357 93.0752 118.457 91.0752 121.057 91.0752C123.657 91.0752 125.757 93.0752 125.757 95.5752C125.757 98.0752 123.657 100.075 121.057 100.075C118.457 100.075 116.357 98.0752 116.357 95.5752Z" fill="#699DEE"/>
<path d="M120.658 92.8752L123.358 95.1752C123.558 95.3752 123.558 95.7752 123.358 95.9752L120.758 98.1752C120.458 98.4752 119.858 98.2752 119.858 97.7752V93.2752C119.758 92.8752 120.258 92.5752 120.658 92.8752Z" fill="#E9F3FE"/>
<path d="M226.257 96.0752C226.257 96.2752 226.157 96.4752 225.957 96.6752C225.757 96.8752 225.557 96.9752 225.357 96.9752H130.057C129.557 96.9752 129.157 96.5752 129.157 96.0752C129.157 95.8752 129.257 95.6752 129.457 95.4752C129.657 95.2752 129.857 95.1752 130.057 95.1752H225.357C225.957 95.2752 226.257 95.6752 226.257 96.0752Z" fill="url(#paint7_linear_136_18179)"/>
<path d="M140.758 95.2752V96.9752H130.158C129.658 96.9752 129.258 96.5752 129.258 96.0752C129.258 95.8752 129.358 95.6752 129.558 95.4752C129.758 95.2752 129.958 95.1752 130.158 95.1752H140.758V95.2752Z" fill="#699DEE"/>
<path d="M214.557 88.2751H131.657L122.257 54.2751L121.557 51.7751L120.957 49.4752L119.557 44.2751H201.157L202.757 49.4752L203.457 51.7751L204.257 54.2751L214.557 88.2751Z" fill="url(#paint8_linear_136_18179)"/>
<path d="M201.857 63.0753H174.657L171.557 51.9753L171.257 51.0753L171.057 50.3753L170.657 48.6753H197.457L197.957 50.3753L198.157 51.0753L198.457 51.9753L201.857 63.0753Z" fill="#E9F3FE"/>
<path opacity="0.6" d="M185.858 60.3752H176.358L175.258 56.4752V56.1752L175.158 55.9752L174.958 55.3752H184.258L184.458 55.9752L184.558 56.1752L184.658 56.4752L185.858 60.3752Z" fill="url(#paint9_linear_136_18179)"/>
<path opacity="0.6" d="M197.858 60.3752H188.358L187.358 56.4752L187.258 56.1752L187.158 55.9752L187.058 55.3752H196.358L196.458 55.9752L196.558 56.1752L196.658 56.4752L197.858 60.3752Z" fill="url(#paint10_linear_136_18179)"/>
<path d="M191.058 50.7752H173.758C173.658 50.7752 173.558 50.6752 173.558 50.5752C173.558 50.4752 173.658 50.3752 173.758 50.3752H191.058C191.158 50.3752 191.258 50.4752 191.258 50.5752C191.358 50.6752 191.258 50.7752 191.058 50.7752Z" fill="url(#paint11_linear_136_18179)"/>
<path d="M191.758 52.1753H174.458C174.358 52.1753 174.258 52.0753 174.258 51.9753C174.258 51.8753 174.358 51.7753 174.458 51.7753H191.758C191.858 51.7753 191.958 51.8753 191.958 51.9753C191.958 51.9753 191.858 52.1753 191.758 52.1753Z" fill="url(#paint12_linear_136_18179)"/>
<path d="M194.657 54.0751H175.257C175.057 54.0751 174.957 53.9751 174.957 53.7751C174.957 53.5751 175.057 53.4751 175.257 53.4751H194.657C194.857 53.4751 194.957 53.5751 194.957 53.7751C194.957 53.9751 194.857 54.0751 194.657 54.0751Z" fill="url(#paint13_linear_136_18179)"/>
<path d="M206.957 80.5752H179.657L176.657 69.3752L176.357 68.5752L176.157 67.7752L175.657 66.0752H202.557L203.057 67.7752L203.257 68.5752L203.557 69.3752L206.957 80.5752Z" fill="#E9F3FE"/>
<path opacity="0.6" d="M190.958 77.7753H181.458L180.358 73.9753V73.6753L180.258 73.3753L180.058 72.7753H189.358L189.558 73.3753L189.658 73.6753L189.758 73.9753L190.958 77.7753Z" fill="url(#paint14_linear_136_18179)"/>
<path opacity="0.6" d="M202.958 77.7753H193.458L192.458 73.9753L192.358 73.6753L192.258 73.3753L192.058 72.7753H201.458L201.558 73.3753L201.658 73.6753L201.758 73.9753L202.958 77.7753Z" fill="url(#paint15_linear_136_18179)"/>
<path d="M196.157 68.2752H178.857C178.757 68.2752 178.657 68.1752 178.657 68.0752C178.657 67.9752 178.757 67.8752 178.857 67.8752H196.157C196.257 67.8752 196.357 67.9752 196.357 68.0752C196.457 68.1752 196.257 68.2752 196.157 68.2752Z" fill="url(#paint16_linear_136_18179)"/>
<path d="M196.857 69.5753H179.557C179.457 69.5753 179.357 69.4753 179.357 69.3753C179.357 69.2753 179.457 69.1753 179.557 69.1753H196.857C196.957 69.1753 197.057 69.2753 197.057 69.3753C197.057 69.4753 196.957 69.5753 196.857 69.5753Z" fill="url(#paint17_linear_136_18179)"/>
<path d="M197.257 70.8752H179.957C179.857 70.8752 179.757 70.7752 179.757 70.6752C179.757 70.5752 179.857 70.4752 179.957 70.4752H197.257C197.357 70.4752 197.457 70.5752 197.457 70.6752C197.557 70.7752 197.457 70.8752 197.257 70.8752Z" fill="url(#paint18_linear_136_18179)"/>
<path d="M62.7568 139.875C62.7568 139.875 61.2568 140.575 60.7568 141.775C60.6568 141.975 60.6568 142.175 60.5568 142.475C60.4568 144.075 60.5568 147.575 60.5568 147.575L56.1568 145.775L51.7568 147.575V142.775C51.7568 141.875 52.1568 140.975 52.8568 140.375C53.1568 140.075 53.6568 139.875 54.0568 139.875H62.7568Z" fill="#F99746"/>
<path d="M62.7564 139.875C62.7564 139.875 61.2564 140.575 60.7564 141.775L51.8564 141.875C51.8564 141.875 52.1564 140.175 54.0564 139.875H62.7564Z" fill="#ED7D2B"/>
<path d="M279.557 134.475H332.857V111.675H279.057C273.957 111.675 269.857 115.775 269.857 120.875V124.775C269.757 130.075 274.157 134.475 279.557 134.475Z" fill="#B5453C"/>
<path d="M331.457 134.475H392.857V111.675H331.257C326.357 111.675 322.357 115.675 322.357 120.575V125.375C322.357 130.375 326.457 134.475 331.457 134.475Z" fill="#FCECDB"/>
<path d="M318.457 134.475H394.757C395.557 134.475 396.157 133.875 396.157 133.075V132.475C396.157 131.675 395.557 131.075 394.757 131.075H318.457C317.657 131.075 317.057 131.675 317.057 132.475V133.075C317.057 133.875 317.657 134.475 318.457 134.475Z" fill="#B5453C"/>
<path d="M318.457 115.075H394.757C395.557 115.075 396.157 114.475 396.157 113.675V113.075C396.157 112.275 395.557 111.675 394.757 111.675H318.457C317.657 111.675 317.057 112.275 317.057 113.075V113.675C317.057 114.475 317.657 115.075 318.457 115.075Z" fill="#B5453C"/>
<path d="M392.857 123.075L384.357 123.475L392.857 123.675V123.075Z" fill="#F4D2B8"/>
<path d="M392.857 117.875L372.557 118.275L392.857 118.475V117.875Z" fill="#F4D2B8"/>
<path d="M372.757 118.175C372.757 118.175 374.057 118.875 374.557 120.075C374.657 120.275 374.657 120.475 374.657 120.775C374.757 122.375 374.657 125.875 374.657 125.875L378.657 124.075L382.657 125.875V121.075C382.657 120.175 382.357 119.275 381.657 118.675C381.357 118.375 380.957 118.175 380.557 118.175H372.757Z" fill="#B5453C"/>
<path d="M372.757 118.175C372.757 118.175 374.057 118.875 374.557 120.075L382.457 120.175C382.457 120.175 382.157 118.475 380.457 118.175H372.757Z" fill="#9E3732"/>
<path d="M263.058 86.2753C263.058 86.2753 260.258 87.8753 259.458 87.8753C258.658 87.8753 255.558 87.2753 254.658 87.6753C253.758 88.0753 252.258 89.8753 251.958 90.4753C251.458 91.4753 254.058 91.0753 255.358 90.1753C255.558 90.0753 255.758 89.9753 255.958 90.0753C256.658 90.1753 257.958 90.4753 258.658 90.1753C259.558 89.8753 264.158 89.4753 264.158 89.4753L263.058 86.2753Z" fill="#E49963"/>
<path d="M259.858 144.375C259.858 144.375 259.558 149.275 258.558 149.375C258.458 149.375 253.758 149.375 253.758 149.375H247.758C247.758 149.375 247.758 147.975 249.558 147.575C251.358 147.275 254.258 146.075 255.258 143.675C256.458 141.275 259.858 144.375 259.858 144.375Z" fill="#163560"/>
<path d="M284.657 64.2752C284.657 64.2752 281.757 85.1752 276.857 86.9752C274.457 87.8752 263.857 89.9752 260.757 90.1752C260.757 90.1752 259.957 89.5752 260.157 86.9752C260.157 86.9752 271.257 82.8752 272.857 80.6752C275.157 77.3752 271.357 67.1752 274.357 64.0752C277.257 61.1752 282.157 59.7752 284.657 64.2752Z" fill="#ED7D2B"/>
<path d="M283.658 108.275C282.758 109.775 281.858 111.075 280.758 112.375C277.558 116.375 274.158 119.675 273.558 122.775C273.458 123.375 273.258 124.075 272.958 124.775C272.758 125.475 272.358 126.275 272.058 126.975C270.758 129.875 268.758 133.175 266.758 136.075C263.258 141.175 260.058 145.475 260.058 145.475L254.058 145.175C254.258 144.575 256.858 137.475 260.358 128.875C261.758 125.375 263.258 121.675 264.758 118.075C264.958 117.575 265.158 117.075 265.358 116.675C265.758 115.575 266.258 114.475 266.658 113.475C269.958 105.375 272.558 98.8752 272.558 98.8752C272.558 98.8752 285.558 93.9752 286.958 97.1752C288.058 99.7752 287.158 102.275 283.658 108.275Z" fill="#599DAD"/>
<path d="M273.658 130.275C273.658 130.275 277.758 132.975 277.358 133.775C277.258 133.875 275.058 137.975 275.058 137.975L272.058 143.175C272.058 143.175 270.858 142.475 271.358 140.775C271.958 139.075 272.258 135.975 270.758 133.875C269.358 131.775 273.658 130.275 273.658 130.275Z" fill="#163560"/>
<path d="M271.658 134.975C271.658 134.975 274.258 132.675 274.658 130.975C274.658 130.975 263.958 118.175 261.658 115.375C261.558 115.275 261.558 115.075 261.758 114.975C263.458 112.975 282.958 108.975 285.458 105.075C286.358 103.675 286.858 102.375 287.058 101.275C287.658 98.8752 287.158 97.1752 287.158 97.1752L267.758 96.5752C267.758 96.5752 251.658 106.675 249.758 113.475C248.058 120.375 271.658 134.975 271.658 134.975Z" fill="#6BB7BF"/>
<path d="M261.758 114.975C263.458 112.975 282.958 108.975 285.458 105.075C286.358 103.675 286.858 102.375 287.058 101.275V98.7752L278.858 97.4752C278.858 97.4752 276.558 104.675 269.558 107.375C263.158 109.875 261.858 114.375 261.758 114.975Z" fill="#5AA9AD"/>
<path d="M273.157 62.9752C277.057 63.9752 283.557 60.3752 283.557 60.3752C283.557 60.3752 281.057 58.6752 280.057 54.9752C280.057 54.7752 279.957 54.5752 279.957 54.3752C279.557 54.2752 278.757 54.0752 277.957 53.9752L274.957 56.6752C274.957 56.6752 275.057 57.7752 275.357 59.6752C275.457 59.9752 275.457 60.3752 275.557 60.7752C274.057 61.7752 273.157 62.9752 273.157 62.9752Z" fill="#E49963"/>
<path d="M287.757 79.2752C287.157 86.8752 287.957 98.2752 287.257 100.275C286.657 101.975 280.457 100.975 277.957 100.375C277.057 100.175 275.957 99.8752 274.757 99.4752C271.557 98.4752 267.957 97.0752 267.657 95.9752V95.8752C267.657 95.6752 267.657 95.5752 267.657 95.4752C267.757 94.9752 268.257 94.3752 268.357 92.9752C268.457 91.4752 268.457 89.6752 268.457 87.8752C268.457 87.6752 268.457 87.4752 268.457 87.1752V87.0752V86.9752C268.557 84.8752 268.657 82.6752 268.757 80.4752C268.857 79.0752 268.957 77.6752 269.057 76.3752C269.357 72.9752 269.757 69.9752 270.257 68.0752C271.057 64.9752 272.857 62.9752 274.557 61.4752L275.757 60.4752C277.057 60.7752 278.657 60.5752 280.057 59.8752C281.557 59.1752 282.157 58.5752 282.357 58.7752C285.857 61.5752 288.357 69.9752 287.757 79.2752Z" fill="#F99746"/>
<path d="M274.757 99.5753C271.557 98.5753 267.957 97.1753 267.657 96.0753V95.9753C267.657 95.8753 267.657 95.6753 267.657 95.5753C267.757 95.0753 268.257 94.4753 268.357 93.0753C268.457 91.5753 268.457 89.7753 268.457 87.9753C268.457 87.7753 268.457 87.5753 268.457 87.2753V87.1753V87.0753L281.557 70.4753C281.457 70.3753 290.257 88.6753 274.757 99.5753Z" fill="#ED7D2B"/>
<path d="M274.957 56.6752C274.957 56.6752 275.057 57.7752 275.357 59.6752C278.257 58.7752 279.657 56.0752 280.057 54.9752C280.057 54.7752 279.957 54.5752 279.957 54.3752C279.557 54.2752 278.757 54.0752 277.957 53.9752L274.957 56.6752Z" fill="#D68D5D"/>
<path d="M274.557 58.2752C274.557 58.2752 280.958 57.1752 280.258 53.2752C279.558 49.2752 279.858 46.4752 275.758 46.9752C271.658 47.4752 271.157 49.1752 271.057 50.5752C270.957 51.9752 272.857 58.4752 274.557 58.2752Z" fill="#E49963"/>
<path d="M244.651 77.4855L244.08 77.6709L248.87 92.4129L249.44 92.2276L244.651 77.4855Z" fill="#4A75CB"/>
<path d="M265.154 91.1045L248.857 91.4526L248.879 92.4524L265.176 92.1043L265.154 91.1045Z" fill="#4A75CB"/>
<path d="M264.858 92.8752C264.858 92.8752 259.658 94.2752 257.658 94.0752C255.658 93.9752 254.058 92.9752 253.858 92.4752C253.658 91.9752 253.058 91.1752 254.458 91.2752C255.758 91.4752 257.658 91.6752 257.658 91.4752C257.758 91.1752 256.558 91.2752 256.558 91.2752C256.558 91.2752 256.258 90.7752 256.658 90.7752C257.058 90.7752 258.358 90.3752 258.858 90.6752C259.358 90.8752 259.758 91.7752 260.158 91.7752C260.458 91.7752 264.558 89.9752 264.558 89.9752L264.858 92.8752Z" fill="#E49963"/>
<path d="M283.358 65.1752C283.358 65.1752 282.758 86.2752 278.158 88.5752C275.858 89.7752 265.558 92.9752 262.458 93.5752C262.458 93.5752 261.658 93.0752 261.558 90.4752C261.558 90.4752 272.158 85.1752 273.458 82.7752C275.458 79.2752 270.558 69.5752 273.158 66.1752C275.658 62.8752 280.358 60.9752 283.358 65.1752Z" fill="#F99746"/>
<path d="M280.057 54.9752C280.057 54.9752 280.157 53.5752 279.257 52.8752C279.257 52.8752 279.557 51.4752 279.057 51.2752C278.557 51.0752 278.357 52.1752 278.157 51.9752C277.957 51.7752 276.857 50.9752 276.357 49.6752C275.857 48.3752 271.557 49.9752 271.057 50.1752C270.557 50.3752 268.957 49.5752 268.657 48.8752C268.657 48.8752 269.557 48.1752 269.957 47.5752C270.357 47.0752 273.157 43.3752 277.157 44.4752C281.157 45.4752 281.657 47.3752 281.457 48.9752C281.157 50.6752 281.757 54.3752 280.057 54.9752Z" fill="#2B478B"/>
<path d="M322.956 72.4752C322.956 72.4752 324.956 75.4752 326.156 81.7752C327.156 87.2752 328.056 89.3752 329.556 90.4752C331.056 91.5752 339.156 94.9752 339.156 94.9752L338.556 96.3752C338.556 96.3752 326.656 94.7752 325.256 92.7752C323.956 90.7752 318.856 78.9752 319.156 76.2752C319.556 73.4752 322.956 72.4752 322.956 72.4752Z" fill="#F4A269"/>
<path d="M352.156 138.275C352.056 139.475 353.656 139.675 355.556 139.775C357.456 139.875 356.856 140.275 359.456 140.675C362.056 141.175 363.056 140.475 363.256 140.075C363.456 139.775 362.256 139.275 360.956 138.775C360.756 138.675 360.656 138.675 360.456 138.575C359.056 137.975 358.256 136.675 357.056 135.475C355.956 134.375 354.956 130.775 354.956 130.775L351.456 130.075C351.456 130.075 352.456 133.375 352.756 134.675C352.956 135.475 352.656 136.375 352.356 137.075C352.356 137.475 352.256 137.875 352.156 138.275Z" fill="#FFB27D"/>
<path d="M355.556 139.775C357.456 139.875 356.856 140.275 359.456 140.675C362.056 141.175 363.056 140.475 363.256 140.075C363.456 139.775 362.256 139.275 360.956 138.775C360.956 138.775 359.156 139.375 357.056 138.775C355.356 138.275 353.756 137.275 352.556 136.975C352.456 137.375 352.256 137.775 352.256 138.175C352.056 139.375 353.656 139.675 355.556 139.775Z" fill="#C65447"/>
<path d="M317.357 96.7753C317.357 96.7753 340.557 95.0753 344.957 97.7753C349.357 100.575 356.357 132.675 356.357 132.675C356.357 132.675 355.957 132.975 354.957 133.175C354.057 133.275 352.057 132.775 352.057 132.775C352.057 132.775 341.957 118.375 341.257 114.775C340.557 111.175 340.757 107.875 339.057 107.875C337.457 107.775 317.257 110.275 314.257 104.975C311.257 99.6753 313.757 94.2753 313.757 94.2753L317.357 96.7753Z" fill="#163560"/>
<path d="M343.356 141.975C343.256 143.175 344.856 143.375 346.756 143.475C348.656 143.575 348.056 143.975 350.656 144.375C353.256 144.775 354.256 144.175 354.456 143.775C354.656 143.475 353.456 142.975 352.156 142.475C351.956 142.375 351.856 142.375 351.656 142.275C350.256 141.675 349.456 140.375 348.256 139.175C347.156 138.075 346.156 134.475 346.156 134.475L342.656 133.775C342.656 133.775 343.656 137.075 343.956 138.375C344.156 139.175 343.856 140.075 343.556 140.775C343.456 141.175 343.356 141.575 343.356 141.975Z" fill="#FFB27D"/>
<path d="M346.656 143.475C348.556 143.575 347.956 143.975 350.556 144.375C353.156 144.775 354.156 144.175 354.356 143.775C354.556 143.475 353.356 142.975 352.056 142.475C352.056 142.475 350.256 143.075 348.156 142.475C346.456 141.975 344.856 140.975 343.656 140.675C343.556 141.075 343.356 141.475 343.356 141.875C343.156 143.175 344.856 143.375 346.656 143.475Z" fill="#C65447"/>
<path d="M312.857 98.2753C312.857 98.2753 333.457 99.2753 337.757 102.175C342.057 105.075 347.757 137.475 347.757 137.475C347.757 137.475 347.357 137.775 346.357 137.875C345.457 137.975 343.457 137.375 343.457 137.375C343.457 137.375 333.957 122.575 333.357 118.975C332.757 115.375 333.057 112.075 331.457 111.975C329.857 111.875 309.657 113.575 306.757 108.075C304.057 102.475 312.857 98.2753 312.857 98.2753Z" fill="#1C468A"/>
<path d="M320.156 52.8753C319.257 52.2753 318.057 52.1753 317.257 52.1753C317.457 51.9753 317.857 51.9753 317.857 51.9753C317.357 51.8753 316.257 52.2753 316.257 52.2753C309.557 49.1753 307.757 59.1753 307.757 61.5753C307.757 63.9753 307.557 66.6753 303.957 68.5753C296.957 72.2753 302.156 79.8753 302.156 79.8753C302.256 79.8753 306.857 86.0753 306.857 86.0753C306.857 84.1753 314.356 73.9753 319.156 71.2753C320.357 69.6753 320.956 66.8753 321.056 66.5753C320.756 68.8753 320.257 70.0753 319.857 70.7753C324.057 67.4753 322.656 54.4753 320.156 52.8753Z" fill="#B5453C"/>
<path d="M311.956 68.9752C311.956 68.9752 313.856 68.7752 315.756 68.9752C317.056 69.0752 318.356 69.4752 319.056 69.7752C320.856 70.5752 320.656 73.7752 316.856 73.1752C313.156 72.5752 311.756 69.9752 311.956 68.9752Z" fill="#FFB27D"/>
<path d="M318.957 71.2753C318.957 71.2753 319.457 74.0753 316.957 73.9753C315.357 73.8753 311.757 71.8753 312.057 70.4753C312.157 69.7753 313.457 68.0753 313.657 64.1753L313.957 64.2753L318.957 65.5753C318.957 65.5753 318.757 67.1753 318.657 68.6753C318.757 69.9753 318.757 71.1753 318.957 71.2753Z" fill="#FFB27D"/>
<path d="M319.156 65.5753C319.156 65.5753 318.956 67.1753 318.856 68.6753C316.056 68.3753 314.656 65.6753 314.156 64.2753L319.156 65.5753Z" fill="#F4A269"/>
<path d="M313.656 63.6752C313.656 63.6752 312.356 61.1752 312.056 59.1752C311.856 57.6752 312.956 52.4752 318.256 53.5752C318.256 53.5752 319.756 53.8752 321.156 54.8752C322.256 55.7752 323.856 57.5752 321.656 62.0752L321.056 63.5752L313.656 63.6752Z" fill="#B5453C"/>
<path d="M319.957 67.0753C319.957 67.0753 313.257 66.7753 313.457 62.5753C313.757 58.3753 313.057 55.4753 317.357 55.5753C321.657 55.5753 322.357 57.2753 322.657 58.6753C322.957 60.0753 321.757 67.0753 319.957 67.0753Z" fill="#FFB27D"/>
<path d="M320.556 55.6753C320.556 55.6753 318.356 60.4753 315.556 60.9753C312.656 61.4753 311.456 60.6753 311.456 60.6753C311.456 60.6753 313.756 59.0753 314.356 56.0753C314.356 56.0753 319.256 53.1753 320.556 55.6753Z" fill="#B5453C"/>
<path d="M320.057 55.9753C320.057 55.9753 321.357 57.1753 321.657 58.2753C321.957 59.3753 321.957 61.5753 322.557 61.5753C322.557 61.5753 324.157 58.2753 322.757 56.3753C321.157 54.1753 320.057 55.9753 320.057 55.9753Z" fill="#B5453C"/>
<path d="M326.756 97.1753C326.256 97.8753 324.556 98.0753 322.656 98.3753C321.256 98.5753 319.756 98.8753 318.656 99.5753C316.256 100.975 308.256 105.775 305.956 105.575C305.056 105.475 305.256 103.775 305.756 101.475C306.656 97.8753 308.456 92.8753 308.456 90.6753C308.456 89.4753 308.856 86.6753 309.356 83.4753C309.356 83.1753 309.456 82.9753 309.456 82.6753C310.456 76.3753 311.956 69.0753 311.956 69.0753C311.956 69.0753 313.556 72.5753 316.756 72.5753C319.856 72.5753 319.156 69.8753 319.156 69.8753C319.156 69.8753 322.056 70.1753 322.656 70.9753C323.356 71.6753 325.056 74.8753 325.356 75.6753C325.356 75.6753 325.456 76.7753 322.756 77.2753C322.756 77.2753 323.456 80.2753 323.456 82.2753C323.556 83.7753 322.456 88.2753 322.156 91.1753C322.056 92.1753 322.056 92.9753 322.156 93.3753C322.356 93.8753 323.056 94.2753 323.856 94.7753C325.456 95.4753 327.356 96.3753 326.756 97.1753Z" fill="#1C468A"/>
<path d="M323.956 94.6753C325.656 97.6753 319.256 98.5753 318.156 99.1753C315.756 100.575 308.256 105.775 305.956 105.575C305.056 105.475 305.256 103.775 305.756 101.475C306.656 97.8753 308.456 92.8753 308.456 90.6753C308.456 89.4753 308.856 86.6753 309.356 83.4753L312.156 80.7753C312.156 80.7753 315.156 88.5753 318.056 89.7753C319.556 90.4753 321.156 90.8753 322.256 91.1753C322.156 92.1753 322.156 92.9753 322.256 93.3753C322.456 93.6753 323.156 94.1753 323.956 94.6753Z" fill="#163560"/>
<path d="M333.956 96.8752H327.456V97.6752H333.956V96.8752Z" fill="#9E332E"/>
<path d="M332.556 97.4752C332.656 97.1752 338.556 87.9752 338.556 87.9752H351.656L345.056 97.2752L332.556 97.4752Z" fill="#9E332E"/>
<path d="M333.156 97.5752C333.256 97.2752 339.156 87.9752 339.156 87.9752H351.756L345.456 97.5752H333.156Z" fill="#B5453C"/>
<path d="M344.256 92.7752C344.156 93.1752 343.756 93.4752 343.356 93.4752C342.956 93.4752 342.756 93.1752 342.956 92.7752C343.056 92.3752 343.456 92.0752 343.856 92.0752C344.156 92.1752 344.356 92.4752 344.256 92.7752Z" fill="#9E332E"/>
<path d="M329.357 93.5753C328.957 93.3753 326.157 93.9753 325.357 94.0753C322.757 93.5753 314.257 91.8753 313.857 91.3753C313.357 90.7753 312.357 71.6753 311.057 71.3753C311.057 71.3753 308.657 69.8753 306.357 72.6753C304.057 75.4753 307.957 95.1753 311.457 96.1753C315.257 97.2753 326.257 95.9753 326.257 95.9753C327.157 96.2753 328.757 96.4753 329.557 96.7753C330.657 97.1753 331.657 96.8753 331.857 96.3753C332.257 95.8753 329.857 93.6753 329.357 93.5753Z" fill="#FFB27D"/>
<path d="M311.956 68.9752C311.956 68.9752 307.056 69.3752 305.656 71.0752C304.256 72.6752 303.856 77.0752 303.856 77.0752C303.856 77.0752 308.156 80.5752 313.356 79.1752L311.956 68.9752Z" fill="#1C468A"/>
<path d="M395.685 150.342H0.929453C0.646 150.342 0.457031 150.153 0.457031 149.87V149.681C0.457031 149.397 0.646 149.208 0.929453 149.208H395.685C395.968 149.208 396.157 149.397 396.157 149.681V149.87C396.157 150.153 395.968 150.342 395.685 150.342Z" fill="#2E3552"/>
<mask id="mask0_136_18179" style="mask-type:luminance" maskUnits="userSpaceOnUse" x="119" y="44" width="96" height="45">
<path d="M214.557 88.2751H131.657L122.257 54.2751L121.557 51.7751L120.957 49.4752L119.557 44.2751H201.157L202.757 49.4752L203.457 51.7751L204.257 54.2751L214.557 88.2751Z" fill="white"/>
</mask>
<g mask="url(#mask0_136_18179)">
<path d="M170.756 60.4751C170.756 60.4751 171.256 58.6751 171.956 58.5751C172.756 58.4751 173.856 57.9751 174.156 58.5751C174.356 59.1751 172.356 62.3751 171.456 61.5751C170.656 60.7751 170.756 60.4751 170.756 60.4751Z" fill="#FFB27D"/>
<path d="M160.657 98.7751C161.357 100.675 161.757 102.275 161.757 102.975C161.757 106.175 168.157 120.875 168.157 120.875C170.257 121.775 172.557 120.875 172.557 120.875C171.857 118.875 167.957 100.675 165.857 89.6751C164.957 85.0751 164.357 81.7751 164.357 81.7751L153.057 80.4751C153.157 80.3751 158.357 92.0751 160.657 98.7751Z" fill="#2C3A64"/>
<path d="M153.156 80.3751C153.156 80.3751 158.356 91.9751 160.656 98.7751L165.856 89.5751C164.956 84.9751 164.356 81.6751 164.356 81.6751L153.156 80.3751Z" fill="#2C3A64"/>
<path d="M159.156 82.8751C159.156 82.8751 162.256 115.175 162.956 121.475C162.956 121.475 161.056 122.075 158.656 121.175C158.656 121.175 154.356 106.175 153.856 101.675C153.356 97.1751 148.556 83.1751 149.356 81.8751C150.256 80.4751 159.156 82.8751 159.156 82.8751Z" fill="#2C3A64"/>
<path d="M151.257 55.2751C151.257 55.2751 152.457 58.1751 152.457 58.9751C152.457 59.8751 149.757 60.2751 148.357 59.5751C146.957 58.8751 147.157 58.2751 147.157 58.2751C147.157 58.2751 146.557 55.3751 146.657 55.0751C146.857 54.9751 151.257 55.2751 151.257 55.2751Z" fill="#FFB27D"/>
<path d="M170.456 60.1751C170.456 60.1751 165.556 66.2751 165.356 67.0751C162.556 63.7751 158.256 59.6751 158.056 59.5751C157.456 59.1751 156.556 58.8751 155.556 58.6751C154.156 58.4751 152.756 58.3751 152.456 58.3751H152.356C152.456 58.8751 151.956 59.7751 150.756 59.8751C149.356 59.9751 147.456 59.1751 147.256 58.3751C147.256 58.3751 144.056 58.5751 144.556 64.5751C144.556 64.6751 144.556 64.7751 144.556 64.8751C144.756 66.8751 145.356 69.4751 146.656 72.9751C147.156 74.1751 148.656 83.4751 149.056 83.4751C149.056 83.4751 149.456 83.6751 150.356 83.9751C150.856 84.0751 151.456 84.2751 152.156 84.3751C153.756 84.6751 155.856 84.8751 158.856 84.8751C164.256 84.8751 165.656 83.3751 165.656 83.3751C165.956 83.3751 162.656 75.9751 160.956 69.5751C162.756 70.5751 164.656 71.5751 164.856 71.7751C165.756 72.2751 166.356 72.5751 166.856 72.5751C166.856 72.5751 166.856 72.5751 166.956 72.5751C167.256 72.5751 167.356 72.4751 167.556 72.3751C167.956 72.1751 168.556 71.6751 169.056 70.6751C169.756 69.2751 170.656 66.5751 171.456 64.6751C171.856 63.6751 172.156 62.5751 172.656 61.5751C172.556 61.4751 171.556 60.3751 170.456 60.1751Z" fill="#BC3F3F"/>
<path d="M152.957 75.0751C154.057 79.5751 151.957 82.3751 150.557 83.7751C149.657 83.4751 149.257 83.2751 149.257 83.2751C148.757 83.2751 147.257 74.0751 146.857 72.7751C145.557 69.2751 144.957 66.6751 144.757 64.6751C144.857 64.5751 144.957 64.4751 144.957 64.4751C144.957 64.4751 151.357 68.4751 152.957 75.0751Z" fill="#A02E2E"/>
<path d="M151.356 55.6752C151.356 55.6752 150.656 57.2752 149.456 57.2752C148.256 57.2752 146.656 55.7752 146.656 55.7752L151.356 55.6752Z" fill="#E8945B"/>
<path d="M151.456 55.5751C151.256 55.7751 150.656 56.1751 150.156 56.3751C149.756 56.5751 149.356 56.5751 148.856 56.3751C148.156 56.1751 147.056 55.7751 146.756 55.6751C146.056 55.2751 145.956 54.5751 145.656 53.5751C145.256 52.3751 144.956 51.4751 144.856 50.7751C144.756 49.9751 145.156 49.4751 146.556 49.3751C149.156 49.1751 150.456 49.7751 150.756 50.6751C150.856 50.8751 150.856 51.1751 150.956 51.3751C151.756 54.1751 151.856 55.1751 151.456 55.5751Z" fill="#FFB27D"/>
<path d="M150.856 51.0751C150.856 51.0751 150.256 50.4751 149.456 50.6751C148.656 50.9751 148.856 51.6751 147.356 51.4751C145.956 51.3751 145.456 50.6751 145.256 51.0751C145.056 51.3751 145.456 53.3751 145.456 53.3751C145.456 53.3751 140.956 46.9751 146.656 46.9751C146.656 46.9751 152.456 46.5751 151.356 53.1751L150.856 51.0751Z" fill="#2C3A64"/>
<path d="M172.557 67.5752L171.557 67.3752L174.157 52.5752L172.557 67.5752Z" fill="#2C3A64"/>
<path d="M171.256 59.9751C171.256 59.9751 172.156 60.8751 172.256 60.3751C172.356 59.8751 173.456 59.3751 173.556 59.1751C173.656 58.9751 172.256 58.8751 172.056 58.8751C171.856 58.7751 171.056 59.6751 171.256 59.9751Z" fill="#FFB27D"/>
<path d="M149.156 59.5751C149.256 59.5751 150.256 59.2751 151.656 59.4751C151.656 59.4751 151.756 60.6751 151.356 60.7751C150.956 60.8751 150.256 60.7751 150.056 60.7751C149.956 60.8751 149.156 59.5751 149.156 59.5751Z" fill="#1C468A"/>
<path d="M150.156 60.8751C150.156 60.8751 154.356 78.3751 155.456 79.4751C156.556 80.5751 157.456 80.9751 157.456 80.9751C157.456 80.9751 158.356 79.8751 158.356 79.3751C158.356 78.8751 151.556 60.8751 151.556 60.8751H150.156Z" fill="#1C468A"/>
<path d="M155.957 77.8751C155.957 77.8751 158.757 78.7751 159.657 78.7751C160.557 78.7751 161.457 77.3751 161.157 76.9751C161.057 76.8751 159.857 77.3751 159.457 77.2751C158.957 76.9751 158.257 77.1751 157.857 77.2751C157.457 77.3751 155.757 76.3751 155.757 76.3751L155.957 77.8751Z" fill="#FFB27D"/>
<path d="M156.956 76.3752C152.356 73.1752 149.156 71.4752 148.156 70.9752C148.456 68.5752 148.356 64.7751 147.256 58.2751C147.256 58.2751 142.756 58.7752 142.356 60.3752C141.656 62.5752 143.256 68.8752 144.656 73.8752C144.656 73.8752 144.656 73.8752 144.756 73.8752C144.856 74.0752 144.956 74.1752 145.156 74.3752C147.056 75.8752 157.056 78.7751 157.056 78.7751C157.756 77.7751 156.956 76.3752 156.956 76.3752Z" fill="#BC3F3F"/>
<path d="M159.057 76.7751L151.457 74.5751L151.257 75.6751L159.257 77.8751L159.057 76.7751Z" fill="#FCECDB"/>
<path d="M162.857 73.8751L159.057 76.7751L159.257 77.8751L163.657 74.8751L162.857 73.8751Z" fill="#F4D2B8"/>
<path d="M159.357 78.1751L150.757 75.5751L150.857 75.3751L159.257 77.8751L159.357 78.1751Z" fill="#2C3A64"/>
<path d="M159.357 78.1752L164.257 74.8752L164.057 74.6752L159.257 77.8752L159.357 78.1752Z" fill="#2C3A64"/>
<path d="M149.156 59.5751C149.156 59.5751 147.156 57.5751 147.056 57.6751C146.856 57.7751 146.656 58.2751 146.756 58.3751C146.856 58.4751 149.356 59.9751 149.356 59.9751L149.156 59.5751Z" fill="#1C468A"/>
<path d="M151.656 59.4751C151.656 59.4751 152.056 57.4751 152.156 57.4751C152.256 57.5751 152.856 58.0751 152.856 58.2751C152.856 58.3751 152.056 59.5751 151.656 59.6751C151.256 59.7751 151.656 59.4751 151.656 59.4751Z" fill="#1C468A"/>
</g>
<defs>
<linearGradient id="paint0_linear_136_18179" x1="108.707" y1="0.375244" x2="108.707" y2="74.3752" gradientUnits="userSpaceOnUse">
<stop stop-color="#B23A9C"/>
<stop offset="1" stop-color="#79266A"/>
</linearGradient>
<linearGradient id="paint1_linear_136_18179" x1="105.124" y1="25.1753" x2="105.124" y2="52.7753" gradientUnits="userSpaceOnUse">
<stop stop-color="#B23A9C"/>
<stop offset="1" stop-color="#79266A"/>
</linearGradient>
<linearGradient id="paint2_linear_136_18179" x1="104.249" y1="2.10022" x2="104.249" y2="48.7752" gradientUnits="userSpaceOnUse">
<stop stop-color="#B23A9C"/>
<stop offset="1" stop-color="#79266A"/>
</linearGradient>
<linearGradient id="paint3_linear_136_18179" x1="106.712" y1="2.67529" x2="106.712" y2="71.0753" gradientUnits="userSpaceOnUse">
<stop stop-color="#B23A9C"/>
<stop offset="1" stop-color="#79266A"/>
</linearGradient>
<linearGradient id="paint4_linear_136_18179" x1="115.157" y1="7.67529" x2="115.157" y2="30.4753" gradientUnits="userSpaceOnUse">
<stop stop-color="#B23A9C"/>
<stop offset="1" stop-color="#79266A"/>
</linearGradient>
<linearGradient id="paint5_linear_136_18179" x1="100.957" y1="48.1705" x2="100.957" y2="68.9753" gradientUnits="userSpaceOnUse">
<stop stop-color="#B23A9C"/>
<stop offset="1" stop-color="#79266A"/>
</linearGradient>
<linearGradient id="paint6_linear_136_18179" x1="158.107" y1="31.0752" x2="158.107" y2="39.7752" gradientUnits="userSpaceOnUse">
<stop stop-color="#96B230"/>
<stop offset="1" stop-color="#869A35"/>
</linearGradient>
<linearGradient id="paint7_linear_136_18179" x1="177.707" y1="95.1752" x2="177.707" y2="96.9752" gradientUnits="userSpaceOnUse">
<stop stop-color="#96B230"/>
<stop offset="1" stop-color="#869A35"/>
</linearGradient>
<linearGradient id="paint8_linear_136_18179" x1="167.057" y1="44.2751" x2="167.057" y2="88.2751" gradientUnits="userSpaceOnUse">
<stop stop-color="#96B230"/>
<stop offset="1" stop-color="#869A35"/>
</linearGradient>
<linearGradient id="paint9_linear_136_18179" x1="180.408" y1="55.3752" x2="180.408" y2="60.3752" gradientUnits="userSpaceOnUse">
<stop stop-color="#96B230"/>
<stop offset="1" stop-color="#869A35"/>
</linearGradient>
<linearGradient id="paint10_linear_136_18179" x1="192.458" y1="55.3752" x2="192.458" y2="60.3752" gradientUnits="userSpaceOnUse">
<stop stop-color="#96B230"/>
<stop offset="1" stop-color="#869A35"/>
</linearGradient>
<linearGradient id="paint11_linear_136_18179" x1="182.427" y1="50.3752" x2="182.427" y2="50.7752" gradientUnits="userSpaceOnUse">
<stop stop-color="#96B230"/>
<stop offset="1" stop-color="#869A35"/>
</linearGradient>
<linearGradient id="paint12_linear_136_18179" x1="183.108" y1="51.7753" x2="183.108" y2="52.1753" gradientUnits="userSpaceOnUse">
<stop stop-color="#96B230"/>
<stop offset="1" stop-color="#869A35"/>
</linearGradient>
<linearGradient id="paint13_linear_136_18179" x1="184.957" y1="53.4751" x2="184.957" y2="54.0751" gradientUnits="userSpaceOnUse">
<stop stop-color="#96B230"/>
<stop offset="1" stop-color="#869A35"/>
</linearGradient>
<linearGradient id="paint14_linear_136_18179" x1="185.508" y1="72.7753" x2="185.508" y2="77.7753" gradientUnits="userSpaceOnUse">
<stop stop-color="#96B230"/>
<stop offset="1" stop-color="#869A35"/>
</linearGradient>
<linearGradient id="paint15_linear_136_18179" x1="197.508" y1="72.7753" x2="197.508" y2="77.7753" gradientUnits="userSpaceOnUse">
<stop stop-color="#96B230"/>
<stop offset="1" stop-color="#869A35"/>
</linearGradient>
<linearGradient id="paint16_linear_136_18179" x1="187.521" y1="67.8752" x2="187.521" y2="68.2752" gradientUnits="userSpaceOnUse">
<stop stop-color="#96B230"/>
<stop offset="1" stop-color="#869A35"/>
</linearGradient>
<linearGradient id="paint17_linear_136_18179" x1="188.207" y1="69.1753" x2="188.207" y2="69.5753" gradientUnits="userSpaceOnUse">
<stop stop-color="#96B230"/>
<stop offset="1" stop-color="#869A35"/>
</linearGradient>
<linearGradient id="paint18_linear_136_18179" x1="188.626" y1="70.4752" x2="188.626" y2="70.8752" gradientUnits="userSpaceOnUse">
<stop stop-color="#96B230"/>
<stop offset="1" stop-color="#869A35"/>
</linearGradient>
</defs>
</svg>
