<svg width="122" height="123" viewBox="0 0 122 123" fill="none" xmlns="http://www.w3.org/2000/svg">
<g filter="url(#filter0_d_109_12906)">
<rect x="16" y="12.6191" width="90" height="90" rx="5" fill="white"/>
</g>
<path d="M70.322 87.284H50.9681C48.4019 87.284 45.9407 86.2645 44.1261 84.4499C42.3114 82.6352 41.292 80.1741 41.292 77.6078V75.6713C41.292 71.0519 43.127 66.6217 46.3934 63.3553C49.6598 60.0889 54.09 58.2539 58.7094 58.2539H62.5808C64.8682 58.2537 67.1333 58.7041 69.2466 59.5793C71.36 60.4545 73.2803 61.7374 74.8978 63.3548C76.5153 64.9722 77.7984 66.8923 78.6738 69.0056C79.5492 71.1189 79.9998 73.3839 79.9998 75.6713V77.6062C79.9998 80.1725 78.9803 82.6337 77.1657 84.4483C75.3511 86.2629 72.8899 87.2824 70.3236 87.2824L70.322 87.284Z" fill="#772569"/>
<path d="M60.6468 50.5124C58.3501 50.5124 56.1049 49.8314 54.1952 48.5553C52.2855 47.2793 50.7971 45.4657 49.9181 43.3437C49.0392 41.2218 48.8092 38.8869 49.2573 36.6343C49.7054 34.3816 50.8114 32.3124 52.4355 30.6884C54.0595 29.0643 56.1287 27.9583 58.3813 27.5102C60.634 27.0622 62.9689 27.2921 65.0908 28.1711C67.2127 29.05 69.0264 30.5384 70.3024 32.4481C71.5784 34.3578 72.2595 36.603 72.2595 38.8998C72.2595 41.9796 71.036 44.9334 68.8582 47.1112C66.6804 49.289 63.7267 50.5124 60.6468 50.5124Z" fill="#772569"/>
<defs>
<filter id="filter0_d_109_12906" x="0" y="0.619141" width="122" height="122" filterUnits="userSpaceOnUse" color-interpolation-filters="sRGB">
<feFlood flood-opacity="0" result="BackgroundImageFix"/>
<feColorMatrix in="SourceAlpha" type="matrix" values="0 0 0 0 0 0 0 0 0 0 0 0 0 0 0 0 0 0 127 0" result="hardAlpha"/>
<feOffset dy="4"/>
<feGaussianBlur stdDeviation="8"/>
<feComposite in2="hardAlpha" operator="out"/>
<feColorMatrix type="matrix" values="0 0 0 0 0.47451 0 0 0 0 0.14902 0 0 0 0 0.415686 0 0 0 0.16 0"/>
<feBlend mode="normal" in2="BackgroundImageFix" result="effect1_dropShadow_109_12906"/>
<feBlend mode="normal" in="SourceGraphic" in2="effect1_dropShadow_109_12906" result="shape"/>
</filter>
</defs>
</svg>
