<svg width="15" height="17" viewBox="0 0 15 17" fill="none" xmlns="http://www.w3.org/2000/svg">
<path d="M4.34285 6.45651C4.64023 6.45651 4.88131 6.69529 4.88131 6.98984V13.3898C4.88131 13.6844 4.64023 13.9232 4.34285 13.9232C4.04546 13.9232 3.80439 13.6844 3.80439 13.3898V6.98984C3.80439 6.69529 4.04546 6.45651 4.34285 6.45651Z" fill="#954386"/>
<path d="M7.03516 6.45651C7.33254 6.45651 7.57362 6.69529 7.57362 6.98984V13.3898C7.57362 13.6844 7.33254 13.9232 7.03516 13.9232C6.73777 13.9232 6.4967 13.6844 6.4967 13.3898V6.98984C6.4967 6.69529 6.73777 6.45651 7.03516 6.45651Z" fill="#954386"/>
<path d="M10.2659 6.98984C10.2659 6.69529 10.0248 6.45651 9.72746 6.45651C9.43008 6.45651 9.189 6.69529 9.189 6.98984V13.3898C9.189 13.6844 9.43008 13.9232 9.72746 13.9232C10.0248 13.9232 10.2659 13.6844 10.2659 13.3898V6.98984Z" fill="#954386"/>
<path fill-rule="evenodd" clip-rule="evenodd" d="M14.0352 3.78984C14.0352 4.37895 13.553 4.85651 12.9582 4.85651H12.4198V14.4565C12.4198 15.6347 11.4555 16.5898 10.2659 16.5898H3.80439C2.61485 16.5898 1.65054 15.6347 1.65054 14.4565V4.85651H1.11208C0.517311 4.85651 0.0351562 4.37895 0.0351562 3.78984V2.72318C0.0351562 2.13407 0.517311 1.65651 1.11208 1.65651H4.88131C4.88131 1.06741 5.36347 0.589844 5.95823 0.589844H8.11208C8.70685 0.589844 9.189 1.06741 9.189 1.65651H12.9582C13.553 1.65651 14.0352 2.13407 14.0352 2.72318V3.78984ZM2.85458 4.85651L2.72746 4.91946V14.4565C2.72746 15.0456 3.20962 15.5232 3.80439 15.5232H10.2659C10.8607 15.5232 11.3428 15.0456 11.3428 14.4565V4.91946L11.2157 4.85651H2.85458ZM1.11208 3.78984V2.72318H12.9582V3.78984H1.11208Z" fill="#954386"/>
</svg>
