<svg width="17" height="16" viewBox="0 0 17 16" fill="none" xmlns="http://www.w3.org/2000/svg">
<path d="M5.51765 5.86667C5.81504 5.86667 6.05612 6.10545 6.05612 6.4V12.8C6.05611 13.0946 5.81504 13.3333 5.51765 13.3333C5.22027 13.3333 4.97919 13.0946 4.97919 12.8V6.4C4.97919 6.10545 5.22027 5.86667 5.51765 5.86667Z" fill="black"/>
<path d="M8.20996 5.86667C8.50735 5.86667 8.74842 6.10545 8.74842 6.4V12.8C8.74842 13.0946 8.50735 13.3333 8.20996 13.3333C7.91258 13.3333 7.6715 13.0946 7.6715 12.8V6.4C7.6715 6.10545 7.91258 5.86667 8.20996 5.86667Z" fill="black"/>
<path d="M11.4407 6.4C11.4407 6.10545 11.1997 5.86667 10.9023 5.86667C10.6049 5.86667 10.3638 6.10545 10.3638 6.4V12.8C10.3638 13.0946 10.6049 13.3333 10.9023 13.3333C11.1997 13.3333 11.4407 13.0946 11.4407 12.8V6.4Z" fill="black"/>
<path fill-rule="evenodd" clip-rule="evenodd" d="M15.21 3.2C15.21 3.7891 14.7278 4.26667 14.133 4.26667H13.5946V13.8667C13.5946 15.0449 12.6303 16 11.4407 16H4.97919C3.78966 16 2.82535 15.0449 2.82535 13.8667V4.26667H2.28688C1.69212 4.26667 1.20996 3.7891 1.20996 3.2V2.13333C1.20996 1.54423 1.69212 1.06667 2.28688 1.06667H6.05612C6.05612 0.477563 6.53827 0 7.13304 0H9.28688C9.88165 0 10.3638 0.477563 10.3638 1.06667H14.133C14.7278 1.06667 15.21 1.54423 15.21 2.13333V3.2ZM4.02938 4.26667L3.90227 4.32962V13.8667C3.90227 14.4558 4.38442 14.9333 4.97919 14.9333H11.4407C12.0355 14.9333 12.5177 14.4558 12.5177 13.8667V4.32962L12.3905 4.26667H4.02938ZM2.28688 3.2V2.13333H14.133V3.2H2.28688Z" fill="black"/>
</svg>
