<svg width="37" height="37" viewBox="0 0 37 37" fill="none" xmlns="http://www.w3.org/2000/svg">
<mask id="mask0_848_2775" style="mask-type:luminance" maskUnits="userSpaceOnUse" x="0" y="0" width="37" height="37">
<path d="M36.6055 0.144531H0.605469V36.1445H36.6055V0.144531Z" fill="white"/>
</mask>
<g mask="url(#mask0_848_2775)">
<path fill-rule="evenodd" clip-rule="evenodd" d="M27.6058 3.14453C28.3627 3.1442 29.0916 3.42994 29.6467 3.94445C30.2017 4.45897 30.5417 5.16425 30.5986 5.91893L30.6058 6.14453V30.1445C30.6062 30.9014 30.3204 31.6303 29.8059 32.1854C29.2914 32.7404 28.5861 33.0804 27.8314 33.1373L27.6058 33.1445H9.60585C8.84903 33.1449 8.12005 32.8591 7.56503 32.3446C7.01001 31.8301 6.66996 31.1248 6.61305 30.3701L6.60585 30.1445V28.6445C6.22358 28.6446 5.85569 28.4987 5.57735 28.2367C5.29901 27.9747 5.13121 27.6163 5.10824 27.2347C5.08526 26.8531 5.20884 26.4772 5.45372 26.1836C5.69861 25.8901 6.04633 25.7011 6.42585 25.6553L6.60105 25.6445V22.6445C6.21918 22.6434 5.85212 22.4967 5.5747 22.2343C5.29728 21.9719 5.13038 21.6135 5.10804 21.2323C5.0857 20.8511 5.20959 20.4757 5.45446 20.1827C5.69932 19.8897 6.04673 19.7011 6.42585 19.6553L6.60105 19.6445V16.6445C6.21918 16.6434 5.85212 16.4967 5.5747 16.2343C5.29728 15.9719 5.13038 15.6135 5.10804 15.2323C5.0857 14.8511 5.20959 14.4757 5.45446 14.1827C5.69932 13.8897 6.04673 13.7011 6.42585 13.6553L6.60105 13.6445V10.6445C6.21918 10.6434 5.85212 10.4967 5.5747 10.2343C5.29728 9.97186 5.13038 9.61352 5.10804 9.2323C5.0857 8.85109 5.20959 8.47571 5.45446 8.18268C5.69932 7.88966 6.04673 7.70106 6.42585 7.65533L6.60585 7.64453V6.14453C6.60552 5.38771 6.89125 4.65873 7.40577 4.10371C7.92029 3.54869 8.62557 3.20864 9.38025 3.15173L9.60585 3.14453H27.6058ZM27.6058 6.14453H9.60585V30.1445H27.6058V6.14453ZM23.8558 9.14453C24.4151 9.14463 24.9543 9.35302 25.3683 9.72906C25.7823 10.1051 26.0414 10.6218 26.095 11.1785L26.1058 11.3945V14.3945C26.1056 14.9547 25.8964 15.4947 25.5191 15.9088C25.1418 16.323 24.6236 16.5814 24.0658 16.6337L23.8498 16.6445H13.3558C12.7966 16.6444 12.2574 16.436 11.8434 16.06C11.4294 15.684 11.1703 15.1672 11.1166 14.6105L11.1058 14.3945V11.3945C11.1059 10.8353 11.3143 10.2961 11.6904 9.88209C12.0664 9.46811 12.5832 9.20902 13.1398 9.15533L13.3558 9.14453H23.8558ZM23.1058 12.1445H14.1058V13.6445H23.1058V12.1445Z" fill="#79266A"/>
</g>
</svg>
