<svg width="25" height="25" viewBox="0 0 25 25" fill="none" xmlns="http://www.w3.org/2000/svg">
<mask id="mask0_848_3059" style="mask-type:luminance" maskUnits="userSpaceOnUse" x="0" y="0" width="25" height="25">
<path d="M24.6055 0.144531H0.605469V24.1445H24.6055V0.144531Z" fill="white"/>
</mask>
<g mask="url(#mask0_848_3059)">
<mask id="mask1_848_3059" style="mask-type:luminance" maskUnits="userSpaceOnUse" x="2" y="2" width="21" height="21">
<path d="M22.6055 2.14453H2.60547V22.2195H22.6055V2.14453Z" fill="white"/>
</mask>
<g mask="url(#mask1_848_3059)">
<path d="M5.51351 3.30453C5.04584 3.30797 4.59867 3.49698 4.27032 3.83002C3.94197 4.16306 3.75931 4.61286 3.76251 5.08053V18.0805C3.75931 18.5479 3.94169 18.9974 4.26961 19.3303C4.59753 19.6633 5.04418 19.8526 5.51151 19.8565H15.5905C16.0578 19.8526 16.5045 19.6633 16.8324 19.3303C17.1603 18.9974 17.3427 18.5479 17.3395 18.0805V5.08053C17.3424 4.61328 17.16 4.16393 16.8321 3.83101C16.5042 3.49809 16.0577 3.30876 15.5905 3.30453H5.51351ZM5.51351 2.14453H15.5905C15.9743 2.14623 16.354 2.22354 16.708 2.37202C17.0619 2.5205 17.3831 2.73726 17.6532 3.0099C17.9234 3.28255 18.1371 3.60575 18.2824 3.96103C18.4276 4.31631 18.5013 4.69672 18.4995 5.08053V18.0805C18.5013 18.4643 18.4276 18.8447 18.2824 19.2C18.1371 19.5553 17.9234 19.8785 17.6532 20.1512C17.3831 20.4238 17.0619 20.6406 16.708 20.789C16.354 20.9375 15.9743 21.0148 15.5905 21.0165H5.51351C4.73872 21.0128 3.99712 20.7016 3.45179 20.1512C2.90646 19.6008 2.60205 18.8563 2.60551 18.0815V5.08153C2.60353 4.69772 2.67719 4.31729 2.82228 3.96195C2.96736 3.60662 3.18103 3.28335 3.45108 3.01061C3.72112 2.73787 4.04226 2.521 4.39613 2.3724C4.75001 2.2238 5.1297 2.14637 5.51351 2.14453Z" fill="#79266A"/>
<path d="M9.8172 5.28906H6.5072C6.29861 5.28906 6.09856 5.37193 5.95106 5.51942C5.80357 5.66692 5.7207 5.86697 5.7207 6.07556C5.7207 6.28416 5.80357 6.4842 5.95106 6.6317C6.09856 6.7792 6.29861 6.86206 6.5072 6.86206H9.8172C10.0258 6.86206 10.2258 6.7792 10.3733 6.6317C10.5208 6.4842 10.6037 6.28416 10.6037 6.07556C10.6037 5.86697 10.5208 5.66692 10.3733 5.51942C10.2258 5.37193 10.0258 5.28906 9.8172 5.28906Z" fill="#79266A"/>
<path d="M14.6992 8.96094H6.5072C6.29861 8.96094 6.09856 9.0438 5.95106 9.1913C5.80357 9.3388 5.7207 9.53884 5.7207 9.74744C5.7207 9.95603 5.80357 10.1561 5.95106 10.3036C6.09856 10.4511 6.29861 10.5339 6.5072 10.5339H14.6992C14.9078 10.5339 15.1078 10.4511 15.2553 10.3036C15.4028 10.1561 15.4857 9.95603 15.4857 9.74744C15.4857 9.53884 15.4028 9.3388 15.2553 9.1913C15.1078 9.0438 14.9078 8.96094 14.6992 8.96094Z" fill="#79266A"/>
<path d="M14.6992 12.6289H6.5072C6.29861 12.6289 6.09856 12.7118 5.95106 12.8593C5.80357 13.0068 5.7207 13.2068 5.7207 13.4154C5.7207 13.624 5.80357 13.824 5.95106 13.9715C6.09856 14.119 6.29861 14.2019 6.5072 14.2019H14.6992C14.9078 14.2019 15.1078 14.119 15.2553 13.9715C15.4028 13.824 15.4857 13.624 15.4857 13.4154C15.4857 13.2068 15.4028 13.0068 15.2553 12.8593C15.1078 12.7118 14.9078 12.6289 14.6992 12.6289Z" fill="#79266A"/>
<path d="M14.6992 16.3008H6.5072C6.29861 16.3008 6.09856 16.3836 5.95106 16.5311C5.80357 16.6786 5.7207 16.8787 5.7207 17.0873C5.7207 17.2959 5.80357 17.4959 5.95106 17.6434C6.09856 17.7909 6.29861 17.8738 6.5072 17.8738H14.6992C14.9078 17.8738 15.1078 17.7909 15.2553 17.6434C15.4028 17.4959 15.4857 17.2959 15.4857 17.0873C15.4857 16.8787 15.4028 16.6786 15.2553 16.5311C15.1078 16.3836 14.9078 16.3008 14.6992 16.3008Z" fill="#79266A"/>
<path d="M9.8172 5.28906H6.5072C6.29861 5.28906 6.09856 5.37193 5.95106 5.51942C5.80357 5.66692 5.7207 5.86697 5.7207 6.07556C5.7207 6.28416 5.80357 6.4842 5.95106 6.6317C6.09856 6.7792 6.29861 6.86206 6.5072 6.86206H9.8172C10.0258 6.86206 10.2258 6.7792 10.3733 6.6317C10.5208 6.4842 10.6037 6.28416 10.6037 6.07556C10.6037 5.86697 10.5208 5.66692 10.3733 5.51942C10.2258 5.37193 10.0258 5.28906 9.8172 5.28906Z" fill="#79266A"/>
<path d="M14.6992 8.96094H6.5072C6.29861 8.96094 6.09856 9.0438 5.95106 9.1913C5.80357 9.3388 5.7207 9.53884 5.7207 9.74744C5.7207 9.95603 5.80357 10.1561 5.95106 10.3036C6.09856 10.4511 6.29861 10.5339 6.5072 10.5339H14.6992C14.9078 10.5339 15.1078 10.4511 15.2553 10.3036C15.4028 10.1561 15.4857 9.95603 15.4857 9.74744C15.4857 9.53884 15.4028 9.3388 15.2553 9.1913C15.1078 9.0438 14.9078 8.96094 14.6992 8.96094Z" fill="#79266A"/>
<path d="M14.6992 12.6289H6.5072C6.29861 12.6289 6.09856 12.7118 5.95106 12.8593C5.80357 13.0068 5.7207 13.2068 5.7207 13.4154C5.7207 13.624 5.80357 13.824 5.95106 13.9715C6.09856 14.119 6.29861 14.2019 6.5072 14.2019H14.6992C14.9078 14.2019 15.1078 14.119 15.2553 13.9715C15.4028 13.824 15.4857 13.624 15.4857 13.4154C15.4857 13.2068 15.4028 13.0068 15.2553 12.8593C15.1078 12.7118 14.9078 12.6289 14.6992 12.6289Z" fill="#79266A"/>
<path d="M14.6992 16.3008H6.5072C6.29861 16.3008 6.09856 16.3836 5.95106 16.5311C5.80357 16.6786 5.7207 16.8787 5.7207 17.0873C5.7207 17.2959 5.80357 17.4959 5.95106 17.6434C6.09856 17.7909 6.29861 17.8738 6.5072 17.8738H14.6992C14.9078 17.8738 15.1078 17.7909 15.2553 17.6434C15.4028 17.4959 15.4857 17.2959 15.4857 17.0873C15.4857 16.8787 15.4028 16.6786 15.2553 16.5311C15.1078 16.3836 14.9078 16.3008 14.6992 16.3008Z" fill="#79266A"/>
<path d="M9.68204 5.35547H6.44304C6.2367 5.35547 6.03881 5.43744 5.89291 5.58334C5.74701 5.72924 5.66504 5.92713 5.66504 6.13347C5.66504 6.33981 5.74701 6.53769 5.89291 6.6836C6.03881 6.8295 6.2367 6.91147 6.44304 6.91147H9.68204C9.88838 6.91147 10.0863 6.8295 10.2322 6.6836C10.3781 6.53769 10.46 6.33981 10.46 6.13347C10.46 5.92713 10.3781 5.72924 10.2322 5.58334C10.0863 5.43744 9.88838 5.35547 9.68204 5.35547Z" fill="#79266A"/>
<path d="M14.477 8.98828H6.44304C6.2367 8.98828 6.03881 9.07025 5.89291 9.21615C5.74701 9.36206 5.66504 9.55994 5.66504 9.76628C5.66504 9.97262 5.74701 10.1705 5.89291 10.3164C6.03881 10.4623 6.2367 10.5443 6.44304 10.5443H14.477C14.6834 10.5443 14.8813 10.4623 15.0272 10.3164C15.1731 10.1705 15.255 9.97262 15.255 9.76628C15.255 9.55994 15.1731 9.36206 15.0272 9.21615C14.8813 9.07025 14.6834 8.98828 14.477 8.98828Z" fill="#79266A"/>
<path d="M14.477 12.6172H6.44304C6.2367 12.6172 6.03881 12.6992 5.89291 12.8451C5.74701 12.991 5.66504 13.1888 5.66504 13.3952C5.66504 13.6015 5.74701 13.7994 5.89291 13.9453C6.03881 14.0912 6.2367 14.1732 6.44304 14.1732H14.477C14.6834 14.1732 14.8813 14.0912 15.0272 13.9453C15.1731 13.7994 15.255 13.6015 15.255 13.3952C15.255 13.1888 15.1731 12.991 15.0272 12.8451C14.8813 12.6992 14.6834 12.6172 14.477 12.6172Z" fill="#79266A"/>
<path d="M14.477 16.25H6.44304C6.2367 16.25 6.03881 16.332 5.89291 16.4779C5.74701 16.6238 5.66504 16.8217 5.66504 17.028C5.66504 17.2343 5.74701 17.4322 5.89291 17.5781C6.03881 17.724 6.2367 17.806 6.44304 17.806H14.477C14.6834 17.806 14.8813 17.724 15.0272 17.5781C15.1731 17.4322 15.255 17.2343 15.255 17.028C15.255 16.8217 15.1731 16.6238 15.0272 16.4779C14.8813 16.332 14.6834 16.25 14.477 16.25Z" fill="#79266A"/>
<path d="M17.141 11.582C15.8568 11.582 14.6185 12.0596 13.667 12.9219C12.7154 13.7843 12.1187 14.9697 11.9927 16.2477C11.8668 17.5257 12.2207 18.8048 12.9856 19.8363C13.7505 20.8678 14.8717 21.5779 16.1312 21.8286C17.3907 22.0792 18.6983 21.8524 19.7999 21.1923C20.9014 20.5322 21.718 19.486 22.0909 18.2571C22.4638 17.0283 22.3663 15.7047 21.8174 14.5438C21.2684 13.3829 20.3073 12.4676 19.121 11.976C18.4932 11.716 17.8204 11.5821 17.141 11.582Z" fill="#79266A" stroke="#79266A" stroke-width="0.58"/>
<path d="M17.6715 14.6729C17.6715 14.6729 17.7575 14.6179 17.8165 14.6729C17.8755 14.7279 19.2025 16.0589 19.2025 16.0589C19.2244 16.078 19.2388 16.1044 19.2428 16.1333C19.2468 16.1621 19.2403 16.1914 19.2245 16.2159C18.9245 16.6841 18.7521 17.2225 18.7245 17.7779C18.7245 17.9399 18.6055 17.9519 18.6055 17.9519L15.4825 18.8429C15.4825 18.8429 15.3725 18.8709 15.3375 18.7969C15.3274 18.774 15.3222 18.7494 15.3222 18.7244C15.3222 18.6994 15.3274 18.6747 15.3375 18.6519L16.9375 17.1389C16.9375 17.1389 17.0155 17.0579 17.0835 17.0619C17.1515 17.0659 17.2465 17.0619 17.2465 17.0619C17.3205 17.054 17.3907 17.0248 17.4486 16.9779C17.5064 16.931 17.5494 16.8684 17.5725 16.7976C17.5956 16.7268 17.5977 16.6509 17.5785 16.5789C17.5594 16.507 17.5199 16.4421 17.4647 16.3921C17.4095 16.3421 17.3411 16.3091 17.2676 16.2971C17.1941 16.2851 17.1187 16.2946 17.0505 16.3245C16.9823 16.3544 16.9242 16.4034 16.8832 16.4656C16.8423 16.5277 16.8201 16.6004 16.8195 16.6749C16.8275 16.7206 16.826 16.7675 16.8149 16.8126C16.8039 16.8577 16.7837 16.9 16.7555 16.9369L15.2395 18.5369C15.2395 18.5369 15.1395 18.6049 15.0715 18.5369C15.0522 18.5147 15.0394 18.4877 15.0345 18.4588C15.0296 18.4299 15.0327 18.4002 15.0435 18.3729L15.9235 15.3059C15.9235 15.3059 15.9435 15.1619 16.0775 15.1619C16.6427 15.1426 17.1927 14.9739 17.6715 14.6729Z" fill="white"/>
</g>
</g>
</svg>
