<svg width="138" height="137" viewBox="0 0 138 137" fill="none" xmlns="http://www.w3.org/2000/svg">
<g filter="url(#filter0_d_109_15459)">
<rect x="16.6055" y="12.7773" width="90" height="90" rx="5" fill="white"/>
</g>
<path d="M70.9275 87.4441H51.5736C49.0073 87.4441 46.5462 86.4247 44.7315 84.61C42.9169 82.7954 41.8975 80.3342 41.8975 77.768V75.8315C41.8975 71.2121 43.7325 66.7819 46.9989 63.5155C50.2653 60.2491 54.6955 58.4141 59.3149 58.4141H63.1863C65.4737 58.4139 67.7387 58.8642 69.8521 59.7394C71.9655 60.6146 73.8857 61.8976 75.5033 63.5149C77.1208 65.1323 78.4039 67.0525 79.2793 69.1657C80.1547 71.279 80.6053 73.544 80.6053 75.8315V77.7664C80.6053 80.3326 79.5858 82.7938 77.7712 84.6084C75.9565 86.4231 73.4954 87.4425 70.9291 87.4425L70.9275 87.4441Z" fill="#772569"/>
<path d="M61.2523 50.6706C58.9555 50.6706 56.7104 49.9896 54.8007 48.7135C52.891 47.4375 51.4025 45.6239 50.5236 43.5019C49.6447 41.38 49.4147 39.0451 49.8628 36.7925C50.3109 34.5398 51.4169 32.4706 53.0409 30.8466C54.665 29.2225 56.7342 28.1165 58.9868 27.6685C61.2394 27.2204 63.5743 27.4503 65.6963 28.3293C67.8182 29.2082 69.6319 30.6966 70.9079 32.6063C72.1839 34.516 72.865 36.7612 72.865 39.058C72.865 42.1378 71.6415 45.0916 69.4637 47.2694C67.2859 49.4472 64.3322 50.6706 61.2523 50.6706Z" fill="#772569"/>
<g filter="url(#filter1_d_109_15459)">
<path d="M106.605 117.777C114.89 117.777 121.605 111.062 121.605 102.777C121.605 94.4931 114.89 87.7773 106.605 87.7773C98.3212 87.7773 91.6055 94.4931 91.6055 102.777C91.6055 111.062 98.3212 117.777 106.605 117.777Z" fill="#FFFDF3"/>
<path d="M106.605 117.277C114.614 117.277 121.105 110.785 121.105 102.777C121.105 94.7692 114.614 88.2773 106.605 88.2773C98.5973 88.2773 92.1055 94.7692 92.1055 102.777C92.1055 110.785 98.5973 117.277 106.605 117.277Z" stroke="#F3EAF2"/>
</g>
<path fill-rule="evenodd" clip-rule="evenodd" d="M106.605 105.328C106.227 105.328 105.858 105.216 105.544 105.006C105.229 104.796 104.984 104.497 104.84 104.148C104.695 103.799 104.657 103.415 104.731 103.044C104.805 102.673 104.987 102.333 105.254 102.066C105.521 101.798 105.862 101.616 106.233 101.543C106.603 101.469 106.987 101.507 107.337 101.651C107.686 101.796 107.984 102.041 108.194 102.355C108.404 102.669 108.516 103.039 108.516 103.417C108.516 103.924 108.315 104.41 107.957 104.768C107.598 105.127 107.112 105.328 106.605 105.328ZM111.705 98.3209C112.042 98.323 112.365 98.458 112.602 98.6966C112.84 98.9352 112.974 99.258 112.975 99.5949V107.239C112.974 107.576 112.84 107.9 112.601 108.139C112.362 108.377 112.039 108.512 111.701 108.513H101.509C101.172 108.512 100.848 108.377 100.61 108.139C100.371 107.9 100.236 107.576 100.235 107.239V99.5949C100.236 99.2573 100.371 98.9339 100.61 98.6952C100.848 98.4565 101.172 98.3219 101.509 98.3209H103.528L104.311 97.4609C104.432 97.3309 104.578 97.2271 104.74 97.1559C104.902 97.0846 105.077 97.0475 105.254 97.0469H107.954C108.131 97.0471 108.305 97.084 108.466 97.1552C108.627 97.2265 108.772 97.3306 108.89 97.4609L109.68 98.3209H111.705ZM106.605 106.602C107.235 106.602 107.851 106.415 108.375 106.065C108.899 105.715 109.307 105.218 109.548 104.636C109.789 104.054 109.852 103.413 109.729 102.796C109.606 102.178 109.303 101.61 108.857 101.165C108.412 100.719 107.845 100.416 107.227 100.293C106.609 100.17 105.968 100.233 105.387 100.474C104.805 100.715 104.307 101.124 103.957 101.647C103.607 102.171 103.42 102.787 103.42 103.417C103.421 104.262 103.756 105.071 104.354 105.669C104.951 106.266 105.761 106.602 106.605 106.602Z" fill="#869B34"/>
<defs>
<filter id="filter0_d_109_15459" x="0.605469" y="0.777344" width="122" height="122" filterUnits="userSpaceOnUse" color-interpolation-filters="sRGB">
<feFlood flood-opacity="0" result="BackgroundImageFix"/>
<feColorMatrix in="SourceAlpha" type="matrix" values="0 0 0 0 0 0 0 0 0 0 0 0 0 0 0 0 0 0 127 0" result="hardAlpha"/>
<feOffset dy="4"/>
<feGaussianBlur stdDeviation="8"/>
<feComposite in2="hardAlpha" operator="out"/>
<feColorMatrix type="matrix" values="0 0 0 0 0.47451 0 0 0 0 0.14902 0 0 0 0 0.415686 0 0 0 0.16 0"/>
<feBlend mode="normal" in2="BackgroundImageFix" result="effect1_dropShadow_109_15459"/>
<feBlend mode="normal" in="SourceGraphic" in2="effect1_dropShadow_109_15459" result="shape"/>
</filter>
<filter id="filter1_d_109_15459" x="75.6055" y="74.7773" width="62" height="62" filterUnits="userSpaceOnUse" color-interpolation-filters="sRGB">
<feFlood flood-opacity="0" result="BackgroundImageFix"/>
<feColorMatrix in="SourceAlpha" type="matrix" values="0 0 0 0 0 0 0 0 0 0 0 0 0 0 0 0 0 0 127 0" result="hardAlpha"/>
<feOffset dy="3"/>
<feGaussianBlur stdDeviation="8"/>
<feColorMatrix type="matrix" values="0 0 0 0 0.47451 0 0 0 0 0.14902 0 0 0 0 0.415686 0 0 0 0.102 0"/>
<feBlend mode="normal" in2="BackgroundImageFix" result="effect1_dropShadow_109_15459"/>
<feBlend mode="normal" in="SourceGraphic" in2="effect1_dropShadow_109_15459" result="shape"/>
</filter>
</defs>
</svg>
