<svg width="16" height="13" viewBox="0 0 16 13" fill="none" xmlns="http://www.w3.org/2000/svg">
<path d="M7.60547 12.5V10.7292L12.0221 6.3125L13.793 8.08333L9.3763 12.5H7.60547ZM0.105469 8.33333V6.66667H5.9388V8.33333H0.105469ZM14.3763 7.5L12.6055 5.72917L13.2096 5.125C13.3624 4.97222 13.5569 4.89583 13.793 4.89583C14.0291 4.89583 14.2235 4.97222 14.3763 5.125L14.9805 5.72917C15.1332 5.88194 15.2096 6.07639 15.2096 6.3125C15.2096 6.54861 15.1332 6.74305 14.9805 6.89583L14.3763 7.5ZM0.105469 5V3.33333H9.27213V5H0.105469ZM0.105469 1.66667V0H9.27213V1.66667H0.105469Z" fill="#111111"/>
</svg>
