<svg width="19" height="16" viewBox="0 0 19 16" fill="none" xmlns="http://www.w3.org/2000/svg">
<path d="M14.7496 14.1156V15.0676C14.7456 15.1639 14.7217 15.2583 14.6795 15.3449C14.6374 15.4315 14.5777 15.5085 14.5044 15.571C14.4311 15.6335 14.3457 15.6802 14.2535 15.7082C14.1613 15.7362 14.0643 15.7448 13.9686 15.7336H1.53461C1.44373 15.7442 1.35164 15.7344 1.26501 15.705C1.17839 15.6756 1.09941 15.6272 1.03381 15.5634C0.968216 15.4996 0.917649 15.422 0.885786 15.3363C0.853923 15.2505 0.841564 15.1587 0.849607 15.0676V5.6676C0.840864 5.56986 0.851755 5.47136 0.881639 5.37789C0.911523 5.28442 0.959797 5.19788 1.02362 5.12334C1.08744 5.0488 1.16553 4.98778 1.25328 4.94386C1.34104 4.89994 1.43669 4.87401 1.53461 4.8676H3.76261C3.96457 4.8676 4.15826 4.94783 4.30107 5.09064C4.44388 5.23345 4.52411 5.42714 4.52411 5.6291C4.52411 5.83107 4.44388 6.02476 4.30107 6.16757C4.15826 6.31037 3.96457 6.3906 3.76261 6.3906H2.37261V14.2146H13.2236V14.1146C13.2236 13.9126 13.3038 13.719 13.4466 13.5761C13.5895 13.4333 13.7831 13.3531 13.9851 13.3531C14.1871 13.3531 14.3808 13.4333 14.5236 13.5761C14.6664 13.719 14.7466 13.9126 14.7466 14.1146L14.7496 14.1156ZM18.1386 7.0156L13.4176 11.8316C13.3107 11.9401 13.1739 12.0143 13.0247 12.0447C12.8754 12.0752 12.7205 12.0605 12.5796 12.0026C12.4343 11.9454 12.3094 11.8459 12.2212 11.7171C12.1329 11.5882 12.0854 11.4358 12.0846 11.2796V9.2036C10.5616 9.1656 6.90661 9.3176 5.57361 11.6596C5.5081 11.7794 5.41188 11.8796 5.29483 11.9499C5.17779 12.0202 5.04413 12.0581 4.90761 12.0596C4.84368 12.0627 4.77965 12.0563 4.71761 12.0406C4.5542 11.9967 4.40977 11.9003 4.30658 11.7662C4.20339 11.6321 4.14718 11.4678 4.14661 11.2986C4.20385 9.33435 4.989 7.46146 6.34961 6.0436C7.88332 4.55126 9.93966 3.7176 12.0796 3.7206V1.6456C12.0814 1.49506 12.1275 1.34837 12.2121 1.22388C12.2968 1.09938 12.4163 1.00259 12.5556 0.945603C12.6995 0.886761 12.8575 0.871599 13.0099 0.90201C13.1623 0.932422 13.3024 1.00706 13.4126 1.1166L18.1526 5.9326C18.2912 6.07966 18.367 6.27499 18.3638 6.47706C18.3606 6.67912 18.2788 6.87197 18.1356 7.0146L18.1386 7.0156Z" fill="white"/>
</svg>
