<svg width="31" height="31" viewBox="0 0 31 31" fill="none" xmlns="http://www.w3.org/2000/svg">
<path fill-rule="evenodd" clip-rule="evenodd" d="M30.6455 15.6406C30.6455 23.9249 23.9298 30.6406 15.6455 30.6406C7.36124 30.6406 0.645508 23.9249 0.645508 15.6406C0.645508 7.35635 7.36124 0.640625 15.6455 0.640625C23.9298 0.640625 30.6455 7.35635 30.6455 15.6406ZM9.08301 16.5781C8.56524 16.5781 8.14551 16.1584 8.14551 15.6406C8.14551 15.1229 8.56524 14.7031 9.08301 14.7031H19.9447L15.9201 10.6785C15.554 10.3124 15.554 9.71883 15.9201 9.35271C16.2862 8.9866 16.8798 8.9866 17.2459 9.35271L22.8709 14.9777C23.237 15.3438 23.237 15.9374 22.8709 16.3035L17.2459 21.9285C16.8798 22.2947 16.2862 22.2947 15.9201 21.9285C15.554 21.5624 15.554 20.9688 15.9201 20.6027L19.9447 16.5781H9.08301Z" fill="url(#paint0_linear_109_20551)"/>
<defs>
<linearGradient id="paint0_linear_109_20551" x1="15.6455" y1="0.640625" x2="15.6455" y2="30.6406" gradientUnits="userSpaceOnUse">
<stop stop-color="#B23A9C"/>
<stop offset="1" stop-color="#79266A"/>
</linearGradient>
</defs>
</svg>
