<svg version="1.2" xmlns="http://www.w3.org/2000/svg" viewBox="0 0 27 28" width="27" height="28">
	<title>green_check_icon_attendance-svg</title>
	<style>
		.s0 { fill: #fef9fb } 
		.s1 { fill: none;stroke: #ffffff } 
		.s2 { fill: #abc73e } 
	</style>
	<g id="Layer">
		<g id="Layer">
			<path id="Layer" class="s0" d="m13.3 26.6c6.6 0 12-5.4 12-12 0-6.6-5.4-12-12-12-6.7 0-12 5.4-12 12 0 6.6 5.3 12 12 12z"/>
			<path id="Layer" class="s1" d="m13.3 26.1c6.3 0 11.5-5.1 11.5-11.5 0-6.3-5.2-11.5-11.5-11.5-6.4 0-11.5 5.2-11.5 11.5 0 6.4 5.1 11.5 11.5 11.5z"/>
		</g>
		<path id="Layer" class="s2" d="m12.1 18.7q-0.4 0-0.7-0.1-0.3-0.2-0.5-0.4l-2.4-2.4c-0.3-0.3-0.5-0.7-0.5-1.2 0-0.4 0.2-0.8 0.5-1.2q0.3-0.2 0.6-0.3 0.3-0.1 0.6-0.1 0.3 0 0.6 0.1 0.3 0.1 0.5 0.3l1.3 1.3 3.6-3.7q0.2-0.2 0.5-0.3 0.3-0.2 0.6-0.2 0.3 0 0.6 0.2 0.3 0.1 0.6 0.3c0.3 0.3 0.5 0.8 0.5 1.2 0 0.5-0.2 0.9-0.5 1.2l-4.8 4.8q-0.2 0.2-0.5 0.4-0.3 0.1-0.6 0.1z"/>
	</g>
</svg>