<svg width="18" height="18" viewBox="0 0 18 18" fill="none" xmlns="http://www.w3.org/2000/svg">
<g clip-path="url(#clip0_121_1630)">
<path d="M3.06164 2.05859H13.8625C14.2314 2.05832 14.5968 2.13076 14.9378 2.27177C15.2787 2.41277 15.5885 2.61958 15.8495 2.88038C16.1105 3.14117 16.3176 3.45084 16.4588 3.79168C16.6001 4.13253 16.6728 4.49786 16.6728 4.86682V13.7235C16.6728 14.4683 16.3769 15.1826 15.8503 15.7092C15.3236 16.2359 14.6093 16.5317 13.8645 16.5317H3.06164C2.31685 16.5317 1.60257 16.2359 1.07593 15.7092C0.549283 15.1826 0.253418 14.4683 0.253418 13.7235L0.253418 4.86682C0.253418 4.12203 0.549283 3.40775 1.07593 2.8811C1.60257 2.35446 2.31685 2.05859 3.06164 2.05859Z" fill="#C7E64B"/>
<path d="M3.06167 2.05859H14.2022C14.9667 2.05859 14.4316 6.76069 11.5479 10.7347C8.66426 14.7087 5.31574 16.5317 3.36953 16.5959C0.211884 16.7005 0.253445 13.8528 0.253445 13.1617V5.9782C0.253445 3.8129 1.51055 2.05859 3.06167 2.05859Z" fill="#ABC73E"/>
<path d="M3.06164 2.05859H9.14398C9.90851 2.05859 8.02798 5.54771 5.80521 7.84282C3.58244 10.1379 0.253418 12.018 0.253418 11.2314V4.86682C0.253418 4.12203 0.549283 3.40775 1.07593 2.8811C1.60257 2.35446 2.31685 2.05859 3.06164 2.05859Z" fill="#869B34"/>
<path d="M5.70629 1.74647C5.70629 1.23497 5.29175 0.820312 4.78039 0.820312C4.26903 0.820312 3.85449 1.23497 3.85449 1.74647V3.06874C3.85449 3.58024 4.26903 3.99489 4.78039 3.99489C5.29175 3.99489 5.70629 3.58024 5.70629 3.06874V1.74647Z" fill="url(#paint0_linear_121_1630)"/>
<path d="M13.378 1.4817C13.378 1.11643 13.0818 0.820312 12.7166 0.820312C12.3513 0.820312 12.0552 1.11643 12.0552 1.4817V3.3335C12.0552 3.69878 12.3513 3.99489 12.7166 3.99489C13.0818 3.99489 13.378 3.69878 13.378 3.3335V1.4817Z" fill="url(#paint1_linear_121_1630)"/>
<path d="M16.4202 11.4023C16.6113 11.4023 16.8005 11.44 16.977 11.5131C17.1536 11.5862 17.314 11.6934 17.4491 11.8286C17.5842 11.9637 17.6914 12.1241 17.7646 12.3006C17.8377 12.4772 17.8753 12.6664 17.8753 12.8575V16.0321C17.8753 16.2232 17.8377 16.4124 17.7646 16.589C17.6914 16.7655 17.5842 16.9259 17.4491 17.061C17.314 17.1962 17.1536 17.3034 16.977 17.3765C16.8005 17.4496 16.6113 17.4873 16.4202 17.4873H13.5103C13.1244 17.4873 12.7543 17.3339 12.4814 17.061C12.2085 16.7881 12.0552 16.418 12.0552 16.0321V15.7673C12.0552 14.6097 12.5151 13.4994 13.3336 12.6808C14.1522 11.8622 15.2625 11.4023 16.4202 11.4023Z" fill="url(#paint2_linear_121_1630)"/>
<path d="M14.8902 15.4916C14.8437 15.492 14.7977 15.4831 14.7547 15.4654C14.7117 15.4478 14.6726 15.4218 14.6398 15.389L14.1267 14.8702C14.0596 14.8029 14.022 14.7118 14.022 14.6168C14.022 14.5218 14.0596 14.4306 14.1267 14.3633C14.1593 14.33 14.1983 14.3036 14.2413 14.2856C14.2843 14.2675 14.3304 14.2583 14.3771 14.2583C14.4237 14.2583 14.4698 14.2675 14.5128 14.2856C14.5558 14.3036 14.5948 14.33 14.6275 14.3633L14.8897 14.6286L15.666 13.8394C15.6987 13.8062 15.7376 13.7797 15.7806 13.7617C15.8236 13.7437 15.8698 13.7344 15.9164 13.7344C15.963 13.7344 16.0092 13.7437 16.0522 13.7617C16.0951 13.7797 16.1341 13.8062 16.1668 13.8394C16.2338 13.9067 16.2715 13.9979 16.2715 14.0929C16.2715 14.1879 16.2338 14.279 16.1668 14.3464L15.1406 15.3844C15.1081 15.4181 15.0692 15.4449 15.0262 15.4633C14.9832 15.4817 14.937 15.4914 14.8902 15.4916Z" fill="white"/>
</g>
<defs>
<linearGradient id="paint0_linear_121_1630" x1="5.70629" y1="0.820312" x2="2.94295" y2="2.43222" gradientUnits="userSpaceOnUse">
<stop stop-color="#B23A9C"/>
<stop offset="1" stop-color="#79266A"/>
</linearGradient>
<linearGradient id="paint1_linear_121_1630" x1="13.378" y1="0.820312" x2="11.1238" y2="1.75959" gradientUnits="userSpaceOnUse">
<stop stop-color="#B23A9C"/>
<stop offset="1" stop-color="#79266A"/>
</linearGradient>
<linearGradient id="paint2_linear_121_1630" x1="14.9652" y1="11.4023" x2="14.9652" y2="11.4023" gradientUnits="userSpaceOnUse">
<stop stop-color="#B23A9C"/>
<stop offset="1" stop-color="#79266A"/>
</linearGradient>
<clipPath id="clip0_121_1630">
<rect width="17.6221" height="16.6667" fill="white" transform="translate(0.253418 0.820312)"/>
</clipPath>
</defs>
</svg>
