<svg width="19" height="19" viewBox="0 0 19 19" fill="none" xmlns="http://www.w3.org/2000/svg">
<path d="M16.6885 14.2862C16.1934 13.8449 15.76 13.339 15.4 12.7821C15.0069 12.0134 14.7712 11.174 14.707 10.313V7.77707C14.7104 6.42473 14.2198 5.11769 13.3275 4.10153C12.4351 3.08537 11.2025 2.43004 9.86102 2.25865V1.59644C9.86102 1.41469 9.78881 1.24038 9.66029 1.11186C9.53177 0.983335 9.35746 0.911133 9.17571 0.911133C8.99395 0.911133 8.81964 0.983335 8.69112 1.11186C8.5626 1.24038 8.4904 1.41469 8.4904 1.59644V2.26892C7.16098 2.45266 5.94319 3.11196 5.06258 4.1247C4.18197 5.13745 3.69822 6.43501 3.70093 7.77707V10.313C3.63663 11.174 3.40102 12.0134 3.00792 12.7821C2.65417 13.3378 2.22774 13.8436 1.73997 14.2862C1.68521 14.3343 1.64132 14.3935 1.61123 14.4599C1.58113 14.5263 1.56552 14.5983 1.56543 14.6712V15.3694C1.56543 15.5055 1.61951 15.6361 1.71578 15.7324C1.81205 15.8286 1.94262 15.8827 2.07877 15.8827H16.3496C16.4858 15.8827 16.6164 15.8286 16.7126 15.7324C16.8089 15.6361 16.863 15.5055 16.863 15.3694V14.6712C16.8629 14.5983 16.8473 14.5263 16.8172 14.4599C16.7871 14.3935 16.7432 14.3343 16.6885 14.2862ZM2.63318 14.856C3.1108 14.3946 3.53132 13.8776 3.88573 13.316C4.38091 12.3876 4.66982 11.3633 4.73274 10.313V7.77707C4.71238 7.17545 4.8133 6.57589 5.02948 6.01408C5.24566 5.45228 5.57268 4.93972 5.99107 4.50693C6.40946 4.07414 6.91066 3.72997 7.46484 3.49492C8.01901 3.25986 8.61481 3.13873 9.21677 3.13873C9.81874 3.13873 10.4145 3.25986 10.9687 3.49492C11.5229 3.72997 12.0241 4.07414 12.4425 4.50693C12.8609 4.93972 13.1879 5.45228 13.4041 6.01408C13.6203 6.57589 13.7212 7.17545 13.7008 7.77707V10.313C13.7637 11.3633 14.0526 12.3876 14.5478 13.316C14.9022 13.8776 15.3228 14.3946 15.8004 14.856H2.63318Z" fill="#954386"/>
<path d="M9.24001 17.5973C9.56338 17.5898 9.8737 17.4683 10.1161 17.2541C10.3585 17.0399 10.5173 16.7469 10.5644 16.4269H7.86426C7.91275 16.7556 8.079 17.0555 8.33207 17.2708C8.58513 17.4861 8.90779 17.6021 9.24001 17.5973V17.5973Z" fill="#954386"/>
</svg>
