<svg width="17" height="18" viewBox="0 0 17 18" fill="none" xmlns="http://www.w3.org/2000/svg">
<g clip-path="url(#clip0_109_15646)">
<path d="M1.14868 15.7086C1.07813 15.7088 1.00825 15.695 0.94303 15.6681C0.877811 15.6412 0.818533 15.6017 0.768584 15.5519C0.718635 15.502 0.678995 15.4429 0.651928 15.3777C0.624861 15.3126 0.610899 15.2427 0.61084 15.1722V14.0992C0.610899 14.0287 0.624861 13.9588 0.651928 13.8937C0.678995 13.8285 0.718635 13.7693 0.768584 13.7195C0.818533 13.6697 0.877811 13.6302 0.94303 13.6033C1.00825 13.5764 1.07813 13.5626 1.14868 13.5627H16.1919C16.2624 13.5627 16.3322 13.5765 16.3974 13.6034C16.4625 13.6304 16.5218 13.6699 16.5717 13.7197C16.6216 13.7695 16.6612 13.8286 16.6882 13.8938C16.7152 13.9589 16.7292 14.0287 16.7292 14.0992V15.1722C16.7292 15.2427 16.7152 15.3125 16.6882 15.3776C16.6612 15.4427 16.6216 15.5019 16.5717 15.5517C16.5218 15.6015 16.4625 15.641 16.3974 15.668C16.3322 15.6949 16.2624 15.7087 16.1919 15.7086H1.14868ZM1.68606 13.5623V4.43986C1.68727 3.44338 2.0839 2.4881 2.78886 1.78382C3.49382 1.07954 4.44947 0.683833 5.44595 0.683594L11.8932 0.683594C12.8899 0.683593 13.8458 1.0792 14.5509 1.7835C15.2561 2.48781 15.6528 3.44322 15.654 4.43986V13.5623H1.68606Z" fill="#C7E64B"/>
<path d="M1.68555 4.43986C1.68675 3.44322 2.0835 2.48781 2.78866 1.7835C3.49381 1.0792 4.4497 0.683593 5.44634 0.683594L11.8936 0.683594C12.8903 0.683593 13.8461 1.0792 14.5513 1.7835C15.2565 2.48781 15.6532 3.44322 15.6544 4.43986C15.721 5.0605 15.721 5.68648 15.6544 6.30712C15.3939 7.23236 14.1963 8.54773 10.8406 10.3941C7.96611 11.9058 4.87952 12.9739 1.68555 13.5623L1.68555 4.43986Z" fill="#ABC73E"/>
<path d="M1.68555 4.43986C1.68675 3.44322 2.0835 2.48781 2.78866 1.7835C3.49381 1.0792 4.4497 0.683593 5.44634 0.683594L11.8932 0.683594C11.1585 3.02313 9.66994 5.05359 7.65977 6.458C5.82561 7.71671 3.81135 8.69031 1.68555 9.34566L1.68555 4.43986Z" fill="#869B34"/>
<path d="M2.61279 15.7344H5.84209V16.811C5.84197 16.9536 5.78521 17.0904 5.68427 17.1913C5.58333 17.2921 5.44649 17.3488 5.3038 17.3488H3.15109C3.0084 17.3488 2.87155 17.2921 2.77062 17.1913C2.66968 17.0904 2.61291 16.9536 2.61279 16.811V15.7344Z" fill="url(#paint0_linear_109_15646)"/>
<path d="M11.2246 15.7344H14.4539V16.811C14.4538 16.9536 14.397 17.0904 14.2961 17.1913C14.1952 17.2921 14.0583 17.3488 13.9156 17.3488H11.7629C11.6202 17.3488 11.4834 17.2921 11.3824 17.1913C11.2815 17.0904 11.2247 16.9536 11.2246 16.811V15.7344Z" fill="url(#paint1_linear_109_15646)"/>
<path d="M1.69873 13.5914V11.9602C1.69873 11.9602 2.63031 11.9443 3.3358 11.9602C4.04627 11.9575 5.08072 12.8451 5.01457 13.3526C5.01301 13.3859 5.00484 13.4185 4.99052 13.4486C4.97621 13.4788 4.95605 13.5057 4.9312 13.5279C4.90636 13.5502 4.87734 13.5672 4.84583 13.5781C4.81432 13.589 4.78096 13.5935 4.74769 13.5914H1.69873Z" fill="#F3F1F2"/>
<path d="M15.6595 13.5703V11.8938C15.6595 11.8938 14.6251 11.8779 13.9196 11.8938C13.2091 11.891 12.1747 12.7787 12.2408 13.2862C12.2424 13.3195 12.2505 13.3521 12.2649 13.3822C12.2792 13.4123 12.2993 13.4393 12.3242 13.4615C12.349 13.4837 12.3781 13.5008 12.4096 13.5117C12.4411 13.5226 12.4744 13.5271 12.5077 13.5249C12.9567 13.524 15.6595 13.5703 15.6595 13.5703Z" fill="#F3F1F2"/>
</g>
<defs>
<linearGradient id="paint0_linear_109_15646" x1="5.84209" y1="15.7344" x2="4.72584" y2="18.1826" gradientUnits="userSpaceOnUse">
<stop stop-color="#B23A9C"/>
<stop offset="1" stop-color="#79266A"/>
</linearGradient>
<linearGradient id="paint1_linear_109_15646" x1="14.4539" y1="15.7344" x2="12.975" y2="18.1216" gradientUnits="userSpaceOnUse">
<stop stop-color="#B23A9C"/>
<stop offset="1" stop-color="#79266A"/>
</linearGradient>
<clipPath id="clip0_109_15646">
<rect width="16.118" height="16.6667" fill="white" transform="translate(0.61084 0.683594)"/>
</clipPath>
</defs>
</svg>
