<svg width="19" height="18" viewBox="0 0 19 18" fill="none" xmlns="http://www.w3.org/2000/svg">
<g clip-path="url(#clip0_109_15593)">
<path d="M0.45459 8.74219L0.537267 14.4841C0.53004 14.5883 0.552416 14.6924 0.601789 14.7844C0.651163 14.8764 0.725512 14.9526 0.816307 15.0041C0.907102 15.0557 1.01062 15.0805 1.11492 15.0758C1.21922 15.071 1.32009 15.0369 1.40583 14.9773C2.33209 14.3824 6.36073 11.8928 6.36073 11.8928L0.45459 8.74219Z" fill="#ABC73E"/>
<path d="M13.3643 0.632812H2.25637C1.27071 0.632812 0.47168 1.43185 0.47168 2.41751V10.1387C0.47168 11.1243 1.27071 11.9234 2.25637 11.9234H13.3643C14.35 11.9234 15.149 11.1243 15.149 10.1387V2.41751C15.149 1.43185 14.35 0.632812 13.3643 0.632812Z" fill="#C7E64B"/>
<path d="M2.16535 0.632812H13.4553C13.9045 0.632813 14.3353 0.811253 14.6529 1.12888C14.9706 1.4465 15.149 1.8773 15.149 2.32649C14.5059 7.90544 10.1459 10.8877 6.26896 11.9234C4.69605 12.3452 3.51042 11.8514 2.16417 11.9234C1.71518 11.9231 1.28469 11.7445 0.967325 11.4269C0.649956 11.1093 0.47168 10.6787 0.47168 10.2297L0.47168 2.32649C0.47168 1.8773 0.65012 1.4465 0.967746 1.12888C1.28537 0.811253 1.71616 0.632813 2.16535 0.632812Z" fill="#ABC73E"/>
<path d="M2.16535 0.632812H10.7985C10.1983 1.89876 8.73125 9.10059 0.47168 9.70025V2.32649C0.47168 1.8773 0.65012 1.4465 0.967746 1.12888C1.28537 0.811253 1.71616 0.632813 2.16535 0.632812Z" fill="#869B34"/>
<path d="M17.4483 7.24238H16.011V10.1163C16.0141 10.4317 15.9543 10.7446 15.835 11.0365C15.7157 11.3285 15.5394 11.5938 15.3164 11.8168C15.0934 12.0398 14.8281 12.2161 14.5361 12.3354C14.2442 12.4547 13.9313 12.5145 13.6159 12.5114H10.0721L9.3059 12.9903V13.4692C9.30243 13.6588 9.33722 13.8472 9.40819 14.0231C9.47916 14.1989 9.58486 14.3587 9.71897 14.4928C9.85307 14.6269 10.0128 14.7326 10.1887 14.8036C10.3646 14.8745 10.553 14.9093 10.7426 14.9059H14.5761L18.1687 17.2051C18.2424 17.2495 18.3227 17.2819 18.4067 17.3009C18.4889 17.3079 18.5715 17.2912 18.6446 17.2527C18.7179 17.2073 18.7783 17.1437 18.82 17.0682C18.8616 16.9927 18.8832 16.9077 18.8826 16.8214V8.67906C18.886 8.48964 18.8513 8.30147 18.7805 8.12575C18.7097 7.95004 18.6042 7.79039 18.4703 7.65632C18.3365 7.52224 18.177 7.4165 18.0014 7.34538C17.8258 7.27426 17.6377 7.23924 17.4483 7.24238Z" fill="#7A286B"/>
</g>
<defs>
<clipPath id="clip0_109_15593">
<rect width="18.4305" height="16.6667" fill="white" transform="translate(0.45459 0.632812)"/>
</clipPath>
</defs>
</svg>
