<svg width="17" height="17" viewBox="0 0 17 17" fill="none" xmlns="http://www.w3.org/2000/svg">
<path fill-rule="evenodd" clip-rule="evenodd" d="M2.54068 0.167969H2.47702C2.18547 0.167969 1.93466 0.167969 1.71314 0.220168C1.3702 0.302113 1.05664 0.477401 0.807208 0.72661C0.557774 0.975819 0.382204 1.28922 0.299949 1.63208C0.249023 1.85361 0.249023 2.10314 0.249023 2.39597V5.57882C0.249023 5.87037 0.249023 6.12118 0.301222 6.34271C0.383168 6.68565 0.558456 6.9992 0.807665 7.24864C1.05687 7.49807 1.37027 7.67364 1.71314 7.75589C1.93466 7.80682 2.1842 7.80682 2.47702 7.80682H5.65988C5.95143 7.80682 6.20224 7.80682 6.42376 7.75462C6.7667 7.67268 7.08026 7.49739 7.32969 7.24818C7.57912 6.99897 7.75469 6.68557 7.83695 6.34271C7.88787 6.12118 7.88787 5.87164 7.88787 5.57882V2.39597C7.88787 2.10442 7.88788 1.85361 7.83568 1.63208C7.75373 1.28914 7.57844 0.975586 7.32923 0.726153C7.08003 0.47672 6.76663 0.301149 6.42376 0.218894C6.20224 0.167969 5.9527 0.167969 5.65988 0.167969H2.54068ZM2.00978 1.45893C2.06452 1.4462 2.14982 1.44111 2.54068 1.44111H5.59622C5.98835 1.44111 6.07237 1.44493 6.12712 1.45893C6.24149 1.48628 6.34604 1.54478 6.42919 1.62793C6.51234 1.71107 6.57083 1.81563 6.59818 1.93C6.61091 1.98347 6.61473 2.0675 6.61473 2.45962V5.51516C6.61473 5.90729 6.61091 5.99132 6.59691 6.04607C6.56956 6.16043 6.51107 6.26499 6.42792 6.34814C6.34477 6.43129 6.24021 6.48978 6.12585 6.51713C6.07365 6.52859 5.98962 6.53368 5.59622 6.53368H2.54068C2.14855 6.53368 2.06452 6.52986 2.00978 6.51585C1.89541 6.48851 1.79086 6.43001 1.70771 6.34686C1.62456 6.26371 1.56607 6.15916 1.53872 6.04479C1.52726 5.99259 1.52217 5.90857 1.52217 5.51516V2.45962C1.52217 2.0675 1.52598 1.98347 1.53999 1.92872C1.56734 1.81436 1.62583 1.7098 1.70898 1.62665C1.79213 1.5435 1.89669 1.48501 2.01105 1.45766L2.00978 1.45893ZM11.4527 0.167969H11.389C11.0975 0.167969 10.8467 0.167969 10.6251 0.220168C10.2822 0.302113 9.96863 0.477401 9.7192 0.72661C9.46977 0.975819 9.2942 1.28922 9.21194 1.63208C9.16102 1.85361 9.16102 2.10314 9.16102 2.39597V5.57882C9.16102 5.87037 9.16102 6.12118 9.21322 6.34271C9.29516 6.68565 9.47045 6.9992 9.71966 7.24864C9.96887 7.49807 10.2823 7.67364 10.6251 7.75589C10.8467 7.80682 11.0962 7.80682 11.389 7.80682H14.5719C14.8634 7.80682 15.1142 7.80682 15.3358 7.75462C15.6787 7.67268 15.9923 7.49739 16.2417 7.24818C16.4911 6.99897 16.6667 6.68557 16.7489 6.34271C16.7999 6.12118 16.7999 5.87164 16.7999 5.57882V2.39597C16.7999 2.10442 16.7999 1.85361 16.7477 1.63208C16.6657 1.28914 16.4904 0.975586 16.2412 0.726153C15.992 0.47672 15.6786 0.301149 15.3358 0.218894C15.1142 0.167969 14.8647 0.167969 14.5719 0.167969H11.4527ZM10.9218 1.45893C10.9765 1.4462 11.0618 1.44111 11.4527 1.44111H14.5082C14.9003 1.44111 14.9844 1.44493 15.0391 1.45893C15.1535 1.48628 15.258 1.54478 15.3412 1.62793C15.4243 1.71107 15.4828 1.81563 15.5102 1.93C15.5229 1.98347 15.5267 2.0675 15.5267 2.45962V5.51516C15.5267 5.90729 15.5216 5.99132 15.5089 6.04607C15.4816 6.16043 15.4231 6.26499 15.3399 6.34814C15.2568 6.43129 15.1522 6.48978 15.0378 6.51713C14.9844 6.52986 14.9003 6.53368 14.5082 6.53368H11.4527C11.0605 6.53368 10.9765 6.52986 10.9218 6.51585C10.8074 6.48851 10.7029 6.43001 10.6197 6.34686C10.5366 6.26371 10.4781 6.15916 10.4507 6.04479C10.4393 5.99259 10.4342 5.90857 10.4342 5.51516V2.45962C10.4342 2.0675 10.438 1.98347 10.452 1.92872C10.4793 1.81436 10.5378 1.7098 10.621 1.62665C10.7041 1.5435 10.8087 1.48501 10.923 1.45766L10.9218 1.45893ZM2.47702 9.07996H5.65988C5.95143 9.07996 6.20224 9.07996 6.42376 9.13216C6.7667 9.21411 7.08026 9.3894 7.32969 9.6386C7.57912 9.88781 7.75469 10.2012 7.83695 10.5441C7.88787 10.7656 7.88787 11.0151 7.88787 11.308V14.4908C7.88787 14.7824 7.88788 15.0332 7.83568 15.2547C7.75373 15.5976 7.57844 15.9112 7.32923 16.1606C7.08003 16.4101 6.76663 16.5856 6.42376 16.6679C6.20224 16.7188 5.9527 16.7188 5.65988 16.7188H2.47702C2.18547 16.7188 1.93466 16.7188 1.71314 16.6666C1.3702 16.5847 1.05664 16.4094 0.807208 16.1602C0.557774 15.911 0.382204 15.5976 0.299949 15.2547C0.249023 15.0332 0.249023 14.7836 0.249023 14.4908V11.308C0.249023 11.0164 0.249023 10.7656 0.301222 10.5441C0.383168 10.2011 0.558456 9.88758 0.807665 9.63815C1.05687 9.38871 1.37027 9.21314 1.71314 9.13089C1.93466 9.07996 2.1842 9.07996 2.47702 9.07996ZM2.54068 10.3531C2.14855 10.3531 2.06452 10.3569 2.00978 10.3709C1.89541 10.3983 1.79086 10.4568 1.70771 10.5399C1.62456 10.6231 1.56607 10.7276 1.53872 10.842C1.52726 10.8942 1.52217 10.9782 1.52217 11.3716V14.4272C1.52217 14.8193 1.52598 14.9033 1.53999 14.9581C1.56734 15.0724 1.62583 15.177 1.70898 15.2601C1.79213 15.3433 1.89669 15.4018 2.01105 15.4291C2.06452 15.4419 2.14855 15.4457 2.54068 15.4457H5.59622C5.98835 15.4457 6.07237 15.4406 6.12712 15.4278C6.24149 15.4005 6.34604 15.342 6.42919 15.2589C6.51234 15.1757 6.57083 15.0712 6.59818 14.9568C6.61091 14.9033 6.61473 14.8193 6.61473 14.4272V11.3716C6.61473 10.9795 6.61091 10.8955 6.59691 10.8407C6.56956 10.7264 6.51107 10.6218 6.42792 10.5386C6.34477 10.4555 6.24021 10.397 6.12585 10.3697C6.07365 10.3582 5.98962 10.3531 5.59622 10.3531H2.54068ZM11.4527 9.07996H11.389C11.0975 9.07996 10.8467 9.07996 10.6251 9.13216C10.2822 9.21411 9.96863 9.3894 9.7192 9.6386C9.46977 9.88781 9.2942 10.2012 9.21194 10.5441C9.16102 10.7656 9.16102 11.0151 9.16102 11.308V14.4908C9.16102 14.7824 9.16102 15.0332 9.21322 15.2547C9.29516 15.5976 9.47045 15.9112 9.71966 16.1606C9.96887 16.4101 10.2823 16.5856 10.6251 16.6679C10.8467 16.7201 11.0975 16.7201 11.389 16.7201H14.5719C14.8634 16.7201 15.1142 16.7201 15.3358 16.6679C15.6785 16.5857 15.9917 16.4104 16.2409 16.1612C16.4901 15.912 16.6655 15.5987 16.7477 15.256C16.7999 15.0344 16.7999 14.7836 16.7999 14.4921V11.308C16.7999 11.0164 16.7999 10.7656 16.7477 10.5441C16.6657 10.2011 16.4904 9.88758 16.2412 9.63815C15.992 9.38871 15.6786 9.21314 15.3358 9.13089C15.1142 9.07996 14.8647 9.07996 14.5719 9.07996H11.4527ZM10.9218 10.3709C10.9765 10.3582 11.0618 10.3531 11.4527 10.3531H14.5082C14.9003 10.3531 14.9844 10.3569 15.0391 10.3709C15.1535 10.3983 15.258 10.4568 15.3412 10.5399C15.4243 10.6231 15.4828 10.7276 15.5102 10.842C15.5229 10.8955 15.5267 10.9795 15.5267 11.3716V14.4272C15.5267 14.8193 15.5216 14.9033 15.5089 14.9581C15.4816 15.0724 15.4231 15.177 15.3399 15.2601C15.2568 15.3433 15.1522 15.4018 15.0378 15.4291C14.9844 15.4419 14.9003 15.4457 14.5082 15.4457H11.4527C11.0605 15.4457 10.9765 15.4406 10.9218 15.4278C10.8074 15.4005 10.7029 15.342 10.6197 15.2589C10.5366 15.1757 10.4781 15.0712 10.4507 14.9568C10.4393 14.9046 10.4342 14.8206 10.4342 14.4272V11.3716C10.4342 10.9795 10.438 10.8955 10.452 10.8407C10.4793 10.7264 10.5378 10.6218 10.621 10.5386C10.7041 10.4555 10.8087 10.397 10.923 10.3697L10.9218 10.3709Z" fill="#ABC73E"/>
<path d="M3.00744 6.54936C2.98293 6.66195 1.8588 7.30221 1.29979 7.60826C0.61422 7.371 0.305821 6.61973 0.237318 6.27375V4.8114C0.239243 4.51395 0.241937 3.55808 0.237318 2.11425C0.232699 0.670412 1.394 0.217754 1.97523 0.171904H2.98564C3.67079 0.173829 5.23279 0.176523 5.99955 0.171904C6.7663 0.167285 7.38841 0.708214 7.59049 1.0027C7.6413 1.23365 6.9503 2.25823 6.61157 2.71821V2.33722C6.69009 1.55199 6.01155 1.4205 5.66247 1.45291C4.82848 1.45055 2.99795 1.44725 2.34772 1.45291C1.6975 1.45856 1.52922 1.89616 1.52636 2.11425V5.66807C1.52636 6.36334 1.94663 6.54529 2.15676 6.54936H3.00744Z" fill="#869B34"/>
<path d="M3.00744 15.4537C2.98293 15.5662 1.8588 16.2065 1.29979 16.5126C0.61422 16.2753 0.305821 15.524 0.237318 15.1781V13.7157C0.239243 13.4182 0.241937 12.4624 0.237318 11.0185C0.232699 9.57471 1.394 9.12205 1.97523 9.0762H2.98564C3.67079 9.07813 5.23279 9.08082 5.99955 9.0762C6.7663 9.07158 7.38841 9.61251 7.59049 9.907C7.6413 10.1379 6.9503 11.1625 6.61157 11.6225V11.2415C6.69009 10.4563 6.01155 10.3248 5.66247 10.3572C4.82848 10.3548 2.99795 10.3516 2.34772 10.3572C1.6975 10.3629 1.52922 10.8005 1.52636 11.0185V14.5724C1.52636 15.2676 1.94663 15.4496 2.15676 15.4537H3.00744Z" fill="#869B34"/>
<path d="M1.52433 13.9746C1.4114 14.0013 0.769045 15.0902 0.472596 15.65C0.726356 16.3232 1.46044 16.6889 1.81054 16.7491L3.28416 16.7172C3.58386 16.7088 4.58572 16.744 6.04077 16.7171C7.49583 16.6902 7.88843 15.4727 7.92219 14.8966L7.92219 13.8708C7.92219 13.1933 7.93201 11.6485 7.92026 10.8898C7.9085 10.131 7.60053 9.7565 7.29945 9.56298C7.06564 9.51774 5.75708 9.96871 5.3008 10.3139C5.45074 10.3106 5.55173 10.3171 5.70166 10.3139C6.49126 10.2191 6.5776 10.9301 6.55242 11.2762C6.57264 12.1014 6.60131 13.8978 6.60953 14.5412C6.61775 15.1847 6.19421 15.3755 5.9745 15.383C5.0727 15.4025 3.41002 15.3625 2.71235 15.4286C2.17217 15.4798 1.56202 15.0714 1.55342 14.8635L1.52433 13.9746Z" fill="#869B34"/>
<path d="M11.8546 6.54546C11.8301 6.65804 10.706 7.2983 10.147 7.60435C9.46139 7.36709 9.15299 6.61582 9.08449 6.26985V4.8075C9.08641 4.51004 9.08911 3.55417 9.08449 2.11034C9.07987 0.666506 10.2412 0.213848 10.8224 0.167998H11.8328C12.518 0.169923 14.08 0.172617 14.8467 0.167998C15.6135 0.163379 16.2356 0.704307 16.4377 0.998794C16.4885 1.22975 15.7975 2.25433 15.4587 2.71431V2.33332C15.5373 1.54808 14.8587 1.41659 14.5096 1.449C13.6757 1.44665 11.8451 1.44335 11.1949 1.449C10.5447 1.45466 10.3764 1.89225 10.3735 2.11034V5.66416C10.3735 6.35943 10.7938 6.54139 11.0039 6.54546H11.8546Z" fill="#869B34"/>
<path d="M13.9168 9.08178C14.0099 9.10872 13.3739 9.99651 13.0714 10.3692C12.7821 10.3692 11.9641 10.4022 11.2275 10.4022C10.4909 10.4022 10.4032 10.9107 10.4514 11.165V13.3354L9.1709 14.4548C9.14898 13.7795 9.12343 12.0774 9.17604 10.7936C9.22866 9.50977 10.3612 9.10709 10.9049 9.09394C11.0365 9.02811 13.8032 9.04888 13.9168 9.08178Z" fill="#ABC73E"/>
</svg>
