<svg width="13" height="17" viewBox="0 0 13 17" fill="none" xmlns="http://www.w3.org/2000/svg">
<path d="M11.7172 6.20363H10.4513V5.24475C10.4183 3.70347 9.57711 2.29313 8.23648 1.53189C6.89599 0.770619 5.25379 0.770619 3.91317 1.53189C2.57268 2.29316 1.73138 3.70347 1.69835 5.24475V6.20378L0.43245 6.20364C0.210925 6.20364 0.03125 6.38332 0.03125 6.60484V15.8333C0.03125 15.9396 0.0735124 16.0418 0.148798 16.1169C0.223947 16.1922 0.326101 16.2345 0.432457 16.2345H11.7172C11.8237 16.2345 11.9257 16.1922 12.001 16.1169C12.0761 16.0418 12.1184 15.9396 12.1184 15.8333V6.60484C12.1184 6.49848 12.0761 6.39647 12.001 6.32118C11.9257 6.24589 11.8237 6.20363 11.7172 6.20363ZM6.21633 12.7137C5.82717 12.7147 5.45352 12.561 5.1777 12.2864C4.90188 12.0119 4.74655 11.6389 4.74584 11.2497C4.74514 10.8606 4.89907 10.4871 5.17391 10.2115C5.44874 9.93602 5.82183 9.78093 6.21099 9.78054C6.60015 9.78026 6.97352 9.93461 7.24879 10.2096C7.52406 10.4847 7.67883 10.858 7.67883 11.2471C7.67883 11.6353 7.5249 12.0078 7.25077 12.2827C6.97648 12.5575 6.60453 12.7126 6.21633 12.7137ZM8.84636 6.20363H3.30143V5.24475C3.3276 4.27229 3.86147 3.38467 4.70826 2.9058C5.55504 2.42708 6.59088 2.42708 7.43766 2.9058C8.28445 3.38467 8.81831 4.27233 8.84449 5.24475V6.20378L8.84636 6.20363Z" fill="#779500"/>
</svg>
