<svg width="24" height="18" viewBox="0 0 24 18" fill="none" xmlns="http://www.w3.org/2000/svg">
<path d="M17.846 12.5619L22.4661 8.71183M22.4661 8.71183L17.846 4.86178M22.4661 8.71183H6.29585M13.226 12.5619V13.5244C13.226 14.2902 12.8609 15.0247 12.2111 15.5662C11.5612 16.1077 10.6799 16.4119 9.7609 16.4119H5.14083C4.22184 16.4119 3.34049 16.1077 2.69067 15.5662C2.04085 15.0247 1.67578 14.2902 1.67578 13.5244V3.89926C1.67578 3.13344 2.04085 2.39898 2.69067 1.85746C3.34049 1.31594 4.22184 1.01172 5.14083 1.01172H9.7609C10.6799 1.01172 11.5612 1.31594 12.2111 1.85746C12.8609 2.39898 13.226 3.13344 13.226 3.89926V4.86178" stroke="#707276" stroke-width="1.54002" stroke-linecap="round" stroke-linejoin="round"/>
</svg>
