<svg width="16" height="16" viewBox="0 0 16 16" fill="none" xmlns="http://www.w3.org/2000/svg">
<path fill-rule="evenodd" clip-rule="evenodd" d="M8.40073 15.1582C10.4884 15.1582 12.3491 14.3185 13.7109 12.957C15.0724 11.5954 15.9121 9.73473 15.9121 7.66959C15.9121 5.58192 15.0724 3.72118 13.7109 2.35941C12.3494 0.997652 10.4886 0.158203 8.40073 0.158203C6.33574 0.158203 4.47481 0.997867 3.11332 2.35941C1.75177 3.72096 0.912109 5.58168 0.912109 7.66959C0.912109 9.73457 1.75177 11.5955 3.11332 12.957C4.47487 14.3185 6.33558 15.1582 8.40073 15.1582ZM11.4189 7.66959L7.72011 11.3459L6.74433 10.3928L9.49008 7.6698L6.74433 4.92405L7.72011 3.97097L11.4189 7.66959Z" fill="white"/>
</svg>
