<svg width="17" height="18" viewBox="0 0 17 18" fill="none" xmlns="http://www.w3.org/2000/svg">
<path d="M1.08545 3.12891H4.41878M16.0854 3.12891H7.75212M1.08545 8.96224H11.0854M16.0854 8.96224H14.4188M1.08545 14.7956H2.75212M16.0854 14.7956H6.08545" stroke="#954386" stroke-width="1.54002" stroke-linecap="round"/>
<path d="M6.08512 4.79427C7.0056 4.79427 7.75179 4.04808 7.75179 3.1276C7.75179 2.20713 7.0056 1.46094 6.08512 1.46094C5.16465 1.46094 4.41846 2.20713 4.41846 3.1276C4.41846 4.04808 5.16465 4.79427 6.08512 4.79427Z" stroke="#ABC73E" stroke-width="1.54002" stroke-linecap="round"/>
<path d="M12.7521 10.6263C13.6726 10.6263 14.4188 9.88011 14.4188 8.95964C14.4188 8.03916 13.6726 7.29297 12.7521 7.29297C11.8316 7.29297 11.0854 8.03916 11.0854 8.95964C11.0854 9.88011 11.8316 10.6263 12.7521 10.6263Z" stroke="#ABC73E" stroke-width="1.54002" stroke-linecap="round"/>
<path d="M4.41862 16.4622C5.33909 16.4622 6.08529 15.716 6.08529 14.7956C6.08529 13.8751 5.33909 13.1289 4.41862 13.1289C3.49815 13.1289 2.75195 13.8751 2.75195 14.7956C2.75195 15.716 3.49815 16.4622 4.41862 16.4622Z" stroke="#ABC73E" stroke-width="1.54002" stroke-linecap="round"/>
</svg>
