<svg width="62" height="63" viewBox="0 0 62 63" fill="none" xmlns="http://www.w3.org/2000/svg">
<g filter="url(#filter0_d_109_12911)">
<path d="M31 43.6191C39.2843 43.6191 46 36.9034 46 28.6191C46 20.3349 39.2843 13.6191 31 13.6191C22.7157 13.6191 16 20.3349 16 28.6191C16 36.9034 22.7157 43.6191 31 43.6191Z" fill="#FFFDF3"/>
<path d="M31 43.1191C39.0081 43.1191 45.5 36.6273 45.5 28.6191C45.5 20.611 39.0081 14.1191 31 14.1191C22.9919 14.1191 16.5 20.611 16.5 28.6191C16.5 36.6273 22.9919 43.1191 31 43.1191Z" stroke="#F3EAF2"/>
</g>
<path fill-rule="evenodd" clip-rule="evenodd" d="M30.9999 31.1677C30.6219 31.1677 30.2525 31.0556 29.9382 30.8457C29.6239 30.6357 29.379 30.3372 29.2343 29.988C29.0897 29.6388 29.0519 29.2546 29.1256 28.8839C29.1993 28.5132 29.3813 28.1727 29.6486 27.9054C29.9159 27.6382 30.2564 27.4562 30.6271 27.3824C30.9978 27.3087 31.382 27.3465 31.7312 27.4912C32.0804 27.6358 32.3788 27.8808 32.5888 28.195C32.7988 28.5093 32.9109 28.8788 32.9109 29.2567C32.9109 29.7635 32.7095 30.2496 32.3512 30.608C31.9928 30.9664 31.5067 31.1677 30.9999 31.1677ZM36.0999 24.1607C36.4367 24.1628 36.7592 24.2979 36.997 24.5364C37.2348 24.775 37.3688 25.0978 37.3699 25.4347V33.0787C37.3688 33.4163 37.2343 33.7397 36.9956 33.9784C36.7569 34.2171 36.4334 34.3517 36.0959 34.3527H25.9039C25.5663 34.3517 25.2429 34.2171 25.0042 33.9784C24.7655 33.7397 24.6309 33.4163 24.6299 33.0787V25.4347C24.6309 25.0972 24.7655 24.7737 25.0042 24.535C25.2429 24.2963 25.5663 24.1618 25.9039 24.1607H27.9229L28.7059 23.3007C28.8263 23.1707 28.9721 23.0669 29.1343 22.9957C29.2966 22.9245 29.4717 22.8874 29.6489 22.8867H32.3489C32.5251 22.8869 32.6993 22.9238 32.8605 22.9951C33.0217 23.0664 33.1662 23.1705 33.2849 23.3007L34.0749 24.1607H36.0999ZM30.9999 32.4417C31.6298 32.4417 32.2456 32.2549 32.7694 31.9049C33.2931 31.555 33.7014 31.0575 33.9424 30.4756C34.1835 29.8936 34.2466 29.2532 34.1237 28.6354C34.0008 28.0175 33.6974 27.45 33.252 27.0046C32.8066 26.5592 32.2391 26.2558 31.6212 26.1329C31.0034 26.01 30.363 26.0731 29.781 26.3142C29.1991 26.5552 28.7016 26.9635 28.3517 27.4872C28.0017 28.011 27.8149 28.6268 27.8149 29.2567C27.8151 30.1014 28.1508 30.9113 28.748 31.5086C29.3453 32.1058 30.1552 32.4415 30.9999 32.4417Z" fill="#869B34"/>
<defs>
<filter id="filter0_d_109_12911" x="0" y="0.619141" width="62" height="62" filterUnits="userSpaceOnUse" color-interpolation-filters="sRGB">
<feFlood flood-opacity="0" result="BackgroundImageFix"/>
<feColorMatrix in="SourceAlpha" type="matrix" values="0 0 0 0 0 0 0 0 0 0 0 0 0 0 0 0 0 0 127 0" result="hardAlpha"/>
<feOffset dy="3"/>
<feGaussianBlur stdDeviation="8"/>
<feColorMatrix type="matrix" values="0 0 0 0 0.47451 0 0 0 0 0.14902 0 0 0 0 0.415686 0 0 0 0.102 0"/>
<feBlend mode="normal" in2="BackgroundImageFix" result="effect1_dropShadow_109_12911"/>
<feBlend mode="normal" in="SourceGraphic" in2="effect1_dropShadow_109_12911" result="shape"/>
</filter>
</defs>
</svg>
