<svg width="41" height="41" viewBox="0 0 41 41" fill="none" xmlns="http://www.w3.org/2000/svg">
<rect x="0.626953" y="0.595947" width="40" height="40" rx="10" fill="#ABC73E"/>
<path d="M16.7418 27.2046H12.9636C12.9047 27.2048 12.8482 27.2283 12.8065 27.2699C12.7649 27.3116 12.7414 27.368 12.7412 27.427V28.9827C12.7414 29.0417 12.7649 29.0981 12.8065 29.1398C12.8482 29.1814 12.9047 29.2049 12.9636 29.2051H16.7418C16.8007 29.2049 16.8572 29.1814 16.8988 29.1398C16.9405 29.0981 16.964 29.0417 16.9642 28.9827V27.427C16.964 27.368 16.9405 27.3116 16.8988 27.2699C16.8572 27.2283 16.8007 27.2048 16.7418 27.2046ZM16.5194 28.7603H13.1857V27.65H16.5194V28.7603Z" fill="#772569"/>
<path d="M21.6316 12.7584H27.8555C27.9145 12.7584 27.971 12.7349 28.0128 12.6932C28.0545 12.6515 28.0779 12.595 28.0779 12.536C28.0779 12.477 28.0545 12.4204 28.0128 12.3787C27.971 12.337 27.9145 12.3136 27.8555 12.3136H21.6316C21.5726 12.3136 21.516 12.337 21.4743 12.3787C21.4326 12.4204 21.4092 12.477 21.4092 12.536C21.4092 12.595 21.4326 12.6515 21.4743 12.6932C21.516 12.7349 21.5726 12.7584 21.6316 12.7584Z" fill="#772569"/>
<path d="M21.6309 14.3138H27.8548C27.8846 14.3147 27.9143 14.3097 27.9421 14.299C27.9699 14.2882 27.9952 14.272 28.0166 14.2513C28.038 14.2305 28.0551 14.2057 28.0667 14.1783C28.0783 14.1508 28.0843 14.1213 28.0843 14.0915C28.0843 14.0617 28.0783 14.0322 28.0667 14.0048C28.0551 13.9773 28.038 13.9525 28.0166 13.9318C27.9952 13.911 27.9699 13.8948 27.9421 13.8841C27.9143 13.8733 27.8846 13.8683 27.8548 13.8693H21.6309C21.6011 13.8683 21.5714 13.8733 21.5436 13.8841C21.5158 13.8948 21.4904 13.911 21.469 13.9318C21.4476 13.9525 21.4306 13.9773 21.419 14.0048C21.4074 14.0322 21.4014 14.0617 21.4014 14.0915C21.4014 14.1213 21.4074 14.1508 21.419 14.1783C21.4306 14.2057 21.4476 14.2305 21.469 14.2513C21.4904 14.272 21.5158 14.2882 21.5436 14.299C21.5714 14.3097 21.6011 14.3147 21.6309 14.3138Z" fill="#772569"/>
<path d="M21.6309 15.8697H27.8548C27.8846 15.8707 27.9143 15.8656 27.9421 15.8549C27.9699 15.8441 27.9952 15.8279 28.0166 15.8072C28.038 15.7864 28.0551 15.7616 28.0667 15.7342C28.0783 15.7067 28.0843 15.6772 28.0843 15.6474C28.0843 15.6176 28.0783 15.5881 28.0667 15.5607C28.0551 15.5332 28.038 15.5084 28.0166 15.4877C27.9952 15.467 27.9699 15.4507 27.9421 15.44C27.9143 15.4293 27.8846 15.4242 27.8548 15.4252H21.6309C21.6011 15.4242 21.5714 15.4293 21.5436 15.44C21.5158 15.4507 21.4904 15.467 21.469 15.4877C21.4476 15.5084 21.4306 15.5332 21.419 15.5607C21.4074 15.5881 21.4014 15.6176 21.4014 15.6474C21.4014 15.6772 21.4074 15.7067 21.419 15.7342C21.4306 15.7616 21.4476 15.7864 21.469 15.8072C21.4904 15.8279 21.5158 15.8441 21.5436 15.8549C21.5714 15.8656 21.6011 15.8707 21.6309 15.8697Z" fill="#772569"/>
<path d="M18.0749 17.4257H27.854C27.913 17.4257 27.9696 17.4023 28.0113 17.3606C28.053 17.3189 28.0764 17.2623 28.0764 17.2033C28.0764 17.1444 28.053 17.0878 28.0113 17.0461C27.9696 17.0044 27.913 16.981 27.854 16.981H18.0749C18.0159 16.981 17.9594 17.0044 17.9177 17.0461C17.876 17.0878 17.8525 17.1444 17.8525 17.2033C17.8525 17.2623 17.876 17.3189 17.9177 17.3606C17.9594 17.4023 18.0159 17.4257 18.0749 17.4257Z" fill="#772569"/>
<path d="M18.0749 18.9811H27.854C27.8838 18.9821 27.9135 18.9771 27.9413 18.9663C27.9691 18.9556 27.9944 18.9394 28.0158 18.9186C28.0372 18.8979 28.0543 18.8731 28.0659 18.8456C28.0775 18.8182 28.0835 18.7887 28.0835 18.7589C28.0835 18.7291 28.0775 18.6996 28.0659 18.6721C28.0543 18.6447 28.0372 18.6199 28.0158 18.5991C27.9944 18.5784 27.9691 18.5622 27.9413 18.5514C27.9135 18.5407 27.8838 18.5357 27.854 18.5366H18.0749C18.0159 18.5366 17.9594 18.56 17.9177 18.6017C17.876 18.6435 17.8525 18.7 17.8525 18.759C17.8525 18.818 17.876 18.8745 17.9177 18.9162C17.9594 18.9579 18.0159 18.9814 18.0749 18.9814V18.9811Z" fill="#772569"/>
<path d="M18.0749 20.5372H27.854C27.913 20.5372 27.9696 20.5137 28.0113 20.472C28.053 20.4303 28.0764 20.3738 28.0764 20.3148C28.0764 20.2558 28.053 20.1992 28.0113 20.1575C27.9696 20.1158 27.913 20.0924 27.854 20.0924H18.0749C18.0159 20.0924 17.9594 20.1158 17.9177 20.1575C17.876 20.1992 17.8525 20.2558 17.8525 20.3148C17.8525 20.3738 17.876 20.4303 17.9177 20.472C17.9594 20.5137 18.0159 20.5372 18.0749 20.5372Z" fill="#772569"/>
<path d="M18.0749 22.0928H27.854C27.913 22.0928 27.9696 22.0694 28.0113 22.0277C28.053 21.986 28.0764 21.9294 28.0764 21.8705C28.0764 21.8115 28.053 21.7549 28.0113 21.7132C27.9696 21.6715 27.913 21.6481 27.854 21.6481H18.0749C18.0159 21.6481 17.9594 21.6715 17.9177 21.7132C17.876 21.7549 17.8525 21.8115 17.8525 21.8705C17.8525 21.9294 17.876 21.986 17.9177 22.0277C17.9594 22.0694 18.0159 22.0928 18.0749 22.0928Z" fill="#772569"/>
<path d="M18.0749 23.6489H24.7425C24.8015 23.6489 24.858 23.6254 24.8997 23.5837C24.9414 23.542 24.9649 23.4855 24.9649 23.4265C24.9649 23.3675 24.9414 23.3109 24.8997 23.2692C24.858 23.2275 24.8015 23.2041 24.7425 23.2041H18.0749C18.0159 23.2041 17.9594 23.2275 17.9177 23.2692C17.876 23.3109 17.8525 23.3675 17.8525 23.4265C17.8525 23.4855 17.876 23.542 17.9177 23.5837C17.9594 23.6254 18.0159 23.6489 18.0749 23.6489Z" fill="#772569"/>
<path d="M24.9649 24.982C24.9648 24.9231 24.9414 24.8667 24.8997 24.825C24.8581 24.7833 24.8017 24.7598 24.7428 24.7596H18.0752C18.0454 24.7587 18.0157 24.7637 17.9879 24.7745C17.9601 24.7852 17.9348 24.8014 17.9134 24.8222C17.892 24.8429 17.8749 24.8677 17.8633 24.8952C17.8517 24.9226 17.8457 24.9521 17.8457 24.9819C17.8457 25.0117 17.8517 25.0412 17.8633 25.0686C17.8749 25.0961 17.892 25.1209 17.9134 25.1416C17.9348 25.1624 17.9601 25.1786 17.9879 25.1893C18.0157 25.2001 18.0454 25.2051 18.0752 25.2042H24.7428C24.8016 25.204 24.858 25.1805 24.8997 25.1389C24.9413 25.0973 24.9647 25.0409 24.9649 24.982Z" fill="#772569"/>
<path d="M18.0747 15.8696H20.075C20.1339 15.8695 20.1904 15.8461 20.232 15.8044C20.2737 15.7628 20.2972 15.7064 20.2974 15.6475V12.5355C20.2972 12.4766 20.2737 12.4201 20.232 12.3784C20.1904 12.3368 20.1339 12.3133 20.075 12.3131H18.0747C18.0158 12.3133 17.9594 12.3369 17.9178 12.3785C17.8762 12.4202 17.8527 12.4766 17.8525 12.5355V15.6475C17.8527 15.7063 17.8762 15.7627 17.9178 15.8044C17.9594 15.846 18.0158 15.8694 18.0747 15.8696ZM18.2971 12.7576H19.8528V15.4246H18.2971V12.7576Z" fill="#772569"/>
<path d="M30.077 28.7605H29.8546V27.4271H30.077C30.2347 27.4281 30.3877 27.3731 30.5086 27.2718C30.6295 27.1705 30.7106 27.0296 30.7373 26.8741C30.764 26.7186 30.7346 26.5587 30.6544 26.4229C30.5742 26.287 30.4484 26.1841 30.2993 26.1324V10.5369C30.2991 10.478 30.2756 10.4216 30.2339 10.3799C30.1923 10.3383 30.1358 10.3149 30.077 10.3147H15.4082C15.3493 10.3149 15.2929 10.3383 15.2512 10.3799C15.2096 10.4216 15.1861 10.478 15.1858 10.5369V15.1026C14.4545 13.9209 13.4117 12.9634 12.172 12.3354C12.1457 12.3226 12.1172 12.315 12.088 12.3132C12.0588 12.3113 12.0295 12.3153 12.0019 12.3248C11.9742 12.3343 11.9487 12.3491 11.9268 12.3685C11.9049 12.3879 11.887 12.4114 11.8742 12.4376C11.1191 14.1822 10.7332 16.064 10.7407 17.9649C10.7407 19.3028 11.3767 20.668 12.5806 21.9124C13.0462 22.3918 13.5585 22.8237 14.1098 23.2014H13.074C12.8383 23.2008 12.6101 23.2836 12.4296 23.4352C12.2492 23.5868 12.1283 23.7974 12.0884 24.0297C12.0485 24.2619 12.0921 24.5008 12.2115 24.704C12.3309 24.9071 12.5184 25.0614 12.7408 25.1395V25.8696H12.5184C12.047 25.8702 11.595 26.0577 11.2617 26.391C10.9284 26.7244 10.7408 27.1763 10.7402 27.6477V29.8704C10.7406 29.9881 10.7875 30.1009 10.8708 30.1842C10.954 30.2674 11.0668 30.3143 11.1846 30.3147H18.519C18.6368 30.3143 18.7496 30.2674 18.8329 30.1842C18.9162 30.1009 18.9632 29.9881 18.9636 29.8704V28.7592H20.8573C20.9956 29.1488 21.251 29.4861 21.5886 29.7249C21.9261 29.9637 22.3293 30.0922 22.7427 30.0928H30.0772C30.254 30.0928 30.4236 30.0225 30.5487 29.8975C30.6737 29.7724 30.744 29.6028 30.744 29.426C30.744 29.2491 30.6737 29.0795 30.5487 28.9545C30.4236 28.8294 30.254 28.7592 30.0772 28.7592L30.077 28.7605ZM29.41 27.8717H23.4119C23.3529 27.8717 23.2963 27.8951 23.2546 27.9368C23.2129 27.9785 23.1895 28.0351 23.1895 28.0941C23.1895 28.153 23.2129 28.2096 23.2546 28.2513C23.2963 28.293 23.3529 28.3164 23.4119 28.3164H29.4103V28.7608H22.9648C22.7901 28.7575 22.6237 28.6859 22.5012 28.5612C22.3788 28.4365 22.3102 28.2687 22.3102 28.0939C22.3102 27.9192 22.3788 27.7514 22.5012 27.6267C22.6237 27.502 22.7901 27.4304 22.9648 27.4271H29.41V27.8717ZM15.8216 17.5613L15.0527 18.1369C15.0196 18.1624 14.9944 18.1967 14.9798 18.2358C14.9652 18.275 14.9619 18.3174 14.9702 18.3584C14.9785 18.3993 14.9982 18.4371 15.0269 18.4675C15.0556 18.4978 15.0923 18.5195 15.1327 18.5301L15.853 18.7102C15.8218 21.1634 15.1529 22.2751 14.7417 22.7287C14.7149 19.4748 14.0171 16.3765 12.557 13.065C14.804 14.4829 15.6442 16.9523 15.8221 17.5613H15.8216ZM11.1852 17.9677C11.192 16.3025 11.4961 14.6519 12.0832 13.0937C13.5701 16.423 14.279 19.5277 14.2968 22.7883C13.4302 22.1793 11.1848 20.37 11.1848 17.9654L11.1852 17.9677ZM12.5188 24.2043C12.519 24.057 12.5775 23.9158 12.6817 23.8116C12.7859 23.7074 12.9271 23.6488 13.0744 23.6487H16.6305C16.7779 23.6487 16.9192 23.7073 17.0234 23.8114C17.1276 23.9156 17.1861 24.057 17.1861 24.2043C17.1861 24.3517 17.1276 24.493 17.0234 24.5972C16.9192 24.7014 16.7779 24.7599 16.6305 24.7599H13.0747C12.9273 24.7599 12.7859 24.7013 12.6817 24.5971C12.5775 24.4928 12.5189 24.3515 12.5188 24.2041V24.2043ZM13.1858 25.2038H16.5187V25.8705H13.1858V25.2038ZM18.5197 29.8711H11.1855V27.6486C11.1858 27.295 11.3264 26.956 11.5764 26.7059C11.8264 26.4559 12.1655 26.3153 12.5191 26.315H17.1866C17.5402 26.3153 17.8792 26.4559 18.1292 26.7059C18.3793 26.956 18.5199 27.295 18.5202 27.6486V29.8711H18.5197ZM18.9643 28.3153V27.6486C18.9637 27.1772 18.7761 26.7253 18.4428 26.3919C18.1095 26.0586 17.6575 25.8711 17.1861 25.8705H16.9637V25.1427C17.1862 25.0647 17.3739 24.9104 17.4935 24.7072C17.613 24.504 17.6567 24.265 17.6168 24.0326C17.5768 23.8003 17.4558 23.5896 17.2753 23.4379C17.0947 23.2863 16.8663 23.2036 16.6305 23.2044H14.8948C15.3719 22.7801 16.2973 21.5689 16.2973 18.5371C16.2974 18.4874 16.2808 18.4391 16.2501 18.4C16.2195 18.3609 16.1766 18.3333 16.1283 18.3216L15.6926 18.2127L16.2082 17.8266C16.2428 17.8006 16.269 17.7651 16.2836 17.7244C16.2982 17.6837 16.3006 17.6396 16.2905 17.5976C16.1344 17.0038 15.9131 16.429 15.6304 15.884V10.7576H29.8548V26.0931H22.7427C22.2124 26.0939 21.7041 26.3049 21.3291 26.6798C20.9542 27.0548 20.7432 27.5631 20.7424 28.0934C20.7423 28.1677 20.7468 28.242 20.7558 28.3158L18.9643 28.3153ZM30.077 29.6489H22.7427C22.33 29.6489 21.9343 29.485 21.6424 29.1932C21.3506 28.9014 21.1867 28.5056 21.1867 28.0929C21.1867 27.6803 21.3506 27.2845 21.6424 26.9927C21.9343 26.7009 22.33 26.5369 22.7427 26.5369H30.0772C30.1362 26.5369 30.1927 26.5604 30.2344 26.6021C30.2761 26.6438 30.2996 26.7003 30.2996 26.7593C30.2996 26.8183 30.2761 26.8749 30.2344 26.9166C30.1927 26.9583 30.1362 26.9817 30.0772 26.9817H22.9651C22.6704 26.9817 22.3877 27.0988 22.1793 27.3072C21.9709 27.5156 21.8539 27.7982 21.8539 28.0929C21.8539 28.3876 21.9709 28.6703 22.1793 28.8787C22.3877 29.0871 22.6704 29.2042 22.9651 29.2042H30.0772C30.1362 29.2042 30.1927 29.2276 30.2344 29.2693C30.2761 29.311 30.2996 29.3676 30.2996 29.4265C30.2996 29.4855 30.2761 29.5421 30.2344 29.5838C30.1927 29.6255 30.1362 29.6489 30.0772 29.6489H30.077Z" fill="#772569"/>
</svg>
