<svg width="41" height="41" viewBox="0 0 41 41" fill="none" xmlns="http://www.w3.org/2000/svg">
<rect x="0.626953" y="0.595947" width="40" height="40" rx="10" fill="#ABC73E"/>
<path d="M19.0877 19.7153H11.7555C11.6242 19.7154 11.4942 19.6895 11.3729 19.6393C11.2516 19.589 11.1413 19.5154 11.0485 19.4225C10.9557 19.3297 10.882 19.2194 10.8318 19.0981C10.7816 18.9768 10.7558 18.8468 10.7559 18.7155V11.3819C10.7558 11.2506 10.7816 11.1206 10.8318 10.9993C10.882 10.878 10.9557 10.7677 11.0485 10.6749C11.1413 10.582 11.2516 10.5084 11.3729 10.4581C11.4942 10.4079 11.6242 10.3821 11.7555 10.3821H19.0877C19.353 10.3824 19.6074 10.488 19.795 10.6756C19.9826 10.8632 20.0881 11.1175 20.0885 11.3828V18.7163C20.0879 18.9816 19.9822 19.2357 19.7945 19.4232C19.6069 19.6106 19.3525 19.716 19.0873 19.7162L19.0877 19.7153ZM11.7555 11.0495C11.6671 11.0495 11.5823 11.0846 11.5197 11.1471C11.4571 11.2096 11.4219 11.2944 11.4217 11.3828V18.7163C11.4219 18.8048 11.4571 18.8895 11.5197 18.952C11.5823 19.0145 11.6671 19.0496 11.7555 19.0497H19.0877C19.1762 19.0496 19.261 19.0145 19.3236 18.952C19.3861 18.8895 19.4214 18.8048 19.4215 18.7163V11.3828C19.4214 11.2944 19.3861 11.2096 19.3236 11.1471C19.261 11.0846 19.1762 11.0495 19.0877 11.0495H11.7555Z" fill="#772569"/>
<path d="M19.0877 30.3812H11.7555C11.6242 30.3813 11.4942 30.3554 11.3729 30.3052C11.2516 30.2549 11.1413 30.1813 11.0485 30.0884C10.9557 29.9956 10.882 29.8853 10.8318 29.764C10.7816 29.6427 10.7558 29.5127 10.7559 29.3814V22.0478C10.7558 21.9165 10.7816 21.7865 10.8318 21.6652C10.882 21.5439 10.9557 21.4336 11.0485 21.3408C11.1413 21.2479 11.2516 21.1743 11.3729 21.124C11.4942 21.0738 11.6242 21.0479 11.7555 21.048H19.0877C19.353 21.0483 19.6074 21.1539 19.795 21.3415C19.9826 21.5291 20.0881 21.7834 20.0885 22.0487V29.3822C20.0878 29.6474 19.9821 29.9016 19.7944 30.089C19.6068 30.2764 19.3525 30.3818 19.0873 30.3821L19.0877 30.3812ZM11.7555 21.7151C11.6671 21.7152 11.5823 21.7503 11.5197 21.8128C11.4571 21.8753 11.4219 21.9601 11.4217 22.0485V29.382C11.4219 29.4704 11.4571 29.5552 11.5197 29.6177C11.5823 29.6802 11.6671 29.7153 11.7555 29.7154H19.0877C19.1762 29.7153 19.261 29.6802 19.3236 29.6177C19.3861 29.5552 19.4214 29.4704 19.4215 29.382V22.0485C19.4214 21.9601 19.3861 21.8753 19.3236 21.8128C19.261 21.7503 19.1762 21.7152 19.0877 21.7151H11.7555Z" fill="#772569"/>
<path d="M29.7535 30.3812H22.4213C22.29 30.3812 22.16 30.3554 22.0387 30.3051C21.9174 30.2549 21.8073 30.1812 21.7144 30.0883C21.6216 29.9955 21.548 29.8853 21.4978 29.764C21.4476 29.6427 21.4218 29.5126 21.4219 29.3814V22.0478C21.4218 21.9166 21.4476 21.7865 21.4978 21.6652C21.548 21.5439 21.6216 21.4337 21.7144 21.3409C21.8073 21.248 21.9174 21.1743 22.0387 21.1241C22.16 21.0738 22.29 21.048 22.4213 21.048H29.7535C29.8848 21.0479 30.0148 21.0738 30.1362 21.124C30.2575 21.1743 30.3677 21.2479 30.4605 21.3408C30.5533 21.4336 30.627 21.5439 30.6772 21.6652C30.7274 21.7865 30.7532 21.9165 30.7532 22.0478V29.3814C30.7532 29.5127 30.7274 29.6427 30.6772 29.764C30.627 29.8853 30.5533 29.9956 30.4605 30.0884C30.3677 30.1813 30.2575 30.2549 30.1362 30.3052C30.0148 30.3554 29.8848 30.3813 29.7535 30.3812ZM22.4213 21.7151C22.3775 21.715 22.3341 21.7236 22.2936 21.7403C22.253 21.757 22.2162 21.7816 22.1852 21.8126C22.1542 21.8435 22.1296 21.8803 22.1129 21.9208C22.0961 21.9613 22.0875 22.0047 22.0875 22.0485V29.382C22.0877 29.4704 22.1229 29.5552 22.1855 29.6177C22.2481 29.6802 22.3329 29.7153 22.4213 29.7154H29.7535C29.8419 29.7153 29.9268 29.6802 29.9893 29.6177C30.0519 29.5552 30.0872 29.4704 30.0873 29.382V22.0485C30.0872 21.9601 30.0519 21.8753 29.9893 21.8128C29.9268 21.7503 29.8419 21.7152 29.7535 21.7151H22.4213Z" fill="#772569"/>
<path d="M29.7535 19.7153H22.4213C22.29 19.7153 22.16 19.6895 22.0387 19.6392C21.9174 19.589 21.8073 19.5153 21.7144 19.4225C21.6216 19.3296 21.548 19.2194 21.4978 19.0981C21.4476 18.9768 21.4218 18.8468 21.4219 18.7155V11.3819C21.4218 11.2507 21.4476 11.1207 21.4978 10.9993C21.548 10.878 21.6216 10.7678 21.7144 10.675C21.8073 10.5821 21.9174 10.5085 22.0387 10.4582C22.16 10.4079 22.29 10.3821 22.4213 10.3821H29.7535C29.8848 10.3821 30.0148 10.4079 30.1362 10.4581C30.2575 10.5084 30.3677 10.582 30.4605 10.6749C30.5533 10.7677 30.627 10.878 30.6772 10.9993C30.7274 11.1206 30.7532 11.2506 30.7532 11.3819V18.7155C30.7532 18.8468 30.7274 18.9768 30.6772 19.0981C30.627 19.2194 30.5533 19.3297 30.4605 19.4225C30.3677 19.5154 30.2575 19.589 30.1362 19.6393C30.0148 19.6895 29.8848 19.7154 29.7535 19.7153ZM22.4213 11.0495C22.3775 11.0494 22.3341 11.0579 22.2936 11.0746C22.253 11.0914 22.2162 11.1159 22.1852 11.1469C22.1542 11.1778 22.1296 11.2146 22.1129 11.2551C22.0961 11.2956 22.0875 11.339 22.0875 11.3828V18.7163C22.0877 18.8048 22.1229 18.8895 22.1855 18.952C22.2481 19.0145 22.3329 19.0496 22.4213 19.0497H29.7535C29.8419 19.0496 29.9268 19.0145 29.9893 18.952C30.0519 18.8895 30.0872 18.8048 30.0873 18.7163V11.3828C30.0872 11.2944 30.0519 11.2096 29.9893 11.1471C29.9268 11.0846 29.8419 11.0495 29.7535 11.0495H22.4213Z" fill="#772569"/>
<path d="M28.4205 15.3826H23.755C23.7105 15.3837 23.6662 15.3759 23.6248 15.3597C23.5834 15.3434 23.5456 15.3191 23.5138 15.288C23.4819 15.257 23.4566 15.2198 23.4393 15.1788C23.422 15.1378 23.4131 15.0938 23.4131 15.0493C23.4131 15.0048 23.422 14.9608 23.4393 14.9198C23.4566 14.8788 23.4819 14.8417 23.5138 14.8106C23.5456 14.7795 23.5834 14.7552 23.6248 14.7389C23.6662 14.7227 23.7105 14.7149 23.755 14.7161H28.4205C28.465 14.7149 28.5092 14.7227 28.5506 14.7389C28.5921 14.7552 28.6298 14.7795 28.6617 14.8106C28.6935 14.8417 28.7189 14.8788 28.7361 14.9198C28.7534 14.9608 28.7623 15.0048 28.7623 15.0493C28.7623 15.0938 28.7534 15.1378 28.7361 15.1788C28.7189 15.2198 28.6935 15.257 28.6617 15.288C28.6298 15.3191 28.5921 15.3434 28.5506 15.3597C28.5092 15.3759 28.465 15.3837 28.4205 15.3826Z" fill="#772569"/>
<path d="M28.4208 25.0484H23.7552C23.6668 25.0484 23.582 25.0133 23.5195 24.9508C23.457 24.8883 23.4219 24.8035 23.4219 24.7151C23.4219 24.6267 23.457 24.5419 23.5195 24.4794C23.582 24.4168 23.6668 24.3817 23.7552 24.3817H28.4208C28.5092 24.3817 28.594 24.4168 28.6565 24.4794C28.719 24.5419 28.7541 24.6267 28.7541 24.7151C28.7541 24.8035 28.719 24.8883 28.6565 24.9508C28.594 25.0133 28.5092 25.0484 28.4208 25.0484Z" fill="#772569"/>
<path d="M28.4208 27.0483H23.7552C23.6668 27.0483 23.582 27.0132 23.5195 26.9507C23.457 26.8882 23.4219 26.8034 23.4219 26.715C23.4219 26.6265 23.457 26.5417 23.5195 26.4792C23.582 26.4167 23.6668 26.3816 23.7552 26.3816H28.4208C28.5092 26.3816 28.594 26.4167 28.6565 26.4792C28.719 26.5417 28.7541 26.6265 28.7541 26.715C28.7541 26.8034 28.719 26.8882 28.6565 26.9507C28.594 27.0132 28.5092 27.0483 28.4208 27.0483Z" fill="#772569"/>
<path d="M18.088 15.0493C18.0879 15.1377 18.0527 15.2224 17.9901 15.2849C17.9276 15.3474 17.8429 15.3825 17.7545 15.3826H15.7554V17.3824C15.7532 17.4694 15.717 17.5521 15.6547 17.6129C15.5924 17.6736 15.5088 17.7077 15.4217 17.7077C15.3346 17.7077 15.251 17.6736 15.1887 17.6129C15.1263 17.5521 15.0902 17.4694 15.088 17.3824V15.3826H13.0889C13.0444 15.3838 13.0002 15.376 12.9588 15.3597C12.9173 15.3435 12.8796 15.3191 12.8477 15.2881C12.8159 15.257 12.7906 15.2199 12.7733 15.1789C12.756 15.1379 12.7471 15.0939 12.7471 15.0494C12.7471 15.0049 12.756 14.9608 12.7733 14.9198C12.7906 14.8788 12.8159 14.8417 12.8477 14.8107C12.8796 14.7796 12.9173 14.7552 12.9588 14.739C13.0002 14.7228 13.0444 14.715 13.0889 14.7161H15.088V12.7162C15.0902 12.6291 15.1263 12.5464 15.1887 12.4856C15.251 12.4249 15.3346 12.3909 15.4217 12.3909C15.5088 12.3909 15.5924 12.4249 15.6547 12.4856C15.717 12.5464 15.7532 12.6291 15.7554 12.7162V14.7168H17.7545C17.8429 14.7169 17.9276 14.752 17.9901 14.8145C18.0527 14.877 18.0879 14.9617 18.088 15.0501V15.0493Z" fill="#772569"/>
<path d="M17.3085 27.128C17.3396 27.1591 17.3642 27.196 17.3811 27.2366C17.3979 27.2771 17.4065 27.3206 17.4065 27.3646C17.4065 27.4085 17.3979 27.452 17.3811 27.4926C17.3642 27.5332 17.3396 27.5701 17.3085 27.6011C17.2773 27.6324 17.2402 27.6572 17.1993 27.6741C17.1585 27.6911 17.1148 27.6998 17.0706 27.6998C17.0267 27.6998 16.9833 27.6911 16.9428 27.6742C16.9024 27.6572 16.8657 27.6324 16.8349 27.6011L15.4211 26.1881L14.0071 27.6014C13.9764 27.6326 13.9397 27.6574 13.8993 27.6744C13.8588 27.6913 13.8154 27.7 13.7716 27.7C13.7274 27.7 13.6836 27.6913 13.6427 27.6744C13.6019 27.6574 13.5648 27.6326 13.5336 27.6014C13.5025 27.5703 13.4778 27.5334 13.461 27.4928C13.4442 27.4522 13.4355 27.4087 13.4355 27.3648C13.4355 27.3209 13.4442 27.2774 13.461 27.2368C13.4778 27.1962 13.5025 27.1593 13.5336 27.1282L14.9475 25.715L13.5336 24.3017C13.5025 24.2707 13.4779 24.2338 13.4611 24.1932C13.4442 24.1526 13.4356 24.1091 13.4356 24.0652C13.4356 24.0213 13.4442 23.9778 13.461 23.9372C13.4778 23.8966 13.5024 23.8598 13.5335 23.8287C13.5645 23.7976 13.6014 23.773 13.642 23.7562C13.6825 23.7394 13.726 23.7307 13.7699 23.7307C13.8139 23.7307 13.8574 23.7393 13.8979 23.7561C13.9385 23.7729 13.9754 23.7975 14.0065 23.8286L15.4204 25.2416L16.8343 23.8284C16.8971 23.7657 16.9821 23.7304 17.0708 23.7305C17.1595 23.7305 17.2446 23.7657 17.3073 23.8285C17.37 23.8912 17.4052 23.9763 17.4052 24.065C17.4052 24.1537 17.37 24.2388 17.3072 24.3015L15.8933 25.7148L17.3085 27.128Z" fill="#772569"/>
</svg>
