<svg width="21" height="20" viewBox="0 0 21 20" fill="none" xmlns="http://www.w3.org/2000/svg">
<path d="M1.19147 19.3046C0.81637 18.9296 0.605582 18.421 0.605469 17.8906L0.605469 8.89063C0.605469 8.36019 0.816182 7.85149 1.19126 7.47641C1.56633 7.10134 2.07504 6.89063 2.60547 6.89063H3.60547V19.8906H2.60547C2.07508 19.8905 1.56645 19.6797 1.19147 19.3046ZM20.0195 7.47663C20.3946 7.85161 20.6054 8.36024 20.6055 8.89063V10.8906L20.5175 11.2906L16.6055 19.8906H5.60547V6.32863L10.6055 0.890627H10.8305C11.1475 0.890233 11.4602 0.965232 11.7425 1.10944C12.0249 1.25364 12.269 1.46292 12.4546 1.72C12.6402 1.97709 12.762 2.27462 12.8099 2.58804C12.8579 2.90146 12.8307 3.2218 12.7305 3.52263L11.6055 6.89063H18.6055C19.1359 6.89074 19.6445 7.10153 20.0195 7.47663Z" fill="#ABC73E"/>
</svg>
