<svg version="1.2" xmlns="http://www.w3.org/2000/svg" viewBox="0 0 30 31" width="30" height="31">
	<title>Live_stop-svg</title>
	<style>
		.s0 { fill: #fef9fb } 
		.s1 { fill: none;stroke: #ffffff } 
		.s2 { fill: #ffffff } 
		.s3 { fill: none;stroke: #abc73e;stroke-width: 2;stroke-dasharray: 4 } 
		.s4 { fill: none;stroke: #779500;stroke-width: 2 } 
	</style>
	<g id="Layer">
		<path id="Layer" class="s0" d="m15.2 25.1c5.2 0 9.5-4.3 9.5-9.5 0-5.2-4.3-9.5-9.5-9.5-5.3 0-9.5 4.3-9.5 9.5 0 5.2 4.2 9.5 9.5 9.5z"/>
		<path id="Layer" class="s1" d="m15.2 24.7c5 0 9.1-4.1 9.1-9.1 0-5-4.1-9.1-9.1-9.1-5 0-9.1 4.1-9.1 9.1 0 5 4.1 9.1 9.1 9.1z"/>
	</g>
	<path id="Layer" class="s2" d="m15.2 21.1c3 0 5.5-2.4 5.5-5.5 0-3-2.5-5.5-5.5-5.5-3.1 0-5.5 2.5-5.5 5.5 0 3.1 2.4 5.5 5.5 5.5z"/>
	<path id="Layer" class="s3" d="m15.2 20.3c2.6 0 4.7-2.1 4.7-4.7 0-2.6-2.1-4.7-4.7-4.7-2.6 0-4.8 2.1-4.8 4.7 0 2.6 2.2 4.7 4.8 4.7z"/>
	<path id="Layer" class="s4" d="m15.2 29.8c7.8 0 14.2-6.3 14.2-14.2 0-7.8-6.4-14.2-14.2-14.2-7.9 0-14.2 6.4-14.2 14.2 0 7.9 6.3 14.2 14.2 14.2z"/>
</svg>