<svg width="24" height="18" viewBox="0 0 24 18" fill="none" xmlns="http://www.w3.org/2000/svg">
<path fill-rule="evenodd" clip-rule="evenodd" d="M23.6486 3.27121C23.6486 2.61297 23.387 1.9815 22.9219 1.51577C22.4562 1.05067 21.8247 0.789062 21.1665 0.789062H3.29464C2.63641 0.789062 2.00493 1.05069 1.5392 1.51577C1.07411 1.9815 0.8125 2.61297 0.8125 3.27121V15.1858C0.8125 15.844 1.07413 16.4755 1.5392 16.9412C2.00493 17.4063 2.63641 17.6679 3.29464 17.6679H21.1665C21.8247 17.6679 22.4562 17.4063 22.9219 16.9412C23.387 16.4755 23.6486 15.844 23.6486 15.1858V3.27121ZM6.44358 9.9306L2.24174 14.1329C1.95783 14.4165 1.80643 14.7957 1.80541 15.1815V15.186C1.80541 15.5811 1.96232 15.9599 2.24174 16.2389C2.52082 16.5184 2.89963 16.6753 3.29473 16.6753H21.1666C21.5617 16.6753 21.9405 16.5184 22.2196 16.2389C22.499 15.9599 22.6559 15.5811 22.6559 15.186V15.1815C22.6549 14.7957 22.5035 14.4165 22.2196 14.1329L18.0177 9.9306L13.9861 13.9627C13.0165 14.9318 11.4448 14.9318 10.4752 13.9627L6.44358 9.9306ZM22.6559 3.27589C22.6549 3.66168 22.5035 4.04084 22.2196 4.32441L13.2836 13.2603C12.7022 13.8421 11.7591 13.8421 11.1777 13.2603L2.24174 4.32441C1.95783 4.04084 1.80643 3.66171 1.80541 3.27589V3.2714C1.80541 2.8763 1.96232 2.49746 2.24174 2.21841C2.52082 1.93899 2.89963 1.78208 3.29473 1.78208H21.1666C21.5617 1.78208 21.9405 1.93899 22.2196 2.21841C22.499 2.49749 22.6559 2.8763 22.6559 3.2714V3.27589ZM1.80541 13.165L5.74164 9.22874L1.80541 5.29251V13.165ZM18.7198 9.22874L22.6561 13.165V5.29243L18.7198 9.22874Z" fill="#779500"/>
</svg>
