<svg width="41" height="41" viewBox="0 0 41 41" fill="none" xmlns="http://www.w3.org/2000/svg">
<rect x="0.378906" y="0.595947" width="40" height="40" rx="10" fill="#ABC73E"/>
<path d="M18.8175 18.4084H13.8173C13.7762 18.4084 13.7356 18.4003 13.6977 18.3846C13.6598 18.3689 13.6254 18.3459 13.5964 18.3169C13.5674 18.2879 13.5444 18.2535 13.5287 18.2156C13.513 18.1777 13.5049 18.137 13.5049 18.096V16.5342C13.5049 16.4513 13.5378 16.3718 13.5964 16.3132C13.6549 16.2546 13.7344 16.2216 13.8173 16.2216H18.8175C18.8585 16.2216 18.8992 16.2296 18.9371 16.2454C18.975 16.2611 19.0094 16.2841 19.0385 16.3131C19.0675 16.3422 19.0905 16.3766 19.1061 16.4146C19.1218 16.4525 19.1299 16.4931 19.1299 16.5342V18.096C19.1299 18.137 19.1218 18.1777 19.1061 18.2156C19.0904 18.2535 19.0674 18.2879 19.0384 18.3169C19.0094 18.3459 18.9749 18.3689 18.937 18.3846C18.8991 18.4003 18.8585 18.4084 18.8175 18.4084ZM14.1299 17.7834H18.5051V16.8458H14.1299V17.7834Z" fill="#772569"/>
<path d="M16.3275 30.5957C16.1107 30.5956 15.894 30.5836 15.6784 30.5599C14.4316 30.4178 13.268 29.8629 12.3729 28.9833C11.4778 28.1038 10.9025 26.9501 10.7386 25.7059C10.5747 24.4618 10.8316 23.1985 11.4684 22.1172C12.1051 21.0358 13.0853 20.1984 14.2528 19.7383C14.3097 19.7154 14.3583 19.6758 14.3923 19.6248C14.4264 19.5738 14.4442 19.5137 14.4434 19.4523V18.0958C14.4434 18.013 14.4763 17.9335 14.5349 17.8749C14.5935 17.8164 14.6729 17.7834 14.7558 17.7834H17.8809C17.9637 17.7834 18.0432 17.8164 18.1018 17.8749C18.1603 17.9335 18.1932 18.013 18.1932 18.0958V19.4523C18.1926 19.5131 18.2101 19.5726 18.2435 19.6233C18.2769 19.6741 18.3246 19.7137 18.3807 19.7371C19.5988 20.2168 20.6115 21.1064 21.2442 22.2526C21.877 23.3987 22.09 24.7297 21.8468 26.0161C21.6035 27.3025 20.9192 28.4638 19.9116 29.2998C18.9041 30.1358 17.6365 30.5942 16.3273 30.5959L16.3275 30.5957ZM15.0686 18.4082V19.4523C15.0698 19.6392 15.0144 19.822 14.9098 19.9768C14.8051 20.1316 14.6561 20.2511 14.4822 20.3196C13.3974 20.7469 12.4956 21.5393 11.9325 22.5603C11.3694 23.5812 11.1802 24.7667 11.3977 25.9122C11.6151 27.0577 12.2255 28.0915 13.1235 28.8351C14.0216 29.5787 15.151 29.9856 16.317 29.9856C17.4829 29.9856 18.6123 29.5787 19.5104 28.8351C20.4084 28.0915 21.0188 27.0577 21.2362 25.9122C21.4537 24.7667 21.2645 23.5812 20.7014 22.5603C20.1383 21.5393 19.2366 20.7469 18.1517 20.3196C17.9783 20.251 17.8298 20.1315 17.7257 19.9769C17.6216 19.8222 17.5668 19.6397 17.5685 19.4533V18.408L15.0686 18.4082Z" fill="#772569"/>
<path d="M16.3175 29.3459C15.6566 29.3478 15.004 29.1996 14.4088 28.9124C13.8136 28.6252 13.2915 28.2065 12.8818 27.6879C12.4721 27.1694 12.1856 26.5645 12.0439 25.9191C11.9022 25.2736 11.9089 24.6044 12.0637 23.9619C12.0798 23.8934 12.1186 23.8323 12.1737 23.7886C12.2289 23.7448 12.2972 23.721 12.3676 23.7209H16.9422V24.3459H12.6225C12.5863 24.5523 12.5678 24.7614 12.5672 24.9709C12.5672 25.9655 12.9623 26.9193 13.6655 27.6226C14.3688 28.3259 15.3226 28.721 16.3172 28.721C17.3118 28.721 18.2657 28.3259 18.9689 27.6226C19.6722 26.9193 20.0673 25.9655 20.0673 24.9709C20.0666 24.7614 20.0481 24.5523 20.0119 24.3459H18.8176V23.7209H20.2669C20.3373 23.721 20.4056 23.7448 20.4608 23.7885C20.516 23.8323 20.5548 23.8933 20.571 23.9619C20.7258 24.6044 20.7325 25.2736 20.5908 25.9191C20.4491 26.5645 20.1626 27.1694 19.7529 27.6879C19.3432 28.2065 18.8211 28.6252 18.2259 28.9124C17.6307 29.1996 16.9781 29.3478 16.3172 29.3459H16.3175Z" fill="#772569"/>
<path d="M17.5674 23.7207H18.1924V24.3457H17.5674V23.7207Z" fill="#772569"/>
<path d="M14.4427 27.1585C14.1536 27.1585 13.8735 27.0582 13.6501 26.8748C13.4267 26.6914 13.2737 26.4362 13.2174 26.1527C13.161 25.8692 13.2046 25.5749 13.3409 25.32C13.4772 25.0651 13.6976 24.8653 13.9647 24.7547C14.2317 24.6441 14.5289 24.6294 14.8055 24.7133C15.0821 24.7972 15.3211 24.9744 15.4817 25.2147C15.6423 25.4551 15.7146 25.7437 15.6863 26.0313C15.658 26.319 15.5309 26.588 15.3265 26.7924C15.0921 27.0268 14.7742 27.1585 14.4427 27.1585ZM14.4427 25.2836C14.2982 25.2834 14.158 25.3333 14.0462 25.4249C13.9343 25.5164 13.8577 25.6439 13.8293 25.7856C13.8009 25.9273 13.8225 26.0745 13.8904 26.202C13.9584 26.3296 14.0684 26.4296 14.2019 26.4852C14.3353 26.5407 14.4839 26.5482 14.6223 26.5065C14.7606 26.4647 14.8802 26.3763 14.9607 26.2563C15.0412 26.1362 15.0776 25.992 15.0637 25.8481C15.0498 25.7043 14.9864 25.5697 14.8844 25.4674C14.7673 25.35 14.6084 25.2839 14.4427 25.2836Z" fill="#772569"/>
<path d="M24.7549 30.5959C24.1749 30.5953 23.6189 30.3646 23.2088 29.9545C22.7987 29.5444 22.5681 28.9884 22.5674 28.4084V16.2207C22.5674 16.1796 22.5754 16.139 22.5911 16.1011C22.6068 16.0632 22.6298 16.0287 22.6588 15.9997C22.6878 15.9706 22.7222 15.9476 22.7602 15.9319C22.7981 15.9162 22.8387 15.9081 22.8798 15.9081H26.6298C26.7127 15.9081 26.7921 15.9411 26.8507 15.9997C26.9093 16.0583 26.9422 16.1378 26.9422 16.2207V18.4091H26.3172V16.5342H23.1924V28.4089C23.1924 28.8233 23.357 29.2207 23.65 29.5138C23.943 29.8068 24.3405 29.9714 24.7549 29.9714C25.1693 29.9714 25.5667 29.8068 25.8598 29.5138C26.1528 29.2207 26.3174 28.8233 26.3174 28.4089V20.2856H26.9424V28.408C26.9417 28.9879 26.7111 29.544 26.301 29.954C25.8909 30.3641 25.3349 30.5948 24.7549 30.5955V30.5959Z" fill="#772569"/>
<path d="M27.8799 16.5334H21.6298C21.5469 16.5333 21.4675 16.5004 21.4089 16.4418C21.3504 16.3832 21.3174 16.3038 21.3174 16.221V14.9708C21.3174 14.888 21.3503 14.8085 21.4089 14.7499C21.4675 14.6914 21.5469 14.6584 21.6298 14.6584H27.8799C27.9628 14.6584 28.0423 14.6913 28.1009 14.7499C28.1595 14.8085 28.1925 14.8879 28.1925 14.9708V16.221C28.1924 16.3038 28.1594 16.3832 28.1008 16.4418C28.0422 16.5004 27.9628 16.5333 27.8799 16.5334ZM21.9426 15.9082H27.5673V15.2832H21.9426V15.9082Z" fill="#772569"/>
<path d="M22.8799 17.4712H24.4417V18.0962H22.8799V17.4712Z" fill="#772569"/>
<path d="M22.8799 19.3457H24.4417V19.9707H22.8799V19.3457Z" fill="#772569"/>
<path d="M22.8799 21.2206H24.4417V21.8456H22.8799V21.2206Z" fill="#772569"/>
<path d="M22.8799 23.0958H24.4417V23.721H22.8799V23.0958Z" fill="#772569"/>
<path d="M22.8799 24.9707H24.4417V25.5957H22.8799V24.9707Z" fill="#772569"/>
<path d="M22.8799 26.8462H24.4417V27.4712H22.8799V26.8462Z" fill="#772569"/>
<path d="M16.9422 16.8461H15.6923C15.6094 16.8461 15.53 16.8132 15.4714 16.7546C15.4128 16.696 15.3799 16.6166 15.3799 16.5337V13.4087C15.3807 12.663 15.6772 11.948 16.2045 11.4207C16.7318 10.8934 17.4467 10.5968 18.1924 10.5959H22.88C23.6257 10.5969 24.3405 10.8935 24.8678 11.4208C25.395 11.9481 25.6916 12.663 25.6925 13.4087V14.9705C25.6925 15.0534 25.6596 15.1328 25.601 15.1914C25.5424 15.25 25.4629 15.2829 25.3801 15.2829H24.1299C24.0471 15.2829 23.9676 15.25 23.909 15.1914C23.8505 15.1328 23.8176 15.0534 23.8176 14.9705V13.4087C23.8175 13.16 23.7187 12.9216 23.5429 12.7458C23.3671 12.5699 23.1286 12.4712 22.88 12.4711H18.1924C18.0692 12.4711 17.9473 12.4953 17.8335 12.5424C17.7198 12.5895 17.6164 12.6586 17.5293 12.7456C17.4423 12.8327 17.3732 12.9361 17.3261 13.0498C17.279 13.1636 17.2548 13.2855 17.2548 13.4087V16.5335C17.2547 16.6164 17.2218 16.6958 17.1631 16.7544C17.1045 16.813 17.025 16.8461 16.9422 16.8461ZM16.0046 16.2211H16.6296V13.4087C16.6303 12.9946 16.795 12.5978 17.0878 12.305C17.3805 12.0122 17.7774 11.8475 18.1914 11.8468H22.8791C23.2931 11.8475 23.69 12.0122 23.9827 12.305C24.2755 12.5978 24.4403 12.9946 24.4409 13.4087V14.6586H25.0659V13.4087C25.0652 12.8287 24.8345 12.2727 24.4244 11.8626C24.0144 11.4525 23.4583 11.2218 22.8784 11.2211H18.1924C17.6124 11.2218 17.0563 11.4524 16.6462 11.8625C16.2361 12.2726 16.0055 12.8287 16.0048 13.4087L16.0046 16.2211Z" fill="#772569"/>
<path d="M28.818 13.0957C28.5289 13.0957 28.2487 12.9955 28.0252 12.812C27.8018 12.6286 27.6488 12.3734 27.5924 12.0898C27.536 11.8063 27.5796 11.5119 27.7159 11.2569C27.8522 11.0019 28.0727 10.8021 28.3398 10.6915C28.6069 10.5808 28.9041 10.5662 29.1808 10.6501C29.4575 10.734 29.6965 10.9113 29.8571 11.1517C30.0178 11.392 30.0901 11.6807 30.0618 11.9684C30.0335 12.2562 29.9063 12.5252 29.7018 12.7296C29.5858 12.8457 29.448 12.9378 29.2964 13.0006C29.1447 13.0635 28.9822 13.0958 28.818 13.0957ZM28.818 11.2208C28.6734 11.2207 28.5333 11.2706 28.4214 11.3622C28.3095 11.4538 28.2329 11.5813 28.2045 11.7231C28.1761 11.8649 28.1978 12.0121 28.2658 12.1397C28.3337 12.2673 28.4439 12.3674 28.5774 12.4229C28.7109 12.4784 28.8595 12.4859 28.9979 12.4441C29.1363 12.4023 29.2559 12.3139 29.3364 12.1938C29.4169 12.0737 29.4533 11.9294 29.4394 11.7855C29.4254 11.6416 29.362 11.507 29.2599 11.4046C29.1428 11.2872 28.9839 11.2211 28.818 11.2208Z" fill="#772569"/>
<path d="M26.9429 14.3459C26.726 14.3462 26.5156 14.2713 26.3477 14.1338C26.1798 13.9964 26.0648 13.805 26.0222 13.5923C25.9796 13.3796 26.012 13.1586 26.1141 12.9672C26.2161 12.7757 26.3813 12.6255 26.5817 12.5422C26.782 12.4589 27.005 12.4477 27.2127 12.5103C27.4204 12.573 27.6 12.7058 27.7207 12.886C27.8415 13.0663 27.8961 13.2828 27.8751 13.4987C27.8542 13.7147 27.759 13.9167 27.6058 14.0703C27.5188 14.1575 27.4155 14.2268 27.3018 14.2741C27.188 14.3214 27.0661 14.3458 26.9429 14.3459ZM26.9429 13.0958C26.8706 13.0957 26.8005 13.1207 26.7445 13.1665C26.6886 13.2123 26.6502 13.2761 26.636 13.347C26.6218 13.4179 26.6326 13.4915 26.6666 13.5554C26.7006 13.6192 26.7557 13.6692 26.8225 13.697C26.8893 13.7248 26.9636 13.7285 27.0328 13.7076C27.1021 13.6867 27.1619 13.6425 27.2022 13.5824C27.2425 13.5223 27.2606 13.4501 27.2537 13.3782C27.2467 13.3062 27.2149 13.2388 27.1639 13.1876C27.1053 13.129 27.0258 13.0961 26.9429 13.096V13.0958Z" fill="#772569"/>
<path d="M11.943 14.346C11.6539 14.346 11.3737 14.2457 11.1502 14.0623C10.9268 13.8789 10.7738 13.6236 10.7174 13.3401C10.661 13.0565 10.7046 12.7621 10.8409 12.5072C10.9772 12.2522 11.1977 12.0523 11.4648 11.9417C11.7319 11.831 12.0291 11.8164 12.3058 11.9004C12.5825 11.9843 12.8215 12.1615 12.9821 12.4019C13.1428 12.6423 13.2151 12.9309 13.1868 13.2187C13.1585 13.5064 13.0313 13.7754 12.8268 13.9799C12.7108 14.096 12.573 14.188 12.4214 14.2509C12.2697 14.3137 12.1072 14.346 11.943 14.346ZM11.943 12.4711C11.7984 12.4708 11.6581 12.5208 11.5461 12.6123C11.4342 12.7039 11.3574 12.8315 11.329 12.9733C11.3006 13.1152 11.3222 13.2624 11.3901 13.3901C11.4581 13.5178 11.5683 13.618 11.7018 13.6735C11.8354 13.7291 11.9841 13.7366 12.1226 13.6948C12.2611 13.653 12.3808 13.5645 12.4613 13.4444C12.5419 13.3242 12.5782 13.1799 12.5643 13.0359C12.5503 12.8919 12.4868 12.7572 12.3847 12.6548C12.3268 12.5966 12.258 12.5504 12.1822 12.5189C12.1064 12.4873 12.0251 12.471 11.943 12.4708V12.4711Z" fill="#772569"/>
<path d="M14.13 15.5954C13.9132 15.5953 13.7032 15.52 13.5357 15.3824C13.3681 15.2448 13.2535 15.0534 13.2113 14.8408C13.1691 14.6281 13.2019 14.4075 13.3041 14.2163C13.4064 14.0251 13.5718 13.8753 13.7721 13.7924C13.9724 13.7095 14.1952 13.6986 14.4027 13.7616C14.6101 13.8246 14.7893 13.9575 14.9097 14.1378C15.0301 14.318 15.0843 14.5345 15.0631 14.7502C15.0418 14.966 14.9464 15.1676 14.7931 15.3209C14.6172 15.4967 14.3787 15.5955 14.13 15.5954ZM14.13 14.3455C14.0577 14.3454 13.9876 14.3705 13.9317 14.4163C13.8758 14.4621 13.8375 14.5259 13.8233 14.5969C13.8091 14.6678 13.82 14.7414 13.854 14.8052C13.8881 14.869 13.9431 14.919 14.0099 14.9468C14.0767 14.9745 14.151 14.9782 14.2202 14.9573C14.2895 14.9364 14.3493 14.8921 14.3895 14.8321C14.4298 14.772 14.448 14.6998 14.441 14.6278C14.434 14.5559 14.4023 14.4885 14.3512 14.4373C14.3222 14.4082 14.2877 14.3851 14.2497 14.3694C14.2118 14.3536 14.1711 14.3455 14.13 14.3455Z" fill="#772569"/>
<path d="M26.3174 19.0332H26.9424V19.6591H26.3174V19.0332Z" fill="#772569"/>
</svg>
