<svg width="41" height="41" viewBox="0 0 41 41" fill="none" xmlns="http://www.w3.org/2000/svg">
<rect x="0.378906" y="0.595947" width="40" height="40" rx="10" fill="#ABC73E"/>
<path d="M16.4938 27.2046H12.7155C12.6566 27.2048 12.6002 27.2283 12.5585 27.2699C12.5168 27.3116 12.4933 27.368 12.4932 27.427V28.9827C12.4933 29.0417 12.5168 29.0981 12.5585 29.1398C12.6002 29.1814 12.6566 29.2049 12.7155 29.2051H16.4938C16.5527 29.2049 16.6091 29.1814 16.6508 29.1398C16.6925 29.0981 16.716 29.0417 16.7161 28.9827V27.427C16.716 27.368 16.6925 27.3116 16.6508 27.2699C16.6091 27.2283 16.5527 27.2048 16.4938 27.2046ZM16.2714 28.7603H12.9377V27.65H16.2714V28.7603Z" fill="#772569"/>
<path d="M21.3835 12.7584H27.6075C27.6664 12.7584 27.723 12.7349 27.7647 12.6932C27.8064 12.6515 27.8298 12.595 27.8298 12.536C27.8298 12.477 27.8064 12.4204 27.7647 12.3787C27.723 12.337 27.6664 12.3136 27.6075 12.3136H21.3835C21.3245 12.3136 21.268 12.337 21.2263 12.3787C21.1846 12.4204 21.1611 12.477 21.1611 12.536C21.1611 12.595 21.1846 12.6515 21.2263 12.6932C21.268 12.7349 21.3245 12.7584 21.3835 12.7584Z" fill="#772569"/>
<path d="M21.3828 14.3138H27.6068C27.6366 14.3147 27.6662 14.3097 27.694 14.299C27.7218 14.2882 27.7472 14.272 27.7686 14.2513C27.79 14.2305 27.807 14.2057 27.8186 14.1783C27.8303 14.1508 27.8362 14.1213 27.8362 14.0915C27.8362 14.0617 27.8303 14.0322 27.8186 14.0048C27.807 13.9773 27.79 13.9525 27.7686 13.9318C27.7472 13.911 27.7218 13.8948 27.694 13.8841C27.6662 13.8733 27.6366 13.8683 27.6068 13.8693H21.3828C21.353 13.8683 21.3234 13.8733 21.2956 13.8841C21.2678 13.8948 21.2424 13.911 21.221 13.9318C21.1996 13.9525 21.1826 13.9773 21.1709 14.0048C21.1593 14.0322 21.1533 14.0617 21.1533 14.0915C21.1533 14.1213 21.1593 14.1508 21.1709 14.1783C21.1826 14.2057 21.1996 14.2305 21.221 14.2513C21.2424 14.272 21.2678 14.2882 21.2956 14.299C21.3234 14.3097 21.353 14.3147 21.3828 14.3138Z" fill="#772569"/>
<path d="M21.3828 15.8697H27.6068C27.6366 15.8707 27.6662 15.8656 27.694 15.8549C27.7218 15.8441 27.7472 15.8279 27.7686 15.8072C27.79 15.7864 27.807 15.7616 27.8186 15.7342C27.8303 15.7067 27.8362 15.6772 27.8362 15.6474C27.8362 15.6176 27.8303 15.5881 27.8186 15.5607C27.807 15.5332 27.79 15.5084 27.7686 15.4877C27.7472 15.467 27.7218 15.4507 27.694 15.44C27.6662 15.4293 27.6366 15.4242 27.6068 15.4252H21.3828C21.353 15.4242 21.3234 15.4293 21.2956 15.44C21.2678 15.4507 21.2424 15.467 21.221 15.4877C21.1996 15.5084 21.1826 15.5332 21.1709 15.5607C21.1593 15.5881 21.1533 15.6176 21.1533 15.6474C21.1533 15.6772 21.1593 15.7067 21.1709 15.7342C21.1826 15.7616 21.1996 15.7864 21.221 15.8072C21.2424 15.8279 21.2678 15.8441 21.2956 15.8549C21.3234 15.8656 21.353 15.8707 21.3828 15.8697Z" fill="#772569"/>
<path d="M17.8269 17.4257H27.606C27.665 17.4257 27.7215 17.4023 27.7632 17.3606C27.8049 17.3189 27.8284 17.2623 27.8284 17.2033C27.8284 17.1444 27.8049 17.0878 27.7632 17.0461C27.7215 17.0044 27.665 16.981 27.606 16.981H17.8269C17.7679 16.981 17.7113 17.0044 17.6696 17.0461C17.6279 17.0878 17.6045 17.1444 17.6045 17.2033C17.6045 17.2623 17.6279 17.3189 17.6696 17.3606C17.7113 17.4023 17.7679 17.4257 17.8269 17.4257Z" fill="#772569"/>
<path d="M17.8269 18.9811H27.606C27.6358 18.9821 27.6654 18.9771 27.6932 18.9663C27.721 18.9556 27.7464 18.9394 27.7678 18.9186C27.7892 18.8979 27.8062 18.8731 27.8178 18.8456C27.8295 18.8182 27.8355 18.7887 27.8355 18.7589C27.8355 18.7291 27.8295 18.6996 27.8178 18.6721C27.8062 18.6447 27.7892 18.6199 27.7678 18.5991C27.7464 18.5784 27.721 18.5622 27.6932 18.5514C27.6654 18.5407 27.6358 18.5357 27.606 18.5366H17.8269C17.7679 18.5366 17.7113 18.56 17.6696 18.6017C17.6279 18.6435 17.6045 18.7 17.6045 18.759C17.6045 18.818 17.6279 18.8745 17.6696 18.9162C17.7113 18.9579 17.7679 18.9814 17.8269 18.9814V18.9811Z" fill="#772569"/>
<path d="M17.8269 20.5372H27.606C27.665 20.5372 27.7215 20.5137 27.7632 20.472C27.8049 20.4303 27.8284 20.3738 27.8284 20.3148C27.8284 20.2558 27.8049 20.1992 27.7632 20.1575C27.7215 20.1158 27.665 20.0924 27.606 20.0924H17.8269C17.7679 20.0924 17.7113 20.1158 17.6696 20.1575C17.6279 20.1992 17.6045 20.2558 17.6045 20.3148C17.6045 20.3738 17.6279 20.4303 17.6696 20.472C17.7113 20.5137 17.7679 20.5372 17.8269 20.5372Z" fill="#772569"/>
<path d="M17.8269 22.0928H27.606C27.665 22.0928 27.7215 22.0694 27.7632 22.0277C27.8049 21.986 27.8284 21.9294 27.8284 21.8705C27.8284 21.8115 27.8049 21.7549 27.7632 21.7132C27.7215 21.6715 27.665 21.6481 27.606 21.6481H17.8269C17.7679 21.6481 17.7113 21.6715 17.6696 21.7132C17.6279 21.7549 17.6045 21.8115 17.6045 21.8705C17.6045 21.9294 17.6279 21.986 17.6696 22.0277C17.7113 22.0694 17.7679 22.0928 17.8269 22.0928Z" fill="#772569"/>
<path d="M17.8269 23.6489H24.4945C24.5534 23.6489 24.61 23.6254 24.6517 23.5837C24.6934 23.542 24.7168 23.4855 24.7168 23.4265C24.7168 23.3675 24.6934 23.3109 24.6517 23.2692C24.61 23.2275 24.5534 23.2041 24.4945 23.2041H17.8269C17.7679 23.2041 17.7113 23.2275 17.6696 23.2692C17.6279 23.3109 17.6045 23.3675 17.6045 23.4265C17.6045 23.4855 17.6279 23.542 17.6696 23.5837C17.7113 23.6254 17.7679 23.6489 17.8269 23.6489Z" fill="#772569"/>
<path d="M24.7169 24.982C24.7168 24.9231 24.6933 24.8667 24.6517 24.825C24.6101 24.7833 24.5536 24.7598 24.4947 24.7596H17.8272C17.7974 24.7587 17.7677 24.7637 17.7399 24.7745C17.7121 24.7852 17.6867 24.8014 17.6653 24.8222C17.6439 24.8429 17.6269 24.8677 17.6153 24.8952C17.6037 24.9226 17.5977 24.9521 17.5977 24.9819C17.5977 25.0117 17.6037 25.0412 17.6153 25.0686C17.6269 25.0961 17.6439 25.1209 17.6653 25.1416C17.6867 25.1624 17.7121 25.1786 17.7399 25.1893C17.7677 25.2001 17.7974 25.2051 17.8272 25.2042H24.4947C24.5536 25.204 24.61 25.1805 24.6516 25.1389C24.6932 25.0973 24.7167 25.0409 24.7169 24.982Z" fill="#772569"/>
<path d="M17.8267 15.8696H19.8269C19.8858 15.8695 19.9423 15.8461 19.984 15.8044C20.0257 15.7628 20.0491 15.7064 20.0493 15.6475V12.5355C20.0491 12.4766 20.0257 12.4201 19.984 12.3784C19.9423 12.3368 19.8859 12.3133 19.8269 12.3131H17.8267C17.7678 12.3133 17.7114 12.3369 17.6698 12.3785C17.6281 12.4202 17.6047 12.4766 17.6045 12.5355V15.6475C17.6047 15.7063 17.6281 15.7627 17.6698 15.8044C17.7114 15.846 17.7678 15.8694 17.8267 15.8696ZM18.049 12.7576H19.6048V15.4246H18.049V12.7576Z" fill="#772569"/>
<path d="M29.8289 28.7605H29.6065V27.4271H29.8289C29.9867 27.4281 30.1396 27.3731 30.2606 27.2718C30.3815 27.1705 30.4625 27.0296 30.4892 26.8741C30.5159 26.7186 30.4866 26.5587 30.4064 26.4229C30.3262 26.287 30.2003 26.1841 30.0513 26.1324V10.5369C30.0511 10.478 30.0275 10.4216 29.9859 10.3799C29.9442 10.3383 29.8878 10.3149 29.8289 10.3147H15.1602C15.1013 10.3149 15.0448 10.3383 15.0032 10.3799C14.9615 10.4216 14.938 10.478 14.9378 10.5369V15.1026C14.2064 13.9209 13.1637 12.9634 11.9239 12.3354C11.8977 12.3226 11.8691 12.315 11.8399 12.3132C11.8108 12.3113 11.7815 12.3153 11.7538 12.3248C11.7262 12.3343 11.7007 12.3491 11.6787 12.3685C11.6568 12.3879 11.6389 12.4114 11.6261 12.4376C10.8711 14.1822 10.4852 16.064 10.4926 17.9649C10.4926 19.3028 11.1287 20.668 12.3326 21.9124C12.7982 22.3918 13.3104 22.8237 13.8618 23.2014H12.826C12.5903 23.2008 12.362 23.2836 12.1816 23.4352C12.0012 23.5868 11.8803 23.7974 11.8404 24.0297C11.8004 24.2619 11.844 24.5008 11.9634 24.704C12.0829 24.9071 12.2704 25.0614 12.4927 25.1395V25.8696H12.2703C11.7989 25.8702 11.347 26.0577 11.0137 26.391C10.6803 26.7244 10.4928 27.1763 10.4922 27.6477V29.8704C10.4925 29.9881 10.5395 30.1009 10.6227 30.1842C10.706 30.2674 10.8188 30.3143 10.9365 30.3147H18.271C18.3887 30.3143 18.5016 30.2674 18.5848 30.1842C18.6681 30.1009 18.7151 29.9881 18.7155 29.8704V28.7592H20.6093C20.7476 29.1488 21.003 29.4861 21.3405 29.7249C21.6781 29.9637 22.0812 30.0922 22.4947 30.0928H29.8291C30.006 30.0928 30.1756 30.0225 30.3006 29.8975C30.4257 29.7724 30.4959 29.6028 30.4959 29.426C30.4959 29.2491 30.4257 29.0795 30.3006 28.9545C30.1756 28.8294 30.006 28.7592 29.8291 28.7592L29.8289 28.7605ZM29.162 27.8717H23.1638C23.1049 27.8717 23.0483 27.8951 23.0066 27.9368C22.9649 27.9785 22.9415 28.0351 22.9415 28.0941C22.9415 28.153 22.9649 28.2096 23.0066 28.2513C23.0483 28.293 23.1049 28.3164 23.1638 28.3164H29.1622V28.7608H22.7168C22.5421 28.7575 22.3756 28.6859 22.2532 28.5612C22.1308 28.4365 22.0622 28.2687 22.0622 28.0939C22.0622 27.9192 22.1308 27.7514 22.2532 27.6267C22.3756 27.502 22.5421 27.4304 22.7168 27.4271H29.162V27.8717ZM15.5736 17.5613L14.8047 18.1369C14.7716 18.1624 14.7463 18.1967 14.7317 18.2358C14.7172 18.275 14.7139 18.3174 14.7222 18.3584C14.7305 18.3993 14.7501 18.4371 14.7788 18.4675C14.8076 18.4978 14.8442 18.5195 14.8846 18.5301L15.6049 18.7102C15.5738 21.1634 14.9048 22.2751 14.4937 22.7287C14.4669 19.4748 13.7691 16.3765 12.309 13.065C14.5559 14.4829 15.3962 16.9523 15.574 17.5613H15.5736ZM10.9372 17.9677C10.9439 16.3025 11.248 14.6519 11.8351 13.0937C13.3221 16.423 14.031 19.5277 14.0487 22.7883C13.1821 22.1793 10.9367 20.37 10.9367 17.9654L10.9372 17.9677ZM12.2708 24.2043C12.2709 24.057 12.3295 23.9158 12.4337 23.8116C12.5378 23.7074 12.6791 23.6488 12.8264 23.6487H16.3825C16.5298 23.6487 16.6711 23.7073 16.7753 23.8114C16.8795 23.9156 16.9381 24.057 16.9381 24.2043C16.9381 24.3517 16.8795 24.493 16.7753 24.5972C16.6711 24.7014 16.5298 24.7599 16.3825 24.7599H12.8266C12.6792 24.7599 12.5379 24.7013 12.4337 24.5971C12.3294 24.4928 12.2708 24.3515 12.2708 24.2041V24.2043ZM12.9377 25.2038H16.2707V25.8705H12.9377V25.2038ZM18.2717 29.8711H10.9374V27.6486C10.9377 27.295 11.0783 26.956 11.3284 26.7059C11.5784 26.4559 11.9174 26.3153 12.271 26.315H16.9385C17.2921 26.3153 17.6312 26.4559 17.8812 26.7059C18.1312 26.956 18.2718 27.295 18.2721 27.6486V29.8711H18.2717ZM18.7162 28.3153V27.6486C18.7156 27.1772 18.5281 26.7253 18.1947 26.3919C17.8614 26.0586 17.4095 25.8711 16.9381 25.8705H16.7157V25.1427C16.9382 25.0647 17.1259 24.9104 17.2454 24.7072C17.365 24.504 17.4087 24.265 17.3687 24.0326C17.3288 23.8003 17.2078 23.5896 17.0272 23.4379C16.8467 23.2863 16.6182 23.2036 16.3825 23.2044H14.6468C15.1238 22.7801 16.0492 21.5689 16.0492 18.5371C16.0494 18.4874 16.0328 18.4391 16.0021 18.4C15.9714 18.3609 15.9285 18.3333 15.8802 18.3216L15.4445 18.2127L15.9602 17.8266C15.9947 17.8006 16.0209 17.7651 16.0355 17.7244C16.0502 17.6837 16.0525 17.6396 16.0424 17.5976C15.8864 17.0038 15.665 16.429 15.3823 15.884V10.7576H29.6068V26.0931H22.4947C21.9644 26.0939 21.456 26.3049 21.0811 26.6798C20.7061 27.0548 20.4951 27.5631 20.4944 28.0934C20.4943 28.1677 20.4988 28.242 20.5078 28.3158L18.7162 28.3153ZM29.8289 29.6489H22.4947C22.082 29.6489 21.6862 29.485 21.3944 29.1932C21.1026 28.9014 20.9387 28.5056 20.9387 28.0929C20.9387 27.6803 21.1026 27.2845 21.3944 26.9927C21.6862 26.7009 22.082 26.5369 22.4947 26.5369H29.8291C29.8881 26.5369 29.9447 26.5604 29.9864 26.6021C30.0281 26.6438 30.0515 26.7003 30.0515 26.7593C30.0515 26.8183 30.0281 26.8749 29.9864 26.9166C29.9447 26.9583 29.8881 26.9817 29.8291 26.9817H22.717C22.4223 26.9817 22.1397 27.0988 21.9313 27.3072C21.7229 27.5156 21.6058 27.7982 21.6058 28.0929C21.6058 28.3876 21.7229 28.6703 21.9313 28.8787C22.1397 29.0871 22.4223 29.2042 22.717 29.2042H29.8291C29.8881 29.2042 29.9447 29.2276 29.9864 29.2693C30.0281 29.311 30.0515 29.3676 30.0515 29.4265C30.0515 29.4855 30.0281 29.5421 29.9864 29.5838C29.9447 29.6255 29.8881 29.6489 29.8291 29.6489H29.8289Z" fill="#772569"/>
</svg>
