<svg width="101" height="101" viewBox="0 0 101 101" fill="none" xmlns="http://www.w3.org/2000/svg">
<path d="M30.8946 84.7998H12.0035C11.7089 84.8007 11.4266 84.9181 11.2182 85.1264C11.0099 85.3348 10.8925 85.6171 10.8916 85.9117V93.6905C10.8925 93.9851 11.0099 94.2674 11.2182 94.4757C11.4266 94.6841 11.7089 94.8015 12.0035 94.8024H30.8946C31.1892 94.8015 31.4714 94.6841 31.6798 94.4757C31.8881 94.2674 32.0056 93.9851 32.0065 93.6905V85.9117C32.0056 85.6171 31.8881 85.3348 31.6798 85.1264C31.4714 84.9181 31.1892 84.8007 30.8946 84.7998ZM29.7826 92.5786H13.1142V87.027H29.7826V92.5786Z" fill="#772569"/>
<path d="M55.3414 12.5695H86.4612C86.7561 12.5695 87.0388 12.4524 87.2473 12.2439C87.4559 12.0353 87.573 11.7525 87.573 11.4576C87.573 11.1627 87.4559 10.8799 87.2473 10.6714C87.0388 10.4629 86.7561 10.3457 86.4612 10.3457H55.3414C55.0465 10.3457 54.7637 10.4629 54.5552 10.6714C54.3466 10.8799 54.2295 11.1627 54.2295 11.4576C54.2295 11.7525 54.3466 12.0353 54.5552 12.2439C54.7637 12.4524 55.0465 12.5695 55.3414 12.5695Z" fill="#772569"/>
<path d="M55.3408 20.3453H86.4606C86.6095 20.3501 86.7578 20.3248 86.8968 20.2711C87.0358 20.2174 87.1626 20.1363 87.2696 20.0327C87.3767 19.929 87.4618 19.8049 87.52 19.6677C87.5781 19.5305 87.608 19.383 87.608 19.234C87.608 19.085 87.5781 18.9375 87.52 18.8003C87.4618 18.6631 87.3767 18.5389 87.2696 18.4353C87.1626 18.3316 87.0358 18.2505 86.8968 18.1968C86.7578 18.1431 86.6095 18.1179 86.4606 18.1226H55.3408C55.1919 18.1179 55.0435 18.1431 54.9045 18.1968C54.7655 18.2505 54.6388 18.3316 54.5317 18.4353C54.4247 18.5389 54.3396 18.6631 54.2815 18.8003C54.2233 18.9375 54.1934 19.085 54.1934 19.234C54.1934 19.383 54.2233 19.5305 54.2815 19.6677C54.3396 19.8049 54.4247 19.929 54.5317 20.0327C54.6388 20.1363 54.7655 20.2174 54.9045 20.2711C55.0435 20.3248 55.1919 20.3501 55.3408 20.3453Z" fill="#772569"/>
<path d="M55.3408 28.1256H86.4606C86.6095 28.1304 86.7578 28.1051 86.8968 28.0514C87.0358 27.9977 87.1626 27.9166 87.2696 27.813C87.3767 27.7093 87.4618 27.5851 87.52 27.4479C87.5781 27.3107 87.608 27.1632 87.608 27.0142C87.608 26.8652 87.5781 26.7177 87.52 26.5805C87.4618 26.4433 87.3767 26.3192 87.2696 26.2155C87.1626 26.1119 87.0358 26.0308 86.8968 25.9771C86.7578 25.9234 86.6095 25.8981 86.4606 25.9029H55.3408C55.1919 25.8981 55.0435 25.9234 54.9045 25.9771C54.7655 26.0308 54.6388 26.1119 54.5317 26.2155C54.4247 26.3192 54.3396 26.4433 54.2815 26.5805C54.2233 26.7177 54.1934 26.8652 54.1934 27.0142C54.1934 27.1632 54.2233 27.3107 54.2815 27.4479C54.3396 27.5851 54.4247 27.7093 54.5317 27.813C54.6388 27.9166 54.7655 27.9977 54.9045 28.0514C55.0435 28.1051 55.1919 28.1304 55.3408 28.1256Z" fill="#772569"/>
<path d="M37.5611 35.9074H86.4566C86.7515 35.9074 87.0344 35.7902 87.2429 35.5817C87.4514 35.3732 87.5685 35.0904 87.5685 34.7955C87.5685 34.5006 87.4514 34.2178 87.2429 34.0093C87.0344 33.8007 86.7515 33.6836 86.4566 33.6836H37.5611C37.2662 33.6836 36.9834 33.8007 36.7749 34.0093C36.5664 34.2178 36.4492 34.5006 36.4492 34.7955C36.4492 35.0904 36.5664 35.3732 36.7749 35.5817C36.9834 35.7902 37.2662 35.9074 37.5611 35.9074Z" fill="#772569"/>
<path d="M37.5611 43.6832H86.4566C86.6056 43.688 86.7539 43.6627 86.8929 43.609C87.0319 43.5553 87.1586 43.4742 87.2657 43.3706C87.3727 43.2669 87.4579 43.1428 87.516 43.0056C87.5741 42.8684 87.604 42.7209 87.604 42.5719C87.604 42.4229 87.5741 42.2754 87.516 42.1382C87.4579 42.001 87.3727 41.8768 87.2657 41.7732C87.1586 41.6695 87.0319 41.5884 86.8929 41.5347C86.7539 41.481 86.6056 41.4558 86.4566 41.4605H37.5611C37.2662 41.4605 36.9834 41.5777 36.7749 41.7862C36.5664 41.9947 36.4492 42.2775 36.4492 42.5724C36.4492 42.8673 36.5664 43.1502 36.7749 43.3587C36.9834 43.5672 37.2662 43.6844 37.5611 43.6844V43.6832Z" fill="#772569"/>
<path d="M37.5611 51.4641H86.4566C86.7515 51.4641 87.0344 51.3469 87.2429 51.1384C87.4514 50.9299 87.5685 50.647 87.5685 50.3521C87.5685 50.0572 87.4514 49.7744 87.2429 49.5659C87.0344 49.3574 86.7515 49.2402 86.4566 49.2402H37.5611C37.2662 49.2402 36.9834 49.3574 36.7749 49.5659C36.5664 49.7744 36.4492 50.0572 36.4492 50.3521C36.4492 50.647 36.5664 50.9299 36.7749 51.1384C36.9834 51.3469 37.2662 51.4641 37.5611 51.4641Z" fill="#772569"/>
<path d="M37.5611 59.2424H86.4566C86.7515 59.2424 87.0344 59.1252 87.2429 58.9167C87.4514 58.7082 87.5685 58.4254 87.5685 58.1305C87.5685 57.8356 87.4514 57.5527 87.2429 57.3442C87.0344 57.1357 86.7515 57.0186 86.4566 57.0186H37.5611C37.2662 57.0186 36.9834 57.1357 36.7749 57.3442C36.5664 57.5527 36.4492 57.8356 36.4492 58.1305C36.4492 58.4254 36.5664 58.7082 36.7749 58.9167C36.9834 59.1252 37.2662 59.2424 37.5611 59.2424Z" fill="#772569"/>
<path d="M37.5611 67.0207H70.899C71.1939 67.0207 71.4767 66.9035 71.6852 66.695C71.8937 66.4865 72.0109 66.2037 72.0109 65.9088C72.0109 65.6139 71.8937 65.3311 71.6852 65.1225C71.4767 64.914 71.1939 64.7969 70.899 64.7969H37.5611C37.2662 64.7969 36.9834 64.914 36.7749 65.1225C36.5664 65.3311 36.4492 65.6139 36.4492 65.9088C36.4492 66.2037 36.5664 66.4865 36.7749 66.695C36.9834 66.9035 37.2662 67.0207 37.5611 67.0207Z" fill="#772569"/>
<path d="M72.0092 73.6887C72.0086 73.3941 71.8914 73.1118 71.6833 72.9035C71.4751 72.6951 71.193 72.5776 70.8985 72.5767H37.5606C37.4116 72.572 37.2632 72.5972 37.1243 72.6509C36.9853 72.7046 36.8585 72.7857 36.7514 72.8894C36.6444 72.993 36.5593 73.1172 36.5012 73.2544C36.4431 73.3916 36.4131 73.5391 36.4131 73.6881C36.4131 73.8371 36.4431 73.9846 36.5012 74.1218C36.5593 74.259 36.6444 74.3831 36.7514 74.4868C36.8585 74.5904 36.9853 74.6715 37.1243 74.7252C37.2632 74.779 37.4116 74.8042 37.5606 74.7994H70.8985C71.1928 74.7985 71.4748 74.6812 71.6829 74.4731C71.891 74.265 72.0083 73.983 72.0092 73.6887Z" fill="#772569"/>
<path d="M37.56 28.1263H47.5615C47.856 28.1257 48.1383 28.0085 48.3467 27.8004C48.555 27.5922 48.6725 27.31 48.6734 27.0155V11.4557C48.6725 11.161 48.5551 10.8787 48.3467 10.6704C48.1384 10.4621 47.8561 10.3446 47.5615 10.3438H37.56C37.2656 10.3449 36.9836 10.4625 36.7755 10.6708C36.5674 10.8791 36.4501 11.1612 36.4492 11.4557V27.0155C36.4501 27.3098 36.5675 27.5918 36.7756 27.7999C36.9837 28.0081 37.2657 28.1254 37.56 28.1263ZM38.6719 12.5664H46.4507V25.9013H38.6719V12.5664Z" fill="#772569"/>
<path d="M97.5694 92.5797H96.4574V85.9128H97.5694C98.3581 85.9177 99.1229 85.6424 99.7276 85.136C100.332 84.6295 100.737 83.9249 100.871 83.1475C101.004 82.3702 100.858 81.5706 100.457 80.8915C100.056 80.2123 99.4264 79.6975 98.6813 79.439V1.46135C98.6801 1.16693 98.5625 0.884929 98.3542 0.676846C98.1459 0.468762 97.8638 0.351483 97.5694 0.350586H24.2256C23.9312 0.351483 23.649 0.468762 23.4408 0.676846C23.2325 0.884929 23.1149 1.16693 23.1137 1.46135V24.2901C19.457 18.3814 14.2432 13.5943 8.04446 10.4543C7.91317 10.3899 7.77046 10.352 7.62452 10.3429C7.47857 10.3337 7.33227 10.3535 7.19396 10.4009C7.05566 10.4484 6.92808 10.5227 6.81852 10.6196C6.70896 10.7164 6.61953 10.8339 6.55545 10.9653C2.78025 19.6879 0.850674 29.0973 0.88803 38.6017C0.88803 45.2913 4.06819 52.1172 10.0877 58.3389C12.4157 60.7362 14.977 62.8954 17.7336 64.7843H12.5546C11.3763 64.781 10.2349 65.1951 9.3328 65.9531C8.43072 66.7111 7.82626 67.7642 7.6266 68.9254C7.42693 70.0867 7.64494 71.2811 8.24203 72.2969C8.83912 73.3127 9.77663 74.0842 10.8884 74.4746V78.125H9.77645C7.41941 78.128 5.1598 79.0656 3.49312 80.7323C1.82644 82.399 0.888747 84.6586 0.885742 87.0157V98.1291C0.88754 98.7177 1.12217 99.2817 1.5384 99.6979C1.95463 100.114 2.51871 100.349 3.10735 100.351H39.7798C40.3685 100.349 40.9326 100.114 41.349 99.698C41.7654 99.2818 42.0004 98.7178 42.0024 98.1291V92.5729H51.4712C52.1626 94.5211 53.4397 96.2078 55.1274 97.4016C56.8151 98.5954 58.8308 99.2379 60.8981 99.2409H97.5705C98.4548 99.2409 99.3028 98.8897 99.928 98.2644C100.553 97.6392 100.905 96.7912 100.905 95.9069C100.905 95.0227 100.553 94.1747 99.928 93.5494C99.3028 92.9242 98.4548 92.5729 97.5705 92.5729L97.5694 92.5797ZM94.2348 88.1355H64.244C63.9491 88.1355 63.6663 88.2527 63.4577 88.4612C63.2492 88.6697 63.1321 88.9525 63.1321 89.2474C63.1321 89.5423 63.2492 89.8251 63.4577 90.0337C63.6663 90.2422 63.9491 90.3593 64.244 90.3593H94.2359V92.5809H62.0088C61.1352 92.5647 60.3029 92.2064 59.6908 91.5829C59.0787 90.9594 58.7357 90.1206 58.7357 89.2468C58.7357 88.3731 59.0787 87.5343 59.6908 86.9108C60.3029 86.2873 61.1352 85.929 62.0088 85.9128H94.2348V88.1355ZM26.2927 36.5835L22.4481 39.4615C22.2828 39.5891 22.1564 39.7605 22.0835 39.9563C22.0106 40.1521 21.9941 40.3643 22.0357 40.569C22.0773 40.7737 22.1754 40.9627 22.319 41.1144C22.4626 41.2662 22.6458 41.3746 22.8479 41.4275L26.4494 42.3282C26.2938 54.5943 22.949 60.1527 20.8933 62.4208C20.7593 46.1511 17.2702 30.6594 9.96958 14.1023C21.2045 21.1917 25.4056 33.5385 26.2949 36.5835H26.2927ZM3.11074 38.6154C3.14453 30.2895 4.66496 22.0367 7.60039 14.2454C15.0351 30.8922 18.5798 46.4158 18.6683 62.7184C14.3354 59.6734 3.10845 50.6271 3.10845 38.604L3.11074 38.6154ZM9.77874 69.7987C9.77934 69.0621 10.0723 68.3559 10.5931 67.835C11.114 67.3141 11.8202 67.0212 12.5568 67.0207H30.3371C31.0739 67.0207 31.7805 67.3134 32.3014 67.8343C32.8224 68.3553 33.1151 69.0619 33.1151 69.7987C33.1151 70.5355 32.8224 71.2421 32.3014 71.7631C31.7805 72.2841 31.0739 72.5768 30.3371 72.5768H12.558C11.821 72.5765 11.1143 72.2836 10.5931 71.7624C10.072 71.2413 9.77904 70.5346 9.77874 69.7976V69.7987ZM13.1134 74.7961H29.7783V78.1295H13.1134V74.7961ZM39.7832 98.1324H3.11185V87.0202C3.11335 85.2522 3.8164 83.557 5.06657 82.3069C6.31674 81.0567 8.01191 80.3537 9.77992 80.3522H33.1174C34.8854 80.3537 36.5806 81.0567 37.8308 82.3069C39.0809 83.557 39.7839 85.2522 39.7854 87.0202V98.1324H39.7832ZM42.0058 90.3537V87.0202C42.0028 84.6632 41.0652 82.4035 39.3985 80.7368C37.7319 79.0702 35.4722 78.1325 33.1151 78.1295H32.0032V74.4905C33.1158 74.1007 34.0542 73.3293 34.652 72.3132C35.2497 71.2971 35.4681 70.1021 35.2683 68.9403C35.0686 67.7784 34.4636 66.725 33.5609 65.9668C32.6581 65.2087 31.516 64.795 30.3371 64.7991H21.6588C24.0439 62.6775 28.671 56.6217 28.671 41.4627C28.6716 41.2143 28.5886 40.9728 28.4353 40.7773C28.282 40.5818 28.0674 40.4435 27.8259 40.3849L25.6475 39.8408L28.2257 37.91C28.3985 37.7802 28.5295 37.6026 28.6025 37.3992C28.6756 37.1957 28.6875 36.9753 28.6369 36.7652C27.8568 33.7959 26.7499 30.9223 25.3363 28.1971V2.56529H96.4586V79.2426H60.8981C58.2467 79.2465 55.705 80.3014 53.8302 82.1762C51.9554 84.051 50.9005 86.5927 50.8966 89.244C50.8963 89.6157 50.9187 89.987 50.9636 90.3559L42.0058 90.3537ZM97.5694 97.0217H60.8981C58.8347 97.0217 56.8558 96.202 55.3968 94.743C53.9378 93.284 53.1181 91.3051 53.1181 89.2417C53.1181 87.1784 53.9378 85.1995 55.3968 83.7405C56.8558 82.2815 58.8347 81.4618 60.8981 81.4618H97.5705C97.8654 81.4618 98.1482 81.5789 98.3568 81.7875C98.5653 81.996 98.6824 82.2788 98.6824 82.5737C98.6824 82.8686 98.5653 83.1514 98.3568 83.3599C98.1482 83.5685 97.8654 83.6856 97.5705 83.6856H62.01C60.5364 83.6856 59.1232 84.271 58.0812 85.313C57.0392 86.3549 56.4538 87.7682 56.4538 89.2417C56.4538 90.7153 57.0392 92.1285 58.0812 93.1705C59.1232 94.2125 60.5364 94.7979 62.01 94.7979H97.5705C97.8654 94.7979 98.1482 94.915 98.3568 95.1235C98.5653 95.3321 98.6824 95.6149 98.6824 95.9098C98.6824 96.2047 98.5653 96.4875 98.3568 96.696C98.1482 96.9045 97.8654 97.0217 97.5705 97.0217H97.5694Z" fill="#772569"/>
</svg>
