<svg width="13" height="21" viewBox="0 0 13 21" fill="none" xmlns="http://www.w3.org/2000/svg">
<path fill-rule="evenodd" clip-rule="evenodd" d="M1.64551 5.48242C1.64551 2.721 3.88408 0.482422 6.64551 0.482422C9.40693 0.482422 11.6455 2.721 11.6455 5.48242C11.6455 8.03218 9.73695 10.1362 7.27051 10.4437V17.3574C7.27051 17.7026 6.99069 17.9824 6.64551 17.9824C6.30033 17.9824 6.02051 17.7026 6.02051 17.3574V10.4437C3.55406 10.1362 1.64551 8.03218 1.64551 5.48242ZM4.76211 16.2002C4.81852 16.5408 4.58819 16.8625 4.24765 16.919C3.35834 17.0663 2.64873 17.2873 2.17979 17.5343C1.94503 17.658 1.79826 17.7739 1.71699 17.866C1.67799 17.9102 1.65998 17.9423 1.6521 17.9604C1.64825 17.9693 1.64673 17.975 1.64612 17.9778C1.64554 17.9805 1.64551 17.9825 1.64551 17.9825C1.64551 17.9825 1.64545 17.9855 1.64742 17.992C1.64954 17.999 1.65478 18.0127 1.66743 18.0333C1.69396 18.0766 1.74806 18.1415 1.84941 18.2214C2.05577 18.384 2.39311 18.5578 2.86567 18.7154C3.80427 19.0282 5.14069 19.2325 6.64551 19.2325C8.15033 19.2325 9.48674 19.0282 10.4253 18.7154C10.8979 18.5578 11.2352 18.384 11.4416 18.2214C11.543 18.1415 11.5971 18.0766 11.6236 18.0333C11.6362 18.0127 11.6415 17.999 11.6436 17.992C11.6455 17.9857 11.6455 17.9825 11.6455 17.9825C11.6455 17.9825 11.6455 17.9805 11.6449 17.9778C11.6443 17.975 11.6428 17.9693 11.6389 17.9604C11.631 17.9423 11.613 17.9102 11.574 17.866C11.4928 17.7739 11.346 17.658 11.1112 17.5343C10.6423 17.2873 9.93268 17.0663 9.04337 16.919C8.70283 16.8625 8.4725 16.5408 8.52891 16.2002C8.58532 15.8597 8.90711 15.6293 9.24765 15.6858C10.2105 15.8453 11.0634 16.0962 11.6939 16.4284C12.2716 16.7328 12.8955 17.2342 12.8955 17.9825C12.8955 18.5149 12.5712 18.9227 12.2153 19.2032C11.8524 19.4892 11.366 19.7194 10.8206 19.9012C9.72337 20.267 8.24729 20.4825 6.64551 20.4825C5.04372 20.4825 3.56764 20.267 2.47039 19.9012C1.92503 19.7194 1.43861 19.4892 1.07569 19.2032C0.719816 18.9227 0.395508 18.5149 0.395508 17.9825C0.395508 17.2342 1.01941 16.7328 1.59711 16.4284C2.22764 16.0962 3.08053 15.8453 4.04337 15.6858C4.3839 15.6293 4.70569 15.8597 4.76211 16.2002Z" fill="#2400FF"/>
</svg>
