<svg width="19" height="19" viewBox="0 0 19 19" fill="none" xmlns="http://www.w3.org/2000/svg">
<path d="M12.6055 6.73633V4.48633H6.60547V6.73633H5.10547V3.73633C5.10547 3.52383 5.17722 3.34558 5.32072 3.20158C5.46472 3.05808 5.64297 2.98633 5.85547 2.98633H13.3555C13.568 2.98633 13.746 3.05808 13.8895 3.20158C14.0335 3.34558 14.1055 3.52383 14.1055 3.73633V6.73633H12.6055ZM3.60547 8.23633H15.6055H5.10547H3.60547ZM14.1055 10.1113C14.318 10.1113 14.496 10.0393 14.6395 9.89533C14.7835 9.75183 14.8555 9.57383 14.8555 9.36133C14.8555 9.14883 14.7835 8.97058 14.6395 8.82658C14.496 8.68308 14.318 8.61133 14.1055 8.61133C13.893 8.61133 13.715 8.68308 13.5715 8.82658C13.4275 8.97058 13.3555 9.14883 13.3555 9.36133C13.3555 9.57383 13.4275 9.75183 13.5715 9.89533C13.715 10.0393 13.893 10.1113 14.1055 10.1113ZM6.60547 14.9863H12.6055V11.9863H6.60547V14.9863ZM6.60547 16.4863C6.19297 16.4863 5.83997 16.3396 5.54647 16.0461C5.25247 15.7521 5.10547 15.3988 5.10547 14.9863V13.4863H2.85547C2.64297 13.4863 2.46497 13.4143 2.32147 13.2703C2.17747 13.1268 2.10547 12.9488 2.10547 12.7363V8.98633C2.10547 8.34883 2.32422 7.81458 2.76172 7.38358C3.19922 6.95208 3.73047 6.73633 4.35547 6.73633H14.8555C15.493 6.73633 16.0275 6.95208 16.459 7.38358C16.89 7.81458 17.1055 8.34883 17.1055 8.98633V12.7363C17.1055 12.9488 17.0335 13.1268 16.8895 13.2703C16.746 13.4143 16.568 13.4863 16.3555 13.4863H14.1055V14.9863C14.1055 15.3988 13.9587 15.7521 13.6652 16.0461C13.3712 16.3396 13.018 16.4863 12.6055 16.4863H6.60547ZM15.6055 11.9863V8.98633C15.6055 8.77383 15.5335 8.59558 15.3895 8.45158C15.246 8.30808 15.068 8.23633 14.8555 8.23633H4.35547C4.14297 8.23633 3.96472 8.30808 3.82072 8.45158C3.67722 8.59558 3.60547 8.77383 3.60547 8.98633V11.9863H5.10547V10.4863H14.1055V11.9863H15.6055Z" fill="white"/>
</svg>
