<svg width="149" height="37" viewBox="0 0 149 37" fill="none" xmlns="http://www.w3.org/2000/svg">
<path d="M4.5625 21.3242L4.5625 0.324219L128.562 0.324219C133.867 0.324219 138.954 2.43135 142.705 6.18208C146.455 9.93281 148.562 15.0199 148.562 20.3242V32.3242L15.5625 32.3242C12.6451 32.3242 9.84723 31.1653 7.78433 29.1024C5.72143 27.0395 4.5625 24.2416 4.5625 21.3242Z" fill="#73D48D"/>
<path d="M4.5625 0.324219L0.602539 5.30821H4.5625V0.324219Z" fill="#61AA74"/>
<path d="M148.561 32.293L143.577 36.252V32.293H148.561Z" fill="#61AA74"/>
<path d="M16.91 22.2891L14.918 18.8691H13.598V22.2891H12.506V13.9251H15.206C15.838 13.9251 16.37 14.0331 16.802 14.2491C17.242 14.4651 17.57 14.7571 17.786 15.1251C18.002 15.4931 18.11 15.9131 18.11 16.3851C18.11 16.9611 17.942 17.4691 17.606 17.9091C17.278 18.3491 16.782 18.6411 16.118 18.7851L18.218 22.2891H16.91ZM13.598 17.9931H15.206C15.798 17.9931 16.242 17.8491 16.538 17.5611C16.834 17.2651 16.982 16.8731 16.982 16.3851C16.982 15.8891 16.834 15.5051 16.538 15.2331C16.25 14.9611 15.806 14.8251 15.206 14.8251H13.598V17.9931ZM25.8068 18.7491C25.8068 18.9571 25.7948 19.1771 25.7708 19.4091H20.5148C20.5548 20.0571 20.7748 20.5651 21.1748 20.9331C21.5828 21.2931 22.0748 21.4731 22.6508 21.4731C23.1228 21.4731 23.5148 21.3651 23.8268 21.1491C24.1468 20.9251 24.3708 20.6291 24.4988 20.2611H25.6748C25.4988 20.8931 25.1468 21.4091 24.6188 21.8091C24.0908 22.2011 23.4348 22.3971 22.6508 22.3971C22.0268 22.3971 21.4668 22.2571 20.9708 21.9771C20.4828 21.6971 20.0988 21.3011 19.8188 20.7891C19.5388 20.2691 19.3988 19.6691 19.3988 18.9891C19.3988 18.3091 19.5348 17.7131 19.8068 17.2011C20.0788 16.6891 20.4588 16.2971 20.9468 16.0251C21.4428 15.7451 22.0108 15.6051 22.6508 15.6051C23.2748 15.6051 23.8268 15.7411 24.3068 16.0131C24.7868 16.2851 25.1548 16.6611 25.4108 17.1411C25.6748 17.6131 25.8068 18.1491 25.8068 18.7491ZM24.6788 18.5211C24.6788 18.1051 24.5868 17.7491 24.4028 17.4531C24.2188 17.1491 23.9668 16.9211 23.6468 16.7691C23.3348 16.6091 22.9868 16.5291 22.6028 16.5291C22.0508 16.5291 21.5788 16.7051 21.1868 17.0571C20.8028 17.4091 20.5828 17.8971 20.5268 18.5211H24.6788ZM29.9602 15.6051C30.5282 15.6051 31.0242 15.7291 31.4482 15.9771C31.8802 16.2251 32.2002 16.5371 32.4082 16.9131V15.7131H33.5122V22.4331C33.5122 23.0331 33.3842 23.5651 33.1282 24.0291C32.8722 24.5011 32.5042 24.8691 32.0242 25.1331C31.5522 25.3971 31.0002 25.5291 30.3682 25.5291C29.5042 25.5291 28.7842 25.3251 28.2082 24.9171C27.6322 24.5091 27.2922 23.9531 27.1882 23.2491H28.2682C28.3882 23.6491 28.6362 23.9691 29.0122 24.2091C29.3882 24.4571 29.8402 24.5811 30.3682 24.5811C30.9682 24.5811 31.4562 24.3931 31.8322 24.0171C32.2162 23.6411 32.4082 23.1131 32.4082 22.4331V21.0531C32.1922 21.4371 31.8722 21.7571 31.4482 22.0131C31.0242 22.2691 30.5282 22.3971 29.9602 22.3971C29.3762 22.3971 28.8442 22.2531 28.3642 21.9651C27.8922 21.6771 27.5202 21.2731 27.2482 20.7531C26.9762 20.2331 26.8402 19.6411 26.8402 18.9771C26.8402 18.3051 26.9762 17.7171 27.2482 17.2131C27.5202 16.7011 27.8922 16.3051 28.3642 16.0251C28.8442 15.7451 29.3762 15.6051 29.9602 15.6051ZM32.4082 18.9891C32.4082 18.4931 32.3082 18.0611 32.1082 17.6931C31.9082 17.3251 31.6362 17.0451 31.2922 16.8531C30.9562 16.6531 30.5842 16.5531 30.1762 16.5531C29.7682 16.5531 29.3962 16.6491 29.0602 16.8411C28.7242 17.0331 28.4562 17.3131 28.2562 17.6811C28.0562 18.0491 27.9562 18.4811 27.9562 18.9771C27.9562 19.4811 28.0562 19.9211 28.2562 20.2971C28.4562 20.6651 28.7242 20.9491 29.0602 21.1491C29.3962 21.3411 29.7682 21.4371 30.1762 21.4371C30.5842 21.4371 30.9562 21.3411 31.2922 21.1491C31.6362 20.9491 31.9082 20.6651 32.1082 20.2971C32.3082 19.9211 32.4082 19.4851 32.4082 18.9891ZM35.9216 14.6451C35.7136 14.6451 35.5376 14.5731 35.3936 14.4291C35.2496 14.2851 35.1776 14.1091 35.1776 13.9011C35.1776 13.6931 35.2496 13.5171 35.3936 13.3731C35.5376 13.2291 35.7136 13.1571 35.9216 13.1571C36.1216 13.1571 36.2896 13.2291 36.4256 13.3731C36.5696 13.5171 36.6416 13.6931 36.6416 13.9011C36.6416 14.1091 36.5696 14.2851 36.4256 14.4291C36.2896 14.5731 36.1216 14.6451 35.9216 14.6451ZM36.4496 15.7131V22.2891H35.3576V15.7131H36.4496ZM40.6387 22.3971C40.1347 22.3971 39.6827 22.3131 39.2827 22.1451C38.8827 21.9691 38.5667 21.7291 38.3347 21.4251C38.1027 21.1131 37.9747 20.7571 37.9507 20.3571H39.0787C39.1107 20.6851 39.2627 20.9531 39.5347 21.1611C39.8147 21.3691 40.1787 21.4731 40.6267 21.4731C41.0427 21.4731 41.3707 21.3811 41.6107 21.1971C41.8507 21.0131 41.9707 20.7811 41.9707 20.5011C41.9707 20.2131 41.8427 20.0011 41.5867 19.8651C41.3307 19.7211 40.9347 19.5811 40.3987 19.4451C39.9107 19.3171 39.5107 19.1891 39.1987 19.0611C38.8947 18.9251 38.6307 18.7291 38.4067 18.4731C38.1907 18.2091 38.0827 17.8651 38.0827 17.4411C38.0827 17.1051 38.1827 16.7971 38.3827 16.5171C38.5827 16.2371 38.8667 16.0171 39.2347 15.8571C39.6027 15.6891 40.0227 15.6051 40.4947 15.6051C41.2227 15.6051 41.8107 15.7891 42.2587 16.1571C42.7067 16.5251 42.9467 17.0291 42.9787 17.6691H41.8867C41.8627 17.3251 41.7227 17.0491 41.4667 16.8411C41.2187 16.6331 40.8827 16.5291 40.4587 16.5291C40.0667 16.5291 39.7547 16.6131 39.5227 16.7811C39.2907 16.9491 39.1747 17.1691 39.1747 17.4411C39.1747 17.6571 39.2427 17.8371 39.3787 17.9811C39.5227 18.1171 39.6987 18.2291 39.9067 18.3171C40.1227 18.3971 40.4187 18.4891 40.7947 18.5931C41.2667 18.7211 41.6507 18.8491 41.9467 18.9771C42.2427 19.0971 42.4947 19.2811 42.7027 19.5291C42.9187 19.7771 43.0307 20.1011 43.0387 20.5011C43.0387 20.8611 42.9387 21.1851 42.7387 21.4731C42.5387 21.7611 42.2547 21.9891 41.8867 22.1571C41.5267 22.3171 41.1107 22.3971 40.6387 22.3971ZM45.9123 16.6131V20.4891C45.9123 20.8091 45.9803 21.0371 46.1163 21.1731C46.2523 21.3011 46.4883 21.3651 46.8242 21.3651H47.6283V22.2891H46.6443C46.0363 22.2891 45.5803 22.1491 45.2763 21.8691C44.9723 21.5891 44.8203 21.1291 44.8203 20.4891V16.6131H43.9683V15.7131H44.8203V14.0571H45.9123V15.7131H47.6283V16.6131H45.9123ZM50.0433 16.7811C50.2353 16.4051 50.5073 16.1131 50.8593 15.9051C51.2193 15.6971 51.6553 15.5931 52.1673 15.5931V16.7211H51.8793C50.6553 16.7211 50.0433 17.3851 50.0433 18.7131V22.2891H48.9513V15.7131H50.0433V16.7811ZM53.0199 18.9771C53.0199 18.3051 53.1559 17.7171 53.4279 17.2131C53.6999 16.7011 54.0719 16.3051 54.5439 16.0251C55.0239 15.7451 55.5559 15.6051 56.1399 15.6051C56.7159 15.6051 57.2159 15.7291 57.6399 15.9771C58.0639 16.2251 58.3799 16.5371 58.5879 16.9131V15.7131H59.6919V22.2891H58.5879V21.0651C58.3719 21.4491 58.0479 21.7691 57.6159 22.0251C57.1919 22.2731 56.6959 22.3971 56.1279 22.3971C55.5439 22.3971 55.0159 22.2531 54.5439 21.9651C54.0719 21.6771 53.6999 21.2731 53.4279 20.7531C53.1559 20.2331 53.0199 19.6411 53.0199 18.9771ZM58.5879 18.9891C58.5879 18.4931 58.4879 18.0611 58.2879 17.6931C58.0879 17.3251 57.8159 17.0451 57.4719 16.8531C57.1359 16.6531 56.7639 16.5531 56.3559 16.5531C55.9479 16.5531 55.5759 16.6491 55.2399 16.8411C54.9039 17.0331 54.6359 17.3131 54.4359 17.6811C54.2359 18.0491 54.1359 18.4811 54.1359 18.9771C54.1359 19.4811 54.2359 19.9211 54.4359 20.2971C54.6359 20.6651 54.9039 20.9491 55.2399 21.1491C55.5759 21.3411 55.9479 21.4371 56.3559 21.4371C56.7639 21.4371 57.1359 21.3411 57.4719 21.1491C57.8159 20.9491 58.0879 20.6651 58.2879 20.2971C58.4879 19.9211 58.5879 19.4851 58.5879 18.9891ZM62.8693 16.6131V20.4891C62.8693 20.8091 62.9373 21.0371 63.0733 21.1731C63.2093 21.3011 63.4453 21.3651 63.7813 21.3651H64.5853V22.2891H63.6013C62.9933 22.2891 62.5373 22.1491 62.2333 21.8691C61.9293 21.5891 61.7773 21.1291 61.7773 20.4891V16.6131H60.9253V15.7131H61.7773V14.0571H62.8693V15.7131H64.5853V16.6131H62.8693ZM66.4724 14.6451C66.2644 14.6451 66.0884 14.5731 65.9444 14.4291C65.8004 14.2851 65.7284 14.1091 65.7284 13.9011C65.7284 13.6931 65.8004 13.5171 65.9444 13.3731C66.0884 13.2291 66.2644 13.1571 66.4724 13.1571C66.6724 13.1571 66.8404 13.2291 66.9764 13.3731C67.1204 13.5171 67.1924 13.6931 67.1924 13.9011C67.1924 14.1091 67.1204 14.2851 66.9764 14.4291C66.8404 14.5731 66.6724 14.6451 66.4724 14.6451ZM67.0004 15.7131V22.2891H65.9084V15.7131H67.0004ZM71.7295 22.3971C71.1135 22.3971 70.5535 22.2571 70.0495 21.9771C69.5535 21.6971 69.1615 21.3011 68.8735 20.7891C68.5935 20.2691 68.4535 19.6691 68.4535 18.9891C68.4535 18.3171 68.5975 17.7251 68.8855 17.2131C69.1815 16.6931 69.5815 16.2971 70.0855 16.0251C70.5895 15.7451 71.1535 15.6051 71.7775 15.6051C72.4015 15.6051 72.9655 15.7451 73.4695 16.0251C73.9735 16.2971 74.3695 16.6891 74.6575 17.2011C74.9535 17.7131 75.1015 18.3091 75.1015 18.9891C75.1015 19.6691 74.9495 20.2691 74.6455 20.7891C74.3495 21.3011 73.9455 21.6971 73.4335 21.9771C72.9215 22.2571 72.3535 22.3971 71.7295 22.3971ZM71.7295 21.4371C72.1215 21.4371 72.4895 21.3451 72.8335 21.1611C73.1775 20.9771 73.4535 20.7011 73.6615 20.3331C73.8775 19.9651 73.9855 19.5171 73.9855 18.9891C73.9855 18.4611 73.8815 18.0131 73.6735 17.6451C73.4655 17.2771 73.1935 17.0051 72.8575 16.8291C72.5215 16.6451 72.1575 16.5531 71.7655 16.5531C71.3655 16.5531 70.9975 16.6451 70.6615 16.8291C70.3335 17.0051 70.0695 17.2771 69.8695 17.6451C69.6695 18.0131 69.5695 18.4611 69.5695 18.9891C69.5695 19.5251 69.6655 19.9771 69.8575 20.3451C70.0575 20.7131 70.3215 20.9891 70.6495 21.1731C70.9775 21.3491 71.3375 21.4371 71.7295 21.4371ZM79.7413 15.5931C80.5413 15.5931 81.1893 15.8371 81.6853 16.3251C82.1813 16.8051 82.4293 17.5011 82.4293 18.4131V22.2891H81.3493V18.5691C81.3493 17.9131 81.1853 17.4131 80.8573 17.0691C80.5293 16.7171 80.0813 16.5411 79.5133 16.5411C78.9373 16.5411 78.4773 16.7211 78.1333 17.0811C77.7973 17.4411 77.6293 17.9651 77.6293 18.6531V22.2891H76.5373V15.7131H77.6293V16.6491C77.8453 16.3131 78.1373 16.0531 78.5053 15.8691C78.8813 15.6851 79.2933 15.5931 79.7413 15.5931ZM92.1403 13.9251V14.8131H88.5043V17.6331H91.4563V18.5211H88.5043V22.2891H87.4123V13.9251H92.1403ZM99.4592 18.7491C99.4592 18.9571 99.4472 19.1771 99.4232 19.4091H94.1672C94.2072 20.0571 94.4272 20.5651 94.8272 20.9331C95.2352 21.2931 95.7272 21.4731 96.3032 21.4731C96.7752 21.4731 97.1672 21.3651 97.4792 21.1491C97.7992 20.9251 98.0232 20.6291 98.1512 20.2611H99.3272C99.1512 20.8931 98.7992 21.4091 98.2712 21.8091C97.7432 22.2011 97.0872 22.3971 96.3032 22.3971C95.6792 22.3971 95.1192 22.2571 94.6232 21.9771C94.1352 21.6971 93.7512 21.3011 93.4712 20.7891C93.1912 20.2691 93.0512 19.6691 93.0512 18.9891C93.0512 18.3091 93.1872 17.7131 93.4592 17.2011C93.7312 16.6891 94.1112 16.2971 94.5992 16.0251C95.0952 15.7451 95.6632 15.6051 96.3032 15.6051C96.9272 15.6051 97.4792 15.7411 97.9592 16.0131C98.4392 16.2851 98.8072 16.6611 99.0632 17.1411C99.3272 17.6131 99.4592 18.1491 99.4592 18.7491ZM98.3312 18.5211C98.3312 18.1051 98.2392 17.7491 98.0552 17.4531C97.8712 17.1491 97.6192 16.9211 97.2992 16.7691C96.9872 16.6091 96.6392 16.5291 96.2552 16.5291C95.7032 16.5291 95.2312 16.7051 94.8392 17.0571C94.4552 17.4091 94.2352 17.8971 94.1792 18.5211H98.3312ZM106.901 18.7491C106.901 18.9571 106.889 19.1771 106.865 19.4091H101.609C101.649 20.0571 101.869 20.5651 102.269 20.9331C102.677 21.2931 103.169 21.4731 103.745 21.4731C104.217 21.4731 104.609 21.3651 104.921 21.1491C105.241 20.9251 105.465 20.6291 105.593 20.2611H106.769C106.593 20.8931 106.241 21.4091 105.713 21.8091C105.185 22.2011 104.529 22.3971 103.745 22.3971C103.121 22.3971 102.561 22.2571 102.065 21.9771C101.577 21.6971 101.193 21.3011 100.913 20.7891C100.633 20.2691 100.493 19.6691 100.493 18.9891C100.493 18.3091 100.629 17.7131 100.901 17.2011C101.173 16.6891 101.553 16.2971 102.041 16.0251C102.537 15.7451 103.105 15.6051 103.745 15.6051C104.369 15.6051 104.921 15.7411 105.401 16.0131C105.881 16.2851 106.249 16.6611 106.505 17.1411C106.769 17.6131 106.901 18.1491 106.901 18.7491ZM105.773 18.5211C105.773 18.1051 105.681 17.7491 105.497 17.4531C105.313 17.1491 105.061 16.9211 104.741 16.7691C104.429 16.6091 104.081 16.5291 103.697 16.5291C103.145 16.5291 102.673 16.7051 102.281 17.0571C101.897 17.4091 101.677 17.8971 101.621 18.5211H105.773ZM117.133 16.3731C117.133 17.0691 116.893 17.6491 116.413 18.1131C115.941 18.5691 115.217 18.7971 114.241 18.7971H112.633V22.2891H111.541V13.9251H114.241C115.185 13.9251 115.901 14.1531 116.389 14.6091C116.885 15.0651 117.133 15.6531 117.133 16.3731ZM114.241 17.8971C114.849 17.8971 115.297 17.7651 115.585 17.5011C115.873 17.2371 116.017 16.8611 116.017 16.3731C116.017 15.3411 115.425 14.8251 114.241 14.8251H112.633V17.8971H114.241ZM118.082 18.9771C118.082 18.3051 118.218 17.7171 118.49 17.2131C118.762 16.7011 119.134 16.3051 119.606 16.0251C120.086 15.7451 120.618 15.6051 121.202 15.6051C121.778 15.6051 122.278 15.7291 122.702 15.9771C123.126 16.2251 123.442 16.5371 123.65 16.9131V15.7131H124.754V22.2891H123.65V21.0651C123.434 21.4491 123.11 21.7691 122.678 22.0251C122.254 22.2731 121.758 22.3971 121.19 22.3971C120.606 22.3971 120.078 22.2531 119.606 21.9651C119.134 21.6771 118.762 21.2731 118.49 20.7531C118.218 20.2331 118.082 19.6411 118.082 18.9771ZM123.65 18.9891C123.65 18.4931 123.55 18.0611 123.35 17.6931C123.15 17.3251 122.878 17.0451 122.534 16.8531C122.198 16.6531 121.826 16.5531 121.418 16.5531C121.01 16.5531 120.638 16.6491 120.302 16.8411C119.966 17.0331 119.698 17.3131 119.498 17.6811C119.298 18.0491 119.198 18.4811 119.198 18.9771C119.198 19.4811 119.298 19.9211 119.498 20.2971C119.698 20.6651 119.966 20.9491 120.302 21.1491C120.638 21.3411 121.01 21.4371 121.418 21.4371C121.826 21.4371 122.198 21.3411 122.534 21.1491C122.878 20.9491 123.15 20.6651 123.35 20.2971C123.55 19.9211 123.65 19.4851 123.65 18.9891ZM127.164 14.6451C126.956 14.6451 126.78 14.5731 126.636 14.4291C126.492 14.2851 126.42 14.1091 126.42 13.9011C126.42 13.6931 126.492 13.5171 126.636 13.3731C126.78 13.2291 126.956 13.1571 127.164 13.1571C127.364 13.1571 127.532 13.2291 127.668 13.3731C127.812 13.5171 127.884 13.6931 127.884 13.9011C127.884 14.1091 127.812 14.2851 127.668 14.4291C127.532 14.5731 127.364 14.6451 127.164 14.6451ZM127.692 15.7131V22.2891H126.6V15.7131H127.692ZM129.145 18.9771C129.145 18.3051 129.281 17.7171 129.553 17.2131C129.825 16.7011 130.197 16.3051 130.669 16.0251C131.149 15.7451 131.685 15.6051 132.277 15.6051C132.789 15.6051 133.265 15.7251 133.705 15.9651C134.145 16.1971 134.481 16.5051 134.713 16.8891V13.4091H135.817V22.2891H134.713V21.0531C134.497 21.4451 134.177 21.7691 133.753 22.0251C133.329 22.2731 132.833 22.3971 132.265 22.3971C131.681 22.3971 131.149 22.2531 130.669 21.9651C130.197 21.6771 129.825 21.2731 129.553 20.7531C129.281 20.2331 129.145 19.6411 129.145 18.9771ZM134.713 18.9891C134.713 18.4931 134.613 18.0611 134.413 17.6931C134.213 17.3251 133.941 17.0451 133.597 16.8531C133.261 16.6531 132.889 16.5531 132.481 16.5531C132.073 16.5531 131.701 16.6491 131.365 16.8411C131.029 17.0331 130.761 17.3131 130.561 17.6811C130.361 18.0491 130.261 18.4811 130.261 18.9771C130.261 19.4811 130.361 19.9211 130.561 20.2971C130.761 20.6651 131.029 20.9491 131.365 21.1491C131.701 21.3411 132.073 21.4371 132.481 21.4371C132.889 21.4371 133.261 21.3411 133.597 21.1491C133.941 20.9491 134.213 20.6651 134.413 20.2971C134.613 19.9211 134.713 19.4851 134.713 18.9891Z" fill="white"/>
</svg>
