<svg width="161" height="37" viewBox="0 0 161 37" fill="none" xmlns="http://www.w3.org/2000/svg">
<path d="M4.40332 21.3242L4.40332 0.324219L138.494 0.324219C144.23 0.324219 149.731 2.43135 153.787 6.18208C157.843 9.93281 160.121 15.0199 160.121 20.3242V32.3242L16.2984 32.3242C13.1437 32.3242 10.1181 31.1653 7.88732 29.1024C5.65655 27.0395 4.40332 24.2416 4.40332 21.3242Z" fill="#73D48D"/>
<path d="M4.40329 0.324219L0.121094 5.30821H4.40329V0.324219Z" fill="#61AA74"/>
<path d="M160.119 32.293L154.73 36.252V32.293H160.119Z" fill="#61AA74"/>
<path d="M16.7323 22.2891L14.7403 18.8691H13.4203V22.2891H12.3283V13.9251H15.0283C15.6603 13.9251 16.1923 14.0331 16.6243 14.2491C17.0643 14.4651 17.3923 14.7571 17.6083 15.1251C17.8243 15.4931 17.9323 15.9131 17.9323 16.3851C17.9323 16.9611 17.7643 17.4691 17.4283 17.9091C17.1003 18.3491 16.6043 18.6411 15.9403 18.7851L18.0403 22.2891H16.7323ZM13.4203 17.9931H15.0283C15.6203 17.9931 16.0643 17.8491 16.3603 17.5611C16.6563 17.2651 16.8043 16.8731 16.8043 16.3851C16.8043 15.8891 16.6563 15.5051 16.3603 15.2331C16.0723 14.9611 15.6283 14.8251 15.0283 14.8251H13.4203V17.9931ZM25.6291 18.7491C25.6291 18.9571 25.6171 19.1771 25.5931 19.4091H20.3371C20.3771 20.0571 20.5971 20.5651 20.9971 20.9331C21.4051 21.2931 21.8971 21.4731 22.4731 21.4731C22.9451 21.4731 23.3371 21.3651 23.6491 21.1491C23.9691 20.9251 24.1931 20.6291 24.3211 20.2611H25.4971C25.3211 20.8931 24.9691 21.4091 24.4411 21.8091C23.9131 22.2011 23.2571 22.3971 22.4731 22.3971C21.8491 22.3971 21.2891 22.2571 20.7931 21.9771C20.3051 21.6971 19.9211 21.3011 19.6411 20.7891C19.3611 20.2691 19.2211 19.6691 19.2211 18.9891C19.2211 18.3091 19.3571 17.7131 19.6291 17.2011C19.9011 16.6891 20.2811 16.2971 20.7691 16.0251C21.2651 15.7451 21.8331 15.6051 22.4731 15.6051C23.0971 15.6051 23.6491 15.7411 24.1291 16.0131C24.6091 16.2851 24.9771 16.6611 25.2331 17.1411C25.4971 17.6131 25.6291 18.1491 25.6291 18.7491ZM24.5011 18.5211C24.5011 18.1051 24.4091 17.7491 24.2251 17.4531C24.0411 17.1491 23.7891 16.9211 23.4691 16.7691C23.1571 16.6091 22.8091 16.5291 22.4251 16.5291C21.8731 16.5291 21.4011 16.7051 21.0091 17.0571C20.6251 17.4091 20.4051 17.8971 20.3491 18.5211H24.5011ZM29.7825 15.6051C30.3505 15.6051 30.8465 15.7291 31.2705 15.9771C31.7025 16.2251 32.0225 16.5371 32.2305 16.9131V15.7131H33.3345V22.4331C33.3345 23.0331 33.2065 23.5651 32.9505 24.0291C32.6945 24.5011 32.3265 24.8691 31.8465 25.1331C31.3745 25.3971 30.8225 25.5291 30.1905 25.5291C29.3265 25.5291 28.6065 25.3251 28.0305 24.9171C27.4545 24.5091 27.1145 23.9531 27.0105 23.2491H28.0905C28.2105 23.6491 28.4585 23.9691 28.8345 24.2091C29.2105 24.4571 29.6625 24.5811 30.1905 24.5811C30.7905 24.5811 31.2785 24.3931 31.6545 24.0171C32.0385 23.6411 32.2305 23.1131 32.2305 22.4331V21.0531C32.0145 21.4371 31.6945 21.7571 31.2705 22.0131C30.8465 22.2691 30.3505 22.3971 29.7825 22.3971C29.1985 22.3971 28.6665 22.2531 28.1865 21.9651C27.7145 21.6771 27.3425 21.2731 27.0705 20.7531C26.7985 20.2331 26.6625 19.6411 26.6625 18.9771C26.6625 18.3051 26.7985 17.7171 27.0705 17.2131C27.3425 16.7011 27.7145 16.3051 28.1865 16.0251C28.6665 15.7451 29.1985 15.6051 29.7825 15.6051ZM32.2305 18.9891C32.2305 18.4931 32.1305 18.0611 31.9305 17.6931C31.7305 17.3251 31.4585 17.0451 31.1145 16.8531C30.7785 16.6531 30.4065 16.5531 29.9985 16.5531C29.5905 16.5531 29.2185 16.6491 28.8825 16.8411C28.5465 17.0331 28.2785 17.3131 28.0785 17.6811C27.8785 18.0491 27.7785 18.4811 27.7785 18.9771C27.7785 19.4811 27.8785 19.9211 28.0785 20.2971C28.2785 20.6651 28.5465 20.9491 28.8825 21.1491C29.2185 21.3411 29.5905 21.4371 29.9985 21.4371C30.4065 21.4371 30.7785 21.3411 31.1145 21.1491C31.4585 20.9491 31.7305 20.6651 31.9305 20.2971C32.1305 19.9211 32.2305 19.4851 32.2305 18.9891ZM35.7439 14.6451C35.5359 14.6451 35.3599 14.5731 35.2159 14.4291C35.0719 14.2851 34.9999 14.1091 34.9999 13.9011C34.9999 13.6931 35.0719 13.5171 35.2159 13.3731C35.3599 13.2291 35.5359 13.1571 35.7439 13.1571C35.9439 13.1571 36.1119 13.2291 36.2479 13.3731C36.3919 13.5171 36.4639 13.6931 36.4639 13.9011C36.4639 14.1091 36.3919 14.2851 36.2479 14.4291C36.1119 14.5731 35.9439 14.6451 35.7439 14.6451ZM36.2719 15.7131V22.2891H35.1799V15.7131H36.2719ZM40.461 22.3971C39.957 22.3971 39.505 22.3131 39.105 22.1451C38.705 21.9691 38.389 21.7291 38.157 21.4251C37.925 21.1131 37.797 20.7571 37.773 20.3571H38.901C38.933 20.6851 39.085 20.9531 39.357 21.1611C39.637 21.3691 40.001 21.4731 40.449 21.4731C40.865 21.4731 41.193 21.3811 41.433 21.1971C41.673 21.0131 41.793 20.7811 41.793 20.5011C41.793 20.2131 41.665 20.0011 41.409 19.8651C41.153 19.7211 40.757 19.5811 40.221 19.4451C39.733 19.3171 39.333 19.1891 39.021 19.0611C38.717 18.9251 38.453 18.7291 38.229 18.4731C38.013 18.2091 37.905 17.8651 37.905 17.4411C37.905 17.1051 38.005 16.7971 38.205 16.5171C38.405 16.2371 38.689 16.0171 39.057 15.8571C39.425 15.6891 39.845 15.6051 40.317 15.6051C41.045 15.6051 41.633 15.7891 42.081 16.1571C42.529 16.5251 42.769 17.0291 42.801 17.6691H41.709C41.685 17.3251 41.545 17.0491 41.289 16.8411C41.041 16.6331 40.705 16.5291 40.281 16.5291C39.889 16.5291 39.577 16.6131 39.345 16.7811C39.113 16.9491 38.997 17.1691 38.997 17.4411C38.997 17.6571 39.065 17.8371 39.201 17.9811C39.345 18.1171 39.521 18.2291 39.729 18.3171C39.945 18.3971 40.241 18.4891 40.617 18.5931C41.089 18.7211 41.473 18.8491 41.769 18.9771C42.065 19.0971 42.317 19.2811 42.525 19.5291C42.741 19.7771 42.853 20.1011 42.861 20.5011C42.861 20.8611 42.761 21.1851 42.561 21.4731C42.361 21.7611 42.077 21.9891 41.709 22.1571C41.349 22.3171 40.933 22.3971 40.461 22.3971ZM45.7345 16.6131V20.4891C45.7345 20.8091 45.8025 21.0371 45.9385 21.1731C46.0745 21.3011 46.3105 21.3651 46.6465 21.3651H47.4505V22.2891H46.4665C45.8585 22.2891 45.4025 22.1491 45.0985 21.8691C44.7945 21.5891 44.6425 21.1291 44.6425 20.4891V16.6131H43.7905V15.7131H44.6425V14.0571H45.7345V15.7131H47.4505V16.6131H45.7345ZM49.8656 16.7811C50.0576 16.4051 50.3296 16.1131 50.6816 15.9051C51.0416 15.6971 51.4776 15.5931 51.9896 15.5931V16.7211H51.7016C50.4776 16.7211 49.8656 17.3851 49.8656 18.7131V22.2891H48.7736V15.7131H49.8656V16.7811ZM52.8422 18.9771C52.8422 18.3051 52.9782 17.7171 53.2502 17.2131C53.5222 16.7011 53.8942 16.3051 54.3662 16.0251C54.8462 15.7451 55.3782 15.6051 55.9622 15.6051C56.5382 15.6051 57.0382 15.7291 57.4622 15.9771C57.8862 16.2251 58.2022 16.5371 58.4102 16.9131V15.7131H59.5142V22.2891H58.4102V21.0651C58.1942 21.4491 57.8702 21.7691 57.4382 22.0251C57.0142 22.2731 56.5182 22.3971 55.9502 22.3971C55.3662 22.3971 54.8382 22.2531 54.3662 21.9651C53.8942 21.6771 53.5222 21.2731 53.2502 20.7531C52.9782 20.2331 52.8422 19.6411 52.8422 18.9771ZM58.4102 18.9891C58.4102 18.4931 58.3102 18.0611 58.1102 17.6931C57.9102 17.3251 57.6382 17.0451 57.2942 16.8531C56.9582 16.6531 56.5862 16.5531 56.1782 16.5531C55.7702 16.5531 55.3982 16.6491 55.0622 16.8411C54.7262 17.0331 54.4582 17.3131 54.2582 17.6811C54.0582 18.0491 53.9582 18.4811 53.9582 18.9771C53.9582 19.4811 54.0582 19.9211 54.2582 20.2971C54.4582 20.6651 54.7262 20.9491 55.0622 21.1491C55.3982 21.3411 55.7702 21.4371 56.1782 21.4371C56.5862 21.4371 56.9582 21.3411 57.2942 21.1491C57.6382 20.9491 57.9102 20.6651 58.1102 20.2971C58.3102 19.9211 58.4102 19.4851 58.4102 18.9891ZM62.6915 16.6131V20.4891C62.6915 20.8091 62.7595 21.0371 62.8955 21.1731C63.0315 21.3011 63.2675 21.3651 63.6035 21.3651H64.4075V22.2891H63.4235C62.8155 22.2891 62.3595 22.1491 62.0555 21.8691C61.7515 21.5891 61.5995 21.1291 61.5995 20.4891V16.6131H60.7475V15.7131H61.5995V14.0571H62.6915V15.7131H64.4075V16.6131H62.6915ZM66.2946 14.6451C66.0866 14.6451 65.9106 14.5731 65.7666 14.4291C65.6226 14.2851 65.5506 14.1091 65.5506 13.9011C65.5506 13.6931 65.6226 13.5171 65.7666 13.3731C65.9106 13.2291 66.0866 13.1571 66.2946 13.1571C66.4946 13.1571 66.6626 13.2291 66.7986 13.3731C66.9426 13.5171 67.0146 13.6931 67.0146 13.9011C67.0146 14.1091 66.9426 14.2851 66.7986 14.4291C66.6626 14.5731 66.4946 14.6451 66.2946 14.6451ZM66.8226 15.7131V22.2891H65.7306V15.7131H66.8226ZM71.5518 22.3971C70.9358 22.3971 70.3758 22.2571 69.8718 21.9771C69.3758 21.6971 68.9838 21.3011 68.6958 20.7891C68.4158 20.2691 68.2758 19.6691 68.2758 18.9891C68.2758 18.3171 68.4198 17.7251 68.7078 17.2131C69.0038 16.6931 69.4038 16.2971 69.9078 16.0251C70.4118 15.7451 70.9758 15.6051 71.5998 15.6051C72.2238 15.6051 72.7878 15.7451 73.2918 16.0251C73.7958 16.2971 74.1918 16.6891 74.4798 17.2011C74.7758 17.7131 74.9238 18.3091 74.9238 18.9891C74.9238 19.6691 74.7718 20.2691 74.4678 20.7891C74.1718 21.3011 73.7678 21.6971 73.2558 21.9771C72.7438 22.2571 72.1758 22.3971 71.5518 22.3971ZM71.5518 21.4371C71.9438 21.4371 72.3118 21.3451 72.6558 21.1611C72.9998 20.9771 73.2758 20.7011 73.4838 20.3331C73.6998 19.9651 73.8078 19.5171 73.8078 18.9891C73.8078 18.4611 73.7038 18.0131 73.4958 17.6451C73.2878 17.2771 73.0158 17.0051 72.6798 16.8291C72.3438 16.6451 71.9798 16.5531 71.5878 16.5531C71.1878 16.5531 70.8198 16.6451 70.4838 16.8291C70.1558 17.0051 69.8918 17.2771 69.6918 17.6451C69.4918 18.0131 69.3918 18.4611 69.3918 18.9891C69.3918 19.5251 69.4878 19.9771 69.6798 20.3451C69.8798 20.7131 70.1438 20.9891 70.4718 21.1731C70.7998 21.3491 71.1598 21.4371 71.5518 21.4371ZM79.5635 15.5931C80.3635 15.5931 81.0115 15.8371 81.5075 16.3251C82.0035 16.8051 82.2515 17.5011 82.2515 18.4131V22.2891H81.1715V18.5691C81.1715 17.9131 81.0075 17.4131 80.6795 17.0691C80.3515 16.7171 79.9035 16.5411 79.3355 16.5411C78.7595 16.5411 78.2995 16.7211 77.9555 17.0811C77.6195 17.4411 77.4515 17.9651 77.4515 18.6531V22.2891H76.3595V15.7131H77.4515V16.6491C77.6675 16.3131 77.9595 16.0531 78.3275 15.8691C78.7035 15.6851 79.1155 15.5931 79.5635 15.5931ZM89.8865 22.3731C89.3345 22.3731 88.8385 22.2771 88.3985 22.0851C87.9665 21.8851 87.6265 21.6131 87.3785 21.2691C87.1305 20.9171 87.0025 20.5131 86.9945 20.0571H88.1585C88.1985 20.4491 88.3585 20.7811 88.6385 21.0531C88.9265 21.3171 89.3425 21.4491 89.8865 21.4491C90.4065 21.4491 90.8145 21.3211 91.1105 21.0651C91.4145 20.8011 91.5665 20.4651 91.5665 20.0571C91.5665 19.7371 91.4785 19.4771 91.3025 19.2771C91.1265 19.0771 90.9065 18.9251 90.6425 18.8211C90.3785 18.7171 90.0225 18.6051 89.5745 18.4851C89.0225 18.3411 88.5785 18.1971 88.2425 18.0531C87.9145 17.9091 87.6305 17.6851 87.3905 17.3811C87.1585 17.0691 87.0425 16.6531 87.0425 16.1331C87.0425 15.6771 87.1585 15.2731 87.3905 14.9211C87.6225 14.5691 87.9465 14.2971 88.3625 14.1051C88.7865 13.9131 89.2705 13.8171 89.8145 13.8171C90.5985 13.8171 91.2385 14.0131 91.7345 14.4051C92.2385 14.7971 92.5225 15.3171 92.5865 15.9651H91.3865C91.3465 15.6451 91.1785 15.3651 90.8825 15.1251C90.5865 14.8771 90.1945 14.7531 89.7065 14.7531C89.2505 14.7531 88.8785 14.8731 88.5905 15.1131C88.3025 15.3451 88.1585 15.6731 88.1585 16.0971C88.1585 16.4011 88.2425 16.6491 88.4105 16.8411C88.5865 17.0331 88.7985 17.1811 89.0465 17.2851C89.3025 17.3811 89.6585 17.4931 90.1145 17.6211C90.6665 17.7731 91.1105 17.9251 91.4465 18.0771C91.7825 18.2211 92.0705 18.4491 92.3105 18.7611C92.5505 19.0651 92.6705 19.4811 92.6705 20.0091C92.6705 20.4171 92.5625 20.8011 92.3465 21.1611C92.1305 21.5211 91.8105 21.8131 91.3865 22.0371C90.9625 22.2611 90.4625 22.3731 89.8865 22.3731ZM100.11 15.7131V22.2891H99.0175V21.3171C98.8095 21.6531 98.5175 21.9171 98.1415 22.1091C97.7735 22.2931 97.3655 22.3851 96.9175 22.3851C96.4055 22.3851 95.9455 22.2811 95.5375 22.0731C95.1295 21.8571 94.8055 21.5371 94.5655 21.1131C94.3335 20.6891 94.2175 20.1731 94.2175 19.5651V15.7131H95.2975V19.4211C95.2975 20.0691 95.4615 20.5691 95.7895 20.9211C96.1175 21.2651 96.5655 21.4371 97.1335 21.4371C97.7175 21.4371 98.1775 21.2571 98.5135 20.8971C98.8495 20.5371 99.0175 20.0131 99.0175 19.3251V15.7131H100.11ZM101.545 18.9891C101.545 18.3091 101.681 17.7171 101.953 17.2131C102.225 16.7011 102.601 16.3051 103.081 16.0251C103.569 15.7451 104.125 15.6051 104.749 15.6051C105.557 15.6051 106.221 15.8011 106.741 16.1931C107.269 16.5851 107.617 17.1291 107.785 17.8251H106.609C106.497 17.4251 106.277 17.1091 105.949 16.8771C105.629 16.6451 105.229 16.5291 104.749 16.5291C104.125 16.5291 103.621 16.7451 103.237 17.1771C102.853 17.6011 102.661 18.2051 102.661 18.9891C102.661 19.7811 102.853 20.3931 103.237 20.8251C103.621 21.2571 104.125 21.4731 104.749 21.4731C105.229 21.4731 105.629 21.3611 105.949 21.1371C106.269 20.9131 106.489 20.5931 106.609 20.1771H107.785C107.609 20.8491 107.257 21.3891 106.729 21.7971C106.201 22.1971 105.541 22.3971 104.749 22.3971C104.125 22.3971 103.569 22.2571 103.081 21.9771C102.601 21.6971 102.225 21.3011 101.953 20.7891C101.681 20.2771 101.545 19.6771 101.545 18.9891ZM108.834 18.9891C108.834 18.3091 108.97 17.7171 109.242 17.2131C109.514 16.7011 109.89 16.3051 110.37 16.0251C110.858 15.7451 111.414 15.6051 112.038 15.6051C112.846 15.6051 113.51 15.8011 114.03 16.1931C114.558 16.5851 114.906 17.1291 115.074 17.8251H113.898C113.786 17.4251 113.566 17.1091 113.238 16.8771C112.918 16.6451 112.518 16.5291 112.038 16.5291C111.414 16.5291 110.91 16.7451 110.526 17.1771C110.142 17.6011 109.95 18.2051 109.95 18.9891C109.95 19.7811 110.142 20.3931 110.526 20.8251C110.91 21.2571 111.414 21.4731 112.038 21.4731C112.518 21.4731 112.918 21.3611 113.238 21.1371C113.558 20.9131 113.778 20.5931 113.898 20.1771H115.074C114.898 20.8491 114.546 21.3891 114.018 21.7971C113.49 22.1971 112.83 22.3971 112.038 22.3971C111.414 22.3971 110.858 22.2571 110.37 21.9771C109.89 21.6971 109.514 21.3011 109.242 20.7891C108.97 20.2771 108.834 19.6771 108.834 18.9891ZM122.531 18.7491C122.531 18.9571 122.519 19.1771 122.495 19.4091H117.239C117.279 20.0571 117.499 20.5651 117.899 20.9331C118.307 21.2931 118.799 21.4731 119.375 21.4731C119.847 21.4731 120.239 21.3651 120.551 21.1491C120.871 20.9251 121.095 20.6291 121.223 20.2611H122.399C122.223 20.8931 121.871 21.4091 121.343 21.8091C120.815 22.2011 120.159 22.3971 119.375 22.3971C118.751 22.3971 118.191 22.2571 117.695 21.9771C117.207 21.6971 116.823 21.3011 116.543 20.7891C116.263 20.2691 116.123 19.6691 116.123 18.9891C116.123 18.3091 116.259 17.7131 116.531 17.2011C116.803 16.6891 117.183 16.2971 117.671 16.0251C118.167 15.7451 118.735 15.6051 119.375 15.6051C119.999 15.6051 120.551 15.7411 121.031 16.0131C121.511 16.2851 121.879 16.6611 122.135 17.1411C122.399 17.6131 122.531 18.1491 122.531 18.7491ZM121.403 18.5211C121.403 18.1051 121.311 17.7491 121.127 17.4531C120.943 17.1491 120.691 16.9211 120.371 16.7691C120.059 16.6091 119.711 16.5291 119.327 16.5291C118.775 16.5291 118.303 16.7051 117.911 17.0571C117.527 17.4091 117.307 17.8971 117.251 18.5211H121.403ZM126.301 22.3971C125.797 22.3971 125.345 22.3131 124.945 22.1451C124.545 21.9691 124.229 21.7291 123.997 21.4251C123.765 21.1131 123.637 20.7571 123.613 20.3571H124.741C124.773 20.6851 124.925 20.9531 125.197 21.1611C125.477 21.3691 125.841 21.4731 126.289 21.4731C126.705 21.4731 127.033 21.3811 127.273 21.1971C127.513 21.0131 127.633 20.7811 127.633 20.5011C127.633 20.2131 127.505 20.0011 127.249 19.8651C126.993 19.7211 126.597 19.5811 126.061 19.4451C125.573 19.3171 125.173 19.1891 124.861 19.0611C124.557 18.9251 124.293 18.7291 124.069 18.4731C123.853 18.2091 123.745 17.8651 123.745 17.4411C123.745 17.1051 123.845 16.7971 124.045 16.5171C124.245 16.2371 124.529 16.0171 124.897 15.8571C125.265 15.6891 125.685 15.6051 126.157 15.6051C126.885 15.6051 127.473 15.7891 127.921 16.1571C128.369 16.5251 128.609 17.0291 128.641 17.6691H127.549C127.525 17.3251 127.385 17.0491 127.129 16.8411C126.881 16.6331 126.545 16.5291 126.121 16.5291C125.729 16.5291 125.417 16.6131 125.185 16.7811C124.953 16.9491 124.837 17.1691 124.837 17.4411C124.837 17.6571 124.905 17.8371 125.041 17.9811C125.185 18.1171 125.361 18.2291 125.569 18.3171C125.785 18.3971 126.081 18.4891 126.457 18.5931C126.929 18.7211 127.313 18.8491 127.609 18.9771C127.905 19.0971 128.157 19.2811 128.365 19.5291C128.581 19.7771 128.693 20.1011 128.701 20.5011C128.701 20.8611 128.601 21.1851 128.401 21.4731C128.201 21.7611 127.917 21.9891 127.549 22.1571C127.189 22.3171 126.773 22.3971 126.301 22.3971ZM132.57 22.3971C132.066 22.3971 131.614 22.3131 131.214 22.1451C130.814 21.9691 130.498 21.7291 130.266 21.4251C130.034 21.1131 129.906 20.7571 129.882 20.3571H131.01C131.042 20.6851 131.194 20.9531 131.466 21.1611C131.746 21.3691 132.11 21.4731 132.558 21.4731C132.974 21.4731 133.302 21.3811 133.542 21.1971C133.782 21.0131 133.902 20.7811 133.902 20.5011C133.902 20.2131 133.774 20.0011 133.518 19.8651C133.262 19.7211 132.866 19.5811 132.33 19.4451C131.842 19.3171 131.442 19.1891 131.13 19.0611C130.826 18.9251 130.562 18.7291 130.338 18.4731C130.122 18.2091 130.014 17.8651 130.014 17.4411C130.014 17.1051 130.114 16.7971 130.314 16.5171C130.514 16.2371 130.798 16.0171 131.166 15.8571C131.534 15.6891 131.954 15.6051 132.426 15.6051C133.154 15.6051 133.742 15.7891 134.19 16.1571C134.638 16.5251 134.878 17.0291 134.91 17.6691H133.818C133.794 17.3251 133.654 17.0491 133.398 16.8411C133.15 16.6331 132.814 16.5291 132.39 16.5291C131.998 16.5291 131.686 16.6131 131.454 16.7811C131.222 16.9491 131.106 17.1691 131.106 17.4411C131.106 17.6571 131.174 17.8371 131.31 17.9811C131.454 18.1171 131.63 18.2291 131.838 18.3171C132.054 18.3971 132.35 18.4891 132.726 18.5931C133.198 18.7211 133.582 18.8491 133.878 18.9771C134.174 19.0971 134.426 19.2811 134.634 19.5291C134.85 19.7771 134.962 20.1011 134.97 20.5011C134.97 20.8611 134.87 21.1851 134.67 21.4731C134.47 21.7611 134.186 21.9891 133.818 22.1571C133.458 22.3171 133.042 22.3971 132.57 22.3971ZM139.188 16.6131H137.808V22.2891H136.716V16.6131H135.864V15.7131H136.716V15.2451C136.716 14.5091 136.904 13.9731 137.28 13.6371C137.664 13.2931 138.276 13.1211 139.116 13.1211V14.0331C138.636 14.0331 138.296 14.1291 138.096 14.3211C137.904 14.5051 137.808 14.8131 137.808 15.2451V15.7131H139.188V16.6131ZM146.293 15.7131V22.2891H145.201V21.3171C144.993 21.6531 144.701 21.9171 144.325 22.1091C143.957 22.2931 143.549 22.3851 143.101 22.3851C142.589 22.3851 142.129 22.2811 141.721 22.0731C141.313 21.8571 140.989 21.5371 140.749 21.1131C140.517 20.6891 140.401 20.1731 140.401 19.5651V15.7131H141.481V19.4211C141.481 20.0691 141.645 20.5691 141.973 20.9211C142.301 21.2651 142.749 21.4371 143.317 21.4371C143.901 21.4371 144.361 21.2571 144.697 20.8971C145.033 20.5371 145.201 20.0131 145.201 19.3251V15.7131H146.293ZM149.229 13.4091V22.2891H148.137V13.4091H149.229ZM152.182 13.4091V22.2891H151.09V13.4091H152.182Z" fill="white"/>
</svg>
