<svg width="149" height="37" viewBox="0 0 149 37" fill="none" xmlns="http://www.w3.org/2000/svg">
<path d="M4.47852 21.3242L4.47852 0.324219L128.479 0.324219C133.783 0.324219 138.87 2.43135 142.621 6.18208C146.371 9.93281 148.479 15.0199 148.479 20.3242V32.3242L15.4785 32.3242C12.5611 32.3242 9.76324 31.1653 7.70034 29.1024C5.63744 27.0395 4.47852 24.2416 4.47852 21.3242Z" fill="#FC8B8B"/>
<path d="M4.47949 0.324219L0.519531 5.30821H4.47949V0.324219Z" fill="#CC6969"/>
<path d="M148.479 32.293L143.495 36.252V32.293H148.479Z" fill="#CC6969"/>
<path d="M54.1405 22.2891L52.1485 18.8691H50.8285V22.2891H49.7365V13.9251H52.4365C53.0685 13.9251 53.6005 14.0331 54.0325 14.2491C54.4725 14.4651 54.8005 14.7571 55.0165 15.1251C55.2325 15.4931 55.3405 15.9131 55.3405 16.3851C55.3405 16.9611 55.1725 17.4691 54.8365 17.9091C54.5085 18.3491 54.0125 18.6411 53.3485 18.7851L55.4485 22.2891H54.1405ZM50.8285 17.9931H52.4365C53.0285 17.9931 53.4725 17.8491 53.7685 17.5611C54.0645 17.2651 54.2125 16.8731 54.2125 16.3851C54.2125 15.8891 54.0645 15.5051 53.7685 15.2331C53.4805 14.9611 53.0365 14.8251 52.4365 14.8251H50.8285V17.9931ZM63.0373 18.7491C63.0373 18.9571 63.0253 19.1771 63.0013 19.4091H57.7453C57.7853 20.0571 58.0053 20.5651 58.4053 20.9331C58.8133 21.2931 59.3053 21.4731 59.8813 21.4731C60.3533 21.4731 60.7453 21.3651 61.0573 21.1491C61.3773 20.9251 61.6013 20.6291 61.7293 20.2611H62.9053C62.7293 20.8931 62.3773 21.4091 61.8493 21.8091C61.3213 22.2011 60.6653 22.3971 59.8813 22.3971C59.2573 22.3971 58.6973 22.2571 58.2013 21.9771C57.7133 21.6971 57.3293 21.3011 57.0493 20.7891C56.7693 20.2691 56.6293 19.6691 56.6293 18.9891C56.6293 18.3091 56.7653 17.7131 57.0373 17.2011C57.3093 16.6891 57.6893 16.2971 58.1773 16.0251C58.6733 15.7451 59.2413 15.6051 59.8813 15.6051C60.5053 15.6051 61.0573 15.7411 61.5373 16.0131C62.0173 16.2851 62.3853 16.6611 62.6413 17.1411C62.9053 17.6131 63.0373 18.1491 63.0373 18.7491ZM61.9093 18.5211C61.9093 18.1051 61.8173 17.7491 61.6333 17.4531C61.4493 17.1491 61.1973 16.9211 60.8773 16.7691C60.5653 16.6091 60.2173 16.5291 59.8333 16.5291C59.2813 16.5291 58.8093 16.7051 58.4173 17.0571C58.0333 17.4091 57.8133 17.8971 57.7573 18.5211H61.9093ZM65.0667 14.6451C64.8587 14.6451 64.6827 14.5731 64.5387 14.4291C64.4027 14.2851 64.3347 14.1091 64.3347 13.9011C64.3347 13.6931 64.4027 13.5171 64.5387 13.3731C64.6827 13.2291 64.8587 13.1571 65.0667 13.1571C65.2747 13.1571 65.4467 13.2291 65.5827 13.3731C65.7267 13.5171 65.7987 13.6931 65.7987 13.9011C65.7987 14.1091 65.7267 14.2851 65.5827 14.4291C65.4467 14.5731 65.2747 14.6451 65.0667 14.6451ZM65.6067 23.7171C65.6067 24.3011 65.4587 24.7291 65.1627 25.0011C64.8667 25.2731 64.4347 25.4091 63.8667 25.4091H63.2307V24.4851H63.6867C63.9907 24.4851 64.2027 24.4251 64.3227 24.3051C64.4507 24.1851 64.5147 23.9811 64.5147 23.6931V15.7131H65.6067V23.7171ZM73.4553 18.7491C73.4553 18.9571 73.4433 19.1771 73.4193 19.4091H68.1633C68.2033 20.0571 68.4233 20.5651 68.8233 20.9331C69.2313 21.2931 69.7233 21.4731 70.2993 21.4731C70.7713 21.4731 71.1633 21.3651 71.4753 21.1491C71.7953 20.9251 72.0193 20.6291 72.1473 20.2611H73.3233C73.1473 20.8931 72.7953 21.4091 72.2673 21.8091C71.7393 22.2011 71.0833 22.3971 70.2993 22.3971C69.6753 22.3971 69.1153 22.2571 68.6193 21.9771C68.1313 21.6971 67.7473 21.3011 67.4673 20.7891C67.1873 20.2691 67.0473 19.6691 67.0473 18.9891C67.0473 18.3091 67.1833 17.7131 67.4553 17.2011C67.7273 16.6891 68.1073 16.2971 68.5953 16.0251C69.0913 15.7451 69.6593 15.6051 70.2993 15.6051C70.9233 15.6051 71.4753 15.7411 71.9553 16.0131C72.4353 16.2851 72.8033 16.6611 73.0593 17.1411C73.3233 17.6131 73.4553 18.1491 73.4553 18.7491ZM72.3273 18.5211C72.3273 18.1051 72.2353 17.7491 72.0513 17.4531C71.8673 17.1491 71.6153 16.9211 71.2953 16.7691C70.9833 16.6091 70.6353 16.5291 70.2513 16.5291C69.6993 16.5291 69.2273 16.7051 68.8353 17.0571C68.4513 17.4091 68.2313 17.8971 68.1753 18.5211H72.3273ZM74.4887 18.9891C74.4887 18.3091 74.6247 17.7171 74.8967 17.2131C75.1687 16.7011 75.5447 16.3051 76.0247 16.0251C76.5127 15.7451 77.0687 15.6051 77.6927 15.6051C78.5007 15.6051 79.1647 15.8011 79.6847 16.1931C80.2127 16.5851 80.5607 17.1291 80.7287 17.8251H79.5527C79.4407 17.4251 79.2207 17.1091 78.8927 16.8771C78.5727 16.6451 78.1727 16.5291 77.6927 16.5291C77.0687 16.5291 76.5647 16.7451 76.1807 17.1771C75.7967 17.6011 75.6047 18.2051 75.6047 18.9891C75.6047 19.7811 75.7967 20.3931 76.1807 20.8251C76.5647 21.2571 77.0687 21.4731 77.6927 21.4731C78.1727 21.4731 78.5727 21.3611 78.8927 21.1371C79.2127 20.9131 79.4327 20.5931 79.5527 20.1771H80.7287C80.5527 20.8491 80.2007 21.3891 79.6727 21.7971C79.1447 22.1971 78.4847 22.3971 77.6927 22.3971C77.0687 22.3971 76.5127 22.2571 76.0247 21.9771C75.5447 21.6971 75.1687 21.3011 74.8967 20.7891C74.6247 20.2771 74.4887 19.6771 74.4887 18.9891ZM83.5177 16.6131V20.4891C83.5177 20.8091 83.5857 21.0371 83.7217 21.1731C83.8577 21.3011 84.0937 21.3651 84.4297 21.3651H85.2337V22.2891H84.2497C83.6417 22.2891 83.1857 22.1491 82.8817 21.8691C82.5777 21.5891 82.4257 21.1291 82.4257 20.4891V16.6131H81.5737V15.7131H82.4257V14.0571H83.5177V15.7131H85.2337V16.6131H83.5177ZM92.5568 18.7491C92.5568 18.9571 92.5448 19.1771 92.5208 19.4091H87.2648C87.3048 20.0571 87.5248 20.5651 87.9248 20.9331C88.3328 21.2931 88.8248 21.4731 89.4008 21.4731C89.8728 21.4731 90.2648 21.3651 90.5768 21.1491C90.8968 20.9251 91.1208 20.6291 91.2488 20.2611H92.4248C92.2488 20.8931 91.8968 21.4091 91.3688 21.8091C90.8408 22.2011 90.1848 22.3971 89.4008 22.3971C88.7768 22.3971 88.2168 22.2571 87.7208 21.9771C87.2328 21.6971 86.8488 21.3011 86.5688 20.7891C86.2888 20.2691 86.1488 19.6691 86.1488 18.9891C86.1488 18.3091 86.2848 17.7131 86.5568 17.2011C86.8288 16.6891 87.2088 16.2971 87.6968 16.0251C88.1928 15.7451 88.7608 15.6051 89.4008 15.6051C90.0248 15.6051 90.5768 15.7411 91.0568 16.0131C91.5368 16.2851 91.9048 16.6611 92.1608 17.1411C92.4248 17.6131 92.5568 18.1491 92.5568 18.7491ZM91.4288 18.5211C91.4288 18.1051 91.3368 17.7491 91.1528 17.4531C90.9688 17.1491 90.7168 16.9211 90.3968 16.7691C90.0848 16.6091 89.7368 16.5291 89.3528 16.5291C88.8008 16.5291 88.3288 16.7051 87.9368 17.0571C87.5528 17.4091 87.3328 17.8971 87.2768 18.5211H91.4288ZM93.5902 18.9771C93.5902 18.3051 93.7262 17.7171 93.9982 17.2131C94.2702 16.7011 94.6422 16.3051 95.1142 16.0251C95.5942 15.7451 96.1302 15.6051 96.7222 15.6051C97.2342 15.6051 97.7102 15.7251 98.1502 15.9651C98.5902 16.1971 98.9262 16.5051 99.1582 16.8891V13.4091H100.262V22.2891H99.1582V21.0531C98.9422 21.4451 98.6222 21.7691 98.1982 22.0251C97.7742 22.2731 97.2782 22.3971 96.7102 22.3971C96.1262 22.3971 95.5942 22.2531 95.1142 21.9651C94.6422 21.6771 94.2702 21.2731 93.9982 20.7531C93.7262 20.2331 93.5902 19.6411 93.5902 18.9771ZM99.1582 18.9891C99.1582 18.4931 99.0582 18.0611 98.8582 17.6931C98.6582 17.3251 98.3862 17.0451 98.0422 16.8531C97.7062 16.6531 97.3342 16.5531 96.9262 16.5531C96.5182 16.5531 96.1462 16.6491 95.8102 16.8411C95.4742 17.0331 95.2062 17.3131 95.0062 17.6811C94.8062 18.0491 94.7062 18.4811 94.7062 18.9771C94.7062 19.4811 94.8062 19.9211 95.0062 20.2971C95.2062 20.6651 95.4742 20.9491 95.8102 21.1491C96.1462 21.3411 96.5182 21.4371 96.9262 21.4371C97.3342 21.4371 97.7062 21.3411 98.0422 21.1491C98.3862 20.9491 98.6582 20.6651 98.8582 20.2971C99.0582 19.9211 99.1582 19.4851 99.1582 18.9891Z" fill="white"/>
</svg>
