<svg width="21" height="21" viewBox="0 0 21 21" fill="none" xmlns="http://www.w3.org/2000/svg">
<path fill-rule="evenodd" clip-rule="evenodd" d="M8.39844 15.5898C12.1954 15.5898 15.2734 12.5118 15.2734 8.71484C15.2734 4.91789 12.1954 1.83984 8.39844 1.83984C4.60148 1.83984 1.52344 4.91789 1.52344 8.71484C1.52344 12.5118 4.60148 15.5898 8.39844 15.5898ZM16.5234 8.71484C16.5234 13.2022 12.8858 16.8398 8.39844 16.8398C3.91112 16.8398 0.273438 13.2022 0.273438 8.71484C0.273438 4.22753 3.91112 0.589844 8.39844 0.589844C12.8858 0.589844 16.5234 4.22753 16.5234 8.71484Z" fill="#1E0A1B" fill-opacity="0.3"/>
<path d="M13.2033 15.2675C13.2402 15.3175 13.2812 15.3654 13.3265 15.4107L18.1396 20.2237C18.6277 20.7119 19.4192 20.7119 19.9073 20.2237C20.3955 19.7356 20.3955 18.9441 19.9073 18.456L15.0942 13.6429C15.049 13.5976 15.0011 13.5566 14.9511 13.5197C14.4608 14.1873 13.8709 14.7772 13.2033 15.2675Z" fill="#1E0A1B" fill-opacity="0.3"/>
</svg>
