<svg width="51" height="51" viewBox="0 0 51 51" fill="none" xmlns="http://www.w3.org/2000/svg">
<rect x="0.178711" y="0.482422" width="50" height="50" rx="20" fill="#C7E64B"/>
<g clip-path="url(#clip0_123_2938)">
<path d="M13.3145 40.248C12.4442 40.248 11.6096 39.9023 10.9943 39.287C10.3789 38.6716 10.0332 37.837 10.0332 36.9668V13.5293C10.0332 11.718 11.5032 10.248 13.3145 10.248H29.252C31.0632 10.248 32.5332 11.718 32.5332 13.5293V36.9668C32.5332 37.1262 32.522 37.2818 32.4995 37.4355H36.752C36.8763 37.4355 36.9955 37.3862 37.0834 37.2983C37.1713 37.2103 37.2207 37.0911 37.2207 36.9668V25.7824C37.2208 25.7053 37.2018 25.6294 37.1655 25.5613C37.1292 25.4933 37.0767 25.4353 37.0126 25.3924L35.0345 24.0743C34.8808 23.9719 34.7488 23.8402 34.6461 23.6867C34.5433 23.5333 34.4718 23.3611 34.4356 23.1801C34.3994 22.999 34.3992 22.8126 34.435 22.6314C34.4709 22.4503 34.542 22.2779 34.6445 22.1243C34.7469 21.9707 34.8786 21.8387 35.032 21.7359C35.1854 21.6332 35.3576 21.5617 35.5387 21.5254C35.7198 21.4892 35.9062 21.489 36.0873 21.5249C36.2685 21.5607 36.4408 21.6319 36.5945 21.7343L38.5726 23.0524C39.4857 23.6618 40.0332 24.6855 40.0332 25.7824V36.9668C40.0332 37.837 39.6875 38.6716 39.0721 39.287C38.4568 39.9023 37.6222 40.248 36.752 40.248H30.1895C30.0647 40.2479 29.9406 40.2315 29.8201 40.1993C29.6345 40.2312 29.4451 40.248 29.252 40.248H23.627C23.254 40.248 22.8963 40.0999 22.6326 39.8362C22.3689 39.5724 22.2207 39.2148 22.2207 38.8418V36.498H20.3457V38.8418C20.3457 39.2148 20.1975 39.5724 19.9338 39.8362C19.6701 40.0999 19.3124 40.248 18.9395 40.248H13.3145ZM12.8457 36.9668C12.8457 37.2255 13.0557 37.4355 13.3145 37.4355H17.5332V35.0918C17.5332 34.7188 17.6814 34.3612 17.9451 34.0974C18.2088 33.8337 18.5665 33.6855 18.9395 33.6855H23.627C23.9999 33.6855 24.3576 33.8337 24.6213 34.0974C24.885 34.3612 25.0332 34.7188 25.0332 35.0918V37.4355H29.252C29.3763 37.4355 29.4955 37.3862 29.5834 37.2983C29.6713 37.2103 29.7207 37.0911 29.7207 36.9668V13.5293C29.7207 13.405 29.6713 13.2857 29.5834 13.1978C29.4955 13.1099 29.3763 13.0605 29.252 13.0605H13.3145C13.1901 13.0605 13.0709 13.1099 12.983 13.1978C12.8951 13.2857 12.8457 13.405 12.8457 13.5293V36.9668ZM17.0645 21.498H18.002C18.3749 21.498 18.7326 21.6462 18.9963 21.9099C19.26 22.1737 19.4082 22.5313 19.4082 22.9043C19.4082 23.2773 19.26 23.6349 18.9963 23.8987C18.7326 24.1624 18.3749 24.3105 18.002 24.3105H17.0645C16.6915 24.3105 16.3338 24.1624 16.0701 23.8987C15.8064 23.6349 15.6582 23.2773 15.6582 22.9043C15.6582 22.5313 15.8064 22.1737 16.0701 21.9099C16.3338 21.6462 16.6915 21.498 17.0645 21.498ZM15.6582 17.2793C15.6582 16.9063 15.8064 16.5487 16.0701 16.2849C16.3338 16.0212 16.6915 15.873 17.0645 15.873H18.002C18.3749 15.873 18.7326 16.0212 18.9963 16.2849C19.26 16.5487 19.4082 16.9063 19.4082 17.2793C19.4082 17.6523 19.26 18.0099 18.9963 18.2737C18.7326 18.5374 18.3749 18.6855 18.002 18.6855H17.0645C16.6915 18.6855 16.3338 18.5374 16.0701 18.2737C15.8064 18.0099 15.6582 17.6523 15.6582 17.2793ZM23.1582 22.9043C23.1582 22.5313 23.3064 22.1737 23.5701 21.9099C23.8338 21.6462 24.1915 21.498 24.5645 21.498H25.502C25.8749 21.498 26.2326 21.6462 26.4963 21.9099C26.76 22.1737 26.9082 22.5313 26.9082 22.9043C26.9082 23.2773 26.76 23.6349 26.4963 23.8987C26.2326 24.1624 25.8749 24.3105 25.502 24.3105H24.5645C24.1915 24.3105 23.8338 24.1624 23.5701 23.8987C23.3064 23.6349 23.1582 23.2773 23.1582 22.9043ZM24.5645 15.873H25.502C25.8749 15.873 26.2326 16.0212 26.4963 16.2849C26.76 16.5487 26.9082 16.9063 26.9082 17.2793C26.9082 17.6523 26.76 18.0099 26.4963 18.2737C26.2326 18.5374 25.8749 18.6855 25.502 18.6855H24.5645C24.1915 18.6855 23.8338 18.5374 23.5701 18.2737C23.3064 18.0099 23.1582 17.6523 23.1582 17.2793C23.1582 16.9063 23.3064 16.5487 23.5701 16.2849C23.8338 16.0212 24.1915 15.873 24.5645 15.873ZM15.6582 28.5293C15.6582 28.1563 15.8064 27.7987 16.0701 27.5349C16.3338 27.2712 16.6915 27.123 17.0645 27.123H18.002C18.3749 27.123 18.7326 27.2712 18.9963 27.5349C19.26 27.7987 19.4082 28.1563 19.4082 28.5293C19.4082 28.9023 19.26 29.2599 18.9963 29.5237C18.7326 29.7874 18.3749 29.9355 18.002 29.9355H17.0645C16.6915 29.9355 16.3338 29.7874 16.0701 29.5237C15.8064 29.2599 15.6582 28.9023 15.6582 28.5293ZM24.5645 27.123H25.502C25.8749 27.123 26.2326 27.2712 26.4963 27.5349C26.76 27.7987 26.9082 28.1563 26.9082 28.5293C26.9082 28.9023 26.76 29.2599 26.4963 29.5237C26.2326 29.7874 25.8749 29.9355 25.502 29.9355H24.5645C24.1915 29.9355 23.8338 29.7874 23.5701 29.5237C23.3064 29.2599 23.1582 28.9023 23.1582 28.5293C23.1582 28.1563 23.3064 27.7987 23.5701 27.5349C23.8338 27.2712 24.1915 27.123 24.5645 27.123Z" fill="#954386"/>
</g>
<defs>
<clipPath id="clip0_123_2938">
<rect width="30" height="30" fill="white" transform="translate(10.0332 10.248)"/>
</clipPath>
</defs>
</svg>
