<svg width="51" height="51" viewBox="0 0 51 51" fill="none" xmlns="http://www.w3.org/2000/svg">
<rect x="0.178711" y="0.482422" width="50" height="50" rx="20" fill="#C7E64B"/>
<path fill-rule="evenodd" clip-rule="evenodd" d="M24.5158 12.632C24.8819 12.2659 25.4755 12.2659 25.8416 12.632L37.0916 23.882C37.2674 24.0578 37.3662 24.2963 37.3662 24.5449V37.6699C37.3662 38.1877 36.9465 38.6074 36.4287 38.6074H27.9912C27.4734 38.6074 27.0537 38.1877 27.0537 37.6699V30.1699H23.3037V37.6699C23.3037 38.1877 22.884 38.6074 22.3662 38.6074H13.9287C13.4109 38.6074 12.9912 38.1877 12.9912 37.6699V24.5449C12.9912 24.2963 13.09 24.0578 13.2658 23.882L24.5158 12.632ZM14.8662 24.9332V36.7324H21.4287V29.2324C21.4287 28.7147 21.8484 28.2949 22.3662 28.2949H27.9912C28.509 28.2949 28.9287 28.7147 28.9287 29.2324V36.7324H35.4912V24.9332L25.1787 14.6207L14.8662 24.9332Z" fill="#954386"/>
<path fill-rule="evenodd" clip-rule="evenodd" d="M34.5537 15.1699V21.7324L30.8037 17.9824V15.1699C30.8037 14.6522 31.2234 14.2324 31.7412 14.2324H33.6162C34.134 14.2324 34.5537 14.6522 34.5537 15.1699Z" fill="#954386"/>
</svg>
