<svg version="1.2" xmlns="http://www.w3.org/2000/svg" viewBox="0 0 44 45" width="44" height="45">
	<title>subtopic_pending_icon-svg</title>
	<style>
		.s0 { fill: #fef9fb } 
		.s1 { fill: none;stroke: #ffffff } 
		.s2 { fill: #e7bb22 } 
	</style>
	<g id="Layer">
		<g id="Layer">
			<path id="Layer" class="s0" d="m22.2 42.2c11 0 20-9 20-20 0-11.1-9-20-20-20-11.1 0-20 8.9-20 20 0 11 8.9 20 20 20z"/>
			<path id="Layer" class="s1" d="m22.2 41.4c10.6 0 19.1-8.6 19.1-19.2 0-10.6-8.5-19.2-19.1-19.2-10.6 0-19.2 8.6-19.2 19.2 0 10.6 8.6 19.2 19.2 19.2z"/>
		</g>
	</g>
	<path id="Layer" fill-rule="evenodd" class="s2" d="m16 30.1c-0.3 0-0.6-0.3-0.6-0.6 0-0.3 0.3-0.6 0.6-0.6h1.1v-1.1c0-2 1.2-3.7 2.9-4.6 0.3-0.1 0.5-0.4 0.5-0.6v-0.8c0-0.2-0.2-0.5-0.5-0.7-1.7-0.8-2.9-2.5-2.9-4.5v-1.2h-1.1c-0.3 0-0.6-0.2-0.6-0.5 0-0.3 0.3-0.6 0.6-0.6h12.4c0.3 0 0.5 0.3 0.5 0.6 0 0.3-0.2 0.5-0.5 0.5h-1.2v1.2c0 2-1.1 3.7-2.8 4.5-0.4 0.2-0.5 0.5-0.5 0.7v0.8c0 0.2 0.1 0.5 0.5 0.6 1.7 0.9 2.8 2.6 2.8 4.6v1.1h1.2c0.3 0 0.5 0.3 0.5 0.6 0 0.3-0.2 0.6-0.5 0.6zm2.2-14.7v1.2q0 0.9 0.4 1.7h7.1q0.4-0.8 0.4-1.7v-1.2zm3.4 7.2c0 0.8-0.6 1.4-1.2 1.7-1.3 0.6-2.2 1.9-2.2 3.5 0 0 1-1.4 3.4-1.7zm1.1 3.6c2.4 0.2 3.4 1.7 3.4 1.7 0-1.6-0.9-2.9-2.3-3.6-0.6-0.3-1.1-0.9-1.1-1.7z"/>
</svg>