<svg version="1.2" xmlns="http://www.w3.org/2000/svg" viewBox="0 0 44 44" width="44" height="44">
	<title>subtopic_upcoming_icon-svg</title>
	<style>
		.s0 { fill: #fef9fb } 
		.s1 { fill: none;stroke: #ffffff } 
		.s2 { fill: none;stroke: #ff7272;stroke-linecap: round;stroke-linejoin: round;stroke-width: 1.2 } 
	</style>
	<g id="Layer">
		<g id="Layer">
			<path id="Layer" class="s0" d="m22.2 42.2c11 0 20-9 20-20 0-11.1-9-20-20-20-11.1 0-20 8.9-20 20 0 11 8.9 20 20 20z"/>
			<path id="Layer" class="s1" d="m22.2 41.4c10.6 0 19.1-8.6 19.1-19.2 0-10.6-8.5-19.2-19.1-19.2-10.6 0-19.2 8.6-19.2 19.2 0 10.6 8.6 19.2 19.2 19.2z"/>
		</g>
	</g>
	<path id="Layer" class="s2" d="m22.2 18.4v3.8l1.5 1.5m2.2 6l3.8-2.3-3.8-2.2z"/>
	<path id="Layer" class="s2" d="m22.9 28.9c-1.4 0.2-2.8-0.1-4-0.8-1.3-0.7-2.3-1.8-2.8-3.1-0.6-1.3-0.8-2.7-0.5-4.1 0.2-1.4 0.9-2.7 2-3.7 1-0.9 2.3-1.5 3.8-1.7 1.4-0.2 2.8 0.1 4 0.8 1.3 0.7 2.3 1.7 2.9 3 0.6 1.3 0.8 2.7 0.5 4.1"/>
</svg>