<svg width="17" height="17" viewBox="0 0 17 17" fill="none" xmlns="http://www.w3.org/2000/svg">
<g clip-path="url(#clip0_106_3490)">
<path d="M3.09142 0.867188C1.73758 0.867188 0.629883 1.97488 0.629883 3.32873V13.7903C0.629883 15.1441 1.73758 16.2518 3.09142 16.2518H9.86065C10.1068 16.2518 10.2914 16.194 10.476 16.194C9.6145 16.0093 8.87973 15.5749 8.26434 15.021H3.09142C2.4145 15.021 1.86065 14.4672 1.86065 13.7903V3.32873C1.86065 2.6518 2.4145 2.09796 3.09142 2.09796H6.97634C7.40711 2.22103 7.39911 2.77488 7.39911 3.32873V5.17488C7.39911 5.54411 7.64527 5.79026 8.0145 5.79026H9.86065C10.476 5.79026 11.0914 5.79026 11.0914 6.40565V7.02103H11.3991C11.7068 7.02103 12.0145 7.07519 12.3222 7.13673V5.79026C12.3222 5.11334 11.7142 4.49057 10.668 3.4438C10.4834 3.32073 10.353 3.14411 10.1683 3.02103C10.0453 2.83642 9.86804 2.70534 9.74496 2.52073C8.69942 1.47519 8.07604 0.867188 7.39911 0.867188H3.09142ZM11.3991 8.2518C9.55296 8.2518 8.0145 9.79026 8.0145 11.6364C8.0145 13.4826 9.55296 15.021 11.3991 15.021C12.1825 15.021 12.8976 14.7312 13.476 14.2709L13.6687 14.4635C13.5916 14.5776 13.5571 14.7152 13.5712 14.8522C13.5852 14.9892 13.647 15.1169 13.7456 15.213L15.284 16.7515C15.5302 16.9976 15.884 16.9976 16.1302 16.7515L16.4379 16.4438C16.684 16.1976 16.684 15.8247 16.4379 15.5786L14.8994 14.0401C14.8092 13.9457 14.6896 13.8848 14.5602 13.8673C14.4309 13.8499 14.2994 13.877 14.1874 13.9441L14.0145 13.7515C14.4902 13.1681 14.7837 12.4346 14.7837 11.6364C14.7837 9.79026 13.2453 8.2518 11.3991 8.2518ZM11.3991 9.17488C12.753 9.17488 13.8607 10.2826 13.8607 11.6364C13.8607 12.9903 12.753 14.098 11.3991 14.098C10.0453 14.098 8.93758 12.9903 8.93758 11.6364C8.93758 10.2826 10.0453 9.17488 11.3991 9.17488Z" fill="#111111"/>
</g>
<defs>
<clipPath id="clip0_106_3490">
<rect width="16" height="16" fill="white" transform="translate(0.629883 0.867188)"/>
</clipPath>
</defs>
</svg>
