<svg width="17" height="16" viewBox="0 0 17 16" fill="none" xmlns="http://www.w3.org/2000/svg">
<g clip-path="url(#clip0_39_5055)">
<path d="M2.6715 0C1.31765 0 0.209961 1.10769 0.209961 2.46154V12.9231C0.209961 14.2769 1.31765 15.3846 2.6715 15.3846H9.44073C9.68688 15.3846 9.8715 15.3268 10.0561 15.3268C9.19458 15.1422 8.45981 14.7077 7.84442 14.1538H2.6715C1.99458 14.1538 1.44073 13.6 1.44073 12.9231V2.46154C1.44073 1.78462 1.99458 1.23077 2.6715 1.23077H6.55642C6.98719 1.35385 6.97919 1.90769 6.97919 2.46154V4.30769C6.97919 4.67692 7.22535 4.92308 7.59458 4.92308H9.44073C10.0561 4.92308 10.6715 4.92308 10.6715 5.53846V6.15385H10.9792C11.2869 6.15385 11.5946 6.208 11.9023 6.26954V4.92308C11.9023 4.24615 11.2943 3.62338 10.2481 2.57662C10.0635 2.45354 9.93304 2.27692 9.74842 2.15385C9.62535 1.96923 9.44812 1.83815 9.32504 1.65354C8.2795 0.608 7.65612 0 6.97919 0H2.6715ZM10.9792 7.38461C9.13304 7.38461 7.59458 8.92308 7.59458 10.7692C7.59458 12.6154 9.13304 14.1538 10.9792 14.1538C11.7626 14.1538 12.4777 13.864 13.0561 13.4037L13.2487 13.5963C13.1717 13.7105 13.1372 13.848 13.1513 13.985C13.1653 14.122 13.227 14.2497 13.3257 14.3458L14.8641 15.8843C15.1103 16.1305 15.4641 16.1305 15.7103 15.8843L16.018 15.5766C16.2641 15.3305 16.2641 14.9575 16.018 14.7114L14.4795 13.1729C14.3893 13.0785 14.2697 13.0176 14.1403 13.0001C14.0109 12.9827 13.8795 13.0098 13.7675 13.0769L13.5946 12.8843C14.0703 12.3009 14.3638 11.5674 14.3638 10.7692C14.3638 8.92308 12.8253 7.38461 10.9792 7.38461ZM10.9792 8.30769C12.333 8.30769 13.4407 9.41538 13.4407 10.7692C13.4407 12.1231 12.333 13.2308 10.9792 13.2308C9.62535 13.2308 8.51765 12.1231 8.51765 10.7692C8.51765 9.41538 9.62535 8.30769 10.9792 8.30769Z" fill="#111111"/>
</g>
<defs>
<clipPath id="clip0_39_5055">
<rect width="16" height="16" fill="white" transform="translate(0.209961)"/>
</clipPath>
</defs>
</svg>
